<svg width="20" height="20" viewBox="0 0 20 20" fill="none" xmlns="http://www.w3.org/2000/svg">
<path fill-rule="evenodd" clip-rule="evenodd" d="M19.8591 7.23471L12.7652 0.14081C12.6751 0.0506556 12.5527 0 12.4252 0C12.2977 0 12.1754 0.0506556 12.0852 0.14081C11.7066 0.519316 11.4961 1.02113 11.4926 1.55372C11.4899 1.95133 11.6029 2.33048 11.8154 2.65352L5.97474 7.21574C5.80623 7.11891 5.57623 7.04254 5.2698 7.04254C4.33337 7.04254 3.03569 7.75871 1.88292 8.91148C1.69511 9.09929 1.69511 9.40374 1.88292 9.59155L5.1974 12.906L1.6576 16.4457C1.62592 16.4774 1.59886 16.5133 1.57706 16.5524L0.0604079 19.2858C-0.0437247 19.4735 -0.0108947 19.7074 0.14088 19.8592C0.233407 19.9517 0.356519 20 0.481106 20C0.560809 20 0.641088 19.9802 0.714315 19.9396L3.44741 18.4229C3.48646 18.4011 3.52243 18.3741 3.55411 18.3425L7.09391 14.8026L10.4083 18.117C10.5022 18.2109 10.6253 18.2578 10.7484 18.2578C10.8714 18.2578 10.9945 18.2109 11.0885 18.117C12.4271 16.7784 13.3692 15.0148 12.785 14.0242L17.3465 8.18454C17.6659 8.39447 18.0402 8.50739 18.4328 8.50745H18.433C18.9705 8.50745 19.4771 8.29701 19.8592 7.91491C20.0469 7.72704 20.0469 7.42259 19.8591 7.23471ZM2.92162 17.6146L1.71672 18.2833L2.38537 17.0783L5.8776 13.5863L6.41372 14.1225L2.92162 17.6146ZM2.91277 9.26126L10.7387 17.0872C11.8587 15.831 12.1586 14.7038 11.9243 14.4694L5.53058 8.07566C5.46864 8.01372 5.34065 8.00442 5.26986 8.00442C4.78844 8.00442 3.87837 8.40037 2.91277 9.26126ZM12.1235 13.3085L6.69149 7.87644L12.4679 3.3643L16.6356 7.53204L12.1235 13.3085ZM18.4328 7.54564H18.4329C18.5449 7.54564 18.6544 7.52801 18.7583 7.49415L12.5059 1.2417C12.4727 1.34346 12.4551 1.45067 12.4544 1.56019C12.4526 1.83591 12.5578 2.09394 12.7508 2.28688L17.7131 7.24927C17.9042 7.44035 18.1598 7.54564 18.4328 7.54564Z" fill="#0079C7"/>
</svg>
