<?xml version="1.0" encoding="utf-8"?>
<!-- Generator: Adobe Illustrator 21.1.0, SVG Export Plug-In . SVG Version: 6.00 Build 0)  -->
<svg version="1.1" id="Capa_1" xmlns="http://www.w3.org/2000/svg" xmlns:xlink="http://www.w3.org/1999/xlink" x="0px" y="0px"
	 viewBox="0 0 19 19" style="enable-background:new 0 0 19 19;" xml:space="preserve">
<style type="text/css">
	.st0{fill:#FFFFFF;}
	.st1{fill:#007A3D;}
</style>
<ellipse class="st0" cx="9.5" cy="9.6" rx="9.5" ry="9.2"/>
<title>Clip 736</title>
<desc>Created with Sketch.</desc>
<g id="LICENCIAS-_x3E_-CARO-2">
	<g id="_x30_01_x5F_licencias_x5F_dkt" transform="translate(-75.000000, -442.000000)">
		<path id="Clip-736" class="st1" d="M88.1,447.1l0.8,0.6c0,0,0,0,0,0c0,0,0,0,0,0c0,0,0,0,0,0.1c0,0,0,0,0,0.1l-5.3,7.3
			c0,0,0,0,0,0l-0.1,0h0c0,0,0,0-0.1,0c0,0,0,0,0,0l-2.9-3c0,0,0,0,0-0.1c0,0,0,0,0-0.1c0,0,0,0,0-0.1c0,0,0,0,0,0l0.7-0.8
			c0,0,0.1,0,0.1,0s0.1,0,0.1,0l2,2l4.5-6.2c0,0,0.1-0.1,0.1-0.1C88,447.1,88.1,447.1,88.1,447.1z M84.5,459.7
			c4.5,0,8.2-3.7,8.2-8.2s-3.7-8.2-8.2-8.2c-4.5,0-8.2,3.7-8.2,8.2S80,459.7,84.5,459.7z M84.5,442c5.2,0,9.5,4.3,9.5,9.5
			s-4.3,9.5-9.5,9.5c-5.2,0-9.5-4.3-9.5-9.5S79.3,442,84.5,442z"/>
	</g>
</g>
</svg>
