<?xml version="1.0" encoding="UTF-8"?>
<svg width="21px" height="20px" viewBox="0 0 21 20" version="1.1" xmlns="http://www.w3.org/2000/svg" xmlns:xlink="http://www.w3.org/1999/xlink">
    <!-- Generator: Sketch 49.1 (51147) - http://www.bohemiancoding.com/sketch -->
    <title>abandom</title>
    <desc>Created with Sketch.</desc>
    <defs></defs>
    <g id="LICENCIAS-&gt;-CARO-2" stroke="none" stroke-width="1" fill="none" fill-rule="evenodd">
        <g id="003_licencias_dkt-bene" transform="translate(-505.000000, -837.000000)" fill="#E2E2E3" fill-rule="nonzero">
            <g id="abandom" transform="translate(505.000000, 837.000000)">
                <path d="M8.37908944,16.7033328 L14.6950827,10.3678068 C14.8963843,10.1665599 14.8963843,9.83844 14.6950827,9.6371932 L8.37908944,3.29729223 C7.93772635,2.85417415 7.93772635,2.13731035 8.38096492,1.69356729 L9.7425638,0.33233856 C10.1858024,-0.11077952 10.9047366,-0.11077952 11.3486003,0.33233856 L20.2158723,9.1972 C20.6591108,9.6403181 20.6591108,10.3590569 20.2158723,10.8028 L11.3486003,19.6676614 C10.9053617,20.1107795 10.1864275,20.1107795 9.7425638,19.6676614 L8.38096492,18.3064327 C7.93772635,17.8633146 7.93772635,17.1464508 8.37908944,16.7027078 L8.37908944,16.7033328 Z M8,12 C6.8954305,12 6,11.1045695 6,10 C6,8.8954305 6.8954305,8 8,8 C9.1045695,8 10,8.8954305 10,10 C10,11.1045695 9.1045695,12 8,12 Z M2,12 C0.8954305,12 0,11.1045695 0,10 C0,8.8954305 0.8954305,8 2,8 C3.1045695,8 4,8.8954305 4,10 C4,11.1045695 3.1045695,12 2,12 Z" id="path-1"></path>
            </g>
        </g>
    </g>
</svg>