<?xml version="1.0" encoding="UTF-8" standalone="no"?>
<svg width="100px" height="100px" viewBox="0 0 100 100" version="1.1" xmlns="http://www.w3.org/2000/svg" xmlns:xlink="http://www.w3.org/1999/xlink">
    <!-- Generator: Sketch 46.2 (44496) - http://www.bohemiancoding.com/sketch -->
    <title>Group 5</title>
    <desc>Created with Sketch.</desc>
    <defs></defs>
    <g id="Reembolso_RCD_Mbl" stroke="none" stroke-width="1" fill="none" fill-rule="evenodd">
        <g id="004_R_B" transform="translate(-110.000000, -77.000000)">
            <g id="Group-5" transform="translate(110.000000, 77.000000)">
                <g id="Group-15" fill="#0079C8" opacity="0.2">
                    <circle id="Oval" cx="50" cy="50" r="50"></circle>
                </g>
                <g id="boleta" transform="translate(27.368421, 17.894737)">
                    <polygon id="Path-2" fill="#FFFFFF" fill-rule="evenodd" points="1.39373145 2.19010417 1.39373145 59.721875 5.43304896 56.8703125 9.90842915 60.5885417 13.9461818 56.8703125 18.1221601 60.5885417 22.4608795 56.8703125 26.8846207 60.5885417 31.0882442 56.8703125 35.0915708 60.5885417 39.8115843 56.8703125 43.6860743 60.5885417 43.6860743 1.18541667 39.8115843 5.1015625 35.0915708 1.18541667 30.5228232 5.1015625 26.8846207 1.18541667 22.5399029 5.1015625 18.1221601 1.18541667 13.9461818 5.1015625 9.31797107 1.18541667 5.43304896 5.1015625"></polygon>
                    <ellipse id="Oval-3" fill="#B6D8EF" fill-rule="evenodd" cx="22.4332344" cy="39.3333333" rx="13.2195846" ry="13.2"></ellipse>
                    <path d="M1.82029674,61.5509333 L5.34551929,58.0309333 L8.87074184,61.5509333 C9.29804154,61.9776 9.9389911,61.9776 10.3662908,61.5509333 L13.8915134,58.0309333 L17.4167359,61.5509333 C17.8440356,61.9776 18.4849852,61.9776 18.9122849,61.5509333 L22.4375074,58.0309333 L25.96273,61.5509333 C26.3900297,61.9776 27.0309792,61.9776 27.4582789,61.5509333 L30.9835015,58.0309333 L34.508724,61.5509333 C34.9360237,61.9776 35.5769733,61.9776 36.004273,61.5509333 L39.5294955,58.0309333 L43.0547181,61.5509333 C43.268368,61.7642667 43.4820178,61.8709333 43.8024926,61.8709333 C43.9093175,61.8709333 44.1229674,61.8709333 44.2297923,61.7642667 C44.657092,61.5509333 44.8707418,61.2309333 44.8707418,60.8042667 L44.8707418,1.07093333 C44.8707418,0.644266667 44.657092,0.2176 44.2297923,0.110933333 C43.8024926,-0.1024 43.3751929,0.00426666667 43.0547181,0.324266667 L39.5294955,3.84426667 L36.004273,0.324266667 C35.5769733,-0.1024 34.9360237,-0.1024 34.508724,0.324266667 L30.9835015,3.84426667 L27.4582789,0.324266667 C27.0309792,-0.1024 26.3900297,-0.1024 25.96273,0.324266667 L22.4375074,3.84426667 L18.9122849,0.324266667 C18.4849852,-0.1024 17.8440356,-0.1024 17.4167359,0.324266667 L13.8915134,3.84426667 L10.3662908,0.324266667 C9.9389911,-0.1024 9.29804154,-0.1024 8.87074184,0.324266667 L5.34551929,3.84426667 L1.82029674,0.324266667 C1.49982196,0.00426666667 1.07252226,-0.1024 0.645222552,0.110933333 C0.217922849,0.2176 0.00427299703,0.644266667 0.00427299703,1.07093333 L0.00427299703,60.8042667 C0.00427299703,61.2309333 0.217922849,61.6576 0.645222552,61.7642667 C1.07252226,61.9776 1.49982196,61.8709333 1.82029674,61.5509333 Z M2.14077151,3.63093333 L4.59774481,6.08426667 C5.02504451,6.51093333 5.66599407,6.51093333 6.09329377,6.08426667 L9.61851632,2.56426667 L13.1437389,6.08426667 C13.5710386,6.51093333 14.2119881,6.51093333 14.6392878,6.08426667 L18.1645104,2.56426667 L21.6897329,6.08426667 C22.1170326,6.51093333 22.7579822,6.51093333 23.1852819,6.08426667 L26.7105045,2.56426667 L30.235727,6.08426667 C30.6630267,6.51093333 31.3039763,6.51093333 31.731276,6.08426667 L35.2564985,2.56426667 L38.7817211,6.08426667 C39.2090208,6.51093333 39.8499703,6.51093333 40.27727,6.08426667 L42.7342433,3.63093333 L42.7342433,58.2442667 L40.27727,55.7909333 C39.8499703,55.3642667 39.2090208,55.3642667 38.7817211,55.7909333 L35.2564985,59.3109333 L31.731276,55.7909333 C31.5176261,55.5776 31.3039763,55.4709333 30.9835015,55.4709333 C30.6630267,55.4709333 30.4493769,55.5776 30.235727,55.7909333 L26.7105045,59.3109333 L23.1852819,55.7909333 C22.7579822,55.3642667 22.1170326,55.3642667 21.6897329,55.7909333 L18.1645104,59.3109333 L14.6392878,55.7909333 C14.2119881,55.3642667 13.5710386,55.3642667 13.1437389,55.7909333 L9.61851632,59.3109333 L6.09329377,55.7909333 C5.66599407,55.3642667 5.02504451,55.3642667 4.59774481,55.7909333 L2.14077151,58.2442667 L2.14077151,3.63093333 L2.14077151,3.63093333 Z" id="Shape" fill="#0483D0" fill-rule="nonzero"></path>
                    <path d="M22.4375074,53.3376 C30.1289021,53.3376 36.3247478,47.1509333 36.3247478,39.4709333 C36.3247478,31.7909333 30.1289021,25.6042667 22.4375074,25.6042667 C14.7461128,25.6042667 8.55026706,31.7909333 8.55026706,39.4709333 C8.55026706,47.1509333 14.7461128,53.3376 22.4375074,53.3376 Z M22.4375074,27.7376 C28.9538279,27.7376 34.1882493,32.9642667 34.1882493,39.4709333 C34.1882493,45.9776 28.9538279,51.2042667 22.4375074,51.2042667 C15.9211869,51.2042667 10.6867656,45.9776 10.6867656,39.4709333 C10.6867656,32.9642667 15.9211869,27.7376 22.4375074,27.7376 Z" id="Shape" fill="#0483D0" fill-rule="nonzero"></path>
                    <path d="M9.61851632,10.6709333 L26.7105045,10.6709333 C27.351454,10.6709333 27.7787537,10.2442667 27.7787537,9.60426667 C27.7787537,8.96426667 27.351454,8.5376 26.7105045,8.5376 L9.61851632,8.5376 C8.97756677,8.5376 8.55026706,8.96426667 8.55026706,9.60426667 C8.55026706,10.2442667 8.97756677,10.6709333 9.61851632,10.6709333 Z" id="Shape" fill="#0483D0" fill-rule="nonzero"></path>
                    <path d="M30.9835015,10.6709333 L35.2564985,10.6709333 C35.8974481,10.6709333 36.3247478,10.2442667 36.3247478,9.60426667 C36.3247478,8.96426667 35.8974481,8.5376 35.2564985,8.5376 L30.9835015,8.5376 C30.3425519,8.5376 29.9152522,8.96426667 29.9152522,9.60426667 C29.9152522,10.2442667 30.3425519,10.6709333 30.9835015,10.6709333 Z" id="Shape" fill="#0483D0" fill-rule="nonzero"></path>
                    <path d="M9.61851632,14.9376 L13.8915134,14.9376 C14.5324629,14.9376 14.9597626,14.5109333 14.9597626,13.8709333 C14.9597626,13.2309333 14.5324629,12.8042667 13.8915134,12.8042667 L9.61851632,12.8042667 C8.97756677,12.8042667 8.55026706,13.2309333 8.55026706,13.8709333 C8.55026706,14.5109333 8.97756677,14.9376 9.61851632,14.9376 Z" id="Shape" fill="#0483D0" fill-rule="nonzero"></path>
                    <path d="M35.2564985,12.8042667 L18.1645104,12.8042667 C17.5235608,12.8042667 17.0962611,13.2309333 17.0962611,13.8709333 C17.0962611,14.5109333 17.5235608,14.9376 18.1645104,14.9376 L35.2564985,14.9376 C35.8974481,14.9376 36.3247478,14.5109333 36.3247478,13.8709333 C36.3247478,13.2309333 35.8974481,12.8042667 35.2564985,12.8042667 Z" id="Shape" fill="#0483D0" fill-rule="nonzero"></path>
                    <path d="M9.61851632,19.2042667 L22.4375074,19.2042667 C23.078457,19.2042667 23.5057567,18.7776 23.5057567,18.1376 C23.5057567,17.4976 23.078457,17.0709333 22.4375074,17.0709333 L9.61851632,17.0709333 C8.97756677,17.0709333 8.55026706,17.4976 8.55026706,18.1376 C8.55026706,18.7776 8.97756677,19.2042667 9.61851632,19.2042667 Z" id="Shape" fill="#0483D0" fill-rule="nonzero"></path>
                    <path d="M35.2564985,17.0709333 L26.7105045,17.0709333 C26.0695549,17.0709333 25.6422552,17.4976 25.6422552,18.1376 C25.6422552,18.7776 26.0695549,19.2042667 26.7105045,19.2042667 L35.2564985,19.2042667 C35.8974481,19.2042667 36.3247478,18.7776 36.3247478,18.1376 C36.3247478,17.4976 35.8974481,17.0709333 35.2564985,17.0709333 Z" id="Shape" fill="#0483D0" fill-rule="nonzero"></path>
                    <path d="M24.5740059,42.6709333 L18.1645104,42.6709333 C17.5235608,42.6709333 17.0962611,43.0976 17.0962611,43.7376 C17.0962611,44.3776 17.5235608,44.8042667 18.1645104,44.8042667 L21.3692582,44.8042667 L21.3692582,48.0042667 C21.3692582,48.6442667 21.7965579,49.0709333 22.4375074,49.0709333 C23.078457,49.0709333 23.5057567,48.6442667 23.5057567,48.0042667 L23.5057567,44.8042667 L24.5740059,44.8042667 C26.3900297,44.8042667 27.7787537,43.4176 27.7787537,41.6042667 C27.7787537,39.7909333 26.3900297,38.4042667 24.5740059,38.4042667 L20.3010089,38.4042667 C19.6600593,38.4042667 19.2327596,37.9776 19.2327596,37.3376 C19.2327596,36.6976 19.6600593,36.2709333 20.3010089,36.2709333 L26.7105045,36.2709333 C27.351454,36.2709333 27.7787537,35.8442667 27.7787537,35.2042667 C27.7787537,34.5642667 27.351454,34.1376 26.7105045,34.1376 L23.5057567,34.1376 L23.5057567,30.9376 C23.5057567,30.2976 23.078457,29.8709333 22.4375074,29.8709333 C21.7965579,29.8709333 21.3692582,30.2976 21.3692582,30.9376 L21.3692582,34.1376 L20.3010089,34.1376 C18.4849852,34.1376 17.0962611,35.5242667 17.0962611,37.3376 C17.0962611,39.1509333 18.4849852,40.5376 20.3010089,40.5376 L24.5740059,40.5376 C25.2149555,40.5376 25.6422552,40.9642667 25.6422552,41.6042667 C25.6422552,42.2442667 25.2149555,42.6709333 24.5740059,42.6709333 Z" id="Shape" fill="#0483D0" fill-rule="nonzero"></path>
                    <path d="M9.61851632,23.4709333 L35.2564985,23.4709333 C35.8974481,23.4709333 36.3247478,23.0442667 36.3247478,22.4042667 C36.3247478,21.7642667 35.8974481,21.3376 35.2564985,21.3376 L9.61851632,21.3376 C8.97756677,21.3376 8.55026706,21.7642667 8.55026706,22.4042667 C8.55026706,23.0442667 8.97756677,23.4709333 9.61851632,23.4709333 Z" id="Shape" fill="#0483D0" fill-rule="nonzero"></path>
                </g>
            </g>
        </g>
    </g>
</svg>