<?xml version="1.0" encoding="UTF-8"?>
<svg width="32px" height="34px" viewBox="0 0 32 34" version="1.1" xmlns="http://www.w3.org/2000/svg" xmlns:xlink="http://www.w3.org/1999/xlink">
    <!-- Generator: Sketch 49.1 (51147) - http://www.bohemiancoding.com/sketch -->
    <title>Group 4</title>
    <desc>Created with Sketch.</desc>
    <defs>
        <polygon id="path-1" points="0 0 30.9894737 0 30.9894737 33.8640014 0 33.8640014"></polygon>
    </defs>
    <g id="LICENCIAS-&gt;-CARO-2" stroke="none" stroke-width="1" fill="none" fill-rule="evenodd">
        <g id="006_licencias_dkt" transform="translate(-352.000000, -805.000000)">
            <g id="Group-9" transform="translate(352.000000, 800.000000)">
                <g id="Group-4" transform="translate(0.000000, 5.000000)">
                    <g id="Page-1">
                        <g id="Group-3" transform="translate(0.727273, 0.000000)">
                            <mask id="mask-2" fill="white">
                                <use xlink:href="#path-1"></use>
                            </mask>
                            <g id="Clip-2"></g>
                            <path d="M18.5591579,11.5474013 C17.6850526,12.4211013 16.4252632,12.9900222 15.1772632,12.9900222 C13.1461053,12.9900222 11.4669474,11.7573602 10.8656842,9.97778914 L9.50652632,9.97778914 L9.50652632,9.1768975 L10.6770526,9.1768975 C10.6450526,8.9584725 10.6315789,8.75020681 10.6315789,8.51823608 C10.6315789,8.29303822 10.6433684,8.07292001 10.6770526,7.85449502 L9.50652632,7.85449502 L9.50652632,7.05360338 L10.8808421,7.05360338 C11.4922105,5.30789665 13.1764211,4.10063293 15.2395789,4.10063293 C16.4808421,4.10063293 17.7136842,4.61706411 18.5490526,5.45689975 L17.6968421,6.54055863 C17.0501053,5.84972609 16.1473684,5.42303541 15.2530526,5.42303541 C14.0522105,5.42303541 13.0164211,6.07492395 12.4892632,7.05698981 L15.6286316,7.05698981 L15.6286316,7.85788145 L12.1945263,7.85788145 C12.1557895,8.07630645 12.1355789,8.28457214 12.1355789,8.51484965 C12.1355789,8.74174073 12.1557895,8.96185894 12.2113684,9.18028393 L15.632,9.18028393 L15.632,9.98117557 L12.4943158,9.98117557 C13.0214737,10.9632414 14.0572632,11.61513 15.2581053,11.61513 C16.1322105,11.61513 17.0315789,11.2138375 17.7018947,10.5721083 L18.5608421,11.5490945 L18.5591579,11.5474013 Z M21.4273684,8.62152232 C21.4273684,12.5176146 18.5288421,15.4350275 14.6770526,15.4350275 C10.8151579,15.4350275 7.92168421,12.5142282 7.92168421,8.62152232 C7.92168421,4.72881644 10.8185263,1.80971033 14.6770526,1.80971033 C18.5322105,1.80971033 21.4273684,4.72881644 21.4273684,8.62152232 Z M23.2210526,8.62152232 C23.2210526,4.17344126 19.3625263,-0.0003386434 14.6770526,-0.0003386434 C9.85684211,-0.0003386434 6.128,4.17344126 6.128,8.62152232 C6.128,13.0696034 9.85684211,17.2433833 14.6770526,17.2433833 C19.0846316,17.2433833 23.2210526,13.3506774 23.2210526,8.62152232 Z M20.9052632,22.133394 C20.7435789,21.8489335 20.5128421,21.6322017 20.2164211,21.4696529 C19.7987368,21.2867855 19.2682105,21.1784196 18.6298947,21.1394756 C17.9882105,21.0988384 17.3229474,21.1123841 16.624,21.1716467 C15.4854737,21.2867855 14.5608421,21.2173636 13.84,20.9532217 C13.1208421,20.6958527 12.4387368,20.4181652 11.8071579,20.1133861 C11.3237895,19.8560171 10.8168421,19.6274328 10.2778947,19.4360993 C9.73894737,19.2413793 9.10063158,19.1702642 8.35621053,19.2109014 C7.17894737,19.2498454 6.08084211,19.5089076 5.06357895,19.9914745 C4.048,20.4706549 3.08968421,21.0700537 2.19536842,21.7676591 L2.19536842,30.0085462 L16.5381053,30.0085462 C17.2589474,30.0085462 17.9915789,29.9323515 18.7545263,29.7850416 C19.5174737,29.6360385 20.2652632,29.4176135 20.9978947,29.1399259 C21.7389474,28.8554655 22.4463158,28.532061 23.1267368,28.1578601 C23.8071579,27.790432 24.4134737,27.3705142 24.9524211,26.9116524 C25.6715789,26.3088671 26.3469474,25.6518989 26.9717895,24.9407478 C27.6067368,24.2295966 28.1861053,23.4845811 28.7216842,22.6972352 C28.9456842,22.3602851 28.9793684,22.0538128 28.8311579,21.7828981 C28.6829474,21.5136766 28.4134737,21.337582 28.0345263,21.2546144 C27.5141053,21.1327027 27.0576842,21.2613872 26.6602105,21.6474407 C26.256,22.0284145 25.8703158,22.3806037 25.488,22.6972352 C25.0703158,23.01556 24.6458947,23.3186459 24.2147368,23.5980267 C23.7903158,23.8824871 23.3355789,24.1534019 22.8538947,24.4107708 C22.3772632,25.6383532 21.5806316,26.3122535 20.4757895,26.440938 C19.3642105,26.5713157 18.2981053,26.6102597 17.2825263,26.5509971 C16.5044211,26.5103599 15.7515789,26.5103599 15.0256842,26.5509971 C14.2913684,26.5899411 13.5722105,26.7592628 12.8463158,27.0606554 C12.2063158,27.3247973 11.7549474,27.1266909 11.4854737,26.4781888 C11.216,25.8195274 11.3978947,25.3674384 12.0378947,25.1016034 C12.9389474,24.7223228 13.8181053,24.5005113 14.672,24.4243166 C15.5343158,24.3565879 16.4522105,24.3464286 17.4290526,24.4107708 C18.1094737,24.4107708 18.8370526,24.3785997 19.6067368,24.3091778 C20.3730526,24.2329831 20.8277895,23.9011125 20.9692632,23.3000205 C21.0888421,22.8072943 21.0686316,22.4127748 20.9086316,22.1350872 L20.9052632,22.133394 Z M2.096,32.0556456 L2.096,33.8640014 L-0.000842105263,33.8640014 L-0.000842105263,19.2142879 L2.032,19.2142879 C2.93305263,18.6115026 3.87789474,18.11539 4.88,17.7225637 C5.87873684,17.3297373 6.98357895,17.0943802 8.20294737,17.0181854 C9.23873684,16.9775482 10.1044211,17.077448 10.7747368,17.3297373 C11.4568421,17.5803335 12.0951579,17.8580211 12.6964211,18.1560272 C13.1966316,18.4201691 13.7136842,18.6521398 14.2526316,18.8536326 C14.7915789,19.0466594 15.4804211,19.1042288 16.3225263,19.0026357 C17.2168421,18.9196681 18.0825263,18.8993495 18.9077895,18.9433731 C19.7364211,18.9823171 20.4505263,19.1516388 21.0484211,19.4513382 C21.5250526,19.6765361 21.9292632,19.9609966 22.2610526,20.3114925 C22.5945263,20.6636816 22.8084211,21.0988384 22.9111579,21.618656 C23.1115789,21.5153698 23.3018947,21.400231 23.4770526,21.2580008 L23.9907368,20.8634812 C24.6711579,20.3013332 25.2892632,19.7933681 25.8618947,19.3328131 C26.4277895,18.8739513 27.2564211,18.7554261 28.336,19.0009425 C28.8749474,19.1025355 29.3515789,19.2989487 29.7692632,19.6020346 C30.1886316,19.9000408 30.5170526,20.29964 30.7612632,20.799139 C30.9364211,21.2190568 31.0122105,21.6863847 30.9835789,22.1909634 C30.9566316,22.6938488 30.768,23.1781089 30.4311579,23.6572893 C29.8736842,24.5563875 29.2421053,25.3962231 28.5313684,26.1700233 C27.8172632,26.940437 27.0543158,27.6685203 26.2357895,28.3491936 C25.6008421,28.8927162 24.8867368,29.3854424 24.1002105,29.8409178 C23.3035789,30.2946999 22.48,30.6739805 21.6261053,30.9855325 C20.7654737,31.2970844 19.8964211,31.5341348 19.0172632,31.7017632 C18.1431579,31.8778578 17.2943158,31.9608254 16.4707368,31.9608254 L2.09768421,31.9608254 L2.09768421,32.0522592 L2.096,32.0556456 Z" id="Fill-1" fill="#FFFFFF" mask="url(#mask-2)"></path>
                        </g>
                        <g id="Group-6" fill="#0079C7" opacity="0.5">
                            <path d="M22.1546411,8.62152232 C22.1546411,12.5176146 19.2561148,15.4350275 15.4043254,15.4350275 C11.5424306,15.4350275 8.64895694,12.5142282 8.64895694,8.62152232 C8.64895694,4.72881644 11.545799,1.80971033 15.4043254,1.80971033 C19.2594833,1.80971033 22.1546411,4.72881644 22.1546411,8.62152232 Z M23.9483254,8.62152232 C23.9483254,4.17344126 20.089799,-0.0003386434 15.4043254,-0.0003386434 C10.5841148,-0.0003386434 6.85527273,4.17344126 6.85527273,8.62152232 C6.85527273,13.0696034 10.5841148,17.2433833 15.4043254,17.2433833 C19.8119043,17.2433833 23.9483254,13.3506774 23.9483254,8.62152232 Z M21.6325359,22.133394 C21.4708517,21.8489335 21.2401148,21.6322017 20.9436938,21.4696529 C20.5260096,21.2867855 19.9954833,21.1784196 19.3571675,21.1394756 C18.7154833,21.0988384 18.0502201,21.1123841 17.3512727,21.1716467 C16.2127464,21.2867855 15.2881148,21.2173636 14.5672727,20.9532217 C13.8481148,20.6958527 13.1660096,20.4181652 12.5344306,20.1133861 C12.0510622,19.8560171 11.5441148,19.6274328 11.0051675,19.4360993 C10.4662201,19.2413793 9.82790431,19.1702642 9.08348325,19.2109014 C7.9062201,19.2498454 6.80811483,19.5089076 5.79085167,19.9914745 C4.77527273,20.4706549 3.81695694,21.0700537 2.92264115,21.7676591 L2.92264115,30.0085462 L17.265378,30.0085462 C17.9862201,30.0085462 18.7188517,29.9323515 19.481799,29.7850416 C20.2447464,29.6360385 20.9925359,29.4176135 21.7251675,29.1399259 C22.4662201,28.8554655 23.1735885,28.532061 23.8540096,28.1578601 C24.5344306,27.790432 25.1407464,27.3705142 25.6796938,26.9116524 C26.3988517,26.3088671 27.0742201,25.6518989 27.6990622,24.9407478 C28.3340096,24.2295966 28.913378,23.4845811 29.4489569,22.6972352 C29.6729569,22.3602851 29.7066411,22.0538128 29.5584306,21.7828981 C29.4102201,21.5136766 29.1407464,21.337582 28.761799,21.2546144 C28.241378,21.1327027 27.7849569,21.2613872 27.3874833,21.6474407 C26.9832727,22.0284145 26.5975885,22.3806037 26.2152727,22.6972352 C25.7975885,23.01556 25.3731675,23.3186459 24.9420096,23.5980267 C24.5175885,23.8824871 24.0628517,24.1534019 23.5811675,24.4107708 C23.1045359,25.6383532 22.3079043,26.3122535 21.2030622,26.440938 C20.0914833,26.5713157 19.025378,26.6102597 18.009799,26.5509971 C17.2316938,26.5103599 16.4788517,26.5103599 15.7529569,26.5509971 C15.0186411,26.5899411 14.2994833,26.7592628 13.5735885,27.0606554 C12.9335885,27.3247973 12.4822201,27.1266909 12.2127464,26.4781888 C11.9432727,25.8195274 12.1251675,25.3674384 12.7651675,25.1016034 C13.6662201,24.7223228 14.545378,24.5005113 15.3992727,24.4243166 C16.2615885,24.3565879 17.1794833,24.3464286 18.1563254,24.4107708 C18.8367464,24.4107708 19.5643254,24.3785997 20.3340096,24.3091778 C21.1003254,24.2329831 21.5550622,23.9011125 21.6965359,23.3000205 C21.8161148,22.8072943 21.7959043,22.4127748 21.6359043,22.1350872 L21.6325359,22.133394 Z M2.82327273,32.0556456 L2.82327273,33.8640014 L0.726430622,33.8640014 L0.726430622,19.2142879 L2.75927273,19.2142879 C3.66032536,18.6115026 4.60516746,18.11539 5.60727273,17.7225637 C6.60600957,17.3297373 7.71085167,17.0943802 8.9302201,17.0181854 C9.96600957,16.9775482 10.8316938,17.077448 11.5020096,17.3297373 C12.1841148,17.5803335 12.8224306,17.8580211 13.4236938,18.1560272 C13.9239043,18.4201691 14.4409569,18.6521398 14.9799043,18.8536326 C15.5188517,19.0466594 16.2076938,19.1042288 17.049799,19.0026357 C17.9441148,18.9196681 18.809799,18.8993495 19.6350622,18.9433731 C20.4636938,18.9823171 21.177799,19.1516388 21.7756938,19.4513382 C22.2523254,19.6765361 22.6565359,19.9609966 22.9883254,20.3114925 C23.321799,20.6636816 23.5356938,21.0988384 23.6384306,21.618656 C23.8388517,21.5153698 24.0291675,21.400231 24.2043254,21.2580008 L24.7180096,20.8634812 C25.3984306,20.3013332 26.0165359,19.7933681 26.5891675,19.3328131 C27.1550622,18.8739513 27.9836938,18.7554261 29.0632727,19.0009425 C29.6022201,19.1025355 30.0788517,19.2989487 30.4965359,19.6020346 C30.9159043,19.9000408 31.2443254,20.29964 31.4885359,20.799139 C31.6636938,21.2190568 31.7394833,21.6863847 31.7108517,22.1909634 C31.6839043,22.6938488 31.4952727,23.1781089 31.1584306,23.6572893 C30.6009569,24.5563875 29.969378,25.3962231 29.2586411,26.1700233 C28.5445359,26.940437 27.7815885,27.6685203 26.9630622,28.3491936 C26.3281148,28.8927162 25.6140096,29.3854424 24.8274833,29.8409178 C24.0308517,30.2946999 23.2072727,30.6739805 22.353378,30.9855325 C21.4927464,31.2970844 20.6236938,31.5341348 19.7445359,31.7017632 C18.8704306,31.8778578 18.0215885,31.9608254 17.1980096,31.9608254 L2.82495694,31.9608254 L2.82495694,32.0522592 L2.82327273,32.0556456 Z" id="Fill-4"></path>
                        </g>
                    </g>
                    <path d="M17.8859091,10.02 C17.8859091,11.04 17.1359091,11.92 15.5659091,12.08 L15.5659091,13.2 L14.7459091,13.2 L14.7459091,12.09 C13.7659091,12.03 12.8159091,11.71 12.2959091,11.26 L12.7459091,10.25 C13.2359091,10.65 13.9859091,10.94 14.7459091,11.01 L14.7459091,9.01 C13.6359091,8.74 12.4459091,8.38 12.4459091,6.99 C12.4459091,5.97 13.1859091,5.08 14.7459091,4.93 L14.7459091,3.8 L15.5659091,3.8 L15.5659091,4.91 C16.3059091,4.95 17.0559091,5.17 17.5959091,5.52 L17.1859091,6.53 C16.6559091,6.22 16.0959091,6.05 15.5659091,5.99 L15.5659091,8.01 C16.6759091,8.28 17.8859091,8.63 17.8859091,10.02 Z M13.7359091,6.93 C13.7359091,7.41 14.1659091,7.63 14.7459091,7.8 L14.7459091,6.02 C14.0359091,6.13 13.7359091,6.49 13.7359091,6.93 Z M15.5659091,10.99 C16.2959091,10.88 16.6059091,10.54 16.6059091,10.11 C16.6059091,9.62 16.1659091,9.39 15.5659091,9.22 L15.5659091,10.99 Z" id="$" fill="#0079C7" opacity="0.5"></path>
                </g>
            </g>
        </g>
    </g>
</svg>