<?xml version="1.0" encoding="UTF-8"?>
<svg width="19px" height="19px" viewBox="0 0 19 19" version="1.1" xmlns="http://www.w3.org/2000/svg" xmlns:xlink="http://www.w3.org/1999/xlink">
    <!-- Generator: Sketch 49.1 (51147) - http://www.bohemiancoding.com/sketch -->
    <title>Group 5</title>
    <desc>Created with Sketch.</desc>
    <defs>
        <circle id="path-1" cx="9.5" cy="9.5" r="9.5"></circle>
    </defs>
    <g id="LICENCIAS-&gt;-CARO-1" stroke="none" stroke-width="1" fill="none" fill-rule="evenodd">
        <g id="LI-licencias-008" transform="translate(-15.000000, -574.000000)">
            <g id="Group-5" transform="translate(15.000000, 574.000000)">
                <g id="Oval-8">
                    <use fill="#FFFFFF" fill-rule="evenodd" xlink:href="#path-1"></use>
                    <circle stroke="#007033" stroke-width="1.5" cx="9.5" cy="9.5" r="8.75"></circle>
                </g>
                <path d="M11.8646185,12.2972112 C11.4650288,12.6868111 10.8889624,12.9282262 10.136402,13.0214638 L10.136402,14.1403091 L9.13743294,14.1403091 L9.13743294,13.0514328 C8.64460575,13.0247935 8.17509499,12.9382171 7.72888658,12.7917009 C7.28267817,12.6451847 6.92305291,12.4653721 6.65,12.2522576 L7.19943298,11.0335153 C7.4525064,11.2199905 7.74886426,11.3764941 8.08851544,11.5030308 C8.42816661,11.6295675 8.77780229,11.7094842 9.13743294,11.7427834 L9.13743294,10.0745051 C8.66458523,9.961288 8.2650016,9.83475318 7.93867008,9.69489681 C7.61233856,9.55504045 7.33928975,9.35025384 7.11951546,9.08053085 C6.89974116,8.81080785 6.78985567,8.45284752 6.78985567,8.00663911 C6.78985567,7.45387347 6.99131241,6.97936792 7.39423194,6.58310821 C7.79715148,6.18684851 8.37821267,5.9454334 9.13743294,5.85885565 L9.13743294,4.75 L10.136402,4.75 L10.136402,5.83887627 C10.9555607,5.90547454 11.631523,6.10859621 12.1643092,6.44824739 L11.6648246,7.67697933 C11.1653376,7.39060677 10.6558685,7.21745386 10.136402,7.15751542 L10.136402,8.85576281 C10.6025899,8.96232004 10.9971787,9.08386006 11.3201803,9.22038651 C11.6431819,9.35691297 11.9145658,9.56003464 12.1343401,9.82975764 C12.3541144,10.0994806 12.4639999,10.4541111 12.4639999,10.8936597 C12.4639999,11.4397655 12.2642081,11.9076113 11.8646185,12.2972112 Z M8.58799996,8.3362989 C8.71453668,8.44285613 8.89767917,8.53276245 9.13743294,8.60602055 L9.13743294,7.18748449 C8.88435952,7.24742293 8.69788716,7.34232404 8.57801027,7.47219067 C8.45813339,7.6020573 8.39819584,7.75356609 8.39819584,7.92672159 C8.39819584,8.09321726 8.46146325,8.22974167 8.58799996,8.3362989 Z M10.6758453,11.4430927 C10.7957222,11.3232158 10.8556597,11.1800316 10.8556597,11.013536 C10.8556597,10.8470403 10.7940572,10.7105159 10.6708504,10.6039587 C10.5476436,10.4974014 10.3694959,10.4041652 10.136402,10.3242473 L10.136402,11.7028246 C10.3761558,11.649546 10.5559684,11.5629695 10.6758453,11.4430927 Z" id="$" fill="#00662A"></path>
            </g>
        </g>
    </g>
</svg>