<?xml version="1.0" encoding="UTF-8"?>
<svg width="13px" height="16px" viewBox="0 0 13 16" version="1.1" xmlns="http://www.w3.org/2000/svg" xmlns:xlink="http://www.w3.org/1999/xlink">
    <!-- Generator: Sketch 49.1 (51147) - http://www.bohemiancoding.com/sketch -->
    <title>Page 1</title>
    <desc>Created with Sketch.</desc>
    <defs>
        <polygon id="path-1" points="12.3834092 3.49805655e-15 0 3.49805655e-15 0 15.9999262 12.3834092 15.9999262"></polygon>
    </defs>
    <g id="01_REEM_Historico" stroke="none" stroke-width="1" fill="none" fill-rule="evenodd">
        <g id="006_RH" transform="translate(-53.000000, -655.000000)">
            <g id="Page-1" transform="translate(53.000000, 655.000000)">
                <mask id="mask-2" fill="white">
                    <use xlink:href="#path-1"></use>
                </mask>
                <g id="Clip-2"></g>
                <path d="M10.9183015,3.64374154 L8.73934769,1.46478769 L8.73934769,3.37764923 C8.73934769,3.52460308 8.85897846,3.64374154 9.00568615,3.64374154 L10.9183015,3.64374154 Z M11.5208862,14.9131569 L11.5208862,4.75709538 C11.5208862,4.61851077 11.4083938,4.50601846 11.2698092,4.50601846 L8.59510154,4.50601846 C8.19879385,4.50601846 7.87682462,4.18429538 7.87682462,3.78774154 L7.87682462,1.12484923 C7.87682462,0.979864615 7.75965538,0.862203077 7.61467077,0.862203077 L1.08691692,0.862203077 C0.948332308,0.862203077 0.83584,0.974695385 0.83584,1.11352615 L0.83584,14.9131569 C0.83584,15.0519877 0.948332308,15.16448 1.08691692,15.16448 L11.2698092,15.16448 C11.4083938,15.16448 11.5208862,15.0519877 11.5208862,14.9131569 Z M-9.84615385e-05,0.804110769 C-9.84615385e-05,0.360049231 0.360270769,-7.38461538e-05 0.804332308,-7.38461538e-05 L8.25713231,-7.38461538e-05 C8.39940923,-7.38461538e-05 8.53676308,0.0567876923 8.63768615,0.157710769 L12.2253785,3.74564923 C12.3267938,3.84657231 12.3834092,3.98368 12.3834092,4.12620308 L12.3834092,15.1959877 C12.3834092,15.6398031 12.0232862,15.9999262 11.5792246,15.9999262 L0.804332308,15.9999262 C0.360270769,15.9999262 -9.84615385e-05,15.6398031 -9.84615385e-05,15.1959877 L-9.84615385e-05,0.804110769 Z" id="Fill-1" fill="#1697F3" mask="url(#mask-2)"></path>
            </g>
        </g>
    </g>
</svg>