<svg width="14" height="23" viewBox="0 0 14 23" fill="none" xmlns="http://www.w3.org/2000/svg">
<path fill-rule="evenodd" clip-rule="evenodd" d="M4.81047 15.056H9.23859C9.3407 14.2082 9.74259 12.434 11.3048 10.4305C11.3106 10.4231 11.3155 10.4173 11.3213 10.41C12.2132 9.38235 12.704 8.06642 12.704 6.70531C12.704 3.58142 10.156 1.04074 7.02412 1.04074C3.89306 1.04074 1.34506 3.58142 1.34506 6.70531C1.34506 8.06724 1.8367 9.38399 2.73023 10.4124C2.73517 10.419 2.74176 10.4264 2.7467 10.4338C4.30729 12.4356 4.70835 14.2091 4.81047 15.056M9.71706 16.0786H4.332C4.19364 16.0786 4.06188 16.0236 3.96553 15.925C3.86835 15.8256 3.81565 15.6917 3.81976 15.5537C3.81976 15.5365 3.83129 13.4985 1.94541 11.0712C0.896233 9.85878 0.318939 8.30874 0.318939 6.70531C0.318939 3.01792 3.32729 0.0164185 7.02412 0.0164185C10.7226 0.0164185 13.7301 3.01792 13.7301 6.70531C13.7301 8.3071 13.1536 9.85631 12.1061 11.0687C10.2178 13.4969 10.2293 15.5365 10.2301 15.5562C10.2318 15.6934 10.1791 15.8273 10.0827 15.925C9.98635 16.0228 9.85459 16.0786 9.71706 16.0786" fill="#678003"/>
<path fill-rule="evenodd" clip-rule="evenodd" d="M10.2551 16.0787H3.79367C3.5112 16.0787 3.28061 15.8504 3.28061 15.5678C3.28061 15.2852 3.5112 15.0561 3.79367 15.0561H10.2551C10.5384 15.0561 10.7681 15.2852 10.7681 15.5678C10.7681 15.8504 10.5384 16.0787 10.2551 16.0787" fill="#678003"/>
<path fill-rule="evenodd" clip-rule="evenodd" d="M8.64022 21.4501H5.40869C5.2728 21.4501 5.14269 21.3958 5.04716 21.2997L3.96916 20.2261C3.87363 20.13 3.81927 19.9994 3.81927 19.8639V15.5678C3.81927 15.2852 4.04904 15.0561 4.33233 15.0561C4.61563 15.0561 4.84539 15.2852 4.84539 15.5678V19.6528L5.62198 20.4266H8.42775L9.20433 19.6528V15.5678C9.20433 15.2852 9.4341 15.0561 9.71739 15.0561C9.99986 15.0561 10.2305 15.2852 10.2305 15.5678V19.8639C10.2305 19.9994 10.1753 20.13 10.0797 20.2261L9.00257 21.2997C8.90622 21.3958 8.7761 21.4501 8.64022 21.4501" fill="#678003"/>
<path fill-rule="evenodd" clip-rule="evenodd" d="M7.02455 22.2964C5.95478 22.2964 5.66655 21.41 5.66325 20.941C5.66161 20.7833 5.78843 20.6551 5.9449 20.6543H5.94737C6.10384 20.6543 6.23067 20.7792 6.23231 20.9353C6.23478 21.0683 6.28584 21.7288 7.02455 21.7288C7.76408 21.7288 7.81431 21.0675 7.81678 20.9344C7.82008 20.7784 7.9469 20.6551 8.10502 20.6551C8.26231 20.6576 8.38749 20.7841 8.38584 20.941C8.38255 21.41 8.09431 22.2964 7.02455 22.2964" fill="#678003"/>
<path fill-rule="evenodd" clip-rule="evenodd" d="M4.87075 20.1482C4.73981 20.1482 4.62205 20.0586 4.5924 19.9256C4.55864 19.7728 4.65499 19.6208 4.80899 19.5863L9.65546 18.5127C9.80864 18.479 9.96099 18.5751 9.99558 18.7279C10.0293 18.8815 9.93217 19.0335 9.77899 19.068L4.93252 20.1416C4.91193 20.1457 4.89052 20.1482 4.87075 20.1482" fill="#678003"/>
<path fill-rule="evenodd" clip-rule="evenodd" d="M4.87075 19.0741C4.73981 19.0741 4.62205 18.9845 4.5924 18.8515C4.55864 18.6987 4.65499 18.5467 4.80899 18.5122L9.65546 17.4386C9.80864 17.4049 9.96099 17.501 9.99558 17.6538C10.0293 17.8074 9.93217 17.9594 9.77899 17.9939L4.93252 19.0675C4.91193 19.0724 4.89052 19.0741 4.87075 19.0741" fill="#678003"/>
<path fill-rule="evenodd" clip-rule="evenodd" d="M4.87075 18C4.73981 18 4.62205 17.9096 4.5924 17.7773C4.55864 17.6246 4.65499 17.4718 4.80899 17.4381L9.65546 16.3645C9.80864 16.33 9.96099 16.4269 9.99558 16.5797C10.0293 16.7333 9.93217 16.8853 9.77899 16.9198L4.93252 17.9934C4.91193 17.9975 4.89052 18 4.87075 18" fill="#678003"/>
<path fill-rule="evenodd" clip-rule="evenodd" d="M4.87076 8.06422C4.65664 8.06422 4.48205 8.23754 4.48205 8.45111C4.48205 8.66386 4.65664 8.838 4.87076 8.838C5.08488 8.838 5.25946 8.66386 5.25946 8.45111C5.25946 8.23754 5.08488 8.06422 4.87076 8.06422M4.87076 9.40643C4.34205 9.40643 3.91299 8.97765 3.91299 8.45111C3.91299 7.92375 4.34205 7.49579 4.87076 7.49579C5.39946 7.49579 5.82852 7.92375 5.82852 8.45111C5.82852 8.97765 5.39946 9.40643 4.87076 9.40643" fill="#678003"/>
<path fill-rule="evenodd" clip-rule="evenodd" d="M7.02454 7.25797C6.81042 7.25797 6.63665 7.43212 6.63665 7.64569C6.63665 7.85844 6.81042 8.03176 7.02454 8.03176C7.23865 8.03176 7.41324 7.85844 7.41324 7.64569C7.41324 7.43212 7.23865 7.25797 7.02454 7.25797M7.02454 8.60101C6.49583 8.60101 6.06677 8.1714 6.06677 7.64569C6.06677 7.11833 6.49583 6.68954 7.02454 6.68954C7.55324 6.68954 7.9823 7.11833 7.9823 7.64569C7.9823 8.1714 7.55324 8.60101 7.02454 8.60101" fill="#678003"/>
<path fill-rule="evenodd" clip-rule="evenodd" d="M9.17822 8.06422C8.96411 8.06422 8.78952 8.23754 8.78952 8.45111C8.78952 8.66386 8.96411 8.838 9.17822 8.838C9.39234 8.838 9.56693 8.66386 9.56693 8.45111C9.56693 8.23754 9.39234 8.06422 9.17822 8.06422M9.17822 9.40643C8.64952 9.40643 8.22046 8.97765 8.22046 8.45111C8.22046 7.92375 8.64952 7.49579 9.17822 7.49579C9.70693 7.49579 10.136 7.92375 10.136 8.45111C10.136 8.97765 9.70693 9.40643 9.17822 9.40643" fill="#678003"/>
<path fill-rule="evenodd" clip-rule="evenodd" d="M5.40877 15.3142C5.25229 15.3142 5.12382 15.1877 5.12382 15.03V9.4065H4.871C4.71288 9.4065 4.58606 9.27836 4.58606 9.12229C4.58606 8.9654 4.71288 8.83807 4.871 8.83807H5.40877C5.56606 8.83807 5.69453 8.9654 5.69453 9.12229V15.03C5.69453 15.1877 5.56606 15.3142 5.40877 15.3142" fill="#678003"/>
<path fill-rule="evenodd" clip-rule="evenodd" d="M8.64023 15.3142C8.48293 15.3142 8.35446 15.1877 8.35446 15.03V9.12229C8.35446 8.9654 8.48293 8.83807 8.64023 8.83807H9.17799C9.33611 8.83807 9.46376 8.9654 9.46376 9.12229C9.46376 9.27836 9.33611 9.4065 9.17799 9.4065H8.92517V15.03C8.92517 15.1877 8.7967 15.3142 8.64023 15.3142" fill="#678003"/>
<path fill-rule="evenodd" clip-rule="evenodd" d="M5.40878 9.40617C5.25231 9.40617 5.12384 9.27967 5.12384 9.12195C5.12384 8.96506 5.25231 8.83856 5.40878 8.83856C5.53972 8.83692 6.20102 8.79092 6.20102 8.04834C6.20102 7.89063 6.32866 7.76413 6.48678 7.76413C6.64325 7.76413 6.7709 7.89063 6.7709 8.04834C6.7709 9.12195 5.87984 9.40617 5.40878 9.40617" fill="#678003"/>
<path fill-rule="evenodd" clip-rule="evenodd" d="M8.64022 9.40617C8.16917 9.40617 7.27811 9.12195 7.27811 8.04834C7.27811 7.89063 7.40575 7.76413 7.56305 7.76413C7.72034 7.76413 7.84799 7.89063 7.84799 8.04834C7.84799 8.81556 8.55869 8.83856 8.64022 8.83856C8.79669 8.83856 8.92517 8.96506 8.92517 9.12195C8.92517 9.27967 8.79669 9.40617 8.64022 9.40617" fill="#678003"/>
</svg>
