<?xml version="1.0" encoding="UTF-8"?>
<svg width="32px" height="41px" viewBox="0 0 32 41" version="1.1" xmlns="http://www.w3.org/2000/svg" xmlns:xlink="http://www.w3.org/1999/xlink">
    <!-- Generator: Sketch 50.2 (55047) - http://www.bohemiancoding.com/sketch -->
    <title>Fill 49</title>
    <desc>Created with Sketch.</desc>
    <defs></defs>
    <g id="Bonos" stroke="none" stroke-width="1" fill="none" fill-rule="evenodd">
        <g id="10.A.Bonos---consultas-anteriores-Copy" transform="translate(-27.000000, -193.000000)" fill="#FFFFFF">
            <g id="ui/beneficiario" transform="translate(16.000000, 187.000000)">
                <g id="Beneficiario-VERTICAL-Copy-3">
                    <g id="icono-martin" transform="translate(11.000000, 6.000000)">
                        <path d="M11.2003291,22.421875 C10.3178431,22.421875 9.6,21.7036264 9.6,20.819983 C9.6,19.9369986 10.3178431,19.21875 11.2003291,19.21875 C12.0439593,19.21875 12.7170195,19.8875778 12.7999995,20.808122 C12.8006581,21.7036264 12.082815,22.421875 11.2003291,22.421875 Z M20.7996708,22.421875 C19.9182061,22.421875 19.2,21.7036264 19.2,20.819983 C19.2,19.9369986 19.9182061,19.21875 20.7996708,19.21875 C21.6817939,19.21875 22.4,19.9369986 22.4,20.819983 C22.4,21.7036264 21.6817939,22.421875 20.7996708,22.421875 Z M16.0003019,32.03125 C14.6011114,32.03125 13.3456464,31.6945907 12.5561406,31.1077843 C12.152528,30.8623315 12.0389914,30.3338704 12.3008474,29.8852149 C12.4557297,29.6209844 12.7143043,29.46875 13.0102869,29.46875 C13.1789511,29.46875 13.3502403,29.5197183 13.5044663,29.614278 C14.0524607,30.0327548 14.9574718,30.2681481 15.9989893,30.2681481 C17.0825088,30.2681481 17.9967079,29.9314888 18.4915436,29.6156193 L18.5237013,29.5955002 L18.5289516,29.5955002 C18.6746459,29.513012 18.8334658,29.4694206 18.9903169,29.4694206 C19.2862995,29.4694206 19.5455304,29.621655 19.6997564,29.8852149 C19.9616124,30.3325291 19.8474195,30.8609903 19.4352752,31.1144906 C18.5565153,31.7133686 17.3673347,32.03125 16.0003019,32.03125 Z M15.7521146,8.96136256 C15.8226408,8.96673524 15.8836364,8.96875 15.9452673,8.96875 C16.7852276,8.96875 17.6264587,8.55572518 18.4397334,8.15613206 L19.1310169,7.808251 C20.2715076,7.22531515 21.4507559,6.62223176 22.82824,6.49060109 C22.9908949,6.47448304 23.1522791,6.46709561 23.3111218,6.46709561 C24.5348461,6.46709561 25.7039285,6.91168493 26.88,7.82436904 L26.7649979,7.58192683 C26.3786924,6.90161115 25.8386271,6.23204083 25.1638633,5.60007928 C23.8969338,4.40935895 21.113374,3.44294803 19.5516324,3.08365002 C18.1595348,2.7377837 16.881804,2.5625 15.7508439,2.5625 L15.6097915,2.5625 C14.2183293,2.5625 12.9075592,2.7424848 11.8185335,3.08163526 C10.2472614,3.44294803 7.4637016,4.40935895 6.19740746,5.60007928 C5.52137285,6.23539876 4.98130762,6.90564066 4.59182527,7.59132902 L4.48,7.82907013 C5.66560204,6.90967017 6.83277833,6.46709561 8.0526904,6.46709561 C8.21153312,6.46709561 8.37228195,6.47448304 8.53493689,6.49060109 C9.91432705,6.62223176 11.0948461,7.22665832 12.2372429,7.81026575 L12.7588824,8.07554185 C13.5562729,8.49595411 14.4515104,8.96875 15.4058375,8.96875 C15.4712807,8.96875 15.5367239,8.96673524 15.6028024,8.96203415 L15.6066147,8.96136256 L15.7521146,8.96136256 Z M4.78440951,19.0517685 C3.83837446,19.0517685 3.27088197,19.2149405 2.94568242,19.5812841 C2.54400313,20.0339755 2.46366728,20.8460264 2.66932707,22.3831454 C3.05108306,24.9462804 3.81138161,26.3399096 4.92901405,26.5240337 L5.02991589,26.5405414 L5.03570007,26.6408573 C5.06333561,27.1030723 5.08068815,27.539891 5.09675532,27.9551226 C5.20472671,30.7303178 5.27606495,32.5633053 8.35067887,34.6896215 C9.1559655,35.2496129 9.79865235,35.7861125 10.3648595,36.2597559 C11.9362288,37.5708468 12.9741681,38.4375 15.6348917,38.4375 C15.8463357,38.4375 16.0674199,38.4317858 16.3007153,38.4209923 C16.4768115,38.4260716 16.6374832,38.4286112 16.791728,38.4286112 C19.6073391,38.4286112 20.6697005,37.5524343 22.2783457,36.2254708 C22.8374833,35.7632557 23.4711725,35.2407241 24.2616773,34.6896215 C27.3382193,32.5633053 27.4089149,30.7290479 27.5168863,27.952583 C27.5329534,27.5379862 27.5496633,27.1024374 27.5772988,26.6408573 L27.583083,26.5348272 L27.6904117,26.5227639 C28.771411,26.4046705 29.4667982,25.126595 29.9443145,22.3780662 C30.1808233,20.8968193 30.1114131,20.0669908 29.7103765,19.6035059 C29.3800354,19.2219246 28.7996892,19.0517685 27.8285894,19.0517685 C27.7437547,19.0517685 27.4031307,19.0600223 27.4031307,19.0600223 L27.4365504,18.9025644 C28.5406864,13.8169289 28.6576554,11.076019 26.3356278,9.25509477 C25.5599048,8.65764371 24.7854671,8.36685456 23.9679694,8.36685456 C22.86062,8.36685456 21.7969732,8.89065597 20.6709859,9.4449331 C19.4093916,10.064606 18.10538,10.705866 16.5847829,10.7065009 L16.5841402,10.7065009 C16.4896652,10.7065009 16.3958329,10.7039612 16.3000726,10.6988819 C16.2473723,10.7014216 16.1831036,10.7020565 16.1194776,10.7020565 C14.5783145,10.7026914 13.2511661,10.0487333 11.9683632,9.41699703 C10.8320928,8.8570057 9.75944845,8.328125 8.65595512,8.328125 C7.82945983,8.328125 7.05180873,8.63097745 6.27929913,9.25382495 C3.88914672,11.1985567 4.03246589,14.0283542 5.1758058,18.9006597 L5.21308164,19.0600223 C5.21308164,19.0600223 4.86924418,19.0517685 4.78440951,19.0517685 Z M15.4379297,41 C13.4959927,41 12.0395399,40.6149844 10.7152004,39.7514219 C9.92123807,39.2510937 9.16832061,38.6232812 8.44105622,38.0159687 C7.92158165,37.5829062 7.38414994,37.1351094 6.84671823,36.7468906 C4.83936589,35.3272656 3.66445551,33.8294844 3.15139421,32.0338125 C2.65436607,30.7596094 2.5780482,29.4251875 2.50621962,28.1336875 C1.34541843,27.2201563 0.571978515,25.4750938 0.143572329,22.801125 C-0.0751200507,21.2059687 -0.204668029,19.4000469 0.998460722,18.0874062 C0.718200986,11.0680781 1.27423117,6.65545312 4.97917509,3.4619375 C6.85954476,1.860375 11.9914404,0 15.7906594,0 L16.2331747,0 C20.1824641,0 25.1944317,1.82834375 27.0376044,3.46321875 C30.743831,6.65801563 31.2985785,11.095625 31.0163948,18.1610781 C32.1560322,19.4775625 32.0893342,21.2777187 31.8719245,22.8690312 C31.6089806,24.5737344 31.0792448,26.9709531 29.5092772,28.2047969 L29.4842655,28.7108906 C29.4316767,29.8294219 29.3778053,30.98575 29.0039118,32.0415 C28.3023005,34.3003437 26.7432355,35.6879375 25.3117944,36.74625 C24.680729,37.1773906 24.0900672,37.6757969 23.5186452,38.1575469 C22.8587201,38.7136094 22.1757072,39.2895312 21.4407469,39.7527031 C20.0432962,40.6021719 18.5137322,40.9974375 16.6231013,40.9980781 C16.4422472,40.9980781 16.2594691,40.9942344 16.0741257,40.9871875 C15.8656946,40.9955156 15.6502088,41 15.4379297,41 Z" id="Fill-49"></path>
                    </g>
                </g>
            </g>
        </g>
    </g>
</svg>