<svg width="16" height="16" viewBox="0 0 16 16" fill="none" xmlns="http://www.w3.org/2000/svg">
<path fill-rule="evenodd" clip-rule="evenodd" d="M8 16C12.4183 16 16 12.4183 16 8C16 3.58172 12.4183 0 8 0C3.58172 0 0 3.58172 0 8C0 12.4183 3.58172 16 8 16Z" fill="#40A2A4"/>
<path d="M11.1856 4.02759L11.9489 4.65218C11.9591 4.66399 11.9699 4.6774 11.9801 4.69404C11.9904 4.71067 11.9959 4.72758 11.9959 4.74448C12.0014 4.76701 12.0014 4.78794 11.9959 4.80806C11.9904 4.82819 11.9826 4.84589 11.9724 4.86253L6.96739 11.9412C6.95639 11.9581 6.94239 11.9705 6.92439 11.9791C6.90564 11.9874 6.88614 11.9941 6.86488 12H6.85713C6.83613 12 6.81813 11.9957 6.80163 11.9874C6.78513 11.9791 6.77263 11.9689 6.76263 11.9581L4.039 9.03614C4.028 9.01923 4.0195 9.0026 4.01175 8.9857C4.004 8.96879 4 8.95216 4 8.93526C4 8.91272 4.004 8.8934 4.01175 8.8757C4.0195 8.85799 4.029 8.84457 4.039 8.83384L4.71553 8.09925C4.74203 8.07081 4.77479 8.05739 4.81404 8.05739C4.85329 8.05739 4.88604 8.07161 4.91254 8.09925L6.74613 10.0669L10.9886 4.0614C11.0096 4.02786 11.0393 4.00774 11.0793 4.00184C11.1193 3.99593 11.1543 4.00425 11.1856 4.02705V4.02759Z" fill="white"/>
</svg>
