<?xml version="1.0" encoding="UTF-8"?>
<svg width="39px" height="40px" viewBox="0 0 39 40" version="1.1" xmlns="http://www.w3.org/2000/svg" xmlns:xlink="http://www.w3.org/1999/xlink">
    <!-- Generator: Sketch 49.1 (51147) - http://www.bohemiancoding.com/sketch -->
    <title>Group 2</title>
    <desc>Created with Sketch.</desc>
    <defs></defs>
    <g id="HOME-22" stroke="none" stroke-width="1" fill="none" fill-rule="evenodd">
        <g id="home-D_02-Alertas" transform="translate(-970.000000, -940.000000)" fill="#0079C7">
            <g id="Group-2" transform="translate(970.000000, 940.000000)">
                <path d="M26.6217745,15.4444138 L28.2493607,15.4444138 L28.2493607,12.1202759 L31.5734987,12.1202759 L31.5734987,10.4926897 L28.2493607,10.4926897 L28.2493607,7.16855172 L26.6217745,7.16855172 L26.6217745,10.4926897 L23.2976366,10.4926897 L23.2976366,12.1202759 L26.6217745,12.1202759 L26.6217745,15.4444138 Z M30.0093607,17.2678621 L24.7983263,17.2678621 L24.7983263,13.9437241 L21.4093607,13.9437241 L21.4093607,8.73131034 L24.7321194,8.73131034 L24.7321194,5.40993103 L29.9431538,5.40993103 L29.9431538,8.73131034 L33.2672918,8.73131034 L33.2672918,13.9437241 L29.9431538,13.9437241 L29.9431538,17.2678621 L30.0093607,17.2678621 Z" id="Fill-270"></path>
                <path d="M19.8438435,36.9482759 L20.1045332,36.9482759 C20.3652228,36.9482759 20.8217745,36.8834483 21.472809,36.4282759 C22.9734987,35.4503448 24.4079814,34.2117241 24.6010849,33.82 L24.6010849,33.7565517 C24.6010849,33.6903448 24.6010849,33.5593103 24.4079814,33.3634483 L19.974878,28.8034483 C19.9086711,28.7386207 19.9086711,28.7386207 19.8438435,28.6724138 C19.8438435,28.6724138 19.6479814,28.4117241 19.2576366,28.4117241 C19.1266021,28.4117241 18.9969469,28.4117241 18.8659125,28.477931 L15.3459125,29.517931 C14.9569469,29.6489655 14.5003952,29.517931 14.2397056,29.1937931 C14.1100504,29.0627586 11.6341883,26.0006897 10.2645332,23.6544828 C8.70039522,21.437931 7.00522281,17.9206897 6.87556764,17.7248276 C6.68108488,17.3331034 6.74591247,16.877931 7.00522281,16.5510345 L9.41625729,13.8144828 C9.87280902,13.2931034 9.67694695,12.837931 9.67694695,12.837931 C9.67694695,12.7731034 9.61211936,12.7731034 9.61211936,12.7068966 L7.26591247,6.77586207 C7.13625729,6.51793103 7.00522281,6.45172414 7.00522281,6.45172414 L6.87556764,6.45172414 C6.4838435,6.45172414 4.79142971,7.29724138 3.29211936,8.14551724 C2.18453316,8.79793103 2.11970557,9.38551724 2.11970557,9.44896552 L2.11970557,9.51517241 C1.85901591,13.6186207 3.74729178,19.0944828 7.59280902,24.8931034 C7.65901591,25.0227586 7.7238435,25.0889655 7.78867109,25.1537931 C7.85349867,25.22 7.91832626,25.4144828 8.04936074,25.6103448 C12.8038435,33.1027586 17.0424642,35.9055172 19.7141883,36.8834483 C19.7776366,36.8834483 19.7776366,36.8834483 19.8438435,36.9482759 M20.1045332,39.0986207 C19.5183263,39.0986207 19.1266021,38.9689655 18.9969469,38.9027586 C14.6976366,37.2751724 10.3941883,33.2337931 6.35418833,26.7827586 C6.22453316,26.5868966 6.15832626,26.4572414 6.09349867,26.3924138 C6.09349867,26.3924138 6.09349867,26.3262069 6.02729178,26.3262069 C6.02729178,26.26 5.9638435,26.1965517 5.8976366,26.0655172 C1.72936074,19.7441379 -0.292708224,14.0103448 0.0341883282,9.38551724 C0.0341883282,8.92896552 0.228671087,7.42827586 2.24936074,6.25724138 C3.22591247,5.66965517 5.70315385,4.23517241 6.94039522,4.23517241 L7.20246419,4.23517241 C7.59280902,4.3 8.70039522,4.49586207 9.28660212,5.86413793 L11.5679814,11.7937931 C11.894878,12.4462069 12.1541883,13.8793103 11.0466021,15.117931 L9.09211936,17.3331034 C9.67694695,18.442069 10.8507401,20.7868966 11.9569469,22.2862069 C11.9569469,22.2862069 12.0231538,22.3524138 12.0231538,22.4172414 C12.0231538,22.482069 12.0879814,22.482069 12.0879814,22.5482759 C13.0672918,24.1758621 14.632809,26.26 15.4121194,27.2393103 L18.214878,26.3924138 C18.5403952,26.3262069 18.8659125,26.26 19.1914297,26.26 C20.4962573,26.26 21.2783263,27.0434483 21.472809,27.3041379 L25.8383263,31.8668966 C26.7514297,32.9082759 26.6852228,33.9510345 26.4907401,34.4724138 C26.1003952,35.58 24.2107401,37.0793103 22.5790159,38.122069 C21.6010849,38.9027586 20.6921194,39.0986207 20.1045332,39.0986207" id="Fill-271"></path>
                <path d="M32.4866021,19.2234483 L26.4245332,23.9158621 L26.4245332,20.657931 C21.7983263,20.1365517 18.1500504,16.1613793 18.1500504,11.4027586 C18.1500504,6.25655172 22.3197056,2.08413793 27.4686711,2.08413793 C32.6176366,2.08413793 36.7872918,6.25655172 36.7872918,11.4027586 C36.7872918,14.7268966 35.0921194,17.5958621 32.4866021,19.2234483 M27.4686711,0 C21.1486711,0 16.0645332,5.1462069 16.0645332,11.4027586 C16.0645332,16.6165517 19.5845332,20.9834483 24.3417745,22.3517241 L24.3417745,26.0013793 C24.3417745,26.3931034 24.5997056,26.7834483 24.9266021,26.9793103 C25.0562573,27.0441379 25.2534987,27.1089655 25.3831538,27.1089655 C25.6438435,27.1089655 25.8383263,27.0441379 26.0341883,26.9144828 L33.9197056,20.9172414 L33.9859125,20.8524138 C36.9831538,18.7668966 38.9376366,15.377931 38.9376366,11.4689655 C38.9376366,5.1462069 33.7886711,0 27.4686711,0" id="Fill-272"></path>
            </g>
        </g>
    </g>
</svg>