<?xml version="1.0" encoding="UTF-8"?>
<svg width="12px" height="16px" viewBox="0 0 12 16" version="1.1" xmlns="http://www.w3.org/2000/svg" xmlns:xlink="http://www.w3.org/1999/xlink">
    <!-- Generator: Sketch 49.1 (51147) - http://www.bohemiancoding.com/sketch -->
    <title>Group 6</title>
    <desc>Created with Sketch.</desc>
    <defs></defs>
    <g id="LICENCIAS-&gt;-CARO" stroke="none" stroke-width="1" fill="none" fill-rule="evenodd">
        <g id="005_licencias_dkt" transform="translate(-303.000000, -679.000000)" fill="#1697F3">
            <g id="Group-8" transform="translate(303.000000, 679.000000)">
                <g id="Group-6">
                    <path d="M3.43733333,1.67666667 L3.43733333,3.43733333 L1.67666667,3.43733333 L3.43733333,1.67666667 Z M10.8026667,0.982 L10.8026667,14.7306667 L0.982,14.7306667 L0.982,4.41933333 L3.43733333,4.41933333 C3.97866667,4.41933333 4.41933333,3.97866667 4.41933333,3.43733333 L4.41933333,0.982 L10.8026667,0.982 Z M10.8026667,15.7133333 C11.344,15.7133333 11.7846667,15.2726667 11.7846667,14.7306667 L11.7846667,0.982 C11.7846667,0.440666667 11.344,0 10.8026667,0 L4.41933333,0 C4.01733333,0 3.51866667,0.206666667 3.234,0.491333333 L0.491333333,3.234 C0.206666667,3.51866667 0,4.01666667 0,4.41933333 L0,14.7306667 C0,15.2726667 0.440666667,15.7133333 0.982,15.7133333 L10.8026667,15.7133333 Z" id="Fill-230"></path>
                    <path d="M5.824,4.316 L8.77,4.316 C9.04133333,4.316 9.26133333,4.096 9.26133333,3.82466667 C9.26133333,3.55333333 9.04133333,3.33333333 8.77,3.33333333 L5.824,3.33333333 C5.55266667,3.33333333 5.33333333,3.55333333 5.33333333,3.82466667 C5.33333333,4.096 5.55266667,4.316 5.824,4.316" id="Fill-231"></path>
                    <path d="M9.05,5.66666667 L3.158,5.66666667 C2.88666667,5.66666667 2.66666667,5.88666667 2.66666667,6.15733333 C2.66666667,6.42933333 2.88666667,6.64933333 3.158,6.64933333 L9.05,6.64933333 C9.32133333,6.64933333 9.54066667,6.42933333 9.54066667,6.15733333 C9.54066667,5.88666667 9.32133333,5.66666667 9.05,5.66666667" id="Fill-232"></path>
                    <path d="M9.05,8 L3.158,8 C2.88666667,8 2.66666667,8.22 2.66666667,8.49066667 C2.66666667,8.76266667 2.88666667,8.98266667 3.158,8.98266667 L9.05,8.98266667 C9.32133333,8.98266667 9.54066667,8.76266667 9.54066667,8.49066667 C9.54066667,8.22 9.32133333,8 9.05,8" id="Fill-233"></path>
                    <path d="M9.05,10.3333333 L3.158,10.3333333 C2.88666667,10.3333333 2.66666667,10.5533333 2.66666667,10.824 C2.66666667,11.096 2.88666667,11.316 3.158,11.316 L9.05,11.316 C9.32133333,11.316 9.54066667,11.096 9.54066667,10.824 C9.54066667,10.5533333 9.32133333,10.3333333 9.05,10.3333333" id="Fill-234"></path>
                    <path d="M9.05,12.6666667 L3.158,12.6666667 C2.88666667,12.6666667 2.66666667,12.8866667 2.66666667,13.1573333 C2.66666667,13.4293333 2.88666667,13.6493333 3.158,13.6493333 L9.05,13.6493333 C9.32133333,13.6493333 9.54066667,13.4293333 9.54066667,13.1573333 C9.54066667,12.8866667 9.32133333,12.6666667 9.05,12.6666667" id="Fill-235"></path>
                </g>
            </g>
        </g>
    </g>
</svg>