<?xml version="1.0" encoding="UTF-8"?>
<svg width="40px" height="36px" viewBox="0 0 40 36" version="1.1" xmlns="http://www.w3.org/2000/svg" xmlns:xlink="http://www.w3.org/1999/xlink">
    <!-- Generator: Sketch 49.1 (51147) - http://www.bohemiancoding.com/sketch -->
    <title>Fill 90</title>
    <desc>Created with Sketch.</desc>
    <defs></defs>
    <g id="BONOS-&gt;-CARO-2*****" stroke="none" stroke-width="1" fill="none" fill-rule="evenodd">
        <g id="003_cotiza_dkt" transform="translate(-727.000000, -610.000000)" fill="#0079C7">
            <path d="M732.390055,645.052175 L739.483239,645.052175 L739.483239,642.603125 L732.391525,642.603125 L732.390055,645.052175 Z M732.390055,637.2142 L739.483239,637.2142 L739.483239,639.663975 L732.391525,639.663975 L732.391525,637.2142 L732.390055,637.2142 Z M732.390055,631.755675 L739.483239,631.755675 L739.483239,634.204725 L732.391525,634.204725 L732.391525,631.755675 L732.390055,631.755675 Z M727,629.9352 L727,645.121775 L729.481953,645.121775 L729.481953,629.9352 C729.481953,629.374775 729.977903,628.886125 730.545857,628.886125 L739.481769,628.886125 L739.481769,626.43635 L730.545857,626.43635 C728.559119,626.43635 727,627.97625 727,629.9352 Z M763.454143,610.130375 L745.509579,610.130375 C743.523576,610.130375 741.964457,611.670275 741.964457,613.629225 L741.964457,645.052175 L744.44641,645.052175 L744.44641,613.629225 C744.44641,613.0688 744.94236,612.579425 745.509579,612.579425 L763.454143,612.579425 C764.022097,612.579425 764.518047,613.0688 764.518047,613.629225 L764.518047,645.052175 L767,645.052175 L767,613.629225 C767,611.739875 765.368876,610.130375 763.454143,610.130375 Z M747.354512,645.052175 L761.53941,645.052175 L761.53941,642.603125 L747.354512,642.603125 L747.354512,645.052175 Z M747.354512,639.66325 L761.53941,639.66325 L761.53941,637.2142 L747.354512,637.2142 L747.354512,639.66325 Z M747.354512,634.204725 L761.53941,634.204725 L761.53941,631.755675 L747.354512,631.755675 L747.354512,634.204725 Z M747.354512,628.815075 L761.53941,628.815075 L761.53941,626.366025 L747.354512,626.366025 L747.354512,628.815075 Z M747.354512,623.42615 L761.53941,623.42615 L761.53941,620.9771 L747.354512,620.9771 L747.354512,623.42615 Z M747.354512,617.96835 L761.53941,617.96835 L761.53941,615.518575 L747.354512,615.518575 L747.354512,617.96835 Z" id="Fill-90"></path>
        </g>
    </g>
</svg>