<?xml version="1.0" encoding="UTF-8"?>
<svg width="9px" height="15px" viewBox="0 0 9 15" version="1.1" xmlns="http://www.w3.org/2000/svg" xmlns:xlink="http://www.w3.org/1999/xlink">
    <!-- Generator: Sketch 49.1 (51147) - http://www.bohemiancoding.com/sketch -->
    <title>Page 1</title>
    <desc>Created with Sketch.</desc>
    <defs></defs>
    <g id="BONOS-&gt;-CARO-2*****" stroke="none" stroke-width="1" fill="none" fill-rule="evenodd" stroke-linecap="round" stroke-linejoin="round">
        <g id="013_cotiza_dkt" transform="translate(-847.000000, -772.000000)" stroke="#1697F3">
            <path d="M851.69377,772.613687 C849.74113,772.613687 848.122615,774.143306 848.012261,776.084911 C848.004292,776.152349 848,776.22837 848,776.30623 C848,776.388995 848.005518,776.480956 848.014714,776.57537 C848.026975,776.757453 848.051498,776.933405 848.08583,777.092804 C848.441413,779.02276 851.308146,786.474059 851.69377,786.474059 C851.762434,786.474059 851.823128,786.437275 851.850103,786.375354 C851.968427,786.114185 854.7714,779.964442 855.29987,777.097709 C855.336654,776.932179 855.360564,776.755613 855.372826,776.578435 C855.382022,776.480956 855.386926,776.388995 855.386926,776.30623 C855.386926,776.22837 855.383248,776.152349 855.375278,776.092268 C855.263698,774.143306 853.64641,772.613687 851.69377,772.613687 M851.69377,777.637827 C850.79623,777.637827 850.069124,776.911947 850.069124,776.014407 C850.069124,775.11748 850.79623,774.390988 851.69377,774.390988 C852.58947,774.390988 853.316576,775.11748 853.316576,776.014407 C853.316576,776.911947 852.58947,777.637827 851.69377,777.637827" id="Page-1"></path>
        </g>
    </g>
</svg>