<?xml version="1.0" encoding="UTF-8"?>
<svg width="40px" height="41px" viewBox="0 0 40 41" version="1.1" xmlns="http://www.w3.org/2000/svg" xmlns:xlink="http://www.w3.org/1999/xlink">
    <!-- Generator: Sketch 49.1 (51147) - http://www.bohemiancoding.com/sketch -->
    <title>Fill 230</title>
    <desc>Created with Sketch.</desc>
    <defs></defs>
    <g id="BONOS-&gt;-CARO-2*****" stroke="none" stroke-width="1" fill="none" fill-rule="evenodd">
        <g id="003_cotiza_dkt" transform="translate(-265.000000, -609.000000)" fill="#0079C7">
            <path d="M298.519005,646.560213 C296.28952,646.560213 294.408171,644.749911 294.408171,642.449378 C294.408171,640.148845 296.219893,638.338544 298.519005,638.338544 C300.818117,638.338544 302.631261,640.148845 302.631261,642.449378 C302.561634,644.749911 300.747069,646.560213 298.519005,646.560213 M285.208881,630.393961 C284.791119,630.114032 284.371936,629.906572 283.952753,629.697691 C280.330728,627.677087 276.98579,625.724689 274.128242,622.868561 C272.874956,621.613854 272.177265,619.942806 272.177265,618.129663 C272.177265,616.31794 272.874956,614.645471 274.128242,613.390764 C275.384369,612.136057 277.055417,611.439787 278.868561,611.439787 C280.677442,611.439787 282.352753,612.136057 283.604618,613.390764 C283.81492,613.601066 284.023801,613.808526 284.231261,614.158082 C284.441563,614.43659 284.791119,614.645471 285.208881,614.645471 C285.558437,614.645471 285.906572,614.43659 286.186501,614.158082 C286.393961,613.878153 286.602842,613.601066 286.810302,613.390764 C288.067851,612.136057 289.737478,611.439787 291.552043,611.439787 C293.359503,611.439787 295.034813,612.136057 296.28952,613.390764 C297.542806,614.645471 298.240497,616.31794 298.240497,618.129663 C298.240497,619.942806 297.542806,621.613854 296.28952,622.868561 C293.289876,625.865364 289.460391,628.026643 285.836945,630.044405 C285.558437,630.183659 285.416341,630.253286 285.208881,630.393961 M298.519005,636.038011 C297.19325,636.038011 295.871758,636.455773 294.894139,637.153464 C292.526821,634.923979 290.085613,633.250089 287.57762,631.787922 C291.201066,629.767318 294.894139,627.60746 297.960568,624.54103 C299.702664,622.798934 300.609236,620.568028 300.609236,618.129663 C300.609236,615.689876 299.633037,613.390764 297.960568,611.718295 C296.219893,609.97762 293.919361,609 291.479574,609 C289.112256,609 286.88135,609.906572 285.137833,611.579041 C283.465364,609.97762 281.2373,609 278.868561,609 C276.428774,609 274.128242,609.97762 272.457194,611.648668 C270.715098,613.390764 269.808526,615.62167 269.808526,618.060036 C269.808526,620.498401 270.783304,622.798934 272.457194,624.469982 C275.522202,627.536412 279.077442,629.557016 282.769094,631.647247 L282.841563,631.647247 C280.609236,632.973002 278.37833,634.435169 276.501243,636.178686 C275.384369,635.411368 274.058615,634.923979 272.666075,634.923979 C270.852931,634.923979 269.181883,635.618828 267.927176,636.874956 L265.348135,639.452575 C265.137833,639.661456 265,640.009591 265,640.28952 C265,640.639076 265.137833,640.916163 265.348135,641.125044 L266.882771,642.656838 C267.37016,643.145648 268.065009,643.145648 268.553819,642.656838 C269.042629,642.172291 269.042629,641.473179 268.553819,640.98579 L267.857549,640.28952 L269.601066,638.546004 C270.43659,637.71048 271.480995,637.292718 272.666075,637.292718 C273.849734,637.292718 274.894139,637.71048 275.731083,638.546004 C277.403552,640.218472 277.403552,643.006394 275.731083,644.678863 L273.987567,646.420959 L273.292718,645.72611 C272.805329,645.2373 272.107638,645.2373 271.620249,645.72611 C271.131439,646.212078 271.131439,646.909769 271.620249,647.397158 L273.154885,648.930373 C273.363766,649.137833 273.640853,649.279929 273.987567,649.279929 C274.337123,649.279929 274.615631,649.137833 274.824512,648.930373 L277.403552,646.352753 C279.705506,644.053641 279.982593,640.428774 278.169449,637.781528 C280.192895,635.969805 282.631261,634.435169 285.278508,632.973002 C287.995382,634.575844 290.715098,636.31794 293.289876,638.686679 C292.596448,639.731083 292.177265,640.98579 292.177265,642.310124 C292.177265,645.863943 295.034813,648.721492 298.588632,648.721492 C302.142451,648.721492 305,645.863943 305,642.310124 C305,638.756306 302.072824,636.038011 298.519005,636.038011 M298.519005,640.846536 C297.612433,640.846536 296.913321,641.542806 296.913321,642.449378 C296.913321,643.35595 297.612433,644.053641 298.519005,644.053641 C299.424156,644.053641 300.120426,643.35595 300.120426,642.449378 C300.120426,641.612433 299.354529,640.846536 298.519005,640.846536" id="Fill-230"></path>
        </g>
    </g>
</svg>