<?xml version="1.0" encoding="UTF-8"?>
<svg width="13px" height="16px" viewBox="0 0 13 16" version="1.1" xmlns="http://www.w3.org/2000/svg" xmlns:xlink="http://www.w3.org/1999/xlink">
    <!-- Generator: Sketch 49.1 (51147) - http://www.bohemiancoding.com/sketch -->
    <title>path-1</title>
    <desc>Created with Sketch.</desc>
    <defs></defs>
    <g id="LICENCIAS-&gt;-CARO-2" stroke="none" stroke-width="1" fill="none" fill-rule="evenodd">
        <g id="003_licencias_dkt-bene" transform="translate(-358.000000, -867.000000)" fill="#1697F3" fill-rule="nonzero">
            <g id="Group-14" transform="translate(327.000000, 824.000000)">
                <g id="Group-9" transform="translate(31.000000, 43.000000)">
                    <g id="document-pdf">
                        <path d="M0,15.2 L0,0.8 C0,0.35 0.35,0 0.8,0 L8.64800032,0 C8.79800032,0 8.94800032,0.05 9.04800032,0.15 L12.65,3.75 C12.75,3.85 12.8,4 12.8,4.15 L12.8,15.2 C12.8,15.65 12.45,16 12,16 L0.8,16 C0.35,16 0,15.65 0,15.2 Z M12,14.95 L12,4.72799988 C12,4.57799988 11.9,4.47999992 11.75,4.47999992 L8.65,4.47999992 C8.25,4.47999992 8,4.15 8,3.75 L8,1.05 C8,0.9 7.9,0.8 7.75,0.8 L1.05,0.8 C0.9,0.8 0.8,0.9 0.8,1.05 L0.8,14.95 C0.8,15.1 0.9,15.2 1.05,15.2 L11.75,15.2 C11.85,15.2 12,15.1 12,14.95 Z M11.6,3.75999985 L8.8,0.96000004 L8.8,3.46399994 C8.8,3.61399994 8.89800032,3.75999985 9.04800032,3.75999985 L11.6,3.75999985 Z M2.72124488,13.1152705 C2.58675749,13.1152705 2.48076743,13.0622754 2.37277755,13.0072806 C1.9978127,12.7403056 1.94481767,12.4183358 1.97131519,12.2043558 C2.02431022,11.615411 2.7477424,10.997969 4.11461426,10.3825266 C4.65056401,9.20463704 5.16001624,7.72977536 5.47998624,6.52488832 C5.1330188,5.74846108 4.78455145,4.72955661 5.02552888,4.14061182 C5.10502144,3.92663188 5.26600632,3.79214449 5.47998624,3.71265194 C5.5594788,3.68615442 5.64097112,3.6596569 5.72046368,3.6596569 C5.90794616,3.6596569 6.06893104,3.73914946 6.17492112,3.87363685 C6.28291096,4.00812424 6.60288096,4.4095866 6.12192608,6.44539576 C6.6048808,7.43580288 7.29981568,8.48120488 7.94375528,9.17813952 C8.42671,9.09864704 8.82817232,9.04365216 9.15014216,9.04365216 C9.71258944,9.04365216 10.0610568,9.17813952 10.1955442,9.44511456 C10.3035341,9.65909448 10.2750367,9.92806928 10.0610568,10.2215418 C9.87357432,10.4885167 9.57810208,10.6495016 9.25813208,10.6495016 C8.83017216,10.6495016 8.32071992,10.3825266 7.73177512,9.81807952 C6.71287064,10.0320595 5.5084836,10.4070243 4.54457394,10.836984 C4.24910165,11.4809237 3.95562916,11.9883761 3.68665438,12.363341 C3.33818705,12.874293 3.01621723,13.1147705 2.72124488,13.1147705 L2.72124488,13.1152705 Z M3.66065682,11.2674437 C2.8842296,11.6954035 2.5887573,12.0438709 2.56225979,12.2578508 C2.56225979,12.2843483 2.53576227,12.3658407 2.7232447,12.4983283 C2.77623973,12.4998282 3.09820954,12.3388432 3.66065682,11.2674437 Z M8.50820232,9.68609192 C8.80367464,9.90007184 9.0706496,10.0345593 9.25813208,10.0345593 C9.33762456,10.0345593 9.44561448,10.0080618 9.55360432,9.8470768 C9.60659936,9.76758432 9.63309688,9.71258944 9.63309688,9.68609192 C9.58010184,9.6595944 9.472112,9.60659936 9.15014216,9.60659936 C8.9641596,9.63309688 8.75017968,9.6595944 8.50820232,9.68609192 Z M5.8834484,7.30181544 C5.61647344,8.18623256 5.29450368,9.15014216 4.9195388,10.0345593 C5.66946848,9.73908696 6.50089056,9.49860952 7.25032032,9.31112712 C6.76736552,8.72218232 6.2849108,8.0252476 5.8834484,7.30181544 Z M5.695966,4.24760178 L5.66946848,4.24760178 C5.64297096,4.24760178 5.61647344,4.2740993 5.58997592,4.32709434 C5.51048336,4.54107427 5.5634784,4.94253664 5.72446336,5.39899385 C5.83095336,4.65056401 5.74946096,4.32859419 5.69646592,4.24760178 L5.695966,4.24760178 Z" id="path-1"></path>
                    </g>
                </g>
            </g>
        </g>
    </g>
</svg>