<?xml version="1.0" encoding="UTF-8" standalone="no"?>
<svg width="13px" height="20px" viewBox="0 0 13 20" version="1.1" xmlns="http://www.w3.org/2000/svg" xmlns:xlink="http://www.w3.org/1999/xlink">
    <!-- Generator: Sketch 46.2 (44496) - http://www.bohemiancoding.com/sketch -->
    <title>Mask</title>
    <desc>Created with Sketch.</desc>
    <defs>
        <path d="M5.04496823,6.08239734 L11.3804942,12.3966737 C11.5817411,12.5979205 11.909861,12.5979205 12.1111078,12.3966737 L18.4510088,6.08239734 C18.8941268,5.64115423 19.6109906,5.64115423 20.0547337,6.08427231 L21.4159624,7.44550104 C21.8590805,7.88861911 21.8590805,8.60735788 21.4159624,9.05110095 L12.551101,17.9159624 C12.1079829,18.3590805 11.3892441,18.3590805 10.945501,17.9159624 L2.08063955,9.05110095 C1.63752148,8.60798287 1.63752148,7.8892441 2.08063955,7.44550104 L3.44186828,6.08427231 C3.88498636,5.64115423 4.60185016,5.64115423 5.04559322,6.08239734 L5.04496823,6.08239734 Z" id="path-1"></path>
    </defs>
    <g id="Symbols" stroke="none" stroke-width="1" fill="none" fill-rule="evenodd">
        <g id="ico-/-arrow-left" transform="translate(-5.000000, -2.000000)">
            <mask id="mask-2" fill="white">
                <use xlink:href="#path-1"></use>
            </mask>
            <use id="Mask" fill="#1697F3" fill-rule="nonzero" transform="translate(11.748301, 12.000000) rotate(-270.000000) translate(-11.748301, -12.000000) " xlink:href="#path-1"></use>
        </g>
    </g>
</svg>