<?xml version="1.0" encoding="UTF-8"?>
<svg width="14px" height="18px" viewBox="0 0 14 18" version="1.1" xmlns="http://www.w3.org/2000/svg" xmlns:xlink="http://www.w3.org/1999/xlink">
    <!-- Generator: Sketch 49.1 (51147) - http://www.bohemiancoding.com/sketch -->
    <title>Group 6</title>
    <desc>Created with Sketch.</desc>
    <defs></defs>
    <g id="BONOS-&gt;-CARO-2*****" stroke="none" stroke-width="1" fill="none" fill-rule="evenodd" stroke-linecap="round" stroke-linejoin="round">
        <g id="01-Compra-paso-2" transform="translate(-90.000000, -748.000000)" stroke="#0079C7" stroke-width="0.6">
            <g id="btn_principal" transform="translate(40.000000, 736.000000)">
                <g id="Group-9" transform="translate(51.000000, 12.000000)">
                    <g id="Group-6" transform="translate(0.000000, 1.000000)">
                        <path d="M11.7410526,16.27308 L0.630157895,16.27308 C0.478263158,16.27308 0.355105263,16.15068 0.355105263,16.0004 L0.355105263,0.62628 C0.355105263,0.476 0.478263158,0.3536 0.630157895,0.3536 L8.42126316,0.3536 L8.42126316,3.24224 C8.42126316,3.61896 8.73052632,3.92564 9.10821053,3.92564 L12.0154211,3.92564 L12.0154211,16.0004 C12.0154211,16.15068 11.8929474,16.27308 11.7410526,16.27308 Z M11.7643158,3.57204 L9.10821053,3.57204 C8.92621053,3.57204 8.77705263,3.42448 8.77705263,3.24224 L8.77705263,0.60316 L11.7643158,3.57204 Z M12.3198947,3.62372 L8.72573684,0.05168 L8.67305263,0 L0.630157895,0 C0.281894737,0 0,0.28084 0,0.62628 L0,16.0004 C0,16.34584 0.281894737,16.62668 0.630157895,16.62668 L11.7410526,16.62668 C12.0893158,16.62668 12.3718947,16.34584 12.3718947,16.0004 L12.3718947,3.6754 L12.3198947,3.62372 Z" id="Stroke-341"></path>
                        <path d="M6.05950526,12.096452 C6.09508421,12.131132 6.13955789,12.148132 6.18608421,12.148132 C6.23055789,12.148132 6.2764,12.131132 6.31061053,12.096452 L8.47613684,9.944932 C8.54592632,9.875572 8.54592632,9.764052 8.47613684,9.694692 C8.40703158,9.626012 8.29482105,9.626012 8.22434737,9.694692 L6.36329474,11.544972 L6.36329474,4.196212 C6.36329474,4.098292 6.28324211,4.019412 6.18608421,4.019412 C6.08687368,4.019412 6.00818947,4.098292 6.00818947,4.196212 L6.00818947,11.544972 L4.14576842,9.694692 C4.07734737,9.626012 3.96376842,9.626012 3.89466316,9.694692 C3.82487368,9.764052 3.82487368,9.875572 3.89466316,9.944932 L6.05950526,12.096452 Z" id="Stroke-342"></path>
                        <path d="M8.56583684,13.313992 L3.80578421,13.313992 C3.70657368,13.313992 3.62720526,13.392872 3.62720526,13.490792 C3.62720526,13.588712 3.70657368,13.667592 3.80578421,13.667592 L8.56583684,13.667592 C8.66436316,13.667592 8.74373158,13.588712 8.74373158,13.490792 C8.74373158,13.392872 8.66436316,13.313992 8.56583684,13.313992" id="Stroke-343"></path>
                    </g>
                </g>
            </g>
        </g>
    </g>
</svg>