<?xml version="1.0" encoding="UTF-8" standalone="no"?>
<svg width="17px" height="17px" viewBox="0 0 17 17" version="1.1" xmlns="http://www.w3.org/2000/svg" xmlns:xlink="http://www.w3.org/1999/xlink">
    <!-- Generator: Sketch 46.2 (44496) - http://www.bohemiancoding.com/sketch -->
    <title>Group 7 Copy</title>
    <desc>Created with Sketch.</desc>
    <defs></defs>
    <g id="01_REEM_Historico" stroke="none" stroke-width="1" fill="none" fill-rule="evenodd">
        <g id="004_Dktop" transform="translate(-1117.000000, -92.000000)">
            <g id="Group-7-Copy" transform="translate(1106.000000, 82.000000)">
                <ellipse id="Oval-4" opacity="0.330000013" cx="18.6666667" cy="18" rx="18.6666667" ry="18"></ellipse>
                <path d="M17.5180243,20.4909449 L9.52459445,20.4909449 C9.41833828,20.4909449 9.33333333,20.4058488 9.33333333,20.2994786 L9.33333333,17.5551287 C9.33333333,17.4487586 9.41833828,17.3636624 9.52459445,17.3636624 L17.4967731,17.3636624 C17.6030292,17.3636624 17.6880342,17.2785663 17.6880342,17.1721962 L17.6880342,9.19146627 C17.6880342,9.08509612 17.7730391,9 17.8792953,9 L20.6207047,9 C20.7269609,9 20.8119658,9.08509612 20.8119658,9.19146627 L20.8119658,17.1509221 C20.8119658,17.2572923 20.8969708,17.3423884 21.0032269,17.3423884 L28.9754055,17.3423884 C29.0816617,17.3423884 29.1666667,17.4274845 29.1666667,17.5338547 L29.1666667,20.2782046 C29.1666667,20.3845748 29.0816617,20.4696709 28.9754055,20.4696709 L21.0032269,20.4696709 C20.8969708,20.4696709 20.8119658,20.554767 20.8119658,20.6611372 L20.8119658,28.6418671 C20.8119658,28.7482372 20.7269609,28.8333333 20.6207047,28.8333333 L17.8792953,28.8333333 C17.7730391,28.8333333 17.6880342,28.7482372 17.6880342,28.6418671 L17.6880342,20.6611372 C17.7092854,20.576041 17.6242805,20.4909449 17.5180243,20.4909449 Z" id="Cerrar" fill="#6C6E71" fill-rule="nonzero" transform="translate(19.250000, 18.916667) rotate(225.000000) translate(-19.250000, -18.916667) "></path>
            </g>
        </g>
    </g>
</svg>