<?xml version="1.0" encoding="UTF-8"?>
<svg width="19px" height="19px" viewBox="0 0 19 19" version="1.1" xmlns="http://www.w3.org/2000/svg" xmlns:xlink="http://www.w3.org/1999/xlink">
    <!-- Generator: Sketch 49.1 (51147) - http://www.bohemiancoding.com/sketch -->
    <title>aprobado</title>
    <desc>Created with Sketch.</desc>
    <defs>
        <path d="M13.0237692,5.10573846 L13.8334615,5.74589231 C13.8451538,5.75758462 13.8568462,5.7722 13.8656154,5.79003077 C13.8773077,5.80727692 13.8831538,5.82510769 13.8831538,5.83972308 C13.8860769,5.86310769 13.8860769,5.88649231 13.8831538,5.90666154 C13.8773077,5.92741538 13.8685385,5.94466154 13.8568462,5.96249231 L8.55438462,13.2026615 C8.54269231,13.2204923 8.52515385,13.2321846 8.50761538,13.2438769 L8.44623077,13.2640462 L8.43453846,13.2640462 C8.41407692,13.2640462 8.39361538,13.2584923 8.37607692,13.2523538 C8.35853846,13.2406615 8.34392308,13.2321846 8.33515385,13.2204923 L5.45007692,10.2298923 C5.43838462,10.2126462 5.42961538,10.1980308 5.42084615,10.1775692 C5.41207692,10.1629538 5.40915385,10.1451231 5.40915385,10.1278769 C5.40915385,10.1044923 5.41207692,10.0837385 5.42084615,10.0664923 C5.42961538,10.0486615 5.43838462,10.0340462 5.45007692,10.0223538 L6.16623077,9.27112308 C6.19546154,9.24189231 6.23053846,9.22756923 6.27146154,9.22756923 C6.31238462,9.22756923 6.34746154,9.24189231 6.37669231,9.27112308 L8.32053846,11.2854154 L12.8162308,5.14081538 C12.8366923,5.10573846 12.8688462,5.08556923 12.9097692,5.07943077 C12.9506923,5.07650769 12.9886923,5.08264615 13.0237692,5.10573846 Z M9.44153846,17.5963385 C13.9381077,17.5963385 17.5966308,13.9381077 17.5966308,9.44153846 C17.5966308,4.94496923 13.9381077,1.28673846 9.44153846,1.28673846 C4.94467692,1.28673846 1.28644615,4.94496923 1.28644615,9.44153846 C1.28644615,13.9381077 4.94467692,17.5963385 9.44153846,17.5963385 Z M9.44153846,0 C14.6475385,0 18.8827846,4.23524615 18.8827846,9.44153846 C18.8827846,14.6478308 14.6475385,18.8830769 9.44153846,18.8830769 C4.23553846,18.8830769 0,14.6478308 0,9.44153846 C0,4.23524615 4.23553846,0 9.44153846,0 Z" id="path-1"></path>
    </defs>
    <g id="LICENCIAS-&gt;-CARO-1" stroke="none" stroke-width="1" fill="none" fill-rule="evenodd">
        <g id="LI-licencias-001" transform="translate(-15.000000, -939.000000)">
            <g id="Group-7" transform="translate(0.000000, 936.000000)">
                <g id="aprobado" transform="translate(15.000000, 3.000000)">
                    <mask id="mask-2" fill="white">
                        <use xlink:href="#path-1"></use>
                    </mask>
                    <g id="Clip-736"></g>
                    <polygon id="Fill-735" fill="#007A3D" fill-rule="evenodd" mask="url(#mask-2)" points="-1.46153846 20.3446154 20.3443231 20.3446154 20.3443231 -1.46153846 -1.46153846 -1.46153846"></polygon>
                </g>
            </g>
        </g>
    </g>
</svg>