<?xml version="1.0" encoding="UTF-8" standalone="no"?>
<svg width="27px" height="22px" viewBox="0 0 27 22" version="1.1" xmlns="http://www.w3.org/2000/svg" xmlns:xlink="http://www.w3.org/1999/xlink">
    <!-- Generator: Sketch 46.2 (44496) - http://www.bohemiancoding.com/sketch -->
    <title>agregarimagen</title>
    <desc>Created with Sketch.</desc>
    <defs>
        <filter x="-17.4%" y="-11.1%" width="139.1%" height="144.4%" filterUnits="objectBoundingBox" id="filter-1">
            <feOffset dx="0" dy="2" in="SourceAlpha" result="shadowOffsetOuter1"></feOffset>
            <feGaussianBlur stdDeviation="1" in="shadowOffsetOuter1" result="shadowBlurOuter1"></feGaussianBlur>
            <feColorMatrix values="0 0 0 0 0.807843137   0 0 0 0 0.8   0 0 0 0 0.811764706  0 0 0 1 0" type="matrix" in="shadowBlurOuter1" result="shadowMatrixOuter1"></feColorMatrix>
            <feMerge>
                <feMergeNode in="shadowMatrixOuter1"></feMergeNode>
                <feMergeNode in="SourceGraphic"></feMergeNode>
            </feMerge>
        </filter>
    </defs>
    <g id="01_REEM_Historico" stroke="none" stroke-width="1" fill="none" fill-rule="evenodd">
        <g id="003_Dktop" transform="translate(-563.000000, -907.000000)" fill="#1697F3">
            <g id="Group-3" transform="translate(372.000000, 859.000000)">
                <g id="agregarimagen" filter="url(#filter-1)" transform="translate(193.000000, 48.000000)">
                    <path d="M11.50129,6.26094931 C8.58026314,6.26094931 6.29209468,8.53832515 6.29209468,11.4455744 C6.29209468,14.3528237 8.58026314,16.6301995 11.50129,16.6301995 C14.422317,16.6301995 16.7104854,14.3528237 16.7104854,11.4455744 C16.7104854,8.53832515 14.422317,6.26094931 11.50129,6.26094931 L11.50129,6.26094931 Z M11.50129,17.9988995 C7.80881717,17.9988995 4.91617122,15.1198973 4.91617122,11.4452076 C4.91617122,7.76978417 7.80881717,4.89114884 11.50129,4.89114884 C15.1937629,4.89114884 18.0864089,7.76978417 18.0864089,11.4452076 C18.0864089,15.1198973 15.1937629,17.9988995 11.50129,17.9988995 L11.50129,17.9988995 Z M19.3631833,18 C18.9389433,18 18.6750373,17.7377056 18.6750373,17.3154666 C18.6750373,16.8928608 18.9389433,16.6309332 19.3631833,16.6309332 L20.3458278,16.6309332 C21.0981074,16.6309332 21.6233394,16.1078118 21.6233394,15.3590804 L21.6233394,6.55515927 C21.6233394,5.80642795 21.0981074,5.28367334 20.3458278,5.28367334 L18.1092611,5.28367334 L14.1775773,1.37053417 L8.82242272,1.37053417 L4.89073893,5.28367334 L2.65417221,5.28367334 C1.9018926,5.28367334 1.37666063,5.80642795 1.37666063,6.55515927 L1.37666063,15.3590804 C1.37666063,16.1078118 1.9018926,16.6309332 2.65417221,16.6309332 L3.6371853,16.6309332 C4.06105671,16.6309332 4.32496274,16.8928608 4.32496274,17.3154666 C4.32496274,17.7377056 4.06105671,18 3.6371853,18 L2.65417221,18 C1.14113556,18 0,16.8642468 0,15.3587136 L0,6.55442558 C0,5.04852549 1.14113556,3.91313918 2.65417221,3.91313918 L4.34928927,3.91313918 L8.28060448,0 L14.7201327,0 L18.6518165,3.91313918 L20.346565,3.91313918 C21.859233,3.91313918 23,5.04852549 23,6.55442558 L23,15.3587136 C23,16.8642468 21.8588644,18 20.3458278,18 L19.3631833,18 Z" id="Fill-85"></path>
                </g>
            </g>
        </g>
    </g>
</svg>