<?xml version="1.0" encoding="UTF-8"?>
<svg width="36px" height="41px" viewBox="0 0 36 41" version="1.1" xmlns="http://www.w3.org/2000/svg" xmlns:xlink="http://www.w3.org/1999/xlink">
    <!-- Generator: Sketch 49.1 (51147) - http://www.bohemiancoding.com/sketch -->
    <title>Group</title>
    <desc>Created with Sketch.</desc>
    <defs></defs>
    <g id="BONOS-&gt;-CARO-2*****" stroke="none" stroke-width="1" fill="none" fill-rule="evenodd">
        <g id="000_cotiza_dkt" transform="translate(-238.000000, -383.000000)" fill="#0079C7">
            <g id="Group" transform="translate(237.000000, 383.000000)">
                <path d="M12.274232,27.282172 C11.537192,27.282172 10.461232,27.202252 9.305352,26.851492 C7.359152,26.259492 4.813552,24.770612 3.746472,21.039532 C3.740552,21.018812 3.736112,20.998092 3.733152,20.978852 L1.174232,9.010092 C0.675472,6.963252 1.495392,5.094012 3.480072,3.741292 C4.875712,2.791132 6.389752,2.398932 6.453392,2.381172 C6.944752,2.255372 7.447952,2.554332 7.573752,3.047172 C7.699552,3.540012 7.402072,4.041732 6.909232,4.167532 C6.897392,4.170492 5.611272,4.509412 4.483512,5.287892 C3.145592,6.212892 2.649792,7.290332 2.967992,8.583852 C2.970952,8.594212 2.972432,8.601612 2.975392,8.611972 L5.526912,20.561492 C6.203272,22.901372 7.656632,24.422812 9.841112,25.088812 C11.523872,25.599412 12.992032,25.404052 13.005352,25.402572 C13.511512,25.333012 13.974752,25.685252 14.045792,26.188452 C14.115352,26.693132 13.763112,27.159332 13.259912,27.227412 C13.225872,27.233332 12.855872,27.282172 12.274232,27.282172" id="Fill-554"></path>
                <path d="M4.95948,3.274796 C4.95948,4.293036 5.78532,5.117396 6.80356,5.117396 C7.8218,5.117396 8.64616,4.293036 8.64616,3.274796 C8.64616,2.256556 7.8218,1.430716 6.80356,1.430716 C5.78532,1.430716 4.95948,2.256556 4.95948,3.274796" id="Fill-555"></path>
                <path d="M6.803708,1.943684 C6.069628,1.943684 5.471708,2.540124 5.471708,3.274204 C5.471708,4.009764 6.069628,4.606204 6.803708,4.606204 C7.536308,4.606204 8.134228,4.009764 8.134228,3.274204 C8.134228,2.540124 7.536308,1.943684 6.803708,1.943684 M6.803708,5.630364 C5.504268,5.630364 4.447548,4.573644 4.447548,3.274204 C4.447548,1.976244 5.504268,0.919524 6.803708,0.919524 C8.101668,0.919524 9.158388,1.976244 9.158388,3.274204 C9.158388,4.573644 8.101668,5.630364 6.803708,5.630364" id="Fill-556"></path>
                <path d="M13.991328,27.282172 C13.409688,27.282172 13.039688,27.233332 13.005648,27.227412 C12.502448,27.159332 12.150208,26.693132 12.219768,26.188452 C12.290808,25.685252 12.754048,25.334492 13.257248,25.401092 C13.498488,25.433652 19.131368,26.112972 20.738648,20.561492 L23.290168,8.611972 C23.293128,8.601612 23.294608,8.594212 23.297568,8.583852 C23.615768,7.290332 23.121448,6.212892 21.782048,5.287892 C20.654288,4.509412 19.368168,4.170492 19.354848,4.167532 C18.862008,4.040252 18.566008,3.538532 18.693288,3.045692 C18.819088,2.552852 19.320808,2.255372 19.812168,2.381172 C19.877288,2.398932 21.389848,2.791132 22.785488,3.741292 C24.771648,5.094012 25.588608,6.963252 25.089848,9.010092 L22.532408,20.978852 C22.529448,20.998092 22.525008,21.018812 22.519088,21.039532 C21.452008,24.770612 18.906408,26.259492 16.960208,26.851492 C15.804328,27.202252 14.728368,27.282172 13.991328,27.282172" id="Fill-557"></path>
                <path d="M21.42744,3.274796 C21.42744,4.293036 20.6016,5.117396 19.58484,5.117396 C18.5666,5.117396 17.74076,4.293036 17.74076,3.274796 C17.74076,2.256556 18.5666,1.430716 19.58484,1.430716 C20.6016,1.430716 21.42744,2.256556 21.42744,3.274796" id="Fill-558"></path>
                <path d="M19.584692,1.943684 C18.850612,1.943684 18.254172,2.540124 18.254172,3.274204 C18.254172,4.009764 18.850612,4.606204 19.584692,4.606204 C20.318772,4.606204 20.915212,4.009764 20.915212,3.274204 C20.915212,2.540124 20.318772,1.943684 19.584692,1.943684 M19.584692,5.630364 C18.285252,5.630364 17.228532,4.573644 17.228532,3.274204 C17.228532,1.976244 18.285252,0.919524 19.584692,0.919524 C20.882652,0.919524 21.939372,1.976244 21.939372,3.274204 C21.939372,4.573644 20.882652,5.630364 19.584692,5.630364" id="Fill-559"></path>
                <path d="M11.290032,26.316028 C11.290032,27.332788 12.115872,28.158628 13.132632,28.158628 C14.150872,28.158628 14.975232,27.332788 14.975232,26.316028 C14.975232,25.297788 14.150872,24.471948 13.132632,24.471948 C12.115872,24.471948 11.290032,25.297788 11.290032,26.316028" id="Fill-560"></path>
                <path d="M21.42744,21.707604 L4.83812,21.707604 C4.329,21.707604 3.91608,21.294684 3.91608,20.785564 C3.91608,20.276444 4.329,19.863524 4.83812,19.863524 L21.42744,19.863524 C21.93656,19.863524 22.34948,20.276444 22.34948,20.785564 C22.34948,21.294684 21.93656,21.707604 21.42744,21.707604" id="Fill-561"></path>
                <path d="M17.740464,40.139672 C14.904784,40.139672 13.540224,38.610832 12.896424,37.327672 C12.225984,35.998632 12.211184,34.671072 12.211184,34.614832 L12.211184,26.316472 C12.211184,25.805872 12.624104,25.394432 13.133224,25.394432 C13.640864,25.394432 14.055264,25.805872 14.055264,26.316472 L14.055264,34.610392 C14.055264,34.610392 14.073024,35.603472 14.565864,36.549192 C15.180064,37.725792 16.217544,38.297072 17.740464,38.297072 C21.364984,38.297072 21.425664,34.755432 21.427144,34.604472 L21.427144,29.079632 C21.427144,29.018952 21.443424,27.691392 22.110904,26.362352 C22.756184,25.079192 24.120744,23.550352 26.957904,23.550352 C29.795064,23.550352 31.158144,25.079192 31.803424,26.362352 C32.470904,27.691392 32.487184,29.018952 32.487184,29.075192 L32.487184,31.845752 C32.487184,32.354872 32.074264,32.767792 31.565144,32.767792 C31.056024,32.767792 30.644584,32.354872 30.644584,31.845752 L30.644584,29.079632 C30.644584,29.079632 30.623864,28.088032 30.131024,27.140832 C29.519784,25.965712 28.480824,25.394432 26.957904,25.394432 C23.331904,25.394432 23.271224,28.934592 23.269744,29.085552 L23.269744,34.610392 C23.269744,34.671072 23.256424,35.998632 22.585984,37.327672 C21.942184,38.610832 20.577624,40.139672 17.740464,40.139672" id="Fill-562"></path>
                <path d="M31.564848,32.7672 C30.040448,32.7672 28.800208,34.00744 28.800208,35.53184 C28.800208,37.05624 30.040448,38.29648 31.564848,38.29648 C33.089248,38.29648 34.329488,37.05624 34.329488,35.53184 C34.329488,34.00744 33.089248,32.7672 31.564848,32.7672 M31.564848,40.13908 C29.023688,40.13908 26.957608,38.073 26.957608,35.53184 C26.957608,32.99068 29.023688,30.92312 31.564848,30.92312 C34.106008,30.92312 36.173568,32.99068 36.173568,35.53184 C36.173568,38.073 34.106008,40.13908 31.564848,40.13908" id="Fill-563"></path>
                <path d="M31.564848,35.122324 C31.339888,35.122324 31.156368,35.305844 31.156368,35.532284 C31.156368,35.757244 31.339888,35.942244 31.564848,35.942244 C31.791288,35.942244 31.974808,35.757244 31.974808,35.532284 C31.974808,35.305844 31.791288,35.122324 31.564848,35.122324 M31.564848,36.966404 C30.774528,36.966404 30.130728,36.322604 30.130728,35.532284 C30.130728,34.741964 30.774528,34.098164 31.564848,34.098164 C32.355168,34.098164 32.998968,34.741964 32.998968,35.532284 C32.998968,36.322604 32.355168,36.966404 31.564848,36.966404" id="Fill-564"></path>
            </g>
        </g>
    </g>
</svg>