<?xml version="1.0" encoding="UTF-8"?>
<svg width="17px" height="25px" viewBox="0 0 17 25" version="1.1" xmlns="http://www.w3.org/2000/svg" xmlns:xlink="http://www.w3.org/1999/xlink">
    <!-- Generator: Sketch 50.2 (55047) - http://www.bohemiancoding.com/sketch -->
    <title>Fill 323</title>
    <desc>Created with Sketch.</desc>
    <defs></defs>
    <g id="Reembolso_RCD_Mbl" stroke="none" stroke-width="1" fill="none" fill-rule="evenodd">
        <g id="007_R" transform="translate(-276.000000, -1195.000000)" fill="#1697F3">
            <path d="M281.582971,1197.79625 L281.740871,1197.10993 C281.849048,1196.68259 282.249871,1196.41501 282.673089,1196.48845 L287.040011,1197.24352 C287.463229,1197.31696 287.757014,1197.70446 287.72513,1198.12906 L287.654911,1198.84664 L281.582971,1197.79625 Z M292.294363,1199.64897 L289.071836,1199.09156 L289.152683,1198.26031 C289.244918,1197.05212 288.438717,1195.98924 287.277621,1195.78846 L282.911077,1195.03299 C281.749601,1194.83221 280.650374,1195.56541 280.349757,1196.75368 L280.166046,1197.55094 L276.943139,1196.99353 C276.552944,1196.92595 276.182866,1197.19704 276.11758,1197.59899 C276.051915,1198.00055 276.315335,1198.38141 276.70553,1198.44898 L279.833925,1198.99 L288.928739,1200.56303 L292.056753,1201.10443 C292.446949,1201.17201 292.817027,1200.90092 292.882692,1200.49897 C292.947978,1200.09741 292.684558,1199.71655 292.294363,1199.64897 Z M288.496411,1216.09261 L289.104478,1205.99541 C289.12915,1205.58839 288.828912,1205.23839 288.433783,1205.213 C288.045865,1205.18722 287.697802,1205.49698 287.673509,1205.90362 L287.065063,1216.00081 C287.04077,1216.40784 287.341008,1216.75784 287.736138,1216.78323 C287.751321,1216.78401 287.766124,1216.7844 287.781306,1216.7844 C288.156699,1216.7844 288.472499,1216.48362 288.496411,1216.09261 Z M281.263755,1216.78323 C281.658885,1216.75784 281.959502,1216.40784 281.93521,1216.00081 L281.326384,1205.90362 C281.302091,1205.49698 280.958203,1205.18604 280.56649,1205.213 C280.17098,1205.23839 279.870743,1205.58839 279.895415,1205.99541 L280.503861,1216.09261 C280.527394,1216.48362 280.843194,1216.7844 281.218586,1216.7844 C281.233769,1216.7844 281.248572,1216.78401 281.263755,1216.78323 Z M285.216949,1216.05667 L285.216949,1205.93995 C285.216949,1205.53214 284.896215,1205.20167 284.500326,1205.20167 C284.104058,1205.20167 283.782944,1205.53214 283.782944,1205.93995 L283.782944,1216.05667 C283.782944,1216.46409 284.104058,1216.79416 284.500326,1216.79416 C284.896215,1216.79416 285.216949,1216.46409 285.216949,1216.05667 Z M278.256443,1203.3009 C278.023009,1203.3009 277.807414,1203.39856 277.649894,1203.5759 C277.491994,1203.75324 277.41608,1203.98254 277.436957,1204.22199 L278.599192,1217.75236 C278.636769,1218.1922 278.989008,1218.52423 279.418298,1218.52423 L289.581595,1218.52423 C290.010885,1218.52423 290.363124,1218.1922 290.400701,1217.75236 L291.562936,1204.22199 C291.583812,1203.98254 291.507899,1203.75285 291.349999,1203.57551 C291.192479,1203.39856 290.977264,1203.3009 290.74383,1203.3009 L278.256443,1203.3009 Z M289.581595,1220 L279.418298,1220 C278.24088,1220 277.274502,1219.08985 277.1705,1217.88244 L276.008645,1204.35168 C275.953228,1203.70441 276.166165,1203.05833 276.592419,1202.57942 C277.018673,1202.10013 277.624842,1201.82513 278.256443,1201.82513 L290.74383,1201.82513 C291.37505,1201.82513 291.981599,1202.10013 292.407853,1202.57903 C292.834107,1203.05833 293.047045,1203.70441 292.991248,1204.35168 L291.829393,1217.88244 C291.725391,1219.08985 290.759392,1220 289.581595,1220 Z" id="Fill-323"></path>
        </g>
    </g>
</svg>