<?xml version="1.0" encoding="UTF-8" standalone="no"?>
<svg width="13px" height="20px" viewBox="0 0 13 20" version="1.1" xmlns="http://www.w3.org/2000/svg" xmlns:xlink="http://www.w3.org/1999/xlink">
    <!-- Generator: Sketch 46.2 (44496) - http://www.bohemiancoding.com/sketch -->
    <title>Mask</title>
    <desc>Created with Sketch.</desc>
    <defs>
        <path d="M5.54496823,6.08239734 L11.8804942,12.3966737 C12.0817411,12.5979205 12.409861,12.5979205 12.6111078,12.3966737 L18.9510088,6.08239734 C19.3941268,5.64115423 20.1109906,5.64115423 20.5547337,6.08427231 L21.9159624,7.44550104 C22.3590805,7.88861911 22.3590805,8.60735788 21.9159624,9.05110095 L13.051101,17.9159624 C12.6079829,18.3590805 11.8892441,18.3590805 11.445501,17.9159624 L2.58063955,9.05110095 C2.13752148,8.60798287 2.13752148,7.8892441 2.58063955,7.44550104 L3.94186828,6.08427231 C4.38498636,5.64115423 5.10185016,5.64115423 5.54559322,6.08239734 L5.54496823,6.08239734 Z" id="path-1"></path>
    </defs>
    <g id="Symbols" stroke="none" stroke-width="1" fill="none" fill-rule="evenodd">
        <g id="ico-/-arrow-right" transform="translate(-6.000000, -2.000000)">
            <mask id="mask-2" fill="white">
                <use xlink:href="#path-1"></use>
            </mask>
            <use id="Mask" fill="#1697F3" fill-rule="nonzero" transform="translate(12.248301, 12.000000) rotate(-450.000000) translate(-12.248301, -12.000000) " xlink:href="#path-1"></use>
        </g>
    </g>
</svg>