<?xml version="1.0" encoding="UTF-8"?>
<svg width="20px" height="20px" viewBox="0 0 20 20" version="1.1" xmlns="http://www.w3.org/2000/svg" xmlns:xlink="http://www.w3.org/1999/xlink">
    <!-- Generator: Sketch 49.1 (51147) - http://www.bohemiancoding.com/sketch -->
    <title>rechazado</title>
    <desc>Created with Sketch.</desc>
    <defs>
        <path d="M9.93846154,0 C15.4184615,0 19.8769231,4.45815385 19.8769231,9.93815385 C19.8769231,15.4184615 15.4184615,19.8766154 9.93846154,19.8766154 C4.45846154,19.8766154 0,15.4184615 0,9.93815385 C0,4.45815385 4.45846154,0 9.93846154,0 Z M9.93846154,18.5224615 C14.6716923,18.5224615 18.5227692,14.6713846 18.5227692,9.93815385 C18.5227692,5.20523077 14.6716923,1.35415385 9.93846154,1.35415385 C5.20523077,1.35415385 1.35446154,5.20523077 1.35446154,9.93815385 C1.35446154,14.6713846 5.20523077,18.5224615 9.93846154,18.5224615 Z M11.0867692,9.94430769 L14.5375385,13.3950769 C14.6944615,13.5523077 14.7729231,13.7393846 14.7729231,13.9633846 C14.7729231,14.1867692 14.6944615,14.38 14.5375385,14.5372308 C14.3803077,14.6944615 14.1870769,14.7729231 13.9633846,14.7729231 C13.7396923,14.7729231 13.5523077,14.6944615 13.3950769,14.5372308 L9.94461538,11.0864615 L6.49384615,14.5372308 C6.33661538,14.6944615 6.14338462,14.7729231 5.91384615,14.7729231 C5.68984615,14.7729231 5.49661538,14.6944615 5.33938462,14.5372308 C5.18246154,14.38 5.104,14.1867692 5.104,13.9633846 C5.104,13.7393846 5.18246154,13.5523077 5.33938462,13.3950769 L8.79015385,9.93230769 L5.33938462,6.49353846 C5.18246154,6.33630769 5.104,6.14307692 5.104,5.91323077 C5.104,5.68984615 5.18246154,5.49661538 5.33938462,5.33938462 C5.49661538,5.18215385 5.684,5.10369231 5.91384615,5.10369231 C6.13723077,5.10369231 6.33046154,5.18215385 6.49384615,5.33938462 L9.94461538,8.79015385 L13.3950769,5.35138462 C13.5523077,5.19415385 13.7396923,5.116 13.9633846,5.116 C14.1870769,5.116 14.3803077,5.19415385 14.5375385,5.35138462 C14.6944615,5.50861538 14.7729231,5.69569231 14.7729231,5.91938462 C14.7729231,6.14923077 14.6944615,6.33630769 14.5375385,6.49353846 L11.0867692,9.94430769 Z" id="path-1"></path>
    </defs>
    <g id="LICENCIAS-&gt;-CARO" stroke="none" stroke-width="1" fill="none" fill-rule="evenodd">
        <g id="005_licencias_dkt" transform="translate(-275.000000, -594.000000)">
            <g id="rechazado" transform="translate(275.000000, 594.000000)">
                <circle id="Oval" fill="#FFFFFF" cx="9.5" cy="10.5" r="9.5"></circle>
                <mask id="mask-2" fill="white">
                    <use xlink:href="#path-1"></use>
                </mask>
                <use id="Clip-751" fill="#D7000F" xlink:href="#path-1"></use>
            </g>
        </g>
    </g>
</svg>