<?xml version="1.0" encoding="UTF-8"?>
<svg width="19px" height="19px" viewBox="0 0 19 19" version="1.1" xmlns="http://www.w3.org/2000/svg" xmlns:xlink="http://www.w3.org/1999/xlink">
    <!-- Generator: Sketch 49.1 (51147) - http://www.bohemiancoding.com/sketch -->
    <title>pendiente</title>
    <desc>Created with Sketch.</desc>
    <defs></defs>
    <g id="LICENCIAS-&gt;-CARO-1" stroke="none" stroke-width="1" fill="none" fill-rule="evenodd">
        <g id="LI-licencias-003" transform="translate(-15.000000, -191.000000)" fill="#A4219B" fill-rule="nonzero">
            <path d="M24.5,210 C19.2532949,210 15,205.746705 15,200.5 C15,195.253295 19.2532949,191 24.5,191 C29.7467051,191 34,195.253295 34,200.5 C34,205.746705 29.7467051,210 24.5,210 Z M24.5,204.153846 C22.4820365,204.153846 20.8461538,202.517964 20.8461538,200.5 C20.8461538,198.482036 22.4820365,196.846154 24.5,196.846154 C26.5179635,196.846154 28.1538462,198.482036 28.1538462,200.5 C28.1538462,202.517964 26.5179635,204.153846 24.5,204.153846 Z M24.5,208.538462 C28.9395197,208.538462 32.5384615,204.93952 32.5384615,200.5 C32.5384615,196.06048 28.9395197,192.461538 24.5,192.461538 C20.0604803,192.461538 16.4615385,196.06048 16.4615385,200.5 C16.4615385,204.93952 20.0604803,208.538462 24.5,208.538462 Z M24.5,202.692308 C25.7107781,202.692308 26.6923077,201.710778 26.6923077,200.5 C26.6923077,199.289222 25.7107781,198.307692 24.5,198.307692 C23.2892219,198.307692 22.3076923,199.289222 22.3076923,200.5 C22.3076923,201.710778 23.2892219,202.692308 24.5,202.692308 Z" id="pendiente"></path>
        </g>
    </g>
</svg>