<?xml version="1.0" encoding="UTF-8" standalone="no"?>
<svg width="12px" height="16px" viewBox="0 0 12 16" version="1.1" xmlns="http://www.w3.org/2000/svg" xmlns:xlink="http://www.w3.org/1999/xlink">
    <!-- Generator: Sketch 46.2 (44496) - http://www.bohemiancoding.com/sketch -->
    <title>Page 1</title>
    <desc>Created with Sketch.</desc>
    <defs>
        <polygon id="path-1" points="11.783975 0 0 0 0 15.99995 11.783975 15.99995"></polygon>
    </defs>
    <g id="01_REEM_Historico" stroke="none" stroke-width="1" fill="none" fill-rule="evenodd">
        <g id="003_Dktop" transform="translate(-885.000000, -758.000000)">
            <g id="Group-2" transform="translate(127.000000, 758.000000)">
                <g id="Page-1" transform="translate(758.000000, 0.000000)">
                    <mask id="mask-2" fill="white">
                        <use xlink:href="#path-1"></use>
                    </mask>
                    <g id="Clip-2"></g>
                    <path d="M7.949225,3.1742 L3.758725,3.1742 L3.758725,2.1327 L4.596725,2.1327 C4.850725,2.1327 5.028725,1.9297 5.053725,1.7007 C5.053725,1.2437 5.434725,0.8882 5.866225,0.8882 C6.323225,0.8882 6.678725,1.2437 6.678725,1.7007 C6.678725,1.9547 6.881475,2.1327 7.135725,2.1327 L7.973725,2.1327 L7.973725,3.1742 L7.949225,3.1742 Z M8.380725,1.2442 L7.491725,1.2442 C7.288475,0.53345 6.628225,-5e-05 5.840725,-5e-05 C5.053225,-5e-05 4.393225,0.53345 4.189725,1.2442 L3.300725,1.2442 C3.046975,1.2442 2.843725,1.4472 2.843725,1.7012 L2.843725,4.0632 L8.811975,4.0632 L8.811975,1.6757 C8.837725,1.4472 8.633975,1.2437 8.380725,1.2437 L8.380725,1.2442 Z M10.514225,2.1332 L9.574725,2.1332 L9.574725,3.0222 L10.514225,3.0222 C10.716975,3.0222 10.894975,3.2002 10.894975,3.40345 L10.894975,14.72995 C10.894975,14.93295 10.716975,15.11095 10.514225,15.11095 L1.269725,15.11095 C1.066975,15.11095 0.888975,14.93295 0.888975,14.72995 L0.888975,3.40345 C0.888975,3.2002 1.066975,3.0222 1.269725,3.0222 L2.133225,3.0222 L2.133225,2.1332 L1.269725,2.1332 C0.558725,2.1332 -2.5e-05,2.6917 -2.5e-05,3.40345 L-2.5e-05,14.72995 C-2.5e-05,15.4407 0.558475,15.99995 1.269725,15.99995 L10.514225,15.99995 C11.225225,15.99995 11.783975,15.44145 11.783975,14.72995 L11.783975,3.40345 C11.783975,2.6922 11.199975,2.1332 10.514225,2.1332 L10.514225,2.1332 Z M2.336475,13.10445 L3.225475,13.10445 L3.225475,12.21545 L2.336475,12.21545 L2.336475,13.10445 Z M4.241225,13.10445 L9.472725,13.10445 L9.472725,12.21545 L4.241225,12.21545 L4.241225,13.10445 Z M2.336475,6.9587 L3.225475,6.9587 L3.225475,6.0697 L2.336475,6.0697 L2.336475,6.9587 Z M4.241225,6.9587 L9.472725,6.9587 L9.472725,6.0697 L4.241225,6.0697 L4.241225,6.9587 Z M2.336475,9.0157 L3.225475,9.0157 L3.225475,8.1267 L2.336475,8.1267 L2.336475,9.0157 Z M4.241225,9.0157 L9.472725,9.0157 L9.472725,8.1267 L4.241225,8.1267 L4.241225,9.0157 Z M2.336475,11.07245 L3.225475,11.07245 L3.225475,10.18345 L2.336475,10.18345 L2.336475,11.07245 Z M4.241225,11.07245 L9.472725,11.07245 L9.472725,10.18345 L4.241225,10.18345 L4.241225,11.07245 Z" id="Fill-1" fill="#1697F3" mask="url(#mask-2)"></path>
                </g>
            </g>
        </g>
    </g>
</svg>