<?xml version="1.0" encoding="UTF-8"?>
<svg width="32px" height="38px" viewBox="0 0 32 38" version="1.1" xmlns="http://www.w3.org/2000/svg" xmlns:xlink="http://www.w3.org/1999/xlink">
    <!-- Generator: Sketch 49.1 (51147) - http://www.bohemiancoding.com/sketch -->
    <title>pathologist</title>
    <desc>Created with Sketch.</desc>
    <defs></defs>
    <g id="GES-III****" stroke="none" stroke-width="1" fill="none" fill-rule="evenodd">
        <g id="001_bonosGesIII" transform="translate(-369.000000, -595.000000)" fill="#0079C7" fill-rule="nonzero">
            <g id="Group-5" transform="translate(273.000000, 576.000000)">
                <g id="pathologist" transform="translate(96.000000, 19.000000)">
                    <path d="M15.5599063,10.8747851 C13.482311,10.8747851 11.7917649,12.5665076 11.7917649,14.6429264 C11.7917649,16.7193453 13.4834874,18.4110679 15.5599063,18.4110679 C17.6375016,18.4110679 19.3280476,16.7193453 19.3280476,14.6429264 C19.3280476,12.5665076 17.6363251,10.8747851 15.5599063,10.8747851 Z M28.9454549,30.414298 L28.9478078,30.4154744 C30.1030731,30.4154744 31.0254029,31.3389807 31.0254029,32.4930697 L31.0254029,35.6471087 C31.0254029,36.7247288 30.1018967,37.6470588 28.9478078,37.6470588 L6.2530794,37.6470588 C5.09781408,37.6470588 4.17548414,36.7235524 4.17548414,35.5694635 L4.17548414,35.0330063 C4.17548414,33.9553862 5.09781408,33.0330562 6.17543428,32.955411 L19.3739288,31.4848595 C21.21153,28.9331584 22.0173922,26.6061576 21.6385783,24.6462065 C21.3303505,22.8780152 20.2527304,21.5698125 19.2527554,20.7239512 C17.7892623,21.4921675 16.0987162,21.6462812 14.4846389,21.109824 L9.86710696,25.9485269 C9.48123422,26.3343996 8.944777,26.5661587 8.40361402,26.5661587 C7.86245105,26.5661587 7.32599383,26.4155742 6.94012109,26.0297015 L6.72365591,25.8238242 C6.62365841,26.0332307 6.49189698,26.2320493 6.32601877,26.4120448 C5.86603023,26.8708568 5.32604369,27.1026159 4.71194135,27.1026159 C4.09783902,27.1026159 3.55785248,26.8720333 3.09786394,26.4120448 L0.634395953,23.9485768 C-0.211465318,23.0250705 -0.211465318,21.6392226 0.634395953,20.7168926 C0.755569393,20.5992486 0.881448621,20.4921924 1.01321003,20.4039593 L0.9438,20.3380785 C0.0979387294,19.5698624 0.0979387294,18.2616597 0.86615488,17.4157984 L16.7916403,0.644451896 C17.5598564,-0.201409375 18.8680591,-0.201409375 19.7139204,0.566806776 L25.7137707,6.26195891 C26.559632,7.03017504 26.559632,8.33837773 25.7914159,9.184239 L22.0232745,13.1841393 C22.2550334,13.8747103 22.4091473,14.6464558 22.4091473,15.3382033 C22.4091473,15.4146718 22.4091473,15.492317 22.4091473,15.492317 C30.1101318,20.587484 28.9595721,27.4296664 27.8901871,30.531942 L28.9454549,30.414298 Z M4.86840804,24.9544341 L4.8672316,24.9544341 C4.94487672,24.8779654 4.94487672,24.7238517 4.8672316,24.6462065 L2.4037636,22.1827384 C2.32729493,22.1050933 2.24964981,22.1050933 2.24964981,22.1050933 C2.17318112,22.1050933 2.17318112,22.1062697 2.095536,22.1827384 C2.01789086,22.2592072 2.01789086,22.413321 2.095536,22.490966 L4.55900399,24.9544341 C4.63664911,25.0320792 4.79076292,25.0320792 4.86840804,24.9544341 Z M15.5599063,16.414647 C14.6375763,16.414647 13.8681837,15.6464309 13.8681837,14.7229244 C13.8681837,13.7994181 14.6363998,13.0312019 15.5599063,13.0312019 C16.5598812,13.0312019 17.2516288,13.7264787 17.2516288,14.7229244 C17.255158,15.6452544 16.4869419,16.414647 15.5599063,16.414647 Z M22.0997432,31.1060454 L22.0973903,31.1060454 L25.0279055,30.8519341 L25.6420077,30.782524 C26.4949276,28.910806 28.8442808,22.0145073 20.7891876,17.02522 L20.2527304,16.6393472 L20.3303755,15.9475998 C20.3303755,15.7193702 20.4080207,15.5652565 20.4080207,15.4111426 C20.4080207,14.7205716 20.2562598,14.1064692 19.9480322,13.4888376 L19.5621594,12.7970901 L24.3302758,7.71956962 L18.3304254,2.02441749 L2.40494005,18.7957641 L8.40479048,24.4909161 L14.0187682,18.5651816 L14.7105156,18.8734091 C16.0187183,19.4875115 17.556327,19.3333976 18.7104158,18.4875366 C18.7104158,18.4875366 19.3280476,18.1793088 19.3280476,18.1793088 L19.9456792,18.6392973 C21.4056429,19.7169176 23.2538321,21.5662833 23.7138206,24.3344495 C24.0220482,26.4108683 23.485591,28.7202225 22.0997432,31.1060454 Z M29.0219236,35.6459322 L29.0219236,35.6471087 L29.0219236,32.5695383 L6.3271952,35.109475 L6.3271952,35.6459322 L29.0219236,35.6459322 Z" id="path-1"></path>
                </g>
            </g>
        </g>
    </g>
</svg>