<?xml version="1.0" encoding="UTF-8"?>
<svg width="85px" height="77px" viewBox="0 0 85 77" version="1.1" xmlns="http://www.w3.org/2000/svg" xmlns:xlink="http://www.w3.org/1999/xlink">
    <!-- Generator: Sketch 49.1 (51147) - http://www.bohemiancoding.com/sketch -->
    <title>Group</title>
    <desc>Created with Sketch.</desc>
    <defs></defs>
    <g id="LICENCIAS-&gt;-CARO" stroke="none" stroke-width="1" fill="none" fill-rule="evenodd">
        <g id="000_licencias_dkt" transform="translate(-590.000000, -339.000000)" fill="#1697F3">
            <g id="Group" transform="translate(590.000000, 339.000000)">
                <path d="M42.8352062,46.6463148 C48.251452,46.6463148 53.3743476,41.5415 53.3743476,36.1443704 C53.3743476,34.6934907 52.1937921,33.5171019 50.7377736,33.5171019 C49.2853325,33.5171019 48.1047769,34.6934907 48.1047769,36.1443704 C48.1047769,38.6468704 45.3465699,41.3953426 42.8352062,41.3953426 C40.3238426,41.3953426 37.5656355,38.6468704 37.5656355,36.1443704 C37.5656355,34.6934907 36.38508,33.5171019 34.9290614,33.5171019 C33.4730429,33.5171019 32.2960648,34.6934907 32.2960648,36.1443704 C32.2960648,41.5415 37.415383,46.6463148 42.8352062,46.6463148" id="Fill-100"></path>
                <path d="M29.659133,25.6424259 C30.356734,25.6424259 31.0292929,25.3643704 31.5301347,24.8688611 C32.0166667,24.3804815 32.2921296,23.7102963 32.2921296,23.0151574 C32.2921296,22.3200185 32.0166667,21.6498333 31.5301347,21.1650185 C30.5427609,20.1811296 28.7755051,20.1811296 27.7881313,21.1650185 C27.3015993,21.6498333 27.0261364,22.3200185 27.0261364,23.0151574 C27.0261364,23.7102963 27.3015993,24.3804815 27.7988636,24.8688611 C28.2889731,25.3643704 28.9758418,25.6424259 29.659133,25.6424259" id="Fill-101"></path>
                <path d="M56.0080598,25.6424259 C56.691351,25.6424259 57.3782197,25.3643704 57.8647517,24.8688611 C58.3655934,24.3804815 58.6446338,23.7102963 58.6446338,23.0151574 C58.6446338,22.3200185 58.3655934,21.6498333 57.8647517,21.1650185 C56.8916877,20.1811296 55.1244318,20.1811296 54.1513678,21.1650185 C53.6505261,21.6498333 53.3750631,22.3200185 53.3750631,23.0151574 C53.3750631,23.7102963 53.6505261,24.3804815 54.1513678,24.8688611 C54.6378998,25.3643704 55.3104588,25.6424259 56.0080598,25.6424259" id="Fill-102"></path>
                <path d="M5.94463384,5.95038889 L79.7222012,5.95038889 L79.7222012,55.8364074 L42.8352062,55.8364074 C42.2055766,55.8364074 41.5974116,56.0609907 41.1180345,56.4673796 L27.0264941,68.5057593 L27.0264941,58.4601111 C27.0264941,57.0127963 25.8423611,55.8364074 24.38992,55.8364074 L5.94463384,55.8364074 L5.94463384,5.95038889 Z M0.675063131,58.4601111 C0.675063131,59.9109907 1.85561869,61.0873796 3.31163721,61.0873796 L21.753346,61.0873796 L21.753346,74.2130278 C21.753346,75.2396944 22.3543561,76.1736759 23.2880682,76.6014537 C23.6386574,76.7618704 24.0142887,76.8402963 24.38992,76.8402963 C25.0052399,76.8402963 25.6169823,76.6264074 26.1035143,76.2093241 L43.8082702,61.0873796 L82.3551978,61.0873796 C83.8112163,61.0873796 84.9917719,59.9109907 84.9917719,58.4601111 L84.9917719,3.32312037 C84.9917719,1.87224074 83.8112163,0.699416667 82.3551978,0.699416667 L3.31163721,0.699416667 C1.85561869,0.699416667 0.675063131,1.87224074 0.675063131,3.32312037 L0.675063131,58.4601111 Z" id="Fill-103"></path>
            </g>
        </g>
    </g>
</svg>