<?xml version="1.0" encoding="UTF-8" standalone="no"?>
<svg width="13px" height="13px" viewBox="0 0 13 13" version="1.1" xmlns="http://www.w3.org/2000/svg" xmlns:xlink="http://www.w3.org/1999/xlink">
    <!-- Generator: Sketch 46.2 (44496) - http://www.bohemiancoding.com/sketch -->
    <title>Group 5</title>
    <desc>Created with Sketch.</desc>
    <defs></defs>
    <g id="01_REEM_Historico" stroke="none" stroke-width="1" fill="none" fill-rule="evenodd">
        <g id="002_RH" transform="translate(-264.000000, -305.000000)" fill-rule="nonzero" fill="#1697F3">
            <g id="Group-5" transform="translate(259.000000, 300.000000)">
                <path d="M10.1385182,12.3682087 L4.14344584,12.3682087 C4.06375371,12.3682087 4,12.3043866 4,12.224609 L4,10.1663465 C4,10.0865689 4.06375371,10.0227468 4.14344584,10.0227468 L10.1225798,10.0227468 C10.2022719,10.0227468 10.2660256,9.95892474 10.2660256,9.87914713 L10.2660256,3.89359971 C10.2660256,3.81382209 10.3297793,3.75 10.4094715,3.75 L12.4655285,3.75 C12.5452207,3.75 12.6089744,3.81382209 12.6089744,3.89359971 L12.6089744,9.8631916 C12.6089744,9.94296922 12.6727281,10.0067913 12.7524202,10.0067913 L18.7315542,10.0067913 C18.8112463,10.0067913 18.875,10.0706134 18.875,10.150391 L18.875,12.2086535 C18.875,12.2884311 18.8112463,12.3522532 18.7315542,12.3522532 L12.7524202,12.3522532 C12.6727281,12.3522532 12.6089744,12.4160753 12.6089744,12.4958529 L12.6089744,18.4814003 C12.6089744,18.5611779 12.5452207,18.625 12.4655285,18.625 L10.4094715,18.625 C10.3297793,18.625 10.2660256,18.5611779 10.2660256,18.4814003 L10.2660256,12.4958529 C10.2819641,12.4320308 10.2182104,12.3682087 10.1385182,12.3682087 Z" id="Cerrar" transform="translate(11.437500, 11.187500) rotate(225.000000) translate(-11.437500, -11.187500) "></path>
            </g>
        </g>
    </g>
</svg>