<?xml version="1.0" encoding="UTF-8"?>
<svg width="25px" height="25px" viewBox="0 0 25 25" version="1.1" xmlns="http://www.w3.org/2000/svg" xmlns:xlink="http://www.w3.org/1999/xlink">
    <!-- Generator: Sketch 49.1 (51147) - http://www.bohemiancoding.com/sketch -->
    <title>Fill 1</title>
    <desc>Created with Sketch.</desc>
    <defs></defs>
    <g id="BONOS-&gt;-CARO-2*****" stroke="none" stroke-width="1" fill="none" fill-rule="evenodd">
        <g id="011_cotiza_dkt" transform="translate(-458.000000, -1002.000000)" fill="#0079C8">
            <path d="M470.5,1005.96887 C469.985547,1005.96887 469.566797,1005.5505 469.566797,1005.03603 L469.566797,1002.93323 C469.566797,1002.41876 469.985547,1002 470.5,1002 C471.014453,1002 471.433203,1002.41876 471.433203,1002.93323 L471.433203,1005.03603 C471.433203,1005.5505 471.014453,1005.96887 470.5,1005.96887 Z M463.790234,1008.71662 C463.538672,1008.71662 463.291406,1008.62677 463.112109,1008.46973 L461.645703,1007.00289 C461.273438,1006.631 461.273438,1006.07005 461.645703,1005.69816 C461.826953,1005.51691 462.058594,1005.4169 462.298047,1005.4169 C462.5375,1005.4169 462.769141,1005.51691 462.950781,1005.69816 L464.423047,1007.17008 C464.794922,1007.54197 464.794922,1008.10332 464.423047,1008.4752 C464.269531,1008.62872 464.039062,1008.71662 463.790234,1008.71662 Z M477.177344,1008.75646 C476.937891,1008.75646 476.70625,1008.65646 476.525,1008.4752 C476.34375,1008.29395 476.244141,1008.06191 476.244141,1007.82284 C476.244141,1007.58338 476.34375,1007.35134 476.525,1007.17008 L477.997266,1005.69816 C478.178516,1005.51691 478.410156,1005.4169 478.649609,1005.4169 C478.889453,1005.4169 479.120703,1005.51691 479.302344,1005.69816 C479.483594,1005.87942 479.583203,1006.11107 479.583203,1006.35092 C479.583203,1006.58999 479.483594,1006.82164 479.302344,1007.00289 L477.830078,1008.4752 C477.648828,1008.65646 477.416797,1008.75646 477.177344,1008.75646 Z M458.933203,1015.43401 C458.41875,1015.43401 458,1015.01486 458,1014.50039 C458,1013.98553 458.41875,1013.56716 458.933203,1013.56716 L461.035937,1013.56716 C461.550391,1013.56716 461.969141,1013.98553 461.969141,1014.50039 C461.969141,1015.01486 461.550391,1015.43401 461.035937,1015.43401 L458.933203,1015.43401 Z M479.964063,1015.43401 C479.449609,1015.43401 479.030859,1015.01486 479.030859,1014.50039 C479.030859,1013.98553 479.449609,1013.56716 479.964063,1013.56716 L482.066797,1013.56716 C482.58125,1013.56716 483,1013.98553 483,1014.50039 C483,1015.01486 482.58125,1015.43401 482.066797,1015.43401 L479.964063,1015.43401 Z M470.5,1010.17604 C468.115234,1010.17604 466.175391,1012.11555 466.175391,1014.50039 C466.175391,1016.88523 468.115234,1018.82514 470.5,1018.82514 C472.884375,1018.82514 474.824609,1016.88523 474.824609,1014.50039 C474.824609,1012.11555 472.884375,1010.17604 470.5,1010.17604 Z M470.5,1020.69121 C467.086328,1020.69121 464.308984,1017.91417 464.308984,1014.50039 C464.308984,1011.08661 467.086328,1008.30918 470.5,1008.30918 C473.913672,1008.30918 476.691016,1011.08661 476.691016,1014.50039 C476.691016,1017.91417 473.913672,1020.69121 470.5,1020.69121 Z M462.298047,1023.58427 C462.058594,1023.58427 461.826953,1023.48427 461.645703,1023.30301 C461.273438,1022.93112 461.273438,1022.36978 461.645703,1021.9975 L463.117969,1020.52558 C463.299219,1020.34471 463.530859,1020.24432 463.770312,1020.24432 C464.010156,1020.24432 464.241797,1020.34471 464.423047,1020.52558 C464.604297,1020.70683 464.703906,1020.93848 464.703906,1021.17833 C464.703906,1021.4174 464.604297,1021.64944 464.423047,1021.8307 L462.950781,1023.30301 C462.769141,1023.48427 462.5375,1023.58427 462.298047,1023.58427 Z M478.649609,1023.58427 C478.410156,1023.58427 478.178516,1023.48427 477.997266,1023.30301 L476.525,1021.8307 C476.34375,1021.64944 476.244141,1021.4174 476.244141,1021.17833 C476.244141,1020.93848 476.34375,1020.70683 476.525,1020.52558 C476.70625,1020.34471 476.937891,1020.24432 477.177344,1020.24432 C477.416797,1020.24432 477.648828,1020.34471 477.830078,1020.52558 L479.302344,1021.9975 C479.483594,1022.17915 479.583203,1022.41079 479.583203,1022.65025 C479.583203,1022.88972 479.483594,1023.12175 479.302344,1023.30301 C479.120703,1023.48427 478.889453,1023.58427 478.649609,1023.58427 Z M470.5,1027 C469.985547,1027 469.566797,1026.58124 469.566797,1026.06638 L469.566797,1023.96358 C469.566797,1023.4495 469.985547,1023.03113 470.5,1023.03113 C471.014453,1023.03113 471.433203,1023.4495 471.433203,1023.96358 L471.433203,1026.06638 C471.433203,1026.58124 471.014453,1027 470.5,1027 Z" id="Fill-1"></path>
        </g>
    </g>
</svg>