<?xml version="1.0" encoding="UTF-8" standalone="no"?>
<svg width="19px" height="12px" viewBox="0 0 19 12" version="1.1" xmlns="http://www.w3.org/2000/svg" xmlns:xlink="http://www.w3.org/1999/xlink">
    <!-- Generator: Sketch 46.2 (44496) - http://www.bohemiancoding.com/sketch -->
    <title>Fill 238</title>
    <desc>Created with Sketch.</desc>
    <defs></defs>
    <g id="01_REEM_Historico" stroke="none" stroke-width="1" fill="none" fill-rule="evenodd">
        <g id="003_Dktop" transform="translate(-692.000000, -869.000000)" fill="#1697F3">
            <g id="Group-3" transform="translate(372.000000, 859.000000)">
                <g id="adjunta">
                    <path d="M333,15.5 C333,17.3919529 331.464058,18.9260603 329.5,19 C327.535942,18.9260603 326,17.3919529 326,15.5 C326,13.6080471 327.535942,12.0739397 329.5,12 C331.464058,12.0739397 333,13.6080471 333,15.5 L333,15.5 Z M329.51843,19.9991613 C332.031484,19.9155691 334,17.9392706 334,15.5 C334,13.0607294 332.031484,11.0844309 329.51843,11.0005591 L329.5,11 L329.48157,11.0005591 C326.968228,11.0844309 325,13.0607294 325,15.5 C325,17.9392706 326.968228,19.9155691 329.48157,19.9991613 L329.5,20 L329.51843,19.9991613 Z M331.007719,10.0075424 L331,10 C331.002672,10.0023207 331.005344,10.0049316 331.007719,10.0075424 L331.007719,10.0075424 Z M328,11 L328.003266,11 L328,11 Z M331.004156,11.0037712 C331.002375,11.0023207 331.000891,11.0011604 331,11 L331.004156,11.0037712 Z M328.294125,20.8969406 L328.121709,20.8672006 C325.531262,20.4231619 323.039938,18.8213245 321.099806,16.3487824 C320.961633,16.1791761 320.967941,15.9020936 321.112422,15.7074586 C323.005395,13.2019375 325.494015,11.5768381 328.119306,11.1313271 L328.260483,11.1074762 L328.296528,11.078914 C328.660585,11.026501 329.044766,11 329.419336,11.0011778 L329.505844,11.0038279 L329.611276,11 C329.973831,11 330.340591,11.026501 330.704647,11.078914 L330.740692,11.1074762 L330.881869,11.1313271 C333.505959,11.5765437 335.993678,13.2010542 337.886951,15.7053974 C338.032934,15.9035659 338.039542,16.1800595 337.895061,16.3570272 C335.960936,18.8213245 333.469313,20.4231619 330.879166,20.8672006 L330.70675,20.8969406 L330.677914,20.9252083 C330.329176,20.9740879 329.975333,20.9991166 329.604668,20.9991166 L329.581839,20.9991166 L329.495031,20.9961721 L329.389598,21 C329.036356,21 328.678307,20.9749713 328.323262,20.9252083 L328.294125,20.8969406 Z M331.015,21.8829137 L331.190751,21.8544847 L331.226376,21.8190935 C333.993554,21.2951875 336.629216,19.5914778 338.659548,17.0131411 C339.10783,16.4648674 339.114065,15.6694355 338.674392,15.0788084 L338.671423,15.0747471 C336.662466,12.4250478 334.008101,10.6882676 331.184219,10.1719041 L331.128704,10.1365129 L331.015594,10.117947 C330.520405,10.0373014 330.016014,9.9810236 329.524091,10.0059715 L329.476591,10.0059715 C328.988527,9.9810236 328.480573,10.0373014 327.985384,10.117947 L327.868415,10.137093 L327.815275,10.1721942 C324.991097,10.6888478 322.337622,12.425628 320.326587,15.0782282 C319.886617,15.6694355 319.892851,16.4651575 320.335196,17.0050185 C322.371169,19.5911877 325.006831,21.2951875 327.774603,21.8190935 L327.810228,21.8544847 L327.985681,21.8829137 C328.48087,21.9635592 328.987637,22.0178064 329.476591,21.9945991 L329.524091,21.9945991 C329.552294,21.9960495 329.581091,21.9972099 329.609888,21.9972099 C330.075686,21.9972099 330.548906,21.9586277 331.015,21.8829137 L331.015,21.8829137 Z M329.651604,15.2879394 C329.651604,14.7575571 329.310534,14.2653451 328.818322,14.1135874 C329.045497,14.0378625 329.272671,14 329.499846,14 C330.901373,14 332,15.1364896 332,16.5001539 C332,17.9013729 330.86351,19 329.499846,19 C328.13649,19 327,17.8635104 327,16.5001539 C327,16.1590839 327.076033,15.8183217 327.18962,15.5529767 C327.303208,16.1212214 327.79542,16.5380164 328.401527,16.5380164 C329.083359,16.5380164 329.651604,15.9697716 329.651604,15.2879394 L329.651604,15.2879394 Z" id="Fill-238"></path>
                </g>
            </g>
        </g>
    </g>
</svg>