<?xml version="1.0" encoding="UTF-8" standalone="no"?>
<svg width="13px" height="13px" viewBox="0 0 13 13" version="1.1" xmlns="http://www.w3.org/2000/svg" xmlns:xlink="http://www.w3.org/1999/xlink">
    <!-- Generator: Sketch 46.2 (44496) - http://www.bohemiancoding.com/sketch -->
    <title>Group 8</title>
    <desc>Created with Sketch.</desc>
    <defs></defs>
    <g id="01_REEM_Historico" stroke="none" stroke-width="1" fill="none" fill-rule="evenodd">
        <g id="004_Dktop" transform="translate(-157.000000, -353.000000)">
            <g id="Group-2" transform="translate(146.000000, 209.000000)">
                <g id="Group-8" transform="translate(11.000000, 144.000000)">
                    <g id="Group-7">
                        <path d="M3.29407787,11.2297883 C4.23010456,12.0836646 5.41473261,12.59375 6.703125,12.59375 C9.73206167,12.59375 12.1875,9.77454303 12.1875,6.296875 C12.1875,2.81920697 9.73206167,0 6.703125,0 C3.67418833,0 1.21875,2.81920697 1.21875,6.296875 C1.21875,7.31729422 1.43015246,8.28102283 1.8054154,9.13347559 L0.8125,11.78125 L3.29407787,11.2297883 Z" id="Oval" fill="#FFFFFF"></path>
                        <path d="M6.61110938,8.328125 C6.2131875,8.328125 5.890625,8.65089063 5.890625,9.0488125 C5.890625,9.4469375 6.2131875,9.7695 6.61110938,9.7695 C7.00903125,9.7695 7.33179688,9.4469375 7.33179688,9.0488125 C7.33179688,8.65089063 7.00903125,8.328125 6.61110938,8.328125" id="Fill-150" fill="#0079C8"></path>
                        <path d="M6.61110938,2.84375 C6.2131875,2.84375 5.890625,3.1663125 5.890625,3.5644375 L6.13071875,7.36754688 C6.13071875,7.63303125 6.34582812,7.84814063 6.61110938,7.84814063 C6.87639063,7.84814063 7.0915,7.63303125 7.0915,7.36754688 L7.33179688,3.5644375 C7.33179688,3.1663125 7.00903125,2.84375 6.61110938,2.84375" id="Fill-152" fill="#0079C8"></path>
                        <path d="M4.13217188,0.494203125 C3.35501563,0.824484375 2.679625,1.278875 2.10579687,1.8525 C1.52953125,2.4285625 1.07270313,3.10151563 0.73490625,3.86892188 C0.3973125,4.63876562 0.230953125,5.4608125 0.230953125,6.32978125 C0.230953125,6.920875 0.310578125,7.49714062 0.474296875,8.04821875 C0.633140625,8.60214062 0.85921875,9.11604687 1.152125,9.58790625 L0,12.9876094 L3.531125,11.8726563 C3.99303125,12.1184375 4.48235938,12.3095781 5.00378125,12.4487188 C5.52032812,12.5878594 6.05921875,12.6573281 6.61557813,12.6573281 C7.50201563,12.6573281 8.3289375,12.4909687 9.10385938,12.1580469 C9.87370313,11.8253281 10.5490937,11.3709375 11.1300313,10.79975 C11.7111719,10.2285625 12.1682031,9.5606875 12.5007188,8.79084375 C12.8336406,8.0234375 13,7.20159375 13,6.32978125 C13,5.4608125 12.8336406,4.63876562 12.5007188,3.86892188 C12.1682031,3.10151563 11.7111719,2.4285625 11.1300313,1.8525 C10.5490937,1.278875 9.87370313,0.824484375 9.10385938,0.494203125 C8.3289375,0.163921875 7.50201563,0 6.61557813,0 C5.73401563,0 4.90689062,0.163921875 4.13217188,0.494203125 M5.04846875,11.415625 C4.54939063,11.2640937 4.08748438,11.0481719 3.67270312,10.7674531 L1.59920313,11.415625 L2.27703125,9.44876563 C1.95203125,9.01184375 1.70096875,8.52759375 1.52221875,7.99621875 C1.34346875,7.46971875 1.25409375,6.9135625 1.25409375,6.32978125 C1.25409375,5.5924375 1.39546875,4.90201563 1.6761875,4.25628125 C1.95690625,3.6083125 2.34182813,3.0444375 2.82851562,2.56282812 C3.31276562,2.08101562 3.88375,1.69853125 4.53435938,1.42045312 C5.18760937,1.14217188 5.87803125,1.00323438 6.61557813,1.00323438 C7.358,1.00323438 8.05329688,1.14217188 8.70654688,1.42045312 C9.35939062,1.69853125 9.92814063,2.08101562 10.4150313,2.56282812 C10.9015156,3.0444375 11.284,3.6083125 11.5671563,4.25628125 C11.8476719,4.90201563 11.9894531,5.5924375 11.9894531,6.32978125 C11.9894531,7.06489062 11.8476719,7.7553125 11.5671563,8.39596875 C11.284,9.0390625 10.9015156,9.6005 10.4150313,10.0845469 C9.92814063,10.5663594 9.35939062,10.9464063 8.70654688,11.2244844 C8.05329688,11.505 7.358,11.6441406 6.61557813,11.6441406 C6.06653125,11.6441406 5.54775,11.5671562 5.04846875,11.415625" id="Fill-122" fill="#0079C8"></path>
                    </g>
                </g>
            </g>
        </g>
    </g>
</svg>