<?xml version="1.0" encoding="UTF-8"?>
<svg width="20px" height="26px" viewBox="0 0 20 26" version="1.1" xmlns="http://www.w3.org/2000/svg" xmlns:xlink="http://www.w3.org/1999/xlink">
    <!-- Generator: Sketch 49.1 (51147) - http://www.bohemiancoding.com/sketch -->
    <title>icon-document</title>
    <desc>Created with Sketch.</desc>
    <defs></defs>
    <g id="Bonos" stroke="none" stroke-width="1" fill="none" fill-rule="evenodd" stroke-linecap="round" stroke-linejoin="round">
        <g id="Artboard-2" transform="translate(-1.000000, -2.000000)" stroke="#4A4A4A" stroke-width="0.6">
            <g id="icon-document" transform="translate(2.000000, 3.000000)">
                <path d="M0.921,23.931 C0.699,23.931 0.519,23.751 0.519,23.531 L0.519,0.921 C0.519,0.701 0.699,0.52 0.921,0.52 L12.308,0.52 L12.308,4.768 C12.308,5.323 12.76,5.774 13.313,5.774 L17.561,5.774 L17.561,23.531 C17.561,23.751 17.382,23.931 17.16,23.931 L0.921,23.931 Z M17.194,5.253 L13.313,5.253 C13.046,5.253 12.828,5.036 12.828,4.768 L12.828,0.887 L15.012,3.071 L17.194,5.253 Z M12.753,0.077 L12.677,0 L0.921,0 C0.412,0 0,0.413 0,0.921 L0,23.531 C0,24.038 0.412,24.452 0.921,24.452 L17.16,24.452 C17.669,24.452 18.082,24.038 18.082,23.531 L18.082,5.406 L15.379,2.703 L12.753,0.077 Z" id="Stroke-376"></path>
                <path d="M14.7879,9.4232 L3.2929,9.4232 C3.1489,9.4232 3.0329,9.5392 3.0329,9.6832 C3.0329,9.8262 3.1489,9.9432 3.2929,9.9432 L14.7879,9.9432 C14.9329,9.9432 15.0489,9.8262 15.0489,9.6832 C15.0489,9.5392 14.9329,9.4232 14.7879,9.4232" id="Stroke-377"></path>
                <path d="M14.7879,12.6156 L3.2929,12.6156 C3.1489,12.6156 3.0329,12.7316 3.0329,12.8756 C3.0329,13.0186 3.1489,13.1356 3.2929,13.1356 L14.7879,13.1356 C14.9329,13.1356 15.0489,13.0186 15.0489,12.8756 C15.0489,12.7316 14.9329,12.6156 14.7879,12.6156" id="Stroke-378"></path>
                <path d="M14.7879,15.8079 L3.2929,15.8079 C3.1489,15.8079 3.0329,15.9239 3.0329,16.0679 C3.0329,16.2099 3.1489,16.3279 3.2929,16.3279 L14.7879,16.3279 C14.9329,16.3279 15.0489,16.2099 15.0489,16.0679 C15.0489,15.9239 14.9329,15.8079 14.7879,15.8079" id="Stroke-379"></path>
                <path d="M8.9227,19.0003 L3.2927,19.0003 C3.1497,19.0003 3.0327,19.1163 3.0327,19.2603 C3.0327,19.4023 3.1497,19.5203 3.2927,19.5203 L8.9227,19.5203 C9.0677,19.5203 9.1837,19.4023 9.1837,19.2603 C9.1837,19.1163 9.0677,19.0003 8.9227,19.0003" id="Stroke-380"></path>
            </g>
        </g>
    </g>
</svg>