<?xml version="1.0" encoding="UTF-8"?>
<svg width="18px" height="18px" viewBox="0 0 18 18" version="1.1" xmlns="http://www.w3.org/2000/svg" xmlns:xlink="http://www.w3.org/1999/xlink">
    <!-- Generator: Sketch 49.1 (51147) - http://www.bohemiancoding.com/sketch -->
    <title>tootip</title>
    <desc>Created with Sketch.</desc>
    <defs></defs>
    <g id="design***" stroke="none" stroke-width="1" fill="none" fill-rule="evenodd">
        <g id="Home_desk-formulario" transform="translate(-1081.000000, -316.000000)">
            <g id="tootip" transform="translate(1082.000000, 317.000000)">
                <g id="Help">
                    <circle id="Oval" stroke="#0077CB" stroke-width="1" cx="8" cy="8" r="8"></circle>
                    <path d="M7.432,9.648 C7.432,7.8 9.4816,7.632 9.4816,6.1648 C9.4816,5.3584 8.8208,4.7984 7.6784,4.7984 C6.7264,4.7984 6.032,5.112 5.5392,5.7056 L4.9456,5.2576 C5.5504,4.5184 6.48,4.0928 7.7344,4.0928 C9.3024,4.0928 10.3104,4.8432 10.3104,6.0416 C10.3104,7.9568 8.2608,8.0464 8.2608,9.648 L7.432,9.648 Z M7.8464,12.056 C7.5216,12.056 7.264,11.7872 7.264,11.4736 C7.264,11.1488 7.5216,10.9024 7.8464,10.9024 C8.1824,10.9024 8.44,11.1488 8.44,11.4736 C8.44,11.7872 8.1824,12.056 7.8464,12.056 Z" id="?" fill="#0077CB" fill-rule="evenodd"></path>
                </g>
            </g>
        </g>
    </g>
</svg>