<?xml version="1.0" encoding="UTF-8"?>
<svg width="37px" height="33px" viewBox="0 0 37 33" version="1.1" xmlns="http://www.w3.org/2000/svg" xmlns:xlink="http://www.w3.org/1999/xlink">
    <!-- Generator: Sketch 49.1 (51147) - http://www.bohemiancoding.com/sketch -->
    <title>icono urgencia</title>
    <desc>Created with Sketch.</desc>
    <defs></defs>
    <g id="BONOS-&gt;-CARO-2*****" stroke="none" stroke-width="1" fill="none" fill-rule="evenodd">
        <g id="002_cotiza_dkt" transform="translate(-286.000000, -386.000000)" fill="#0079C8">
            <g id="icono-consultas" transform="translate(279.000000, 381.000000)">
                <path d="M30.8764655,29.5339874 L27.2712069,29.5339874 L27.2712069,33.2145277 L23.5908621,33.2145277 L23.5908621,29.5339874 L19.9850431,29.5339874 L19.9850431,25.7779489 L23.5908621,25.7779489 L23.5908621,22.0974086 L27.2712069,22.0974086 L27.2712069,25.7779489 L30.8764655,25.7779489 L30.8764655,29.5339874 Z M41.0523276,17.9169783 L36.3986638,17.9169783 L36.3919397,16.368692 C36.3919397,15.6914954 35.8528879,15.1418452 35.1956034,15.1481367 C34.5321552,15.1481367 33.9936638,15.6983589 33.9998276,16.368692 L33.9981466,17.9169783 L16.8566379,17.9169783 L16.8499138,16.368692 C16.8499138,15.6914954 16.3108621,15.1418452 15.6535776,15.1481367 C14.9901293,15.1481367 14.4516379,15.6983589 14.4578017,16.368692 L14.4561207,17.9169783 L9.80974138,17.9169783 L9.80974138,14.7746491 C9.80974138,14.1294822 10.0467672,13.5769722 10.5084914,13.0930969 C10.9825431,12.6218047 11.53,12.3798671 12.1559052,12.3798671 L38.7061638,12.3798671 C39.3382328,12.3798671 39.8851293,12.6218047 40.3530172,13.0930969 C40.8276293,13.5769722 41.0523276,14.1294822 41.0523276,14.7746491 L41.0523276,17.9169783 Z M41.0523276,33.1887897 C41.0523276,33.8276651 40.8276293,34.3927582 40.3530172,34.8703419 C39.8851293,35.3542171 39.3382328,35.5835716 38.7061638,35.5835716 L12.1559052,35.5835716 C11.53,35.5835716 10.9825431,35.3605086 10.5084914,34.907519 C10.0467672,34.4482379 9.80974138,33.8774253 9.80974138,33.1887897 L9.80974138,19.7277927 L14.453319,19.7277927 L14.4516379,20.9048792 C14.4516379,21.5815038 14.9906897,22.131726 15.6474138,22.1248625 C16.3114224,22.1248625 16.877931,21.5752123 16.8712069,20.9048792 L16.8656034,19.7277927 L33.9953448,19.7277927 L33.9936638,20.9048792 C33.9936638,21.5815038 34.5327155,22.131726 35.1894397,22.1248625 C35.8534483,22.1248625 36.4199569,21.5752123 36.4132328,20.9048792 L36.4076293,19.7277927 L41.0523276,19.7277927 L41.0523276,33.1887897 Z M20.1430603,9.81121035 C20.1430603,9.16604338 20.3800862,8.61353337 20.8418103,8.12965815 C21.3158621,7.65836596 21.8627586,7.41642835 22.4886638,7.41642835 L28.3728448,7.41642835 C29.0049138,7.41642835 29.5523707,7.65836596 30.0202586,8.12965815 C30.49375,8.61353337 30.7190086,9.16604338 30.7190086,9.81121035 L30.7190086,10.0222623 L20.1368966,10.0222623 L20.1430603,9.81121035 Z M41.9819397,11.4367108 C41.0646552,10.499846 39.9703017,10.0222623 38.7061638,10.0222623 L33.02875,10.0222623 L33.02875,9.81121035 C33.02875,8.52659598 32.5608621,7.41642835 31.649181,6.47327203 C30.7313362,5.53640723 29.6369828,5.05882353 28.3728448,5.05882353 L22.4886638,5.05882353 C21.2306897,5.05882353 20.1430603,5.53640723 19.2184914,6.47327203 C18.3012069,7.41642835 17.833319,8.52659598 17.833319,9.81121035 L17.833319,10.0222623 L12.1559052,10.0222623 C10.897931,10.0222623 9.80974138,10.499846 8.88573276,11.4367108 C7.96788793,12.3798671 7.5,13.4900348 7.5,14.7746491 L7.5,33.1887897 C7.5,34.5288838 7.96788793,35.6522064 8.88573276,36.5639051 C9.80974138,37.4881869 10.897931,37.9411765 12.1559052,37.9411765 L38.7061638,37.9411765 C39.9703017,37.9411765 41.0646552,37.4881869 41.9819397,36.5639051 C42.8936207,35.6522064 43.362069,34.5288838 43.362069,33.1887897 L43.362069,14.7746491 C43.362069,13.4900348 42.8936207,12.3798671 41.9819397,11.4367108 Z" id="Fill-202"></path>
            </g>
        </g>
    </g>
</svg>