<?xml version="1.0" encoding="UTF-8"?>
<svg width="24px" height="26px" viewBox="0 0 24 26" version="1.1" xmlns="http://www.w3.org/2000/svg" xmlns:xlink="http://www.w3.org/1999/xlink">
    <!-- Generator: Sketch 49.1 (51147) - http://www.bohemiancoding.com/sketch -->
    <title>general-medicine</title>
    <desc>Created with Sketch.</desc>
    <defs></defs>
    <g id="GES-III****" stroke="none" stroke-width="1" fill="none" fill-rule="evenodd">
        <g id="004_bonosGesIII" transform="translate(-200.000000, -793.000000)" fill="#0079C7" fill-rule="nonzero">
            <g id="general-medicine" transform="translate(200.000000, 793.000000)">
                <path d="M17.9267341,8.61982219 L17.9267341,4.03438312 C17.9267341,2.55654583 16.7061272,1.35575225 15.1983674,1.35575225 L13.5251015,1.35575225 L13.5251015,0.769167027 C13.5565477,0.37594369 13.2561543,0.0330919335 12.8556297,0.00221902651 C12.4551051,-0.0286538675 12.1058875,0.266263626 12.0744413,0.659486963 C12.0719587,0.695234545 12.0719587,0.733419458 12.0744413,0.768354579 L12.0744413,3.23087511 C12.0429952,3.62409844 12.3433886,3.96695019 12.7439131,3.99782309 C13.1444377,4.028696 13.4936554,3.73377851 13.5251015,3.34055517 C13.5275842,3.30480759 13.5275842,3.26662268 13.5251015,3.23168755 L13.5251015,2.76696907 L15.1983674,2.76696907 C15.9125259,2.76696907 16.4884869,3.33324316 16.4884869,4.03357068 L16.4884869,8.62144709 C16.4239395,9.6093801 15.9456271,10.5282553 15.1644387,11.1554628 L10.3622816,14.4913616 L5.55764185,11.1530254 C4.77645344,10.5258179 4.29565845,9.60694275 4.2335937,8.61900974 L4.2335937,4.03357068 C4.2335937,3.33324316 4.81038217,2.76696907 5.52371311,2.76696907 L6.7029435,2.76696907 L6.7029435,3.23168755 C6.67232489,3.62491089 6.97189077,3.96776263 7.37241534,3.99863554 C7.7729399,4.02950845 8.12215761,3.73459094 8.15360375,3.34136762 C8.15608634,3.30562004 8.15608634,3.26743512 8.15360375,3.23249999 L8.15360375,0.769979475 C8.18422236,0.376756138 7.88465647,0.0339043815 7.4841319,0.00303147451 C7.08360733,-0.0278414325 6.73438964,0.267076074 6.7029435,0.660299411 C6.7004609,0.69604698 6.7004609,0.734231893 6.7029435,0.769167027 L6.7029435,1.3403158 L5.51047263,1.3403158 C4.00519539,1.33056646 2.77465814,2.52323559 2.76638283,4.00107287 C2.76638283,4.01163466 2.76638283,4.02382134 2.76638283,4.03438312 L2.76638283,8.62225952 C2.83920549,10.0667866 3.54757125,11.409758 4.70611338,12.30101 L9.72591095,15.7847738 L9.72591095,21.7229337 C9.64315789,22.5808755 9.20870462,23.370572 8.52102711,23.9116602 C7.69101443,24.5161193 6.46544236,24.7062314 5.07932945,24.4576233 C2.92775121,24.0692746 1.28841409,22.6198729 1.53915571,21.2996499 C1.72286739,20.6245082 2.2375911,20.0809825 2.91202814,19.8502482 C3.8736181,19.4716488 4.92623638,19.3782177 5.93996075,19.5764543 C6.66653217,19.6958836 7.34427931,20.0078626 7.90534472,20.4750183 C8.091539,20.6277579 8.27525067,20.7699358 8.45647976,20.8966772 L8.45647976,19.1019864 C7.6546031,18.5665852 6.73190704,18.2310454 5.76700697,18.1270526 C4.5828114,17.9572515 3.37213486,18.1018668 2.26572713,18.5487115 C1.14359633,18.9573712 0.311101055,19.8965576 0.0496015434,21.0445422 C-0.350923023,23.1975212 1.71541962,25.3147526 4.75659272,25.8631529 C5.23242252,25.9517094 5.7132175,25.9980188 6.19732261,25.9980188 C7.33517649,26.0288917 8.44985953,25.6982266 9.38083094,25.0563951 C10.2778735,24.3836908 10.8910733,23.4087569 11.1004384,22.3192683 C11.131057,22.174653 11.1525728,22.0527863 11.1649858,21.9561053 C11.1773988,21.8594245 11.1649858,21.7326831 11.185674,21.6896234 L11.185674,15.6417836 L15.9952789,12.3001977 C17.153821,11.4065082 17.8572216,10.0635368 17.9267341,8.62144709 L17.9267341,8.61982219 Z M19.0877589,13.2458836 C16.7913629,13.2410088 14.924455,15.0665726 14.9219724,17.3235446 C14.9194898,18.1871734 15.1958849,19.0272415 15.7130912,19.7251317 C15.1826443,20.4839552 14.3683547,21.0071697 13.4448311,21.1777831 C13.1030612,21.2257174 12.7571537,21.2257174 12.4153838,21.1777831 L12.4153838,22.6174355 C12.5883375,22.6174355 12.7596362,22.6483084 12.9276248,22.6483084 C13.1808491,22.6458712 13.4349007,22.62556 13.6856424,22.5849377 C14.9219724,22.3818265 16.0308627,21.7188715 16.783915,20.7341883 C18.6946821,21.9959152 21.2840237,21.4986989 22.569178,19.6219512 C23.8543322,17.7452035 23.3478838,15.2038757 21.4362893,13.9421487 C20.7436466,13.4847423 19.9235643,13.2410088 19.0885864,13.2466959 L19.0877589,13.2458836 Z M19.0877589,20.0046127 C17.5849642,20.0046127 16.37015,18.8086938 16.37015,17.3365436 C16.37015,15.8611436 17.5882744,14.6684746 19.0877589,14.6684746 C20.5905535,14.6684746 21.8053677,15.8643935 21.8053677,17.3365436 C21.8078503,18.8119435 20.5922086,20.0078626 19.0902414,20.0102998 C19.0877589,20.0102998 19.0877589,20.0102998 19.0852763,20.0102998 L19.0852763,20.0054252 L19.0877589,20.0046127 Z M19.092724,16.1170638 C19.7804016,16.1170638 20.3365018,16.6630268 20.3365018,17.3381685 C20.3365018,18.0133103 19.7779189,18.5592732 19.092724,18.5592732 C18.4075291,18.5592732 17.8489463,18.0133103 17.8489463,17.3381685 C17.8489463,16.6630268 18.4050465,16.1170638 19.092724,16.1170638 Z" id="path-1"></path>
            </g>
        </g>
    </g>
</svg>