<?xml version="1.0" encoding="UTF-8" standalone="no"?>
<svg width="22px" height="23px" viewBox="0 0 22 23" version="1.1" xmlns="http://www.w3.org/2000/svg" xmlns:xlink="http://www.w3.org/1999/xlink">
    <!-- Generator: Sketch 46.2 (44496) - http://www.bohemiancoding.com/sketch -->
    <title>Mask</title>
    <desc>Created with Sketch.</desc>
    <defs>
        <path d="M1.69176877,23 C1.29219378,23 1,22.714683 1,22.3194076 L1,3.39361935 C1,3.00049995 1.29000232,2.7130269 1.69176877,2.7130269 L6.095129,2.7130269 L6.095129,1.85923195 C6.095129,0.781208012 6.91473254,0 8.04479198,0 C9.17485141,0 9.99445496,0.781208012 9.99445496,1.85923195 L9.99445496,2.7130269 L14.005545,2.7130269 L14.005545,1.85923195 C14.005545,0.781208012 14.8251486,0 15.955208,0 C17.0852675,0 17.904871,0.781208012 17.904871,1.85923195 L17.904871,2.7130269 L22.3082312,2.7130269 C22.7078062,2.7130269 23,2.99834391 23,3.39361935 L23,22.3194076 C23,22.712527 22.7099977,23 22.3082312,23 L1.69249925,23 L1.69176877,23 Z M2.3806156,21.6409712 L21.5536408,21.6409712 L21.5536408,9.85242009 L2.3806156,9.85242009 L2.3806156,21.6409712 Z M2.3806156,8.4330219 L21.5536408,8.4330219 L21.5536408,4.07349311 L17.8420493,4.07349311 L17.8420493,4.92728807 C17.8420493,6.005312 17.0224458,6.78652001 15.8923864,6.78652001 C14.7623269,6.78652001 13.9427234,6.00459332 13.9427234,4.92656938 L13.9427234,4.07277443 L9.9316333,4.07277443 L9.9316333,4.92656938 C9.9316333,6.00459332 9.11202975,6.78652001 7.98197032,6.78652001 C6.85191088,6.78652001 6.03230733,6.00459332 6.03230733,4.92656938 L6.03230733,4.21938568 L5.94318823,4.30706496 L5.94318823,4.07564916 L2.37988511,4.07564916 L2.37988511,8.4330219 L2.3806156,8.4330219 Z M15.9544775,0.950098428 C15.3905435,0.950098428 15.0274928,1.30728369 15.0274928,1.86210668 L15.0274928,4.92800675 C15.0274928,5.4468956 15.4270678,5.840015 15.9544775,5.840015 C16.4818873,5.840015 16.8814623,5.4468956 16.8814623,4.92800675 L16.8814623,1.86210668 C16.8814623,1.30728369 16.5162201,0.950098428 15.9544775,0.950098428 Z M8.04187004,0.950098428 C7.47793605,0.950098428 7.11488528,1.30728369 7.11488528,1.86210668 L7.11488528,4.92800675 C7.11488528,5.48282973 7.47793605,5.840015 8.04187004,5.840015 C8.60580403,5.840015 8.9688548,5.48282973 8.9688548,4.92800675 L8.9688548,1.86210668 C8.9688548,1.34106178 8.57147126,0.950098428 8.04187004,0.950098428 Z M15.3540193,19.8758866 C14.8974665,19.8758866 14.4840124,19.4669562 14.4840124,19.0199356 C14.4840124,18.570759 14.899658,18.1639846 15.3540193,18.1639846 C15.8996912,18.1639846 16.2240263,18.5995063 16.2240263,19.0199356 C16.2262178,19.4669562 15.8105721,19.8758866 15.3540193,19.8758866 Z M12.057343,19.8758866 C11.6007903,19.8758866 11.1873361,19.4669562 11.1873361,19.0199356 C11.1873361,18.570759 11.6029817,18.1639846 12.057343,18.1639846 C12.5138958,18.1639846 12.9295415,18.572915 12.9295415,19.0199356 C12.9295415,19.4669562 12.5138958,19.8758866 12.057343,19.8758866 Z M8.76139722,19.8758866 C8.30484444,19.8758866 7.89139024,19.4669562 7.89139024,19.0199356 C7.89139024,18.5980689 8.21791679,18.1639846 8.76139722,18.1639846 C9.21795,18.1639846 9.63140419,18.572915 9.63140419,19.0199356 C9.63359564,19.4669562 9.21795,19.8758866 8.76139722,19.8758866 Z M5.40555168,19.8758866 C4.9489989,19.8758866 4.53335326,19.4669562 4.53335326,19.0199356 C4.53335326,18.570759 4.9489989,18.1639846 5.40555168,18.1639846 C5.86210446,18.1639846 6.27555865,18.572915 6.27555865,19.0199356 C6.27775011,19.4669562 5.86210446,19.8758866 5.40555168,19.8758866 L5.40555168,19.8758866 Z M18.7098649,16.5742587 C18.2533121,16.5742587 17.8398579,16.1653283 17.8398579,15.7183077 C17.8398579,15.2066056 18.1890295,14.8623567 18.7098649,14.8623567 C19.1664176,14.8623567 19.5798718,15.2712871 19.5798718,15.7183077 C19.5820633,16.1653283 19.1664176,16.5742587 18.7098649,16.5742587 Z M15.3540193,16.5742587 C14.8974665,16.5742587 14.4840124,16.1653283 14.4840124,15.7183077 C14.4840124,15.1814517 14.9266859,14.8623567 15.3540193,14.8623567 C15.8105721,14.8623567 16.2240263,15.2712871 16.2240263,15.7183077 C16.2262178,16.1653283 15.8105721,16.5742587 15.3540193,16.5742587 Z M12.057343,16.5742587 C11.6007903,16.5742587 11.1873361,16.1653283 11.1873361,15.7183077 C11.1873361,15.269131 11.6029817,14.8623567 12.057343,14.8623567 C12.4861374,14.8623567 12.9295415,15.1836078 12.9295415,15.7183077 C12.9295415,16.1653283 12.5138958,16.5742587 12.057343,16.5742587 Z M8.76139722,16.5742587 C8.30484444,16.5742587 7.89139024,16.1653283 7.89139024,15.7183077 C7.89139024,15.2066056 8.24056181,14.8623567 8.76139722,14.8623567 C9.21795,14.8623567 9.63140419,15.2712871 9.63140419,15.7183077 C9.63359564,16.1653283 9.21795,16.5742587 8.76139722,16.5742587 Z M5.40555168,16.5742587 C4.9489989,16.5742587 4.53335326,16.1653283 4.53335326,15.7183077 C4.53335326,15.1814517 4.97602683,14.8623567 5.40555168,14.8623567 C5.86210446,14.8623567 6.27555865,15.2712871 6.27555865,15.7183077 C6.27775011,16.1653283 5.86210446,16.5742587 5.40555168,16.5742587 L5.40555168,16.5742587 Z M18.7098649,13.2122614 C18.2533121,13.2122614 17.8398579,12.8033309 17.8398579,12.3563103 C17.8398579,11.9344436 18.1663844,11.5003593 18.7098649,11.5003593 C19.1664176,11.5003593 19.5798718,11.9092898 19.5798718,12.3563103 C19.5820633,12.8033309 19.1664176,13.2122614 18.7098649,13.2122614 Z M15.3540193,13.2122614 C14.8974665,13.2122614 14.4840124,12.8033309 14.4840124,12.3563103 C14.4840124,11.9071337 14.899658,11.5003593 15.3540193,11.5003593 C15.8105721,11.5003593 16.2240263,11.9092898 16.2240263,12.3563103 C16.2262178,12.8033309 15.8105721,13.2122614 15.3540193,13.2122614 Z M12.057343,13.2122614 C11.6007903,13.2122614 11.1873361,12.8033309 11.1873361,12.3563103 C11.1873361,11.9071337 11.6029817,11.5003593 12.057343,11.5003593 C12.5138958,11.5003593 12.9295415,11.9092898 12.9295415,12.3563103 C12.9295415,12.8033309 12.5138958,13.2122614 12.057343,13.2122614 Z" id="path-1"></path>
    </defs>
    <g id="Symbols" stroke="none" stroke-width="1" fill="none" fill-rule="evenodd">
        <g id="ico-/-calendar" transform="translate(-1.000000, 0.000000)">
            <mask id="mask-2" fill="white">
                <use xlink:href="#path-1"></use>
            </mask>
            <use id="Mask" fill="#1697F3" fill-rule="nonzero" xlink:href="#path-1"></use>
        </g>
    </g>
</svg>