<?xml version="1.0" encoding="UTF-8"?>
<svg width="28px" height="32px" viewBox="0 0 28 32" version="1.1" xmlns="http://www.w3.org/2000/svg" xmlns:xlink="http://www.w3.org/1999/xlink">
    <!-- Generator: Sketch 50.2 (55047) - http://www.bohemiancoding.com/sketch -->
    <title>Page 1</title>
    <desc>Created with Sketch.</desc>
    <defs></defs>
    <g id="Reembolso_RCD_Mbl" stroke="none" stroke-width="1" fill="none" fill-rule="evenodd">
        <g id="006_R" transform="translate(-40.000000, -422.000000)" fill="#0079C8">
            <path d="M44.763,422 C45.6217494,424.316584 45.6217494,425.904251 44.763,426.763 C43.9042506,427.621749 42.3165839,427.621749 40,426.763 L40,454 L62.474,454 L62.474,449.2365 L67.162,449.2365 L67.162,422 L44.763,422 Z M46.847,447.1535 L65.1545,447.1535 L65.1545,424.084 L46.847,424.084 L46.847,447.1535 Z M42.084,428.846 L44.689,428.846 L44.689,449.311 L60.317,449.311 L60.317,451.916 L42.084,451.916 L42.084,428.846 Z M57.34,428.251 L61.1355,428.251 L61.1355,426.688 L57.34,426.688 L57.34,428.251 Z M49.749,432.121 L55.1825,432.121 L55.1825,426.688 L49.749,426.688 L49.749,432.121 Z M51.3125,430.558 L53.5455,430.558 L53.5455,428.251 L51.3125,428.251 L51.3125,430.558 Z M57.34,432.121 L61.1355,432.121 L61.1355,430.558 L57.34,430.558 L57.34,432.121 Z M49.749,435.916 L61.209,435.916 L61.209,434.353 L49.749,434.353 L49.749,435.916 Z M49.749,439.7865 L61.209,439.7865 L61.209,438.223 L49.749,438.223 L49.749,439.7865 Z M49.749,443.6565 L57.191,443.6565 L57.191,442.0935 L49.749,442.0935 L49.749,443.6565 Z" id="Page-1"></path>
        </g>
    </g>
</svg>