<?xml version="1.0" encoding="UTF-8"?>
<svg width="40px" height="44px" viewBox="0 0 40 44" version="1.1" xmlns="http://www.w3.org/2000/svg" xmlns:xlink="http://www.w3.org/1999/xlink">
    <!-- Generator: Sketch 49.1 (51147) - http://www.bohemiancoding.com/sketch -->
    <title>Group 3</title>
    <desc>Created with Sketch.</desc>
    <defs></defs>
    <g id="BONOS-&gt;-CARO-2*****" stroke="none" stroke-width="1" fill="none" fill-rule="evenodd">
        <g id="003_cotiza_dkt" transform="translate(-495.000000, -605.000000)" fill="#0079C7">
            <g id="Group-3" transform="translate(495.000000, 605.000000)">
                <path d="M26.56048,9.30352 L26.56048,11.89552 C26.56048,16.42992 22.45808,20.20912 19.75888,20.20912 C17.05968,20.20912 12.95728,16.75312 12.95728,11.89552 L12.95728,9.52112 C12.95728,8.33232 13.17328,7.46992 13.60368,6.60592 C14.68528,8.22512 17.16848,10.38352 22.89008,11.35472 L23.10448,11.35472 C23.75248,11.35472 24.40048,10.81712 24.50768,10.16912 C24.61488,9.41232 24.07728,8.65552 23.32208,8.54832 C17.38448,7.57712 15.98128,5.20272 15.65648,4.33712 C16.73488,3.68912 18.13808,3.36592 19.86608,3.36592 C24.07728,3.36592 26.66768,5.63312 26.66768,9.30352 L26.56048,9.30352 Z M30.01488,11.67792 L30.01488,9.30352 C30.01488,4.66352 26.88368,0.02032 19.86608,0.02032 C12.41808,0.02032 9.71888,4.76912 9.71888,9.30352 L9.71888,11.67792 C9.71888,18.26672 15.22608,23.33712 19.86608,23.33712 C24.50768,23.33712 30.01488,18.15472 30.01488,11.67792 Z" id="Fill-198"></path>
                <path d="M28.07136,33.9176 C26.99136,34.5656 25.58816,34.2424 24.94016,33.1624 C24.29376,32.084 24.61536,30.6808 25.69696,30.0312 C26.77536,29.3832 28.17856,29.708 28.82656,30.7864 C29.58176,31.7592 29.15136,33.2696 28.07136,33.9176 M28.71936,34.8904 C30.33856,33.9176 30.98656,31.7592 29.90496,30.0312 C29.58176,29.3832 29.04256,28.9512 28.39456,28.628 C28.61056,28.0888 28.93376,26.9 28.39456,25.6056 C28.28576,25.3912 28.17856,25.172 28.07136,25.0664 C27.96256,24.9576 27.96256,24.8488 27.85536,24.7432 L26.77536,25.3912 C26.99136,25.6056 27.09856,25.82 27.20736,26.1464 C27.63936,27.2248 27.20736,28.3032 27.09856,28.4136 C26.34336,28.3032 25.69696,28.5192 24.94016,28.844 C23.31936,29.8168 22.67136,31.9752 23.75136,33.7032 C24.83456,35.3208 26.99136,35.9704 28.71936,34.8904" id="Fill-199"></path>
                <path d="M26.88384,30.7864 C27.47904,30.7864 27.96384,31.2712 27.96384,31.8664 C27.96384,32.4632 27.47904,32.9464 26.88384,32.9464 C26.28704,32.9464 25.80384,32.4632 25.80384,31.8664 C25.80384,31.2712 26.28704,30.7864 26.88384,30.7864" id="Fill-200"></path>
                <path d="M2.26992,43.52704 L2.16112,43.52704 C1.29872,43.52704 0.65072,42.77024 0.75792,42.01344 C0.86672,40.93344 1.62192,31.32704 2.26992,29.16704 C3.02512,26.79424 8.96432,23.98784 12.41872,22.58144 C13.17232,22.25984 14.03632,22.58144 14.36112,23.33664 C14.68592,24.09504 14.36112,24.95904 13.60432,25.28224 C9.50352,26.90144 5.61552,29.16704 5.07792,30.03104 C4.64272,31.54464 3.99792,38.23584 3.67312,42.22944 C3.56432,42.98784 2.91792,43.52704 2.26992,43.52704" id="Fill-201"></path>
                <path d="M37.78704,43.52704 C37.03184,43.52704 36.38384,42.98784 36.38384,42.22944 C36.06064,38.23584 35.41264,31.54464 34.98064,30.03104 C34.55024,29.16704 30.55344,26.90144 26.45104,25.28224 C25.69424,24.95904 25.37104,24.09504 25.69424,23.33664 C26.02064,22.58144 26.88464,22.25984 27.63824,22.58144 C31.09424,23.98784 37.13904,26.79424 37.78704,29.16704 C38.43504,31.32704 39.19184,40.93344 39.29904,42.01344 C39.40624,42.77024 38.75984,43.52704 38.00304,43.63584 L37.78704,43.52704 Z" id="Fill-202"></path>
                <path d="M20.29952,36.50816 L19.43392,32.94656 C19.21952,31.97376 18.35552,30.89376 17.49152,30.46496 L13.60352,28.84256 L12.95712,26.25376 C12.63232,26.46816 12.41632,26.57856 12.09312,26.79296 L12.74112,29.38496 L10.25952,33.05376 C9.71872,33.91616 9.50432,35.31936 9.71872,36.39936 L10.58272,39.96416 C10.90752,41.15136 11.87552,41.79936 12.84992,41.47456 L13.93152,41.15136 L14.03712,41.58176 C14.14432,41.90816 14.36032,42.12256 14.68512,42.01376 C14.89952,41.90816 15.11712,41.58176 15.00672,41.25856 L14.57632,39.31616 C14.46752,38.99136 14.25312,38.77536 13.93152,38.88256 C13.71392,38.99136 13.49632,39.31616 13.60352,39.63936 L13.71392,39.96416 L12.63232,40.28576 C12.20192,40.39616 11.76992,40.17856 11.55392,39.63936 L10.68832,36.07776 C10.58272,35.42976 10.68832,34.34976 11.01312,33.81056 L13.49632,30.14016 L17.16832,31.65056 C17.70752,31.86816 18.35552,32.62176 18.46432,33.37696 L19.32672,36.94016 C19.43392,37.48096 19.21952,38.02176 18.78592,38.23616 L18.03072,38.45056 L17.92512,38.12736 C17.81632,37.80256 17.60032,37.58816 17.27552,37.69696 C17.06272,37.80256 16.84352,38.12736 16.95072,38.45056 L17.38272,40.39616 C17.49152,40.71936 17.70752,40.93376 18.03072,40.82816 C18.24672,40.71936 18.46432,40.39616 18.35552,40.07136 L18.24672,39.63936 L19.00352,39.42496 C20.08192,38.88256 20.62112,37.58816 20.29952,36.50816" id="Fill-203"></path>
            </g>
        </g>
    </g>
</svg>