<?xml version="1.0" encoding="UTF-8"?>
<svg width="26px" height="19px" viewBox="0 0 26 19" version="1.1" xmlns="http://www.w3.org/2000/svg" xmlns:xlink="http://www.w3.org/1999/xlink">
    <!-- Generator: Sketch 49.1 (51147) - http://www.bohemiancoding.com/sketch -->
    <title>evening</title>
    <desc>Created with Sketch.</desc>
    <defs></defs>
    <g id="BONOS-&gt;-CARO-2*****" stroke="none" stroke-width="1" fill="none" fill-rule="evenodd">
        <g id="011_cotiza_dkt" transform="translate(-783.000000, -1002.000000)" fill="#0079C8" fill-rule="nonzero">
            <g id="evening" transform="translate(783.000000, 1002.000000)">
                <path d="M7.53326459,19 C6.99784382,19 6.5631699,18.5726946 6.5631699,18.0516679 C6.5631699,17.5282585 6.99946877,17.1033358 7.53326459,17.1033358 L18.4683604,17.1033358 C19.0037811,17.1033358 19.438455,17.5306413 19.438455,18.0516679 C19.438455,18.5750773 19.0013437,19 18.4683604,19 L7.53326459,19 Z M16.9807194,14.7237689 C17.3284585,14.083605 17.4958283,13.420408 17.4958283,12.7055848 C17.4958283,10.2807458 15.4776413,8.31021654 12.9995938,8.31021654 C10.5215462,8.31021654 8.50335927,10.2831285 8.50335927,12.7055848 C8.50335927,13.420408 8.67072904,14.0828108 9.01846817,14.7237689 L6.91334646,14.7237689 C6.73541452,14.1479391 6.5631699,13.4632974 6.5631699,12.7055848 C6.5631699,9.23551543 9.44989219,6.41116963 13.0020312,6.41116963 C16.5541702,6.41116963 19.4408925,9.23551543 19.4408925,12.7055848 C19.4408925,13.4871248 19.2580857,14.2218042 19.0907159,14.7237689 L16.9807194,14.7237689 Z M22.8410987,13.6539169 C22.3056779,13.6539169 21.871004,13.2266115 21.871004,12.7055848 C21.871004,12.1821754 22.3081154,11.7572527 22.8410987,11.7572527 L25.0299053,11.7572527 C25.5653261,11.7572527 26,12.1845581 26,12.7055848 C26,13.2289942 25.5628887,13.6539169 25.0299053,13.6539169 L22.8410987,13.6539169 Z M0.970094685,13.6539169 C0.43711134,13.6539169 0,13.2297885 0,12.7055848 C0,12.1813812 0.436298866,11.7572527 0.970094685,11.7572527 L3.15646386,11.7572527 C3.69188463,11.7572527 4.12655855,12.1845581 4.12655855,12.7055848 C4.12655855,13.2289942 3.69025968,13.6539169 3.15646386,13.6539169 L0.970094685,13.6539169 Z M19.9438143,6.86547947 C19.695197,6.86547947 19.4538921,6.76381573 19.2662104,6.58034445 C18.880285,6.20307667 18.880285,5.63201237 19.2662104,5.25474459 L20.7969126,3.75838141 C20.9845942,3.57491012 21.2258992,3.47324638 21.4745164,3.47324638 C21.7231337,3.47324638 21.9644386,3.57491012 22.1521202,3.75838141 C22.3398019,3.94185269 22.4437986,4.17774434 22.4437986,4.42078422 C22.4437986,4.66382409 22.3398019,4.89971574 22.1521202,5.08318702 L20.6214181,6.5795502 C20.4337364,6.76302149 20.1924315,6.86468523 19.9438143,6.86468523 L19.9438143,6.86547947 Z M6.02206181,6.86547947 C5.76288241,6.86547947 5.50939033,6.76143299 5.32414612,6.58034445 L3.79344395,5.08398127 C3.40751852,4.70671349 3.40751852,4.13564919 3.79344395,3.75838141 C3.98112559,3.57491012 4.22243055,3.47324638 4.47104778,3.47324638 C4.71966501,3.47324638 4.96096997,3.57491012 5.1486516,3.75838141 L6.67935377,5.25474459 C7.06527921,5.63201237 7.06527921,6.20307667 6.67935377,6.58034445 C6.51442142,6.76381573 6.27555389,6.86547947 6.02206181,6.86547947 Z M12.9995938,4.03398545 C12.464173,4.03398545 12.0294991,3.60747429 12.0294991,3.08565337 L12.0294991,0.948332079 C12.0294991,0.424922665 12.4657979,0 12.9995938,0 C13.5333896,0 13.9696884,0.426511161 13.9696884,0.948332079 L13.9696884,3.08565337 C13.9696884,3.60906279 13.535827,4.03398545 12.9995938,4.03398545 Z" id="Shape"></path>
            </g>
        </g>
    </g>
</svg>