<?xml version="1.0" encoding="UTF-8"?>
<svg width="60px" height="60px" viewBox="0 0 60 60" version="1.1" xmlns="http://www.w3.org/2000/svg" xmlns:xlink="http://www.w3.org/1999/xlink">
    <!-- Generator: Sketch 49.1 (51147) - http://www.bohemiancoding.com/sketch -->
    <title>ico/exito</title>
    <desc>Created with Sketch.</desc>
    <defs></defs>
    <g id="BONOS-&gt;-CARO-2*****" stroke="none" stroke-width="1" fill="none" fill-rule="evenodd">
        <g id="01-Compra-3" transform="translate(-130.000000, -163.000000)">
            <g id="ico/exito" transform="translate(130.000000, 163.000000)">
                <circle id="Oval" fill="#D8322D" cx="30" cy="30" r="30"></circle>
                <path d="M17.0012672,45 C17.5117668,45 18.0222665,44.8044895 18.4132875,44.4134685 L30,32.826756 L41.5839971,44.4134685 C41.9777335,44.8044895 42.4882332,45 43.0014482,45 C43.5119479,45 44.0251629,44.8044895 44.4134685,44.4134685 C45.1955105,43.6314265 45.1955105,42.3660391 44.4134685,41.5839971 L32.8294714,30 L44.4134685,18.4132875 C45.1955105,17.6339609 45.1955105,16.3658581 44.4134685,15.5865315 C43.6314265,14.8044895 42.3660391,14.8044895 41.5839971,15.5865315 L30,27.1705286 L18.4132875,15.5865315 C17.6339609,14.8044895 16.3658581,14.8044895 15.5865315,15.5865315 C14.8044895,16.3658581 14.8044895,17.6339609 15.5865315,18.4132875 L27.173244,30 L15.5865315,41.5839971 C14.8044895,42.3660391 14.8044895,43.6314265 15.5865315,44.4134685 C15.9775525,44.8044895 16.4880521,45 17.0012672,45 Z" id="Fill-30" fill="#FFFFFF"></path>
            </g>
        </g>
    </g>
</svg>