<?xml version="1.0" encoding="UTF-8"?>
<svg width="25px" height="26px" viewBox="0 0 25 26" version="1.1" xmlns="http://www.w3.org/2000/svg" xmlns:xlink="http://www.w3.org/1999/xlink">
    <!-- Generator: Sketch 50.2 (55047) - http://www.bohemiancoding.com/sketch -->
    <title>Fill 60</title>
    <desc>Created with Sketch.</desc>
    <defs></defs>
    <g id="Symbols" stroke="none" stroke-width="1" fill="none" fill-rule="evenodd">
        <g id="icono-otras-atenciones" transform="translate(-8.000000, -6.000000)" fill="#0079C8">
            <path d="M28.5949992,9.4761773 L29.9928021,9.4761773 L29.9928021,7.73482354 L28.5949992,7.73482354 L28.5949992,9.4761773 Z M27.8104034,23.1071742 L30.8509054,23.1071742 L30.8509054,10.7258046 L27.8104034,10.7258046 L27.8104034,23.1071742 Z M15.9776319,18.8093073 C15.889036,18.8093073 15.7896074,18.8209138 15.6820544,18.8449004 C15.2514552,18.9346569 14.7593419,19.2433884 14.1797934,19.7885045 C13.6207496,20.3142765 13.0110243,21.1414292 12.3676403,22.2475235 C12.1026265,22.7110075 11.8604386,23.1872587 11.64688,23.6638967 C11.4321608,24.1428561 11.2480052,24.6291662 11.0994427,25.1073517 L11.0104599,25.3944178 L11.3087456,25.3615329 C11.9215659,25.2934417 12.5664974,25.0616997 13.2253567,24.6732706 C13.8737701,24.2910317 14.4068929,23.8929306 14.8092496,23.4909607 C15.5567048,22.7763905 16.0832505,22.0784562 16.3703166,21.4203708 C16.6608646,20.7537739 16.7811848,20.1680352 16.7285689,19.6778563 C16.6902676,19.4101343 16.607475,19.1934807 16.4809647,19.0282823 C16.4047491,18.9284668 16.2554128,18.8093073 15.9776319,18.8093073 Z M28.9370024,27.7160939 L29.7246932,27.7160939 L30.6934446,24.2832941 L27.9678642,24.2832941 L28.9370024,27.7160939 Z M20.0267339,27.7934702 C19.830585,27.9981305 19.7036879,28.2526986 19.6495245,28.5513711 C19.5949742,28.8504305 19.6135445,29.1506506 19.7044616,29.4419724 L19.7922837,29.7220746 L20.0178357,29.5336633 C20.222496,29.3630485 20.4213531,29.1603226 20.6082169,28.9312888 C20.8012708,28.6937435 20.9444169,28.4469131 21.0333997,28.1985351 C21.1297332,27.89522 21.1281857,27.6890122 21.0303046,27.5435447 C20.9827182,27.4731323 20.8894798,27.3864708 20.7161568,27.37293 C20.6979734,27.3713824 20.6794031,27.3706087 20.6616065,27.3706087 C20.4789985,27.3706087 20.2228829,27.444503 20.0267339,27.7934702 Z M11.5811102,31.7114194 C10.9245722,31.7114194 10.4340064,31.5319064 10.1229537,31.1775229 C9.79526503,30.8041822 9.56661805,30.3387638 9.44358972,29.7928739 C9.31785322,29.2338301 9.27413561,28.6341637 9.31359753,28.009737 C9.35344632,27.3764119 9.42231123,26.8119517 9.51825785,26.3318318 L9.54301827,26.2084166 L9.44049467,26.1345222 C8.89189666,25.7375817 8.51662158,25.18821 8.32588898,24.5003346 C8.12703188,23.7849907 8.01793128,23.0750631 8.00168226,22.3910565 C8.00168226,21.981349 8.178874,21.8018359 8.59322412,21.795259 L8.59399788,21.795259 C9.01492498,21.795259 9.17818899,21.955041 9.17818899,22.3465651 C9.17818899,22.8321015 9.21687714,23.258058 9.29270592,23.6136021 C9.36930847,23.9710807 9.46951078,24.2755564 9.59099158,24.518518 L9.80648459,24.9491172 L9.95388646,24.4910494 C10.1140554,23.9946804 10.3051749,23.502954 10.5218285,23.0286373 C10.739256,22.5539336 10.9802832,22.0753612 11.2383331,21.6080083 C11.9741818,20.3127289 12.7220238,19.3408825 13.4601938,18.7218721 C14.1929474,18.1075042 14.8626393,17.7248784 15.4510861,17.585601 C15.6186058,17.5515555 15.7868993,17.533372 15.9451338,17.533372 C16.3885,17.533372 16.7633882,17.6695543 17.0926244,17.9484959 C17.5464365,18.3346037 17.7967488,18.8406447 17.8578761,19.496022 C17.903915,20.1305077 17.7557394,20.8845398 17.417218,21.7345186 C17.0775361,22.5872054 16.4457585,23.4631052 15.5389082,24.3386181 C14.964776,24.8965013 14.2208028,25.4257552 13.3259459,25.9124522 C12.5498615,26.3357006 11.7904131,26.5496461 11.0684921,26.5500329 C10.9744799,26.5500329 10.8804677,26.5461641 10.7872293,26.5395871 L10.6123588,26.5256594 L10.579087,26.6978217 C10.49436,27.137706 10.4490948,27.8236469 10.4405834,28.7931721 C10.4351671,29.4381036 10.5601298,29.8810829 10.8232093,30.1460968 C10.9984666,30.3229016 11.2286611,30.4126581 11.5072158,30.4126581 C11.9977816,30.4126581 12.4840917,30.276089 12.9537658,30.0064325 C13.4048697,29.7476088 13.79562,29.4717623 14.1147973,29.1858568 C14.1147973,29.1858568 15.0638177,28.6001182 15.4437354,29.7251697 C15.6298254,30.190975 16.0631327,30.4265859 16.7324377,30.4265859 C16.7699652,30.4265859 16.8082665,30.426199 16.8473415,30.4250383 C17.5015582,30.4002779 18.0134025,30.3449539 18.3685597,30.2602268 L18.5948854,30.2064503 L18.5035814,29.9921179 C18.2451445,29.3835533 18.2234791,28.6809764 18.4389722,27.9029577 C18.6540783,27.1264864 19.0537269,26.6018751 19.6611309,26.2981731 C19.9234366,26.1627645 20.1907717,26.0942865 20.45772,26.0942865 C20.6588984,26.0942865 20.8666537,26.1333615 21.0751829,26.2088034 C21.5576242,26.3840608 21.8628737,26.7028512 22.008728,27.1845187 C22.1750871,27.7141595 22.1383333,28.2167186 21.8965324,28.7219859 C21.6446725,29.2493054 21.3421311,29.70776 20.9974197,30.083422 L20.6956521,30.4126581 L21.1421134,30.4126581 C21.5634274,30.4126581 21.9479876,30.3275442 22.2841877,30.1592507 C22.6103288,29.9963736 22.9144177,29.7832019 23.1891036,29.5263126 C23.1891036,29.5263126 23.9926565,28.8949219 24.8577236,29.668685 C25.1258325,29.8474242 25.5320581,29.9971474 26.1000002,30.1259789 C26.6505326,30.2509417 27.4049516,30.3306392 28.3431393,30.3639111 L28.546639,30.3708749 L28.546639,28.8430798 L28.3501032,28.8430798 C28.1895473,28.8430798 28.0429192,28.8001359 27.9017075,28.7130876 C27.7779054,28.6360982 27.7094274,28.5351221 27.6858276,28.3942972 L26.6346705,23.8933175 L26.6346705,12.2779733 L26.3828106,12.3514808 C25.9394444,12.4806993 25.6191065,12.7275297 25.4303083,13.085782 C25.2527296,13.4235295 25.1625862,13.8088635 25.1625862,14.2321119 L25.1625862,18.4731073 C25.1625862,18.8851361 24.9865552,19.0607803 24.5745263,19.0607803 C24.1621106,19.0607803 23.9864664,18.8851361 23.9864664,18.4731073 L23.9864664,14.2321119 C23.9864664,13.4459687 24.2042807,12.755772 24.6341061,12.1797054 C25.0581282,11.6113765 25.6767518,11.253511 26.4714065,11.1161681 L26.6346705,11.0879258 L26.6346705,10.1377447 C26.6346705,9.96171362 26.6876732,9.82243627 26.7975476,9.71256192 C26.9070351,9.60307445 27.0463124,9.55007168 27.2223435,9.55007168 L27.8603111,9.55007168 L27.8603111,7.36767297 C27.8603111,7.25547733 27.9001599,7.16339952 27.9864345,7.07751182 C28.0727091,6.99162412 28.1647869,6.95100156 28.2765957,6.95100156 L30.482981,6.95100156 C30.5944029,6.95100156 30.6868676,6.99162412 30.7731422,7.07751182 C30.8594168,7.16339952 30.8992656,7.25547733 30.8992656,7.36767297 L30.8992656,9.55007168 L31.5616067,9.55007168 C31.7194544,9.55007168 31.8533154,9.61003831 31.9709274,9.7338404 C32.0912476,9.86073754 32.1496667,10.0085263 32.1496667,10.1864918 L32.1496667,23.6461002 C32.1496667,23.6820802 32.1469585,23.7203814 32.1415422,23.7621646 L32.1055622,23.7799612 L30.8570955,28.4248608 C30.8056402,28.6051476 30.727877,28.7339792 30.626901,28.8055523 C30.522443,28.8790598 30.3750411,28.9165873 30.1889511,28.9165873 L29.9920284,28.9165873 L29.9920284,31.0250916 C29.9796482,31.2084734 29.9111701,31.3624523 29.7838861,31.4831593 C29.6573759,31.6038664 29.5010757,31.6622855 29.3060874,31.6622855 C27.9725068,31.6622855 26.8888516,31.5535718 26.084138,31.3380788 C25.2848408,31.1245201 24.6666041,30.8664702 24.2464508,30.5705058 L24.1207143,30.4822968 L24.0046498,30.582886 C23.4119473,31.0974384 22.691187,31.4452449 21.8624868,31.6177941 C21.6257153,31.6669281 21.391652,31.6916885 21.1664869,31.6916885 C20.6167283,31.6916885 20.0901825,31.5427391 19.6007774,31.2487091 L19.5175979,31.1991883 L19.4274545,31.2347814 C18.749638,31.5028903 17.8652268,31.650679 16.7985945,31.6746657 L16.6933627,31.6758263 C15.7161,31.6758263 15.0355753,31.3709637 14.6123269,30.7438287 L14.5024526,30.5805647 L14.3391886,30.690826 C13.8954355,30.9922067 13.4296301,31.2413584 12.9545396,31.4313172 C12.489508,31.6174072 12.0275715,31.7114194 11.5811102,31.7114194 Z" id="Fill-60"></path>
        </g>
    </g>
</svg>