<?xml version="1.0" encoding="UTF-8"?>
<svg width="24px" height="20px" viewBox="0 0 24 20" version="1.1" xmlns="http://www.w3.org/2000/svg" xmlns:xlink="http://www.w3.org/1999/xlink">
    <!-- Generator: Sketch 49.1 (51147) - http://www.bohemiancoding.com/sketch -->
    <title>pathology</title>
    <desc>Created with Sketch.</desc>
    <defs></defs>
    <g id="GES-III****" stroke="none" stroke-width="1" fill="none" fill-rule="evenodd">
        <g id="004_bonosGesIII" transform="translate(-203.000000, -514.000000)" fill="#0079C7" fill-rule="nonzero">
            <g id="Group" transform="translate(182.000000, 487.000000)">
                <g id="pathology" transform="translate(21.000000, 27.000000)">
                    <path d="M10.1404569,13.8269231 C10.032444,13.7623077 9.95518485,13.6707692 9.90342869,13.5553846 L8.25548256,10.1561538 L7.44238578,11.3415385 C7.39062962,11.4184615 7.3156207,11.4807692 7.21510873,11.5269231 C7.11459677,11.5730769 7.02083561,11.5938462 6.93157499,11.5938462 L0.663829008,11.5938462 C0.488308118,11.5938462 0.333039638,11.5292308 0.199523747,11.3992308 C0.0660078562,11.2692308 0,11.1084615 0,10.9138462 C0,10.7192308 0.0652577669,10.5584615 0.199523747,10.4284615 C0.333789727,10.2984615 0.487558029,10.2338462 0.663829008,10.2338462 L6.62928901,10.2338462 L7.93519444,8.42846154 C8.01020336,8.33692308 8.09946399,8.26769231 8.19997595,8.21461538 C8.30048791,8.16384615 8.40850077,8.15 8.52101416,8.17615385 C8.63352755,8.18846154 8.73628978,8.22461538 8.82330014,8.28153846 C8.91031049,8.33846154 8.98756969,8.42846154 9.05057719,8.54384615 L10.4149896,11.4192308 L11.9106676,6.33 C11.9481721,6.2 12.023181,6.09461538 12.1379446,6.01 C12.250458,5.92615385 12.3727226,5.88230769 12.4964873,5.88230769 C12.6487554,5.88230769 12.7777708,5.91846154 12.8857836,5.98769231 C12.9937965,6.06 13.0778065,6.17307692 13.1415641,6.32692308 L14.5434809,10.3076923 L16.6084767,10.3076923 C16.7839976,10.3076923 16.9392661,10.3723077 17.072782,10.5023077 C17.2062979,10.6323077 17.2723057,10.7930769 17.2723057,10.9876923 C17.2723057,11.1823077 17.207048,11.3430769 17.072782,11.4730769 C16.938516,11.6030769 16.7847477,11.6676923 16.6084767,11.6676923 L14.1099293,11.6676923 C13.9831643,11.6676923 13.8616498,11.6269231 13.7393852,11.54 C13.620121,11.4561538 13.5398615,11.35 13.502357,11.22 L12.611251,8.61692308 L11.1718297,13.4346154 C11.1343252,13.5646154 11.0615665,13.67 10.9535537,13.7546154 C10.8455408,13.8392308 10.7285269,13.8823077 10.6040121,13.8823077 C10.5665076,13.9084615 10.5432548,13.9207692 10.5380042,13.9207692 C10.5327536,13.9207692 10.5170017,13.9207692 10.4907486,13.9207692 C10.3639835,13.9230769 10.2469696,13.8915385 10.1389567,13.8269231 L10.1404569,13.8269231 Z M22.1366347,1.74769231 C21.5808185,1.17769231 20.9507435,0.745384615 20.2426593,0.446923077 C19.534575,0.148461538 18.7919866,0 18.0088934,0 C17.2258002,0 16.4779612,0.149230769 15.7653764,0.446923077 C15.0527916,0.744615385 14.4242168,1.17769231 13.8811521,1.74769231 L12.5752467,3.08692308 L11.2880935,1.74769231 C10.721026,1.17769231 10.0834501,0.745384615 9.37536584,0.446923077 C8.66728157,0.148461538 7.92469319,0 7.14159998,0 C6.35850678,0 5.60841751,0.149230769 4.88908189,0.446923077 C4.16974628,0.745384615 3.53217039,1.17769231 2.97635424,1.74769231 L2.82408612,1.90384615 C2.36953202,2.38230769 2.00348845,2.91384615 1.72445524,3.49538462 C1.44542203,4.07692308 1.26240025,4.68076923 1.17613998,5.30076923 C1.08987972,5.92076923 1.09438025,6.54615385 1.19489221,7.17615385 C1.29540418,7.80384615 1.49267766,8.40230769 1.78071194,8.97153846 L3.35139888,8.97153846 C3.01160844,8.51692308 2.76782942,8.02230769 2.6223121,7.48615385 C2.47679479,6.95 2.42053809,6.40923077 2.45129175,5.86384615 C2.48204541,5.32076923 2.60806041,4.78923077 2.83083692,4.27230769 C3.05136317,3.75538462 3.36565058,3.28230769 3.76844852,2.85384615 L3.90196441,2.71692308 C4.33101547,2.27692308 4.82757457,1.93769231 5.38789126,1.69769231 C5.95045822,1.45692308 6.53402767,1.33923077 7.13859963,1.33923077 C7.75742328,1.33923077 8.343243,1.45923077 8.89905915,1.69769231 C9.45487531,1.93846154 9.94693387,2.27692308 10.3759849,2.71692308 L11.6818904,4.03692308 C11.7944038,4.14 11.9354205,4.24384615 12.09894,4.34692308 C12.2624595,4.45 12.4342299,4.50307692 12.6097508,4.50307692 C12.7995234,4.50307692 12.9660432,4.46230769 13.1115605,4.37538462 C13.2570778,4.29153846 13.3995948,4.17846154 13.5383613,4.03615385 L14.8442667,2.71615385 C15.2733178,2.27615385 15.7698769,1.93692308 16.3301936,1.69692308 C16.8927606,1.45615385 17.47633,1.33846154 18.080902,1.33846154 C18.6997256,1.33846154 19.2855453,1.45846154 19.8413615,1.69692308 C20.3971776,1.93769231 20.8892362,2.27615385 21.3182873,2.71615385 L21.4705554,2.85307692 C21.9138582,3.31923077 22.2461477,3.83615385 22.4734248,4.40615385 C22.7007018,4.97615385 22.8132152,5.55769231 22.8132152,6.15384615 C22.8132152,6.75 22.7007018,7.33615385 22.4734248,7.91076923 C22.2461477,8.48769231 21.9108578,9.00230769 21.4705554,9.45384615 L12.535492,18.4684615 L7.13934972,12.9323077 L5.32038323,12.9323077 L11.6068814,19.3792308 C11.7448979,19.4946154 11.9001663,19.61 12.0711867,19.7184615 C12.2422071,19.8292308 12.4087269,19.8846154 12.5729964,19.8846154 C12.762769,19.8846154 12.9360396,19.8392308 13.0935584,19.7476923 C13.2510771,19.6561538 13.4003449,19.5338462 13.5391114,19.38 C13.5511128,19.38 13.5646144,19.3676923 13.5766159,19.3415385 L22.324157,10.39 C22.8799731,9.80846154 23.2992731,9.14692308 23.5828068,8.40923077 C23.8663405,7.67153846 24.0051071,6.91615385 23.9998564,6.14692308 C23.9931056,5.37769231 23.8475883,4.62307692 23.5640546,3.88461538 C23.2805208,3.14615385 22.85372,2.48538462 22.2866525,1.90384615 L22.1366347,1.74769231 Z" id="path-1"></path>
                </g>
            </g>
        </g>
    </g>
</svg>