<?xml version="1.0" encoding="UTF-8"?>
<svg width="16px" height="17px" viewBox="0 0 16 17" version="1.1" xmlns="http://www.w3.org/2000/svg" xmlns:xlink="http://www.w3.org/1999/xlink">
    <!-- Generator: Sketch 49.1 (51147) - http://www.bohemiancoding.com/sketch -->
    <title>Fill 4</title>
    <desc>Created with Sketch.</desc>
    <defs></defs>
    <g id="LICENCIAS-&gt;-CARO-2" stroke="none" stroke-width="1" fill="none" fill-rule="evenodd">
        <g id="003_licencias_dkt-bene" transform="translate(-892.000000, -466.000000)" fill="#1697F3">
            <g id="Group-2" transform="translate(892.000000, 466.000000)">
                <path d="M2.19518635,11.7282421 L2.18543719,13.1118107 C2.18218747,13.5602722 2.54290647,13.9266782 2.99136793,13.9299279 L2.99786737,13.9299279 L13.1288717,13.9299279 C13.5773332,13.9299279 13.9413019,13.5667716 13.9413019,13.1174977 L13.9413019,11.4284554 C13.9413019,10.9791815 14.3044582,10.6160252 14.7537321,10.6160252 L15.1875698,10.6160252 C15.6368437,10.6160252 16,10.9791815 16,11.4284554 L16,14.6237433 C16,15.5214786 15.272875,16.2486036 14.3751396,16.2486036 L1.62486036,16.2486036 C0.727125013,16.2486036 0,15.5214786 0,14.6237433 L0,11.7217427 C0,11.2732812 0.363968721,10.9093125 0.812430182,10.9093125 L1.38275617,10.9093125 C1.83203006,10.9093125 2.19518635,11.2732812 2.19518635,11.7217427 C2.19518635,11.72418 2.19518635,11.7258048 2.19518635,11.7282421 Z M14.1752818,6.59449579 L8.53214177,12.2368234 C8.23560475,12.5333604 7.75545852,12.5333604 7.4589215,12.2368234 L1.72722657,6.50512847 C1.44612572,6.22484005 1.44612572,5.76825429 1.72722657,5.48634102 C2.00832741,5.20524017 2.46491317,5.20524017 2.74601401,5.48634102 L7.23062862,9.97095562 L7.23062862,0.720625571 C7.23062862,0.322534782 7.5531634,0 7.95125419,0 C8.34934498,0 8.67187976,0.322534782 8.67187976,0.720625571 L8.67187976,10.0611354 L13.1564944,5.57652077 C13.4375952,5.29541992 13.8933685,5.29541992 14.1752818,5.57652077 C14.4571951,5.85762161 14.4563827,6.31258251 14.1752818,6.59368336 L14.1752818,6.59449579 Z" id="Fill-4"></path>
            </g>
        </g>
    </g>
</svg>