<?xml version="1.0" encoding="UTF-8"?>
<svg width="100px" height="100px" viewBox="0 0 100 100" version="1.1" xmlns="http://www.w3.org/2000/svg" xmlns:xlink="http://www.w3.org/1999/xlink">
    <!-- Generator: Sketch 49.1 (51147) - http://www.bohemiancoding.com/sketch -->
    <title>Group 10</title>
    <desc>Created with Sketch.</desc>
    <defs></defs>
    <g id="BONOS-&gt;-CARO-2*****" stroke="none" stroke-width="1" fill="none" fill-rule="evenodd">
        <g id="023_cotiza_dkt" transform="translate(-583.000000, -117.000000)">
            <g id="Group-10" transform="translate(583.000000, 117.000000)">
                <g id="Group-5" fill="#0079C8" opacity="0.2">
                    <g id="Group-15">
                        <circle id="Oval" cx="50" cy="50" r="50"></circle>
                    </g>
                </g>
                <g id="Group-9" transform="translate(16.000000, 24.000000)">
                    <path d="M24.6933868,16 L25.3106212,16 C26.242485,16 27,15.2269838 27,14.2714784 L27,7.72647119 C27,6.7730162 26.242485,6 25.3106212,6 L24.6933868,6 C23.757515,6 23,6.7730162 23,7.72647119 L23,14.2714784 C23,15.2269838 23.757515,16 24.6933868,16" id="Fill-84" fill="#009DDF"></path>
                    <path d="M46.6933868,16 L47.3106212,16 C48.244489,16 49,15.2269838 49,14.2735288 L49,7.72442075 C49,6.7730162 48.244489,6 47.3106212,6 L46.6933868,6 C45.759519,6 45,6.7730162 45,7.72442075 L45,14.2735288 C45,15.2269838 45.759519,16 46.6933868,16" id="Fill-86" fill="#0079C7"></path>
                    <rect id="Rectangle-2" fill="#CCE4F4" x="15" y="19" width="41" height="29"></rect>
                    <path d="M54.184771,46.159751 L15.8172795,46.159751 L15.8172795,20.2406639 L54.184771,20.2406639 L54.1868214,46.159751 L54.184771,46.159751 Z M54.184771,9 L49.7415071,9 L49.7415071,14.2344398 C49.7415071,15.9813278 48.3328673,16.9439834 46.600261,16.9439834 L45.9687311,16.9439834 C44.2381751,16.9439834 42.8315858,15.5228216 42.8315858,13.7780083 L42.8315858,9 L27.5210867,9 L27.5210867,13.8215768 C27.5210867,15.5643154 26.1144974,16.9875519 24.381891,16.9875519 L23.7524116,16.9875519 C22.0198052,16.9875519 20.6132159,15.5643154 20.6132159,13.8215768 L20.6132159,9 L15.8172795,9 C14.2630598,9 13,10.2738589 13,11.840249 L13,46.159751 C13,47.7261411 14.2630598,49 15.8172795,49 L54.184771,49 C55.7369402,49 57,47.7261411 57,46.159751 L57,11.840249 C57,10.2738589 55.7369402,9 54.184771,9 Z" id="Fill-88" fill="#0079C7"></path>
                    <path d="M33.3133462,28 L37.6866538,28 C37.860735,28 38,27.8408132 38,27.645186 L38,23.3567319 C38,23.1611047 37.860735,23 37.6866538,23 L33.3133462,23 C33.1411992,23 33,23.1611047 33,23.3567319 L33,27.645186 C33,27.8408132 33.1411992,28 33.3133462,28" id="Fill-90" fill="#0079C7"></path>
                    <path d="M40.3134675,28 L44.6884675,28 C44.8606811,28 45,27.8408132 45,27.645186 L45,23.3567319 C45,23.1611047 44.8606811,23 44.6884675,23 L40.3134675,23 C40.1393189,23 40,23.1611047 40,23.3567319 L40,27.645186 C40,27.8408132 40.1393189,28 40.3134675,28" id="Fill-92" fill="#0079C7"></path>
                    <path d="M47.3152805,28 L51.6866538,28 C51.8626692,28 52,27.8408132 52,27.645186 L52,23.3567319 C52,23.1611047 51.8626692,23 51.6866538,23 L47.3152805,23 C47.1411992,23 47,23.1611047 47,23.3567319 L47,27.645186 C47,27.8408132 47.1411992,28 47.3152805,28" id="Fill-94" fill="#0079C7"></path>
                    <path d="M18.3133462,43 L22.6866538,43 C22.860735,43 23,42.8408132 23,42.6432681 L23,38.3567319 C23,38.1572689 22.860735,38 22.6866538,38 L18.3133462,38 C18.1411992,38 18,38.1572689 18,38.3567319 L18,42.6432681 C18,42.8408132 18.1411992,43 18.3133462,43" id="Fill-96" fill="#0079C7"></path>
                    <path d="M26.3134675,43 L30.6884675,43 C30.8626161,43 31,42.8408132 31,42.6432681 L31,38.3567319 C31,38.1572689 30.8626161,38 30.6884675,38 L26.3134675,38 C26.1412539,38 26,38.1572689 26,38.3567319 L26,42.6432681 C26,42.8408132 26.1412539,43 26.3134675,43" id="Fill-98" fill="#0079C7"></path>
                    <path d="M33.3133462,43 L37.6866538,43 C37.860735,43 38,42.8408132 38,42.6432681 L38,38.3567319 C38,38.1572689 37.860735,38 37.6866538,38 L33.3133462,38 C33.1411992,38 33,38.1572689 33,38.3567319 L33,42.6432681 C33,42.8408132 33.1411992,43 33.3133462,43" id="Fill-100" fill="#0079C7"></path>
                    <path d="M40.3134675,43 L44.6884675,43 C44.8606811,43 45,42.8408132 45,42.6432681 L45,38.3567319 C45,38.1572689 44.8606811,38 44.6884675,38 L40.3134675,38 C40.1393189,38 40,38.1572689 40,38.3567319 L40,42.6432681 C40,42.8408132 40.1393189,43 40.3134675,43" id="Fill-102" fill="#0079C7"></path>
                    <path d="M18.3133462,36 L22.6866538,36 C22.860735,36 23,35.8408132 23,35.645186 L23,31.3567319 C23,31.1611047 22.860735,31 22.6866538,31 L18.3133462,31 C18.1411992,31 18,31.1611047 18,31.3567319 L18,35.645186 C18,35.8408132 18.1411992,36 18.3133462,36" id="Fill-104" fill="#0079C7"></path>
                    <path d="M26.3134675,36 L30.6884675,36 C30.8626161,36 31,35.8408132 31,35.645186 L31,31.3567319 C31,31.1611047 30.8626161,31 30.6884675,31 L26.3134675,31 C26.1412539,31 26,31.1611047 26,31.3567319 L26,35.645186 C26,35.8408132 26.1412539,36 26.3134675,36" id="Fill-106" fill="#0079C7"></path>
                    <path d="M33.3133462,36 L37.6866538,36 C37.860735,36 38,35.8408132 38,35.645186 L38,31.3567319 C38,31.1611047 37.860735,31 37.6866538,31 L33.3133462,31 C33.1411992,31 33,31.1611047 33,31.3567319 L33,35.645186 C33,35.8408132 33.1411992,36 33.3133462,36" id="Fill-108" fill="#0079C7"></path>
                    <path d="M40.3134675,36 L44.6884675,36 C44.8606811,36 45,35.8408132 45,35.645186 L45,31.3567319 C45,31.1611047 44.8606811,31 44.6884675,31 L40.3134675,31 C40.1393189,31 40,31.1611047 40,31.3567319 L40,35.645186 C40,35.8408132 40.1393189,36 40.3134675,36" id="Fill-110" fill="#0079C7"></path>
                    <path d="M47.3152805,36 L51.6866538,36 C51.8626692,36 52,35.8408132 52,35.645186 L52,31.3567319 C52,31.1611047 51.8626692,31 51.6866538,31 L47.3152805,31 C47.1411992,31 47,31.1611047 47,31.3567319 L47,35.645186 C47,35.8408132 47.1411992,36 47.3152805,36" id="Fill-112" fill="#0079C7"></path>
                    <path d="M14.5,0 C6.5190456,0 0,6.52088068 0,14.5 C0,22.481179 6.5190456,29 14.5,29 C22.4809544,29 29,22.481179 29,14.5 C29,6.52088068 22.4809544,0 14.5,0" id="Fill-114" fill="#CCE4F4"></path>
                    <path d="M14.5,0 C6.5190456,0 0,6.52088068 0,14.5 C0,22.481179 6.5190456,29 14.5,29 C22.4809544,29 29,22.481179 29,14.5 C29,6.52088068 22.4809544,0 14.5,0 Z" id="Stroke-116" stroke="#CCE4F4" stroke-width="0.847"></path>
                    <path d="M14.5,26.0814631 C8.12673464,26.0814631 2.91971113,20.8746449 2.91971113,14.5 C2.91971113,8.12741477 8.12673464,2.92059659 14.5,2.92059659 C20.8732654,2.92059659 26.0823421,8.12741477 26.0823421,14.5 C26.0823421,20.8746449 20.8732654,26.0814631 14.5,26.0814631 M14.5,0 C6.5190456,0 0,6.52088068 0,14.5 C0,22.481179 6.5190456,29 14.5,29 C22.4809544,29 29,22.481179 29,14.5 C29,6.52088068 22.4809544,0 14.5,0" id="Fill-118" fill="#0079C7"></path>
                    <path d="M22.6217588,14.1744186 L15.7584769,14.1744186 L15.7584769,6.41586867 C15.7584769,5.63406293 15.1421578,5 14.3782412,5 C13.6163191,5 13,5.63406293 13,6.41586867 L13,15.5882353 C13,16.3679891 13.6163191,17 14.3782412,17 L22.6217588,17 C23.3836809,17 24,16.3679891 24,15.5882353 C24,14.8064295 23.3836809,14.1744186 22.6217588,14.1744186" id="Fill-120" fill="#0079C7"></path>
                </g>
            </g>
        </g>
    </g>
</svg>