<?xml version="1.0" encoding="UTF-8"?>
<svg width="70px" height="70px" viewBox="0 0 70 70" version="1.1" xmlns="http://www.w3.org/2000/svg" xmlns:xlink="http://www.w3.org/1999/xlink">
    <!-- Generator: Sketch 49.1 (51147) - http://www.bohemiancoding.com/sketch -->
    <title>Group 7</title>
    <desc>Created with Sketch.</desc>
    <defs></defs>
    <g id="BONOS-&gt;-CARO-2*****" stroke="none" stroke-width="1" fill="none" fill-rule="evenodd">
        <g id="003_cotiza_dkt" transform="translate(-496.000000, -377.000000)">
            <g id="Beneficiario" transform="translate(453.000000, 377.000000)">
                <g id="Group-7" transform="translate(43.000000, 0.000000)">
                    <g id="Beneficiario-VERTICAL-SELEC2">
                        <circle id="Oval-Copy" fill="#0079C8" opacity="0.5" cx="35" cy="35" r="35"></circle>
                        <g id="icono-oscar" transform="translate(-6.363636, -6.363636)" fill="#FFFFFF">
                            <path d="M34.4254165,42.2995605 C33.3085201,42.2995605 32.4,41.3905272 32.4,40.272166 C32.4,39.1546388 33.3085201,38.2456055 34.4254165,38.2456055 C35.493136,38.2456055 36.3449778,39.0920906 36.4499994,40.2571545 C36.4508329,41.3905272 35.5423128,42.2995605 34.4254165,42.2995605 Z M46.5745834,42.2995605 C45.4589796,42.2995605 44.55,41.3905272 44.55,40.272166 C44.55,39.1546388 45.4589796,38.2456055 46.5745834,38.2456055 C47.6910204,38.2456055 48.6,39.1546388 48.6,40.272166 C48.6,41.3905272 47.6910204,42.2995605 46.5745834,42.2995605 Z M40.5003821,54.4614258 C38.7295316,54.4614258 37.1405837,54.0353414 36.1413655,53.2926645 C35.6305432,52.9820133 35.4868485,52.3131797 35.81826,51.7453501 C36.0142829,51.4109333 36.3415414,51.2182617 36.7161444,51.2182617 C36.9296099,51.2182617 37.1463979,51.2827685 37.3415902,51.4024456 C38.0351456,51.9320803 39.1805503,52.2299999 40.4987209,52.2299999 C41.8700502,52.2299999 43.0270834,51.8039155 43.6533598,51.4041431 L43.6940595,51.3786799 L43.7007043,51.3786799 C43.8850987,51.2742808 44.0861052,51.2191105 44.2846198,51.2191105 C44.6592228,51.2191105 44.9873119,51.4117821 45.1825042,51.7453501 C45.5139157,52.3114822 45.3693903,52.9803158 44.8477702,53.3011522 C43.7355897,54.0591071 42.2305329,54.4614258 40.5003821,54.4614258 Z M40.18627,25.2635995 C40.2755297,25.2703993 40.3527273,25.2729492 40.430729,25.2729492 C41.4938037,25.2729492 42.5584867,24.7502147 43.5877875,24.2444796 L44.4626932,23.8041927 C45.9061268,23.0664145 47.398613,22.3031371 49.1419912,22.136542 C49.3478514,22.1161426 49.5521032,22.1067929 49.7531386,22.1067929 C51.3019146,22.1067929 52.7815345,22.6694762 54.27,23.8245921 L54.1244504,23.5177511 C53.6355325,22.6567266 52.9520125,21.8093017 52.0980145,21.0094753 C50.4945568,19.5024699 46.971614,18.2793561 44.9950347,17.8246196 C43.2331613,17.3868825 41.6160332,17.1650391 40.1846618,17.1650391 L40.0061424,17.1650391 C38.245073,17.1650391 36.5861296,17.3928323 35.2078315,17.8220696 C33.2191902,18.2793561 29.6962473,19.5024699 28.0935938,21.0094753 C27.2379875,21.8135516 26.5544675,22.6618265 26.0615289,23.5296508 L25.92,23.8305419 C27.4205276,22.6669263 28.8977351,22.1067929 30.4416863,22.1067929 C30.6427216,22.1067929 30.8461693,22.1161426 31.0520295,22.136542 C32.7978202,22.3031371 34.2919146,23.0681144 35.7377606,23.8067426 L36.3979606,24.1424827 C37.4071578,24.6745669 38.5401929,25.2729492 39.748013,25.2729492 C39.8308396,25.2729492 39.9136661,25.2703993 39.9972968,25.2644495 L40.0021217,25.2635995 L40.18627,25.2635995 Z M26.3052683,38.0342695 C25.1079427,38.0342695 24.38971,38.2407841 23.9781293,38.7044376 C23.469754,39.2773752 23.3680789,40.3051271 23.6283671,42.2505434 C24.111527,45.4945111 25.0737799,47.258323 26.4882834,47.4913551 L26.6159873,47.5122477 L26.6233079,47.63921 C26.6582841,48.2242009 26.6802459,48.7770495 26.700581,49.3025771 C26.8372322,52.8149334 26.9275197,55.1348082 30.8188279,57.8259273 C31.8380188,58.5346663 32.6514194,59.2136736 33.3680253,59.8131286 C35.3567896,61.4724779 36.6704315,62.5693359 40.0379098,62.5693359 C40.3055186,62.5693359 40.5853284,62.5621039 40.8805928,62.5484434 C41.1034645,62.5548719 41.3068146,62.5580861 41.5020308,62.5580861 C45.0655386,62.5580861 46.4100897,61.4491747 48.4460313,59.7697364 C49.1536898,59.1847455 49.9557027,58.5234164 50.9561854,57.8259273 C54.8499338,55.1348082 54.9394079,52.8133263 55.0760592,49.2993629 C55.0963942,48.7746388 55.1175426,48.2233974 55.1525188,47.63921 L55.1598394,47.5050157 L55.2956773,47.489748 C56.663817,47.3402861 57.5439164,45.7227218 58.148273,42.244115 C58.4476044,40.3694119 58.3597572,39.3191603 57.8521952,38.7325622 C57.4341074,38.2496233 56.6996067,38.0342695 55.4705584,38.0342695 C55.3631896,38.0342695 54.9320873,38.0447157 54.9320873,38.0447157 L54.9743841,37.8454331 C56.3718062,31.4089256 56.5198451,27.9399615 53.581029,25.6353543 C52.5992545,24.8792053 51.6191068,24.5111753 50.5844613,24.5111753 C49.1829722,24.5111753 47.8367943,25.1741115 46.4117165,25.8756185 C44.8150112,26.659892 43.1646215,27.4714866 41.2401158,27.4722902 L41.2393024,27.4722902 C41.1197325,27.4722902 41.000976,27.4690759 40.8797794,27.4626475 C40.8130805,27.4658617 40.7317405,27.4666652 40.6512138,27.4666652 C38.7006793,27.4674688 37.0210071,26.6398031 35.3974596,25.8402619 C33.9593675,25.1315228 32.6018019,24.4621582 31.2051932,24.4621582 C30.1591601,24.4621582 29.1749454,24.8454558 28.197238,25.6337472 C25.1722013,28.0950484 25.3535896,31.6765108 26.8006292,37.8430224 L26.8478065,38.0447157 C26.8478065,38.0447157 26.4126372,38.0342695 26.3052683,38.0342695 Z M39.7886298,65.8125 C37.3308657,65.8125 35.4875427,65.3252146 33.8114256,64.2322683 C32.8065669,63.5990405 31.8536558,62.8044653 30.9332118,62.0358354 C30.2757518,61.4877407 29.5955648,60.9209978 28.9153778,60.4296584 C26.3748224,58.6329456 24.8878265,56.7373162 24.2384833,54.4646689 C23.6094321,52.8520056 23.5128423,51.1631279 23.4219342,49.5285732 C21.9527952,48.3723853 20.9739103,46.1637905 20.4317087,42.7795488 C20.1549262,40.7606792 19.990967,38.4750593 21.5136769,36.8137485 C21.1589731,27.9299114 21.8626988,22.3451829 26.5517685,18.3033896 C28.9316113,16.2764121 35.4266668,13.921875 40.2350532,13.921875 L40.7951118,13.921875 C45.7934311,13.921875 52.1367026,16.2358726 54.4694681,18.3050112 C59.1601611,22.348426 59.8622634,27.9647754 59.5051247,36.9069895 C60.9474783,38.573165 60.8630636,40.8514878 60.5879045,42.8654927 C60.2551161,45.0230076 59.5846692,48.0569875 57.597679,49.618571 L57.5660235,50.2590959 C57.4994658,51.6747371 57.4312848,53.1382148 56.9580759,54.4743984 C56.0700991,57.3332476 54.0969074,59.0894209 52.2852398,60.4288477 C51.4865477,60.97451 50.7389913,61.6053054 50.0157853,62.2150203 C49.1805676,62.9187869 48.3161295,63.647688 47.3859453,64.2338899 C45.6172968,65.3089988 43.6814423,65.8092568 41.2886126,65.8100676 C41.0597191,65.8100676 40.8283906,65.8052029 40.5938154,65.7962842 C40.3300197,65.8068245 40.0572955,65.8125 39.7886298,65.8125 Z" id="Fill-49"></path>
                        </g>
                    </g>
                </g>
            </g>
        </g>
    </g>
</svg>