<?xml version="1.0" encoding="UTF-8"?>
<svg width="60px" height="60px" viewBox="0 0 60 60" version="1.1" xmlns="http://www.w3.org/2000/svg" xmlns:xlink="http://www.w3.org/1999/xlink">
    <!-- Generator: Sketch 50 (54983) - http://www.bohemiancoding.com/sketch -->
    <title>Mask</title>
    <desc>Created with Sketch.</desc>
    <defs>
        <path d="M161,158 C144.467492,158 131,171.467492 131,188 C131,204.532508 144.467492,218 161,218 C177.532508,218 191,204.532508 191,188 C191,171.467492 177.532508,158 161,158 Z M161,213.913313 C146.696594,213.913313 135.086687,202.303406 135.086687,188 C135.086687,173.696594 146.696594,162.086687 161,162.086687 C175.303406,162.086687 186.913313,173.696594 186.913313,188 C186.913313,202.303406 175.303406,213.913313 161,213.913313 Z M150.597523,180.198142 C150.783282,173.696594 154.869969,170.074303 161.185759,170.074303 C167.315789,170.074303 171.402477,173.04644 171.402477,178.619195 C171.402477,186.69969 163.321981,187.071207 163.321981,193.944272 L158.863777,193.944272 C158.863777,185.770898 165.922601,185.678019 165.922601,179.547988 C165.922601,176.575851 163.879257,175.182663 160.628483,175.182663 C157.28483,175.182663 155.334365,176.947368 155.148607,180.383901 L150.597523,180.198142 Z M164.250774,202.489164 C164.250774,204.439628 162.857585,205.925697 161,205.925697 C159.142415,205.925697 157.749226,204.532508 157.749226,202.489164 C157.749226,200.5387 159.142415,199.145511 161,199.145511 C162.857585,199.145511 164.250774,200.5387 164.250774,202.489164 Z" id="path-1"></path>
    </defs>
    <g id="01_REEM_Historico" stroke="none" stroke-width="1" fill="none" fill-rule="evenodd">
        <g id="011_RH" transform="translate(-131.000000, -158.000000)">
            <mask id="mask-2" fill="white">
                <use xlink:href="#path-1"></use>
            </mask>
            <use id="Mask" fill="#B2D7EF" fill-rule="nonzero" xlink:href="#path-1"></use>
        </g>
    </g>
</svg>