<?xml version="1.0" encoding="UTF-8" standalone="no"?>
<svg width="20px" height="20px" viewBox="0 0 20 20" version="1.1" xmlns="http://www.w3.org/2000/svg" xmlns:xlink="http://www.w3.org/1999/xlink">
    <!-- Generator: Sketch 46.2 (44496) - http://www.bohemiancoding.com/sketch -->
    <title>go-back-arrow</title>
    <desc>Created with Sketch.</desc>
    <defs></defs>
    <g id="01_REEM_Historico" stroke="none" stroke-width="1" fill="none" fill-rule="evenodd">
        <g id="003_Dktop" transform="translate(-79.000000, -679.000000)" fill-rule="nonzero" fill="#F5A623">
            <g id="fila-4" transform="translate(67.000000, 652.000000)">
                <g id="go-back-arrow" transform="translate(12.000000, 27.000000)">
                    <path d="M3.29016748,3.94520912 C3.01945494,4.32640132 2.82833997,4.39586687 2.82833997,4.07328623 L2.82833997,3.48803898 C2.82833997,2.64880831 2.19519586,1.96848009 1.41416998,1.96848009 C0.633144104,1.96848009 0,2.64880831 0,3.48803898 L0,8.69795516 C0,9.53718583 0.633144104,10.217514 1.41416998,10.217514 L6.26275278,10.217514 C7.04377866,10.217514 7.67692277,9.53718583 7.67692277,8.69795516 C7.67692277,7.8587245 7.04377866,7.17839627 6.26275278,7.17839627 C6.26275278,7.17839627 6.02880866,7.17839627 5.73991394,7.17839627 C5.45101921,7.17839627 5.36980545,6.82368781 5.61465888,6.42295843 C6.72660054,4.60513184 8.63290167,3.47284339 10.6931453,3.47284339 C14.0427079,3.47284339 16.7676115,6.40081628 16.7676115,10 C16.7676115,13.5987497 14.0427079,16.5267225 10.6931453,16.5267225 C9.80060203,16.5267225 9.07695105,17.3043025 9.07695105,18.2633613 C9.07695105,19.22242 9.80060203,20 10.6931453,20 C15.8249662,20.0004342 20,15.5142622 20,10.0004342 C20,4.48617209 15.8249662,9.4329527e-08 10.6931453,9.4329527e-08 C7.75934867,-0.000434065352 5.02838441,1.497851 3.29016748,3.94520912 Z" id="Shape"></path>
                </g>
            </g>
        </g>
    </g>
</svg>