<?xml version="1.0" encoding="UTF-8"?>
<svg width="34px" height="40px" viewBox="0 0 34 40" version="1.1" xmlns="http://www.w3.org/2000/svg" xmlns:xlink="http://www.w3.org/1999/xlink">
    <!-- Generator: Sketch 49.1 (51147) - http://www.bohemiancoding.com/sketch -->
    <title>Group 7</title>
    <desc>Created with Sketch.</desc>
    <defs></defs>
    <g id="HOME-22" stroke="none" stroke-width="1" fill="none" fill-rule="evenodd">
        <g id="home-D_02-Alertas" transform="translate(-703.000000, -491.000000)" fill="#FFFFFF">
            <g id="Group-7" transform="translate(703.000000, 491.000000)">
                <path d="M27.468,32.548 C27.468,33.736 26.58,34.768 24.684,34.924 L24.684,36.28 L23.916,36.28 L23.916,34.924 C22.74,34.864 21.624,34.456 21,33.88 L21.444,32.944 C22.008,33.46 22.944,33.844 23.916,33.904 L23.916,31.12 C22.596,30.796 21.204,30.376 21.204,28.744 C21.204,27.556 22.056,26.524 23.916,26.368 L23.916,25 L24.684,25 L24.684,26.356 C25.584,26.392 26.484,26.656 27.12,27.088 L26.724,28.048 C26.076,27.64 25.356,27.412 24.684,27.376 L24.684,30.172 C26.028,30.508 27.468,30.904 27.468,32.548 Z M22.38,28.696 C22.38,29.44 23.052,29.752 23.916,29.98 L23.916,27.388 C22.848,27.52 22.38,28.06 22.38,28.696 Z M24.684,33.892 C25.8,33.784 26.292,33.268 26.292,32.62 C26.292,31.852 25.572,31.552 24.684,31.312 L24.684,33.892 Z" id="$"></path>
                <g id="billing" fill-rule="nonzero">
                    <path d="M16.2144932,5.68482234 L25.4254554,5.68482234 L25.4254554,7.93850192 L16.2144932,7.93850192 L16.2144932,5.68482234 Z M21.8518172,12.2121184 L25.4217056,12.2121184 L25.4217056,14.4657979 L21.8518172,14.4657979 L21.8518172,12.2121184 Z M5.0785913,12.2121184 L13.7233212,12.2121184 L13.7233212,14.4657979 L5.0785913,14.4657979 L5.0785913,12.2121184 Z M20.16062,17.1257148 L25.4217056,17.1257148 L25.4217056,19.3793944 L20.16062,19.3793944 L20.16062,17.1257148 Z M7.33227086,26.8329114 L12.5933564,26.8329114 L12.5933564,30.2153058 L7.33227086,30.2153058 L7.33227086,26.8329114 Z M5.0785913,17.1257148 L17.1094654,17.1257148 L17.1094654,19.3793944 L5.0785913,19.3793944 L5.0785913,17.1257148 Z M23.874254,21.6218244 C28.894097,21.6218244 33.0302178,26.0666854 33.026468,30.8127872 C33.026468,35.8476298 28.5966064,40 23.874254,40 C18.7069154,40 14.7145402,35.551389 14.7145402,30.8090372 C14.7145402,26.0666854 18.7069154,21.6218244 23.874254,21.6218244 Z M23.874254,38.0738102 L23.873004,38.0738102 C28.0066248,38.0738102 31.1077778,34.9639074 31.1077778,30.8127872 C31.1077778,26.6616668 28.002875,23.551764 23.874254,23.551764 C19.7368832,23.551764 16.6319802,26.6616668 16.6319802,30.8127872 C16.6319802,34.9639074 19.7381332,38.0738102 23.874254,38.0738102 Z M2.14868286,33.9026906 L13.6870722,33.9064404 C13.8620668,34.6714166 14.1208088,35.4026436 14.4445486,36.097622 L1.2737102,36.097622 C0.56998218,36.097622 0,35.5276398 0,34.8239118 L0,1.2737102 C0,0.56998218 0.56998218,0 1.2737102,0 L28.4253618,0 C29.1290898,0 29.699072,0.56998218 29.699072,1.2737102 L29.699072,21.6168244 C29.0465922,21.2693354 28.3553638,20.9880942 27.6366364,20.7731008 L27.6366364,2.16493234 L2.14868286,2.16493234 L2.14868286,33.9026906 Z" id="path-1"></path>
                </g>
            </g>
        </g>
    </g>
</svg>