<?xml version="1.0" encoding="UTF-8"?>
<svg width="16px" height="11px" viewBox="0 0 16 11" version="1.1" xmlns="http://www.w3.org/2000/svg" xmlns:xlink="http://www.w3.org/1999/xlink">
    <!-- Generator: Sketch 49.1 (51147) - http://www.bohemiancoding.com/sketch -->
    <title>Fill 266</title>
    <desc>Created with Sketch.</desc>
    <defs></defs>
    <g id="BONOS-&gt;-CARO-2*****" stroke="none" stroke-width="1" fill="none" fill-rule="evenodd">
        <g id="007_cotiza_dkt" transform="translate(-522.000000, -683.000000)" fill="#1697F3">
            <g id="Group-4" transform="translate(522.000000, 679.000000)">
                <path d="M0.999915146,13.1248621 L0.999915146,5.61837081 L8,9.96355537 L14.999406,5.61837081 L14.999406,13.1248621 L0.999915146,13.1248621 Z M13.8990242,5.12554094 L8,8.78646585 L2.10097582,5.12554094 L13.8990242,5.12554094 Z M15.4990242,4.12494697 L0.500296988,4.12494697 C0.224013577,4.12494697 0,4.34896054 0,4.62524395 L0,13.6244803 C0,13.9014425 0.224013577,14.1247773 0.500296988,14.1247773 L15.4990242,14.1247773 C15.7759864,14.1247773 16,13.9014425 16,13.6244803 L16,4.62524395 C16,4.34896054 15.7759864,4.12494697 15.4990242,4.12494697 Z" id="Fill-266"></path>
            </g>
        </g>
    </g>
</svg>