<?xml version="1.0" encoding="UTF-8" standalone="no"?>
<svg width="22px" height="22px" viewBox="0 0 22 22" version="1.1" xmlns="http://www.w3.org/2000/svg" xmlns:xlink="http://www.w3.org/1999/xlink">
    <!-- Generator: Sketch 46.2 (44496) - http://www.bohemiancoding.com/sketch -->
    <title>Mask</title>
    <desc>Created with Sketch.</desc>
    <defs>
        <path d="M21.9174554,0.515212912 C22.0630338,0.829408045 22.0133189,1.19965414 21.789924,1.46416481 L13.9109895,10.7914242 L13.9109895,21.1102823 C13.9109895,21.4186272 13.7514893,21.7049904 13.4895084,21.8671209 C13.346766,21.9554345 13.1847735,22 13.0222654,22 C12.886441,22 12.7502728,21.9688988 12.6248468,21.9060942 L8.58032084,19.8815918 C8.27923832,19.7308607 8.08905833,19.422774 8.08905833,19.0858229 L8.08905833,10.7914242 L0.210123854,1.46416481 C-0.0132710348,1.19965414 -0.0630718957,0.829451062 0.082549431,0.515212912 C0.228170758,0.200974762 0.54274548,0 0.888687439,0 L21.1113174,0 C21.4573024,0 21.7718771,0.201017779 21.9174554,0.515212912 Z M12.3436589,9.89116735 L19.1959394,1.77934933 L2.80410847,1.77934933 L9.65630303,9.89121037 C9.79195559,10.0518353 9.86642055,10.2553481 9.86642055,10.4657005 L9.86642055,18.5359815 L12.1335843,19.6708092 L12.1335843,10.4656575 C12.1335843,10.2553481 12.2080063,10.0517923 12.3436589,9.89116735 Z" id="path-1"></path>
    </defs>
    <g id="01_REEM_Historico" stroke="none" stroke-width="1" fill="none" fill-rule="evenodd">
        <g id="001_Dktop" transform="translate(-80.000000, -329.000000)">
            <g id="icon-colour" transform="translate(80.000000, 329.000000)">
                <mask id="mask-2" fill="white">
                    <use xlink:href="#path-1"></use>
                </mask>
                <use id="Mask" fill="#1697F3" fill-rule="nonzero" xlink:href="#path-1"></use>
            </g>
        </g>
    </g>
</svg>