<?xml version="1.0" encoding="UTF-8"?>
<svg width="13px" height="16px" viewBox="0 0 13 16" version="1.1" xmlns="http://www.w3.org/2000/svg" xmlns:xlink="http://www.w3.org/1999/xlink">
    <!-- Generator: Sketch 49.1 (51147) - http://www.bohemiancoding.com/sketch -->
    <title>Page 1</title>
    <desc>Created with Sketch.</desc>
    <defs></defs>
    <g id="01_REEM_Historico" stroke="none" stroke-width="1" fill="none" fill-rule="evenodd">
        <g id="008_RH" transform="translate(-54.000000, -659.000000)" fill="#1697F3">
            <g id="Page-1" transform="translate(54.000000, 659.000000)">
                <polygon id="Fill-1" points="6.28848485 3.32230303 9.86084848 3.32230303 9.86084848 2.44739394 6.28848485 2.44739394"></polygon>
                <polygon id="Fill-2" points="8.47612121 5.85369697 9.86084848 5.85369697 9.86084848 4.97878788 8.47612121 4.97878788"></polygon>
                <polygon id="Fill-3" points="1.96872727 5.85369697 5.32218182 5.85369697 5.32218182 4.97878788 1.96872727 4.97878788"></polygon>
                <polygon id="Fill-4" points="7.81987879 7.76060606 9.86084848 7.76060606 9.86084848 6.88569697 7.81987879 6.88569697"></polygon>
                <polygon id="Fill-5" points="2.84387879 11.9627879 4.88484848 11.9627879 4.88484848 10.650303 2.84387879 10.650303"></polygon>
                <polygon id="Fill-6" points="1.96872727 7.76060606 6.63466667 7.76060606 6.63466667 6.88569697 1.96872727 6.88569697"></polygon>
                <g id="Group-13" transform="translate(0.000000, 0.242303)">
                    <path d="M9.37139394,14.8659394 C7.7670303,14.8659394 6.56315152,13.6591515 6.56315152,12.0492121 C6.56315152,10.4392727 7.7670303,9.23248485 9.37139394,9.23248485 C10.9728485,9.23248485 12.1769697,10.4392727 12.1769697,12.0492121 C12.1769697,13.6591515 10.9728485,14.8659394 9.37139394,14.8659394 M9.37139394,8.48484848 C7.36654545,8.48484848 5.81818182,10.2094545 5.81818182,12.0492121 C5.81818182,13.8887273 7.36654545,15.6133333 9.37139394,15.6133333 C11.2026667,15.6133333 12.921697,14.0033939 12.921697,12.0492121 C12.921697,10.2094545 11.3173333,8.48484848 9.37139394,8.48484848" id="Fill-7"></path>
                    <path d="M10.3963894,13.299412 C10.2313338,13.4603412 9.99338217,13.5600608 9.6825274,13.5985738 L9.6825274,14.0607273 L9.26989039,14.0607273 L9.26989039,13.6109529 C9.06632178,13.5999492 8.87238433,13.5641877 8.68807221,13.5036673 C8.50376009,13.4431469 8.35521226,13.368873 8.24242424,13.2808433 L8.4693746,12.7774262 C8.57390983,12.8544521 8.69632425,12.919098 8.83662153,12.9713656 C8.97691882,13.0236332 9.12134033,13.0566438 9.26989039,13.0703985 L9.26989039,12.3812946 C9.07457457,12.3345289 8.90952141,12.2822621 8.77472598,12.2244926 C8.63993055,12.1667231 8.52714423,12.0821334 8.43636364,11.9707208 C8.34558304,11.8593083 8.30019342,11.7114482 8.30019342,11.527136 C8.30019342,11.2988091 8.38340772,11.1028085 8.54983881,10.9391283 C8.71626991,10.7754481 8.9562847,10.6757285 9.26989039,10.6399665 L9.26989039,10.1819394 L9.6825274,10.1819394 L9.6825274,10.6317137 C10.0208914,10.659223 10.3001064,10.743125 10.5201805,10.8834223 L10.313862,11.3909658 C10.1075425,11.272676 9.89709972,11.2011529 9.6825274,11.1763946 L9.6825274,11.8778775 C9.8750923,11.9218923 10.0380823,11.972096 10.1715023,12.02849 C10.3049222,12.084884 10.4170208,12.168786 10.5078014,12.2801986 C10.598582,12.3916111 10.6439716,12.5380958 10.6439716,12.719657 C10.6439716,12.945233 10.5614451,13.1384828 10.3963894,13.299412 Z M9.04294004,11.6633063 C9.09520765,11.7073211 9.17085702,11.744458 9.26989039,11.7747182 L9.26989039,11.1887737 C9.16535516,11.213532 9.08833036,11.2527322 9.03881367,11.3063752 C8.98929698,11.3600183 8.96453901,11.422601 8.96453901,11.4941251 C8.96453901,11.5628983 8.99067242,11.6192914 9.04294004,11.6633063 Z M9.90535139,12.9466074 C9.95486807,12.8970907 9.97962605,12.8379466 9.97962605,12.7691734 C9.97962605,12.7004003 9.95418035,12.6440071 9.9032882,12.5999923 C9.85239605,12.5559774 9.77880985,12.517465 9.6825274,12.4844539 L9.6825274,13.053893 C9.78156078,13.0318856 9.8558347,12.996124 9.90535139,12.9466074 Z" id="$"></path>
                    <path d="M0.832969697,13.1497455 L0.832969697,0.8392 L10.7190303,0.8392 L10.7190303,8.05738182 C10.998303,8.13980606 11.2659394,8.24913939 11.5185455,8.38392727 L11.5185455,0.49350303 C11.5185455,0.22150303 11.2972121,0.00016969697 11.0252121,0.00016969697 L0.493333333,0.00016969697 C0.221333333,0.00016969697 0,0.22150303 0,0.49350303 L0,13.5065939 C0,13.7785939 0.221333333,13.9999273 0.493333333,13.9999273 L5.60266667,13.9999273 C5.47636364,13.7303515 5.3769697,13.4464727 5.30836364,13.1497455 L0.832969697,13.1497455 Z" id="Fill-11"></path>
                </g>
            </g>
        </g>
    </g>
</svg>