<?xml version="1.0" encoding="UTF-8"?>
<svg width="31px" height="25px" viewBox="0 0 31 25" version="1.1" xmlns="http://www.w3.org/2000/svg" xmlns:xlink="http://www.w3.org/1999/xlink">
    <!-- Generator: Sketch 50.2 (55047) - http://www.bohemiancoding.com/sketch -->
    <title>Fill 1</title>
    <desc>Created with Sketch.</desc>
    <defs></defs>
    <g id="Reembolso_RCD_Mbl" stroke="none" stroke-width="1" fill="none" fill-rule="evenodd">
        <g id="006_R" transform="translate(-39.000000, -369.000000)" fill="#0079C8">
            <g id="Page-1" transform="translate(39.000000, 369.437500)">
                <path d="M28.1369412,19.0795294 L28.1369412,11.2225882 C28.1369412,8.87105882 26.3632941,7.09788235 24.0117647,7.09788235 L23.0207059,7.09788235 L23.0207059,6.10682353 C23.0207059,3.75529412 21.2475294,1.98164706 18.896,1.98164706 L18.3232941,1.98164706 L1.98305882,1.98258824 L1.98305882,15.4503529 L10.0545882,8.17364706 L16.5298824,15.1576471 L21.6531765,12.5962353 L28.1369412,19.0795294 Z M1.98211765,18.0004706 L1.98211765,21.7416471 L27.9035294,21.7416471 L21.1270588,14.9651765 L16.0169412,17.52 L9.83294118,10.9491765 L1.98211765,18.0004706 Z M2.27011765,23.7232941 C1.01835294,23.7232941 0,22.7049412 0,21.4531765 L0,2.26964706 C0,1.01835294 1.01835294,0 2.27011765,0 L18.896,0 C21.8103529,0 24.3825882,2.15152941 24.8795294,5.00423529 L24.9143529,5.20376471 L25.1138824,5.23811765 C27.9665882,5.73505882 30.1176471,8.30729412 30.1176471,11.2216471 L30.1176471,21.4531765 C30.1176471,22.7049412 29.0997647,23.7232941 27.848,23.7232941 L2.27011765,23.7232941 Z" id="Fill-1"></path>
            </g>
        </g>
    </g>
</svg>