<?xml version="1.0" encoding="UTF-8"?>
<svg width="13px" height="13px" viewBox="0 0 13 13" version="1.1" xmlns="http://www.w3.org/2000/svg" xmlns:xlink="http://www.w3.org/1999/xlink">
    <!-- Generator: Sketch 49.1 (51147) - http://www.bohemiancoding.com/sketch -->
    <title>Path</title>
    <desc>Created with Sketch.</desc>
    <defs></defs>
    <g id="BONOS-&gt;-CARO-2*****" stroke="none" stroke-width="1" fill="none" fill-rule="evenodd">
        <g id="012_cotiza_dkt" transform="translate(-498.000000, -991.000000)" fill="#FFFFFF">
            <path d="M509.678327,991.042815 L510.919912,992.058771 C510.937106,992.076578 510.957015,992.100009 510.967874,992.129063 C510.985068,992.158117 510.995928,992.18436 510.995928,992.20779 C511.001357,992.246217 511.001357,992.280894 510.995928,992.313697 C510.987783,992.345563 510.973304,992.375554 510.95611,992.401797 L502.822457,1003.90347 C502.805263,1003.93252 502.777209,1003.95033 502.751871,1003.96813 L502.658661,1004 L502.641467,1004 C502.610699,1004 502.579026,1003.99156 502.550973,1003.98219 C502.522919,1003.96439 502.503011,1003.95033 502.488532,1003.93252 L498.062441,999.181708 C498.045247,999.152654 498.031673,999.132035 498.017194,999.09642 C498.002715,999.07299 498,999.046747 498,999.017693 C498,998.979267 498.00543,998.947401 498.017194,998.921159 C498.031673,998.892104 498.045247,998.871485 498.062441,998.850866 L499.160141,997.658712 C499.205388,997.61185 499.25878,997.58842 499.321221,997.58842 C499.383662,997.58842 499.437054,997.61185 499.482301,997.658712 L502.463193,1000.85654 L509.357976,991.098112 C509.388744,991.042815 509.440326,991.010012 509.501862,991.001577 C509.564303,990.995954 509.623125,991.004389 509.677422,991.042815 L509.678327,991.042815 Z" id="Path"></path>
        </g>
    </g>
</svg>