<?xml version="1.0" encoding="UTF-8"?>
<svg width="31px" height="26px" viewBox="0 0 31 26" version="1.1" xmlns="http://www.w3.org/2000/svg" xmlns:xlink="http://www.w3.org/1999/xlink">
    <!-- Generator: Sketch 50.2 (55047) - http://www.bohemiancoding.com/sketch -->
    <title>Fill 353</title>
    <desc>Created with Sketch.</desc>
    <defs></defs>
    <g id="Symbols" stroke="none" stroke-width="1" fill="none" fill-rule="evenodd">
        <g id="icono-examenes" transform="translate(-5.000000, -4.000000)" fill="#0079C8">
            <path d="M6.14310403,5.2194969 C7.81239656,4.87781253 9.54331858,4.87781253 11.2126111,5.2194969 L10.2535022,7.60553681 L7.10221298,7.60553681 L6.14310403,5.2194969 Z M11.03013,8.26542372 L12.320979,5.05416575 C12.3729789,4.9257346 12.3667196,4.78053073 12.3031642,4.65689179 C12.2400903,4.53277362 12.1259794,4.44268013 11.9906834,4.40865546 C9.82354017,3.86378151 7.53265645,3.86378151 5.3655132,4.40865546 C5.23021721,4.44268013 5.11610635,4.53277362 5.05255094,4.65689179 C4.98947701,4.78053073 4.98273628,4.9257346 5.03473617,5.05416575 L6.32510362,8.26542372 C6.39828864,8.44848603 6.57643639,8.56877043 6.77432483,8.56877043 L10.5813903,8.56877043 C10.7792788,8.56877043 10.956945,8.44848603 11.03013,8.26542372 Z M34.2658924,9.14575216 C34.2658924,8.59944056 33.8185971,8.15424452 33.2697095,8.15424452 L16.0991556,8.15424452 C15.5497865,8.15424452 15.1024912,8.59944056 15.1024912,9.14575216 L15.1024912,20.592418 C15.1024912,21.1392088 15.5497865,21.5844049 16.0991556,21.5844049 L33.2697095,21.5844049 C33.8185971,21.5844049 34.2658924,21.1392088 34.2658924,20.592418 L34.2658924,9.14575216 Z M8.76283886,20.8023167 C9.57413332,20.8023167 10.2169097,20.1347622 10.2169097,19.3272753 L10.2169097,9.94940529 L7.26062003,9.94940529 L7.26062003,19.3555494 C7.26062003,20.1347622 7.90339636,20.8027959 8.71469082,20.8027959 L8.76283886,20.8027959 L8.76283886,20.8023167 Z M35.8148148,9.14575216 L35.8148148,20.592418 C35.8148148,21.9893464 34.6727433,23.1255787 33.2697095,23.1255787 L25.4158013,23.1255787 C25.4976529,24.0634136 25.4981344,25.9774211 24.4225072,27.4510248 C23.4191021,28.8249506 21.7555873,29.6338751 19.478185,29.8567127 C18.4964465,29.9520777 17.574893,29.9999997 16.715932,29.9999997 C13.5410503,30.000479 11.2135741,29.3477804 9.77587361,28.0500507 C8.68291311,27.0633352 8.12921066,25.7291848 8.12921066,24.0835409 L8.12921066,21.7391932 C7.0328798,21.4856854 6.22591866,20.5042414 6.22591866,19.3555494 L6.22591866,9.94940529 L6.22591866,9.62401443 C6.22591866,9.30293656 6.487844,9.04224049 6.81091734,9.04224049 L7.26062003,9.04224049 L10.2169097,9.04224049 L10.6093162,9.04224049 C10.9323895,9.04224049 11.1943149,9.30293656 11.1943149,9.62401443 L11.1943149,9.94940529 L11.1943149,19.3555494 C11.1943149,20.5243687 10.3714649,21.4871231 9.29102285,21.7382347 L9.29102285,24.0835409 C9.29102285,25.4076277 9.70461451,26.4250133 10.5563533,27.1936833 C12.1081646,28.5930077 15.1525652,29.116796 19.3650371,28.7061038 C21.2976994,28.5172909 22.6834,27.8665091 23.483139,26.7710106 C24.3825443,25.5389342 24.3209148,23.8242825 24.2491743,23.1255787 L16.0991556,23.1255787 C14.6956403,23.1255787 13.5540503,21.9893464 13.5540503,20.592418 L13.5540503,9.14575216 C13.5540503,7.7488238 14.6956403,6.6125915 16.0991556,6.6125915 L33.2697095,6.6125915 C34.6727433,6.6125915 35.8148148,7.7488238 35.8148148,9.14575216 Z M21.1845516,18.9721728 L19.1791857,19.2544338 C19.1618524,19.2482039 19.148371,19.2333481 19.1445191,19.2146585 L17.5662264,11.5557531 C17.5647819,11.5495232 17.5609301,11.5303544 17.576819,11.5107064 C17.5931893,11.4910583 17.6124485,11.4910583 17.6191892,11.4910583 L19.6808883,11.1608752 C23.0011771,10.6179182 26.3705769,10.6112091 29.6937546,11.1412272 L31.8397127,11.4833908 L31.9316754,11.4910583 C31.9379347,11.4910583 31.9571939,11.4910583 31.9735642,11.5107064 C31.990416,11.5313129 31.9860827,11.5500025 31.9851198,11.5562323 L30.3649382,19.2141792 C30.3606049,19.2333481 30.3471235,19.2482039 30.3293087,19.2544338 L28.1828691,18.9606715 C27.0369457,18.8034871 25.8823558,18.7248949 24.7282473,18.7248949 C23.544287,18.7248949 22.3603267,18.8073209 21.1845516,18.9721728 Z M31.501232,19.4523519 L33.1214135,11.7939258 C33.1970059,11.4354687 33.1074506,11.0664688 32.875377,10.7822909 C32.654859,10.5115312 32.3332301,10.3509922 31.9851198,10.3361364 L29.8776801,9.99972347 C26.4307619,9.45005731 22.9371402,9.4567664 19.4926294,10.02033 L17.5643005,10.3361364 C17.2181161,10.3514715 16.8974501,10.5115312 16.6769321,10.780374 C16.4448586,11.062635 16.3543402,11.4306765 16.4280067,11.7881751 L18.006781,19.4466013 C18.1218548,20.0072895 18.6230759,20.4136687 19.197482,20.4136687 L21.3472919,20.1170311 C23.5625832,19.806496 25.8096522,19.8021831 28.024462,20.1055298 L30.2320496,20.4083973 L30.3114939,20.4136687 C30.8830111,20.4136687 31.3832693,20.0092064 31.501232,19.4523519 Z M27.4413893,14.8810656 C27.2608341,15.4086876 26.4500211,15.6109187 25.63006,15.3329707 C25.6132082,15.3276993 25.5770972,15.3013422 25.5299121,15.2644422 C25.2650979,15.0555019 24.8750988,15.1527837 24.7316176,15.4566097 C24.5794698,15.7800837 24.3940999,16.1011615 24.0252859,16.2300719 C22.856733,16.6378887 21.6929948,16.3599407 21.4281806,15.6094811 C21.1633664,14.8571046 21.8966611,13.9168735 23.065214,13.5090567 C23.6025461,13.3212022 24.1350634,13.2828645 24.5818772,13.3662489 C24.7792842,13.4031489 24.9781356,13.3854178 25.1736166,13.3408502 C25.494764,13.2684879 25.8866891,13.2895736 26.2819845,13.4232762 C27.1014641,13.7012242 27.6209815,14.354402 27.4413893,14.8810656 Z" id="Fill-353"></path>
        </g>
    </g>
</svg>