<?xml version="1.0" encoding="UTF-8" standalone="no"?>
<svg width="29px" height="25px" viewBox="0 0 29 25" version="1.1" xmlns="http://www.w3.org/2000/svg" xmlns:xlink="http://www.w3.org/1999/xlink">
    <!-- Generator: Sketch 46.2 (44496) - http://www.bohemiancoding.com/sketch -->
    <title>speech-bubble (1)</title>
    <desc>Created with Sketch.</desc>
    <defs></defs>
    <g id="Symbols" stroke="none" stroke-width="1" fill="none" fill-rule="evenodd">
        <g id="ico/asistente-home" transform="translate(-11.000000, -14.000000)" fill-rule="nonzero" fill="#FFFFFF">
            <g id="speech-bubble-(1)" transform="translate(11.000000, 14.000000)">
                <path d="M8.28571429,0.0328947368 C6.81204082,0.0328947368 5.61061224,1.24700957 5.61061224,2.73624402 L5.61061224,13.4898325 C5.61061224,14.979067 6.81204082,16.1931818 8.28571429,16.1931818 L20.2763265,16.1931818 L23.6557143,20.1465311 C23.8628571,20.3857656 24.1528571,20.5233254 24.4665306,20.5233254 C25.0583673,20.5233254 25.5436735,20.0388756 25.5436735,19.4407895 L25.5436735,16.1991627 L26.3071429,16.1991627 C27.7808163,16.1991627 28.9822449,14.9850478 28.9822449,13.4958134 L28.9822449,2.73624402 C28.9822449,1.24700957 27.7808163,0.0328947368 26.3071429,0.0328947368 L8.28571429,0.0328947368 Z M27.5263265,2.73624402 L27.5263265,13.4898325 C27.5263265,14.1716507 26.9759184,14.7278708 26.3012245,14.7278708 L24.8157143,14.7278708 C24.4132653,14.7278708 24.0877551,15.0568182 24.0877551,15.4635167 L24.0877551,18.4120813 L21.1522449,14.9850478 C21.0161224,14.8235646 20.814898,14.7338517 20.6018367,14.7338517 L8.28571429,14.7338517 C7.61102041,14.7338517 7.06061224,14.1776316 7.06061224,13.4958134 L7.06061224,2.73624402 C7.06061224,2.05442584 7.61102041,1.49820574 8.28571429,1.49820574 L26.3012245,1.49820574 C26.9759184,1.49820574 27.5263265,2.05442584 27.5263265,2.73624402 Z" id="Shape"></path>
                <path d="M4.13693878,24.8773923 C4.26122449,24.9252392 4.39142857,24.9491627 4.51571429,24.9491627 C4.81755102,24.9491627 5.11346939,24.8175837 5.32061224,24.5723684 L8.7,20.6190191 L19.2583673,20.6190191 C19.6608163,20.6190191 19.9863265,20.2900718 19.9863265,19.8833732 C19.9863265,19.4766746 19.6608163,19.1477273 19.2583673,19.1477273 L8.36857143,19.1477273 C8.1555102,19.1477273 7.96020408,19.2374402 7.81816327,19.3989234 L4.88857143,22.8379187 L4.88857143,19.8893541 C4.88857143,19.4826555 4.56306122,19.1537081 4.16061224,19.1537081 L2.67510204,19.1537081 C2.00040816,19.1537081 1.45,18.597488 1.45,17.9156699 L1.45,7.16208134 C1.45,6.48026316 2.00040816,5.92404306 2.67510204,5.92404306 C3.07755102,5.92404306 3.40306122,5.59509569 3.40306122,5.18839713 C3.40306122,4.78169856 3.07755102,4.45873206 2.67510204,4.45873206 C1.20142857,4.45873206 0,5.67284689 0,7.16208134 L0,17.9156699 C0,19.4049043 1.20142857,20.6190191 2.67510204,20.6190191 L3.43857143,20.6190191 L3.43857143,23.8606459 C3.43857143,24.3211722 3.71081633,24.72189 4.13693878,24.8773923 Z" id="Shape"></path>
                <path d="M16.2377727,11.6812156 C16.4138451,12.1201075 17.0527276,12.101263 17.2016658,11.6527846 L18.8565515,6.66964254 L18.8565515,10.0304639 C18.8565515,10.4224344 19.2926312,10.6639417 19.6341324,10.4610996 L21.3630567,9.43416656 L22.6189196,10.4231064 C22.7098464,10.4947075 22.8229086,10.5337269 22.9394524,10.5337269 L25.4875887,10.5337269 C25.7705856,10.5337269 26,10.3084083 26,10.0304639 C26,9.75251939 25.7705856,9.52720087 25.4875887,9.52720087 L23.1195075,9.52720087 L21.7247859,8.42891551 C21.5570106,8.2967994 21.3230932,8.28162574 21.1390835,8.3909224 L19.8813742,9.13796676 L19.8813742,3.50372715 C19.8813742,2.93095152 19.0626504,2.8031284 18.8818097,3.34767032 L16.6690698,10.010606 L16.1180419,8.63707024 C15.986458,8.30907382 15.5611619,8.2121635 15.2959733,8.44974911 L14.0933418,9.52720087 L9.51241135,9.52720087 C9.22941437,9.52720087 9,9.75251939 9,10.0304639 C9,10.3084083 9.22941437,10.5337269 9.51241135,10.5337269 L14.2919438,10.5337269 C14.4197146,10.5337269 14.5428759,10.4868439 14.6372725,10.4022728 L15.4371892,9.68561801 L16.2377727,11.6812156 Z" id="Path-2"></path>
            </g>
        </g>
    </g>
</svg>