<?xml version="1.0" encoding="UTF-8"?>
<svg width="24px" height="21px" viewBox="0 0 24 21" version="1.1" xmlns="http://www.w3.org/2000/svg" xmlns:xlink="http://www.w3.org/1999/xlink">
    <!-- Generator: Sketch 49.1 (51147) - http://www.bohemiancoding.com/sketch -->
    <title>Group 9</title>
    <desc>Created with Sketch.</desc>
    <defs></defs>
    <g id="BONOS-&gt;-CARO-2*****" stroke="none" stroke-width="1" fill="none" fill-rule="evenodd">
        <g id="007_cotiza_dkt" transform="translate(-377.000000, -924.000000)">
            <g id="Group-10" transform="translate(308.000000, 905.000000)">
                <g id="Group-5">
                    <g id="Group">
                        <g id="btn_blue-DKT">
                            <g id="Group-9" transform="translate(70.000000, 20.000000)">
                                <path d="M9.96399817,6.45614035 L10.2130577,6.45614035 C10.5890729,6.45614035 10.8947368,6.14422153 10.8947368,5.75866671 L10.8947368,3.1176989 C10.8947368,2.73297145 10.5890729,2.42105263 10.2130577,2.42105263 L9.96399817,2.42105263 C9.58636571,2.42105263 9.28070175,2.73297145 9.28070175,3.1176989 L9.28070175,5.75866671 C9.28070175,6.14422153 9.58636571,6.45614035 9.96399817,6.45614035" id="Fill-84" fill="#009DDF"></path>
                                <path d="M18.8087174,6.03508772 C19.1355711,6.03508772 19.4,5.7231689 19.4,5.33844145 L19.4,2.6958189 C19.4,2.31191882 19.1355711,2 18.8087174,2 L18.5926854,2 C18.2658317,2 18,2.31191882 18,2.6958189 L18,5.33844145 C18,5.7231689 18.2658317,6.03508772 18.5926854,6.03508772 L18.8087174,6.03508772 Z" id="Fill-86" fill="#1697F3"></path>
                                <rect id="Rectangle-2" fill="#FFFFFF" x="6.05263158" y="7.66666667" width="16.5438596" height="11.7017544"></rect>
                                <path d="M21.8640304,18.6258645 L6.38241101,18.6258645 L6.38241101,8.16728543 L21.8640304,8.16728543 L21.8648577,18.6258645 L21.8640304,18.6258645 Z M21.8640304,3.63157895 L20.0711344,3.63157895 L20.0711344,5.74372134 C20.0711344,6.44860595 19.5027359,6.83704593 18.8036141,6.83704593 L18.5487862,6.83704593 C17.8504917,6.83704593 17.2829206,6.26359467 17.2829206,5.55954721 L17.2829206,3.63157895 L11.1049999,3.63157895 L11.1049999,5.57712747 C11.1049999,6.28033777 10.5374288,6.85462619 9.83830691,6.85462619 L9.58430643,6.85462619 C8.88518456,6.85462619 8.31761343,6.28033777 8.31761343,5.57712747 L8.31761343,3.63157895 L6.38241101,3.63157895 C5.75526974,3.63157895 5.24561404,4.1455922 5.24561404,4.77764432 L5.24561404,18.6258645 C5.24561404,19.2579166 5.75526974,19.7719298 6.38241101,19.7719298 L21.8640304,19.7719298 C22.4903443,19.7719298 23,19.2579166 23,18.6258645 L23,4.77764432 C23,4.1455922 22.4903443,3.63157895 21.8640304,3.63157895 Z" id="Fill-88" fill="#1697F3"></path>
                                <path d="M15.2068954,11.2982456 C15.2771387,11.2982456 15.3333333,11.2340123 15.3333333,11.1550751 L15.3333333,9.4246462 C15.3333333,9.34570892 15.2771387,9.28070175 15.2068954,9.28070175 L13.4422274,9.28070175 C13.3727646,9.28070175 13.3157895,9.34570892 13.3157895,9.4246462 L13.3157895,11.1550751 C13.3157895,11.2340123 13.3727646,11.2982456 13.4422274,11.2982456 L15.2068954,11.2982456 Z" id="Fill-90" fill="#1697F3"></path>
                                <path d="M16.1865455,11.2982456 L17.9518964,11.2982456 C18.0213861,11.2982456 18.0776025,11.2340123 18.0776025,11.1550751 L18.0776025,9.4246462 C18.0776025,9.34570892 18.0213861,9.28070175 17.9518964,9.28070175 L16.1865455,9.28070175 C16.116275,9.28070175 16.0600586,9.34570892 16.0600586,9.4246462 L16.0600586,11.1550751 C16.0600586,11.2340123 16.116275,11.2982456 16.1865455,11.2982456" id="Fill-92" fill="#1697F3"></path>
                                <path d="M19.0921307,11.2982456 L20.8560182,11.2982456 C20.927042,11.2982456 20.9824561,11.2340123 20.9824561,11.1550751 L20.9824561,9.4246462 C20.9824561,9.34570892 20.927042,9.28070175 20.8560182,9.28070175 L19.0921307,9.28070175 C19.0218874,9.28070175 18.9649123,9.34570892 18.9649123,9.4246462 L18.9649123,11.1550751 C18.9649123,11.2340123 19.0218874,11.2982456 19.0921307,11.2982456" id="Fill-94" fill="#1697F3"></path>
                                <path d="M9.1542638,17.3508772 C9.22450711,17.3508772 9.28070175,17.2866439 9.28070175,17.2069328 L9.28070175,15.4772778 C9.28070175,15.3967927 9.22450711,15.3333333 9.1542638,15.3333333 L7.38959585,15.3333333 C7.32013302,15.3333333 7.26315789,15.3967927 7.26315789,15.4772778 L7.26315789,17.2069328 C7.26315789,17.2866439 7.32013302,17.3508772 7.38959585,17.3508772 L9.1542638,17.3508772 Z" id="Fill-96" fill="#1697F3"></path>
                                <path d="M10.3186084,17.3508772 L12.0839593,17.3508772 C12.1542298,17.3508772 12.2096654,17.2866439 12.2096654,17.2069328 L12.2096654,15.4772778 C12.2096654,15.3967927 12.1542298,15.3333333 12.0839593,15.3333333 L10.3186084,15.3333333 C10.2491187,15.3333333 10.1921215,15.3967927 10.1921215,15.4772778 L10.1921215,17.2069328 C10.1921215,17.2866439 10.2491187,17.3508772 10.3186084,17.3508772" id="Fill-98" fill="#1697F3"></path>
                                <path d="M13.2475231,17.3508772 L15.0121911,17.3508772 C15.0824344,17.3508772 15.138629,17.2866439 15.138629,17.2069328 L15.138629,15.4772778 C15.138629,15.3967927 15.0824344,15.3333333 15.0121911,15.3333333 L13.2475231,15.3333333 C13.1780603,15.3333333 13.1210852,15.3967927 13.1210852,15.4772778 L13.1210852,17.2069328 C13.1210852,17.2866439 13.1780603,17.3508772 13.2475231,17.3508772" id="Fill-100" fill="#1697F3"></path>
                                <path d="M16.1765357,17.3508772 L17.9418866,17.3508772 C18.0113763,17.3508772 18.0675927,17.2866439 18.0675927,17.2069328 L18.0675927,15.4772778 C18.0675927,15.3967927 18.0113763,15.3333333 17.9418866,15.3333333 L16.1765357,15.3333333 C16.1062652,15.3333333 16.0500488,15.3967927 16.0500488,15.4772778 L16.0500488,17.2069328 C16.0500488,17.2866439 16.1062652,17.3508772 16.1765357,17.3508772" id="Fill-102" fill="#1697F3"></path>
                                <path d="M9.1542638,14.5263158 C9.22450711,14.5263158 9.28070175,14.4620825 9.28070175,14.3831452 L9.28070175,12.6527164 C9.28070175,12.5737791 9.22450711,12.5087719 9.1542638,12.5087719 L7.38959585,12.5087719 C7.32013302,12.5087719 7.26315789,12.5737791 7.26315789,12.6527164 L7.26315789,14.3831452 C7.26315789,14.4620825 7.32013302,14.5263158 7.38959585,14.5263158 L9.1542638,14.5263158 Z" id="Fill-104" fill="#1697F3"></path>
                                <path d="M10.3150834,14.5263158 L12.0804343,14.5263158 C12.1507047,14.5263158 12.2061404,14.4620825 12.2061404,14.3831452 L12.2061404,12.6527164 C12.2061404,12.5737791 12.1507047,12.5087719 12.0804343,12.5087719 L10.3150834,12.5087719 C10.2455937,12.5087719 10.1885965,12.5737791 10.1885965,12.6527164 L10.1885965,14.3831452 C10.1885965,14.4620825 10.2455937,14.5263158 10.3150834,14.5263158" id="Fill-106" fill="#1697F3"></path>
                                <path d="M13.240473,14.5263158 L15.005141,14.5263158 C15.0753843,14.5263158 15.1315789,14.4620825 15.1315789,14.3831452 L15.1315789,12.6527164 C15.1315789,12.5737791 15.0753843,12.5087719 15.005141,12.5087719 L13.240473,12.5087719 C13.1710102,12.5087719 13.1140351,12.5737791 13.1140351,12.6527164 L13.1140351,14.3831452 C13.1140351,14.4620825 13.1710102,14.5263158 13.240473,14.5263158" id="Fill-108" fill="#1697F3"></path>
                                <path d="M16.1659606,14.5263158 L17.9313114,14.5263158 C18.0008012,14.5263158 18.0570175,14.4620825 18.0570175,14.3831452 L18.0570175,12.6527164 C18.0570175,12.5737791 18.0008012,12.5087719 17.9313114,12.5087719 L16.1659606,12.5087719 C16.0956901,12.5087719 16.0394737,12.5737791 16.0394737,12.6527164 L16.0394737,14.3831452 C16.0394737,14.4620825 16.0956901,14.5263158 16.1659606,14.5263158" id="Fill-110" fill="#1697F3"></path>
                                <path d="M19.0921307,14.5263158 L20.8560182,14.5263158 C20.927042,14.5263158 20.9824561,14.4620825 20.9824561,14.3831452 L20.9824561,12.6527164 C20.9824561,12.5737791 20.927042,12.5087719 20.8560182,12.5087719 L19.0921307,12.5087719 C19.0218874,12.5087719 18.9649123,12.5737791 18.9649123,12.6527164 L18.9649123,14.3831452 C18.9649123,14.4620825 19.0218874,14.5263158 19.0921307,14.5263158" id="Fill-112" fill="#1697F3"></path>
                                <path d="M5.85087719,0 C2.63049208,0 0,2.63123256 0,5.85087719 C0,9.07135292 2.63049208,11.7017544 5.85087719,11.7017544 C9.0712623,11.7017544 11.7017544,9.07135292 11.7017544,5.85087719 C11.7017544,2.63123256 9.0712623,0 5.85087719,0" id="Fill-114" fill="#FEFEFE"></path>
                                <path d="M5.85087719,0 C2.63049208,0 0,2.63123256 0,5.85087719 C0,9.07135292 2.63049208,11.7017544 5.85087719,11.7017544 C9.0712623,11.7017544 11.7017544,9.07135292 11.7017544,5.85087719 C11.7017544,2.63123256 9.0712623,0 5.85087719,0 Z" id="Stroke-116" stroke="#FEFEFE" stroke-width="0.847"></path>
                                <path d="M5.85087719,10.5240991 C3.27920871,10.5240991 1.17812905,8.42310232 1.17812905,5.85087719 C1.17812905,3.27948315 3.27920871,1.17848634 5.85087719,1.17848634 C8.42254567,1.17848634 10.5244538,3.27948315 10.5244538,5.85087719 C10.5244538,8.42310232 8.42254567,10.5240991 5.85087719,10.5240991 M5.85087719,0 C2.63049208,0 0,2.63123256 0,5.85087719 C0,9.07135292 2.63049208,11.7017544 5.85087719,11.7017544 C9.0712623,11.7017544 11.7017544,9.07135292 11.7017544,5.85087719 C11.7017544,2.63123256 9.0712623,0 5.85087719,0" id="Fill-118" fill="#1697F3"></path>
                                <path d="M6.35868365,5.71950224 L6.35868365,2.58885929 C6.35868365,2.27339381 6.10999348,2.01754386 5.80174643,2.01754386 C5.49430421,2.01754386 5.24561404,2.27339381 5.24561404,2.58885929 L5.24561404,6.28998968 C5.24561404,6.60462716 5.49430421,6.85964912 5.80174643,6.85964912 L9.12807813,6.85964912 C9.43552035,6.85964912 9.68421053,6.60462716 9.68421053,6.28998968 C9.68421053,5.9745242 9.43552035,5.71950224 9.12807813,5.71950224 L6.35868365,5.71950224 Z" id="Fill-120" fill="#1697F3"></path>
                            </g>
                        </g>
                    </g>
                </g>
            </g>
        </g>
    </g>
</svg>