<?xml version="1.0" encoding="UTF-8"?>
<svg width="20px" height="20px" viewBox="0 0 20 20" version="1.1" xmlns="http://www.w3.org/2000/svg" xmlns:xlink="http://www.w3.org/1999/xlink">
    <!-- Generator: Sketch 49.1 (51147) - http://www.bohemiancoding.com/sketch -->
    <title>clock</title>
    <desc>Created with Sketch.</desc>
    <defs></defs>
    <g id="GES-III****" stroke="none" stroke-width="1" fill="none" fill-rule="evenodd">
        <g id="004_bonosGesIII" transform="translate(-669.000000, -526.000000)" fill="#FB7C40" fill-rule="nonzero">
            <g id="Group-4" transform="translate(669.000000, 526.000000)">
                <g id="clock">
                    <path d="M20,10 C20,15.5 15.5,20 10,20 C4.5,20 0,15.5 0,10 C0,4.5 4.5,0 10,0 C15.5,0 20,4.5 20,10 Z M18.625,10 C18.625,5.25 14.75,1.375 10,1.375 C5.25,1.375 1.375,5.25 1.375,10 C1.375,14.75 5.25,18.625 10,18.625 C14.75,18.625 18.625,14.75 18.625,10 Z M15.1875,7.1875 L15.625,7.75 C15.6875,7.8125 15.6875,7.875 15.6875,7.9375 C15.6875,8 15.6875,8.0625 15.625,8.0625 C13.3125,10 11.875,11.125 11.375,11.4375 C10.875,11.75 10.625,11.9375 10.5625,11.9375 C10.5,11.9375 10.1875,11.6875 9.5625,11.1875 C8.9375,10.6875 7.125,8.9375 4,5.875 C4,5.875 4,5.8125 3.9375,5.75 C3.9375,5.6875 3.9375,5.625 4,5.5625 L4.25,5.3125 C4.3125,5.25 4.375,5.1875 4.4375,5.1875 C4.5,5.1875 4.5625,5.1875 4.625,5.25 L10.625,9.4375 L14.9375,7.125 C15,7.125 15.0625,7.125 15.125,7.125 C15.125,7.0625 15.1875,7.125 15.1875,7.1875 Z" id="path-1"></path>
                </g>
            </g>
        </g>
    </g>
</svg>