<?xml version="1.0" encoding="UTF-8"?>
<svg width="40px" height="38px" viewBox="0 0 40 38" version="1.1" xmlns="http://www.w3.org/2000/svg" xmlns:xlink="http://www.w3.org/1999/xlink">
    <!-- Generator: Sketch 49.1 (51147) - http://www.bohemiancoding.com/sketch -->
    <title>Stroke 361</title>
    <desc>Created with Sketch.</desc>
    <defs></defs>
    <g id="BONOS-&gt;-CARO-2*****" stroke="none" stroke-width="1" fill="none" fill-rule="evenodd" stroke-linecap="round" stroke-linejoin="round">
        <g id="000_cotiza_dkt" transform="translate(-977.000000, -385.000000)" stroke="#0079C7" stroke-width="1.5">
            <path d="M989.085498,386.754852 C988.050718,386.754852 986.97945,386.950424 985.899425,387.331352 C983.254824,388.266887 981.102072,390.123362 979.841071,392.557796 C978.530446,395.085637 978.406389,398.276089 979.474738,402.038661 C981.332672,408.069286 995.227044,419.199378 996.998868,420.474975 C998.783828,419.202297 1012.62274,408.207937 1014.51132,402.079527 C1015.59135,398.276089 1015.46729,395.085637 1014.15521,392.557796 C1012.89275,390.123362 1010.74291,388.266887 1008.09539,387.331352 C1006.236,386.671661 1004.41455,386.579713 1002.68943,387.058427 C1001.24161,387.459787 998.848046,389.256423 997.242604,390.670672 C997.096654,390.797647 996.883568,390.797647 996.740538,390.670672 C995.146772,389.259342 992.769258,387.464166 991.305387,387.058427 C990.581478,386.857017 989.835677,386.754852 989.085498,386.754852 M996.998868,421.306886 C996.975516,421.306886 996.955083,421.305426 996.931732,421.301048 L996.930272,421.301048 C996.838324,421.284993 996.760971,421.239749 996.704051,421.171153 C994.415566,419.807986 980.573736,408.186045 978.761046,402.302829 C977.622641,398.290684 977.764212,394.914877 979.166785,392.207518 C980.518275,389.602323 982.819895,387.617413 985.646933,386.616201 C987.655195,385.906887 989.638646,385.809101 991.509716,386.327221 C993.353055,386.840962 996.038522,389.056473 996.99303,389.884005 C997.954836,389.056473 1000.6622,386.835124 1002.48802,386.327221 C1004.36055,385.809101 1006.34108,385.906887 1008.34934,386.616201 C1011.17784,387.617413 1013.478,389.602323 1014.82949,392.207518 C1016.23352,394.914877 1016.37364,398.290684 1015.2542,402.24445 C1013.42108,408.190424 999.567576,419.819662 997.290767,421.174072 C997.260117,421.20764 997.22509,421.23537 997.187143,421.258722 C997.159412,421.271858 997.133142,421.283534 997.105411,421.290831 C997.070383,421.302507 997.032437,421.306886 996.998868,421.306886" id="Stroke-361"></path>
        </g>
    </g>
</svg>