<?xml version="1.0" encoding="UTF-8" standalone="no"?>
<svg width="20px" height="20px" viewBox="0 0 20 20" version="1.1" xmlns="http://www.w3.org/2000/svg" xmlns:xlink="http://www.w3.org/1999/xlink">
    <!-- Generator: Sketch 46.2 (44496) - http://www.bohemiancoding.com/sketch -->
    <title>Clip 736</title>
    <desc>Created with Sketch.</desc>
    <defs>
        <path d="M13.7943312,5.40782365 L14.6519296,6.08585272 C14.6643137,6.09823681 14.6766978,6.11371693 14.6859859,6.13260267 C14.6983699,6.15086921 14.704562,6.16975495 14.704562,6.18523507 C14.707658,6.21000325 14.707658,6.23477144 14.704562,6.256134 C14.6983699,6.27811576 14.6890819,6.2963823 14.6766978,6.31526804 L9.06051177,13.9838078 C9.04812768,14.0026935 9.02955154,14.0150776 9.0109754,14.0274617 L8.94595892,14.0488243 L8.93357482,14.0488243 C8.91190266,14.0488243 8.8902305,14.0429418 8.87165436,14.0364402 C8.85307822,14.0240561 8.83759811,14.0150776 8.82831004,14.0026935 L5.77253518,10.8351522 C5.76015109,10.8168857 5.75086302,10.8014056 5.74157495,10.7797334 C5.73228688,10.7642533 5.72919085,10.7453676 5.72919085,10.727101 C5.72919085,10.7023329 5.73228688,10.6803511 5.74157495,10.6620846 C5.75086302,10.6431988 5.76015109,10.6277187 5.77253518,10.6153346 L6.53106085,9.81965665 C6.56202108,9.78869642 6.59917336,9.77352591 6.64251769,9.77352591 C6.68586201,9.77352591 6.72301429,9.78869642 6.75397452,9.81965665 L8.81282992,11.9531262 L13.5745135,5.44497593 C13.5961857,5.40782365 13.630242,5.38646109 13.6735863,5.37995944 C13.7169306,5.37686342 13.7571789,5.38336507 13.7943312,5.40782365 Z M10.0001548,18.6374402 C14.7627672,18.6374402 18.6377498,14.7627672 18.6377498,10.0001548 C18.6377498,5.23754238 14.7627672,1.36286939 10.0001548,1.36286939 C5.23723277,1.36286939 1.36255979,5.23754238 1.36255979,10.0001548 C1.36255979,14.7627672 5.23723277,18.6374402 10.0001548,18.6374402 Z M10.0001548,0 C15.514172,0 20,4.48582795 20,10.0001548 C20,15.5144816 15.514172,20.0003096 10.0001548,20.0003096 C4.48613756,20.0003096 0,15.5144816 0,10.0001548 C0,4.48582795 4.48613756,0 10.0001548,0 Z" id="path-1"></path>
    </defs>
    <g id="Symbols" stroke="none" stroke-width="1" fill="none" fill-rule="evenodd">
        <g id="aprobado">
            <mask id="mask-2" fill="white">
                <use xlink:href="#path-1"></use>
            </mask>
            <use id="Clip-736" fill="#007A3D" xlink:href="#path-1"></use>
        </g>
    </g>
</svg>