<?xml version="1.0" encoding="UTF-8"?>
<svg width="24px" height="24px" viewBox="0 0 24 24" version="1.1" xmlns="http://www.w3.org/2000/svg" xmlns:xlink="http://www.w3.org/1999/xlink">
    <!-- Generator: Sketch 49.1 (51147) - http://www.bohemiancoding.com/sketch -->
    <title>Group</title>
    <desc>Created with Sketch.</desc>
    <defs></defs>
    <g id="01_REEM_Historico" stroke="none" stroke-width="1" fill="none" fill-rule="evenodd">
        <g id="013_RH" transform="translate(-15.000000, -185.000000)" fill="#006D31">
            <g id="Group" transform="translate(15.000000, 185.000000)">
                <path d="M0,12.0002151 C0,5.38351524 5.38308511,0 11.9997849,0 C18.6164848,0 24,5.38351524 24,12.0002151 C24,18.6164848 18.6164848,24 11.9997849,24 C5.38308511,24 0,18.6164848 0,12.0002151 Z M12.6981343,15.8126673 C13.2048282,15.7493306 13.6048712,15.5817947 13.8990806,15.3104683 C14.1928813,15.0391419 14.339986,14.6999839 14.339986,14.2929942 C14.339986,13.9313619 14.2382386,13.6261197 14.0347438,13.3772676 C13.831249,13.1284155 13.3858487,12.9044895 12.6981343,12.7054895 L12.6981343,15.8126673 Z M11.2871552,10.6161944 L11.2871552,7.57684822 C10.7988494,7.63119523 10.4098392,7.7917845 10.1205334,8.05861605 C9.83081886,8.3254476 9.68616592,8.65357277 9.68616592,9.04217431 C9.68616592,9.34087854 9.76789075,9.62364643 9.93052315,9.89006936 C10.0931555,10.1573095 10.5455024,10.399215 11.2871552,10.6161944 Z M12.6981343,10.968837 C13.2771547,11.1138986 13.776902,11.2855207 14.1973762,11.4845207 C14.618259,11.6835206 14.9664068,11.9143932 15.2422281,12.1763213 C15.5180494,12.438658 15.7215442,12.7349105 15.8527125,13.0650788 C15.9838809,13.3952471 16.0496693,13.7683209 16.0496693,14.1843002 C16.0496693,14.6096779 15.9703963,15.0052261 15.8122587,15.3717619 C15.6537126,15.7378891 15.4297865,16.0590677 15.1404807,16.334889 C14.8511748,16.6107103 14.5026184,16.8366794 14.0956288,17.013205 C13.6886392,17.1897306 13.2362923,17.3049626 12.7389967,17.3593096 L12.7389967,18.6481101 C12.7389967,18.7204366 12.7140706,18.7792785 12.6642185,18.8246357 C12.6143664,18.8695844 12.5534814,18.8924673 12.4811549,18.8924673 L11.49065,18.8924673 C11.4273133,18.8924673 11.3709232,18.8695844 11.321071,18.8246357 C11.2712189,18.7792785 11.2467014,18.7204366 11.2467014,18.6481101 L11.2467014,17.3319318 C10.5863649,17.2416259 9.9619872,17.0630572 9.37438572,16.7962256 C8.78637561,16.5293941 8.21634496,16.1608151 7.6647024,15.6904887 C7.61934513,15.6451315 7.59237593,15.5911931 7.5833862,15.5274477 C7.57398785,15.4645196 7.59237593,15.4056777 7.63773321,15.3513307 L8.32953385,14.4151729 C8.34751331,14.387795 8.37243938,14.3653207 8.40431206,14.3473413 C8.43577612,14.3293618 8.46969192,14.3199634 8.50605947,14.3199634 C8.54201839,14.3109737 8.57593419,14.3134255 8.60780687,14.32691 C8.63927093,14.3403946 8.66869187,14.3608259 8.69606968,14.387795 C9.13901823,14.7857949 9.56848218,15.0934889 9.98487015,15.3104683 C10.4008495,15.5274477 10.8348083,15.6725093 11.2871552,15.7448357 L11.2871552,12.3663315 C10.7081348,12.2126889 10.2108393,12.038615 9.79485994,11.8441099 C9.37847196,11.6496048 9.03727082,11.4211839 8.77043927,11.1588472 C8.50360772,10.8965106 8.3066509,10.6002581 8.18038604,10.2700898 C8.05371257,9.94033013 7.99037583,9.56684768 7.99037583,9.15086833 C7.99037583,8.72589924 8.06924028,8.33443734 8.22778644,7.97729985 C8.38592397,7.62016237 8.60780687,7.30347868 8.89261788,7.0276574 C9.17742889,6.75183612 9.52108178,6.5279101 9.92357654,6.35587935 C10.3260713,6.18425722 10.7669767,6.0755632 11.2467014,6.03020593 L11.2467014,5.36537448 C11.2467014,5.29304801 11.2712189,5.23216302 11.321071,5.18231088 C11.3709232,5.13245873 11.4273133,5.10753266 11.49065,5.10753266 L12.4811549,5.10753266 C12.5534814,5.10753266 12.6143664,5.13245873 12.6642185,5.18231088 C12.7140706,5.23216302 12.7389967,5.29304801 12.7389967,5.36537448 L12.7389967,6.07106834 C13.2546804,6.14339481 13.7429862,6.28110113 14.2043228,6.48459595 C14.6656594,6.68849938 15.1359858,6.97085865 15.6153019,7.33289962 C15.6696489,7.3782569 15.701113,7.43464702 15.7105113,7.50247863 C15.719501,7.57031023 15.701113,7.63119523 15.6561643,7.68554223 L14.9913329,8.6082155 C14.9729448,8.64458304 14.9480187,8.67155223 14.9165547,8.6895317 C14.8850906,8.70751116 14.8511748,8.71650089 14.8148072,8.71650089 C14.7784397,8.72589924 14.7445239,8.7234475 14.7130598,8.7099629 C14.6811872,8.69647831 14.6521748,8.68054196 14.624797,8.6625625 C14.3265014,8.40921555 14.0188075,8.20122587 13.7025324,8.03818485 C13.3858487,7.87555245 13.0511855,7.74887897 12.6981343,7.65857304 L12.6981343,10.968837 Z" id="Fill-136"></path>
            </g>
        </g>
    </g>
</svg>