<?xml version="1.0" encoding="UTF-8"?>
<svg width="18px" height="20px" viewBox="0 0 18 20" version="1.1" xmlns="http://www.w3.org/2000/svg" xmlns:xlink="http://www.w3.org/1999/xlink">
    <!-- Generator: Sketch 50.2 (55047) - http://www.bohemiancoding.com/sketch -->
    <title>Fill 84</title>
    <desc>Created with Sketch.</desc>
    <defs></defs>
    <g id="Bonos" stroke="none" stroke-width="1" fill="none" fill-rule="evenodd">
        <g id="10.A.Bonos---consultas-anteriores" transform="translate(-20.000000, -266.000000)" fill="#1872B8">
            <g id="ui/selector-periodo" transform="translate(0.000000, 254.000000)">
                <path d="M29.0488651,22.9873313 C28.6758763,22.9873313 28.3363608,22.6478158 28.3363608,22.2748269 C28.3363608,21.901838 28.6758763,21.5623225 29.0488651,21.5623225 C29.421854,21.5623225 29.7616684,21.901838 29.7616684,22.2748269 C29.7616684,22.6478158 29.421854,22.9873313 29.0488651,22.9873313 Z M31.7458615,22.9873313 C31.3728726,22.9873313 31.0333571,22.6478158 31.0333571,22.2748269 C31.0333571,21.901838 31.3728726,21.5623225 31.7458615,21.5623225 C32.1188503,21.5623225 32.4586647,21.901838 32.4586647,22.2748269 C32.4586647,22.6478158 32.1188503,22.9873313 31.7458615,22.9873313 Z M34.4921713,22.9873313 C34.1191824,22.9873313 33.7796669,22.6478158 33.7796669,22.2748269 C33.7796669,21.9245521 34.0462583,21.5623225 34.4921713,21.5623225 C34.8651601,21.5623225 35.2046756,21.901838 35.2046756,22.2748269 C35.2046756,22.6478158 34.8651601,22.9873313 34.4921713,22.9873313 Z M23.6058578,25.7829545 C23.232869,25.7829545 22.8930546,25.4431401 22.8930546,25.0701513 C22.8930546,24.6242383 23.2552842,24.3579458 23.6058578,24.3579458 C23.9788467,24.3579458 24.3183622,24.6971624 24.3183622,25.0701513 C24.3183622,25.4431401 23.9788467,25.7829545 23.6058578,25.7829545 Z M26.3518688,25.7829545 C25.9788799,25.7829545 25.6393644,25.4431401 25.6393644,25.0701513 C25.6393644,24.6439637 25.9256812,24.3579458 26.3518688,24.3579458 C26.7248576,24.3579458 27.0643731,24.6971624 27.0643731,25.0701513 C27.0643731,25.4431401 26.7248576,25.7829545 26.3518688,25.7829545 Z M29.0488651,25.7829545 C28.6758763,25.7829545 28.3363608,25.4431401 28.3363608,25.0701513 C28.3363608,24.6971624 28.6758763,24.3579458 29.0488651,24.3579458 C29.3991399,24.3579458 29.7616684,24.6242383 29.7616684,25.0701513 C29.7616684,25.4431401 29.421854,25.7829545 29.0488651,25.7829545 Z M31.7458615,25.7829545 C31.3728726,25.7829545 31.0333571,25.4431401 31.0333571,25.0701513 C31.0333571,24.6242383 31.3958856,24.3579458 31.7458615,24.3579458 C32.1188503,24.3579458 32.4586647,24.6971624 32.4586647,25.0701513 C32.4586647,25.4431401 32.1188503,25.7829545 31.7458615,25.7829545 Z M34.4921713,25.7829545 C34.1191824,25.7829545 33.7796669,25.4431401 33.7796669,25.0701513 C33.7796669,24.6439637 34.0659837,24.3579458 34.4921713,24.3579458 C34.8651601,24.3579458 35.2046756,24.6971624 35.2046756,25.0701513 C35.2046756,25.4431401 34.8651601,25.7829545 34.4921713,25.7829545 Z M23.6058578,28.5289654 C23.232869,28.5289654 22.8930546,28.189151 22.8930546,27.8161622 C22.8930546,27.4431733 23.232869,27.1039567 23.6058578,27.1039567 C23.9788467,27.1039567 24.3183622,27.4431733 24.3183622,27.8161622 C24.3183622,28.189151 23.9788467,28.5289654 23.6058578,28.5289654 Z M26.3518688,28.5289654 C25.9788799,28.5289654 25.6393644,28.189151 25.6393644,27.8161622 C25.6393644,27.4658874 25.9059558,27.1039567 26.3518688,27.1039567 C26.7248576,27.1039567 27.0643731,27.4431733 27.0643731,27.8161622 C27.0643731,28.189151 26.7248576,28.5289654 26.3518688,28.5289654 Z M29.0488651,28.5289654 C28.6758763,28.5289654 28.3363608,28.189151 28.3363608,27.8161622 C28.3363608,27.4431733 28.6758763,27.1039567 29.0488651,27.1039567 C29.421854,27.1039567 29.7616684,27.4431733 29.7616684,27.8161622 C29.7616684,28.189151 29.421854,28.5289654 29.0488651,28.5289654 Z M31.7458615,28.5289654 C31.3728726,28.5289654 31.0333571,28.189151 31.0333571,27.8161622 C31.0333571,27.4431733 31.3728726,27.1039567 31.7458615,27.1039567 C32.1920733,27.1039567 32.4586647,27.4658874 32.4586647,27.8161622 C32.4586647,28.189151 32.1188503,28.5289654 31.7458615,28.5289654 Z M25.7633952,12.7875205 C25.3025387,12.7875205 25.0048649,13.0854932 25.0048649,13.5460508 L25.0048649,16.0963023 C25.0048649,16.5568599 25.3025387,16.8548326 25.7633952,16.8548326 C26.2242516,16.8548326 26.5219254,16.5568599 26.5219254,16.0963023 L26.5219254,13.5460508 C26.5219254,13.1138858 26.195859,12.7875205 25.7633952,12.7875205 Z M32.236306,12.7875205 C31.7757484,12.7875205 31.4777757,13.0854932 31.4777757,13.5460508 L31.4777757,16.0963023 C31.4777757,16.5287662 31.8038421,16.8548326 32.236306,16.8548326 C32.6687698,16.8548326 32.9951351,16.5287662 32.9951351,16.0963023 L32.9951351,13.5460508 C32.9951351,13.0854932 32.6971624,12.7875205 32.236306,12.7875205 Z M21.1309213,19.0126687 L36.8197652,19.0126687 L36.8197652,15.3864878 L33.7826556,15.3864878 L33.7826556,16.0963023 C33.7826556,16.9920135 33.1116941,17.6423531 32.1872914,17.6423531 C31.2628887,17.6423531 30.5922261,16.9920135 30.5922261,16.0963023 L30.5922261,15.3864878 L27.3097448,15.3864878 L27.3097448,16.0963023 C27.3097448,16.9920135 26.6387833,17.6423531 25.7143806,17.6423531 C24.7899779,17.6423531 24.1190164,16.9920135 24.1190164,16.0963023 L24.1190164,15.5078287 L24.0469889,15.5798562 L24.0469889,15.3864878 L21.1309213,15.3864878 L21.1309213,19.0126687 Z M21.1309213,29.9973102 L36.8200641,29.9973102 L36.8200641,20.1920069 L21.1309213,20.1920069 L21.1309213,29.9973102 Z M20.5654607,31.1276338 C20.2378999,31.1276338 20,30.8900327 20,30.562472 L20,14.821326 C20,14.4934664 20.2378999,14.2558653 20.5654607,14.2558653 L24.1680309,14.2558653 L24.1680309,13.5460508 C24.1680309,12.6503395 24.8389925,12 25.7633952,12 C26.6877978,12 27.3587594,12.6503395 27.3587594,13.5460508 L27.3587594,14.2558653 L30.6412406,14.2558653 L30.6412406,13.5460508 C30.6412406,12.6503395 31.3119033,12 32.236306,12 C33.1607087,12 33.8316702,12.6503395 33.8316702,13.5460508 L33.8316702,14.2558653 L37.4345393,14.2558653 C37.7621001,14.2558653 38,14.4934664 38,14.821326 L38,30.562472 C38,30.8900327 37.7621001,31.1276338 37.4345393,31.1276338 L20.5654607,31.1276338 Z" id="Fill-84"></path>
            </g>
        </g>
    </g>
</svg>