<?xml version="1.0" encoding="utf-8"?>
<!-- Generator: Adobe Illustrator 21.0.0, SVG Export Plug-In . SVG Version: 6.00 Build 0)  -->
<svg version="1.1" id="Layer_1" xmlns="http://www.w3.org/2000/svg" xmlns:xlink="http://www.w3.org/1999/xlink" x="0px" y="0px"
	 viewBox="0 0 19 19" style="enable-background:new 0 0 19 19;" xml:space="preserve">
<style type="text/css">
	.st0{fill:#FFFFFF;}
	.st1{fill:#A4219B;}
</style>
<title>pendiente</title>
<desc>Created with Sketch.</desc>
<g>
	<circle class="st0" cx="9.5" cy="9.5" r="9.5"/>
	<g id="LI-licencias-003" transform="translate(-15.000000, -191.000000)">
		<path id="pendiente" class="st1" d="M24.5,210c-5.2,0-9.5-4.3-9.5-9.5s4.3-9.5,9.5-9.5s9.5,4.3,9.5,9.5S29.7,210,24.5,210z
			 M24.5,204.2c-2,0-3.7-1.6-3.7-3.7s1.6-3.7,3.7-3.7s3.7,1.6,3.7,3.7S26.5,204.2,24.5,204.2z M24.5,208.5c4.4,0,8-3.6,8-8
			s-3.6-8-8-8s-8,3.6-8,8S20.1,208.5,24.5,208.5z M24.5,202.7c1.2,0,2.2-1,2.2-2.2s-1-2.2-2.2-2.2s-2.2,1-2.2,2.2
			S23.3,202.7,24.5,202.7z"/>
	</g>
</g>
</svg>
