<?xml version="1.0" encoding="UTF-8"?>
<svg width="29px" height="26px" viewBox="0 0 29 26" version="1.1" xmlns="http://www.w3.org/2000/svg" xmlns:xlink="http://www.w3.org/1999/xlink">
    <!-- Generator: Sketch 50.2 (55047) - http://www.bohemiancoding.com/sketch -->
    <title>Fill 202</title>
    <desc>Created with Sketch.</desc>
    <defs></defs>
    <g id="Symbols" stroke="none" stroke-width="1" fill="none" fill-rule="evenodd">
        <g id="icono-consulta" transform="translate(-6.000000, -7.000000)" fill="#0079C8">
            <path d="M24.7011724,26.3524552 L21.8169655,26.3524552 L21.8169655,29.2626498 L18.8726897,29.2626498 L18.8726897,26.3524552 L15.9880345,26.3524552 L15.9880345,23.3825642 L18.8726897,23.3825642 L18.8726897,20.4723696 L21.8169655,20.4723696 L21.8169655,23.3825642 L24.7011724,23.3825642 L24.7011724,26.3524552 Z M32.8418621,17.1669131 L29.118931,17.1669131 L29.1135517,15.9426867 C29.1135517,15.407229 28.6823103,14.9726218 28.1564828,14.9775965 C27.6257241,14.9775965 27.194931,15.4126559 27.1998621,15.9426867 L27.1985172,17.1669131 L13.4853103,17.1669131 L13.479931,15.9426867 C13.479931,15.407229 13.0486897,14.9726218 12.5228621,14.9775965 C11.9921034,14.9775965 11.5613103,15.4126559 11.5662414,15.9426867 L11.5648966,17.1669131 L7.8477931,17.1669131 L7.8477931,14.6822807 C7.8477931,14.1721487 8.03741379,13.7352803 8.4067931,13.3526813 C8.78603448,12.9800317 9.224,12.7887321 9.72472414,12.7887321 L30.964931,12.7887321 C31.4705862,12.7887321 31.9081034,12.9800317 32.2824138,13.3526813 C32.6621034,13.7352803 32.8418621,14.1721487 32.8418621,14.6822807 L32.8418621,17.1669131 Z M32.8418621,29.2422988 C32.8418621,29.7474561 32.6621034,30.1942739 32.2824138,30.5718982 C31.9081034,30.9544972 31.4705862,31.1358474 30.964931,31.1358474 L9.72472414,31.1358474 C9.224,31.1358474 8.78603448,30.9594719 8.4067931,30.6012941 C8.03741379,30.2381416 7.8477931,29.7868014 7.8477931,29.2422988 L7.8477931,18.5987198 L11.5626552,18.5987198 L11.5613103,19.5294394 C11.5613103,20.0644449 11.9925517,20.4995043 12.517931,20.4940773 C13.0491379,20.4940773 13.5023448,20.0594702 13.4969655,19.5294394 L13.4924828,18.5987198 L27.1962759,18.5987198 L27.194931,19.5294394 C27.194931,20.0644449 27.6261724,20.4995043 28.1515517,20.4940773 C28.6827586,20.4940773 29.1359655,20.0594702 29.1305862,19.5294394 L29.1261034,18.5987198 L32.8418621,18.5987198 L32.8418621,29.2422988 Z M16.1144483,10.7577012 C16.1144483,10.2475692 16.304069,9.81070081 16.6734483,9.42810179 C17.0526897,9.05545216 17.4902069,8.86415265 17.990931,8.86415265 L22.6982759,8.86415265 C23.203931,8.86415265 23.6418966,9.05545216 24.0162069,9.42810179 C24.395,9.81070081 24.5752069,10.2475692 24.5752069,10.7577012 L24.5752069,10.9245795 L16.1095172,10.9245795 L16.1144483,10.7577012 Z M33.5855517,12.0429806 C32.8517241,11.3022038 31.9762414,10.9245795 30.964931,10.9245795 L26.423,10.9245795 L26.423,10.7577012 C26.423,9.74195961 26.0486897,8.86415265 25.3193448,8.11840114 C24.585069,7.37762432 23.7095862,7 22.6982759,7 L17.990931,7 C16.9845517,7 16.1144483,7.37762432 15.3747931,8.11840114 C14.6409655,8.86415265 14.2666552,9.74195961 14.2666552,10.7577012 L14.2666552,10.9245795 L9.72472414,10.9245795 C8.71834483,10.9245795 7.8477931,11.3022038 7.10858621,12.0429806 C6.37431034,12.7887321 6,13.6665391 6,14.6822807 L6,29.2422988 C6,30.3019081 6.37431034,31.1901167 7.10858621,31.9109948 C7.8477931,32.6418222 8.71834483,33 9.72472414,33 L30.964931,33 C31.9762414,33 32.8517241,32.6418222 33.5855517,31.9109948 C34.3148966,31.1901167 34.6896552,30.3019081 34.6896552,29.2422988 L34.6896552,14.6822807 C34.6896552,13.6665391 34.3148966,12.7887321 33.5855517,12.0429806 Z" id="Fill-202"></path>
        </g>
    </g>
</svg>