<?xml version="1.0" encoding="UTF-8"?>
<svg width="14px" height="14px" viewBox="0 0 14 14" version="1.1" xmlns="http://www.w3.org/2000/svg" xmlns:xlink="http://www.w3.org/1999/xlink">
    <!-- Generator: Sketch 49.1 (51147) - http://www.bohemiancoding.com/sketch -->
    <title>Shape</title>
    <desc>Created with Sketch.</desc>
    <defs></defs>
    <g id="BONOS-&gt;-CARO-2*****" stroke="none" stroke-width="1" fill="none" fill-rule="evenodd">
        <g id="00-Consulta-Médica--por-Médico-1" transform="translate(-17.000000, -570.000000)" fill="#27A3F2" fill-rule="nonzero">
            <path d="M30.6148219,583.614822 C30.1012511,584.128393 29.2688245,584.128393 28.7552263,583.614822 L26.4347787,581.294347 C25.4807817,581.906355 24.353097,582.270985 23.135506,582.270985 C19.7472019,582.270985 17,579.524166 17,576.135479 C17,572.746792 19.7472019,570 23.135506,570 C26.5242476,570 29.271012,572.746737 29.271012,576.135479 C29.271012,577.35266 28.9059179,578.480782 28.294347,579.435216 L30.6148219,581.755691 C31.1283927,582.269262 31.1283927,583.101251 30.6148219,583.614822 Z M23.135506,571.752982 C20.715281,571.752982 18.7530095,573.714816 18.7530095,576.135451 C18.7530095,578.556086 20.7153083,580.517948 23.135506,580.517948 C25.5561138,580.517948 27.5179751,578.556086 27.5179751,576.135451 C27.5179751,573.714816 25.5561138,571.752982 23.135506,571.752982 Z" id="Shape"></path>
        </g>
    </g>
</svg>