<?xml version="1.0" encoding="UTF-8"?>
<svg width="34px" height="40px" viewBox="0 0 34 40" version="1.1" xmlns="http://www.w3.org/2000/svg" xmlns:xlink="http://www.w3.org/1999/xlink">
    <!-- Generator: Sketch 49.1 (51147) - http://www.bohemiancoding.com/sketch -->
    <title>authorizations-2</title>
    <desc>Created with Sketch.</desc>
    <defs></defs>
    <g id="HOME-22" stroke="none" stroke-width="1" fill="none" fill-rule="evenodd">
        <g id="home-D_02-Alertas" transform="translate(-1114.000000, -489.000000)" fill="#FFFFFF" fill-rule="nonzero">
            <g id="authorizations-2" transform="translate(1114.000000, 489.000000)">
                <path d="M22.62125,11.9375 L28.53875,6.00375 L29.8625,7.39375 L22.62375,14.67125 L22.50625,14.60875 L17.9125,9.99875 L19.295,8.66625 L22.61875,11.93625 L22.62125,11.9375 Z M0,4 L12.25375,4 C11.77,4.87875 11.37875,5.80875 11.10125,6.7925 L2.7775,6.7925 L2.7775,37.17875 L27.0475,37.17875 L27.0475,22.855 C27.9925,22.59375 28.89125,22.2225 29.73875,21.75375 L29.73875,40 L0,40 L0,4 Z M6.59,32.87875 L6.59,30.7925 L16.50375,30.7925 L16.50375,32.87875 L6.59,32.87875 Z M6.59,27.7075 L6.59,25.625 L21.8125,25.625 L21.8125,27.7075 L6.59,27.7075 Z M6.59,22.53875 L6.59,20.46 L15.445,20.46 C16.5275,21.34625 17.765,22.05375 19.0975,22.54625 L6.59,22.53875 Z M6.59,17.5 L6.59,10.24625 L10.61375,10.24625 L10.61375,10.3325 C10.61375,11.01625 10.665,11.6875 10.76625,12.3325 L8.665,12.3325 L8.665,15.41875 L11.65,15.41875 C11.95875,16.145 12.33,16.84875 12.75875,17.50125 L6.59125,17.50125 L6.59,17.5 Z M33.845,10.3325 C33.845,5 29.2,0 23.56,0 C17.755,0 13.27125,5 13.2675,10.3325 C13.2675,15.6725 17.75125,20.6725 23.56,20.6725 C28.86875,20.6725 33.845,16 33.845,10.3325 Z M31.6925,10.3325 C31.6925,15 28.2075,18.5 23.56,18.5 C18.915,18.5 15.43125,15 15.43125,10.3325 C15.43125,5.6725 18.91625,2.1725 23.56,2.1725 C28.20875,2.16875 31.6925,5.66875 31.6925,10.3325 Z" id="path-1"></path>
            </g>
        </g>
    </g>
</svg>