<?xml version="1.0" encoding="UTF-8"?>
<svg width="19px" height="19px" viewBox="0 0 19 19" version="1.1" xmlns="http://www.w3.org/2000/svg" xmlns:xlink="http://www.w3.org/1999/xlink">
    <!-- Generator: Sketch 49.1 (51147) - http://www.bohemiancoding.com/sketch -->
    <title>Clip 751</title>
    <desc>Created with Sketch.</desc>
    <defs>
        <path d="M9.5,0 C14.7382353,0 19,4.26147059 19,9.49970588 C19,14.7382353 14.7382353,18.9997059 9.5,18.9997059 C4.26176471,18.9997059 0,14.7382353 0,9.49970588 C0,4.26147059 4.26176471,0 9.5,0 Z M9.5,17.7052941 C14.0244118,17.7052941 17.7055882,14.0241176 17.7055882,9.49970588 C17.7055882,4.97558824 14.0244118,1.29441176 9.5,1.29441176 C4.97558824,1.29441176 1.29470588,4.97558824 1.29470588,9.49970588 C1.29470588,14.0241176 4.97558824,17.7052941 9.5,17.7052941 Z M10.5976471,9.50558824 L13.8961765,12.8041176 C14.0461765,12.9544118 14.1211765,13.1332353 14.1211765,13.3473529 C14.1211765,13.5608824 14.0461765,13.7455882 13.8961765,13.8958824 C13.7458824,14.0461765 13.5611765,14.1211765 13.3473529,14.1211765 C13.1335294,14.1211765 12.9544118,14.0461765 12.8041176,13.8958824 L9.50588235,10.5973529 L6.20735294,13.8958824 C6.05705882,14.0461765 5.87235294,14.1211765 5.65294118,14.1211765 C5.43882353,14.1211765 5.25411765,14.0461765 5.10382353,13.8958824 C4.95382353,13.7455882 4.87882353,13.5608824 4.87882353,13.3473529 C4.87882353,13.1332353 4.95382353,12.9544118 5.10382353,12.8041176 L8.40235294,9.49411765 L5.10382353,6.20705882 C4.95382353,6.05676471 4.87882353,5.87205882 4.87882353,5.65235294 C4.87882353,5.43882353 4.95382353,5.25411765 5.10382353,5.10382353 C5.25411765,4.95352941 5.43323529,4.87852941 5.65294118,4.87852941 C5.86647059,4.87852941 6.05117647,4.95352941 6.20735294,5.10382353 L9.50588235,8.40235294 L12.8041176,5.11529412 C12.9544118,4.965 13.1335294,4.89029412 13.3473529,4.89029412 C13.5611765,4.89029412 13.7458824,4.965 13.8961765,5.11529412 C14.0461765,5.26558824 14.1211765,5.44441176 14.1211765,5.65823529 C14.1211765,5.87794118 14.0461765,6.05676471 13.8961765,6.20705882 L10.5976471,9.50558824 Z" id="path-1"></path>
    </defs>
    <g id="LICENCIAS-&gt;-CARO-1" stroke="none" stroke-width="1" fill="none" fill-rule="evenodd">
        <g id="LI-licencias-001" transform="translate(-15.000000, -535.000000)">
            <g id="Group-3" transform="translate(0.000000, 535.000000)">
                <g id="rechazado" transform="translate(15.000000, 0.000000)">
                    <mask id="mask-2" fill="white">
                        <use xlink:href="#path-1"></use>
                    </mask>
                    <use id="Clip-751" fill="#D7000F" xlink:href="#path-1"></use>
                </g>
            </g>
        </g>
    </g>
</svg>