<?xml version="1.0" encoding="UTF-8"?>
<svg width="40px" height="40px" viewBox="0 0 40 40" version="1.1" xmlns="http://www.w3.org/2000/svg" xmlns:xlink="http://www.w3.org/1999/xlink">
    <!-- Generator: Sketch 49.1 (51147) - http://www.bohemiancoding.com/sketch -->
    <title>linear</title>
    <desc>Created with Sketch.</desc>
    <defs></defs>
    <g id="HOME-22" stroke="none" stroke-width="1" fill="none" fill-rule="evenodd">
        <g id="home-D_02-Alertas" transform="translate(-970.000000, -860.000000)" fill="#0079C7" fill-rule="nonzero">
            <g id="linear" transform="translate(970.000000, 860.000000)">
                <path d="M32,36.8888888 C32,38.6071082 30.5673112,40 28.8,40 C27.0326888,40 4.9673112,40 3.2,40 C1.4326888,40 0,38.6071082 0,36.8888888 L0,33 C0,29.1340068 7.163444,26 16,26 C24.836556,26 32,29.1340068 32,33 L32,36.8888888 Z M3.55555556,38 C4.41466516,38 27.5853348,38 28.4444444,38 C29.303554,38 30,37.2324882 30,36.2857142 L30,34 C30,31.0602848 23.8290554,28 16,28 C8.17094456,28 2,31.0602848 2,34 L2,36.2857142 C2,37.2324882 2.69644594,38 3.55555556,38 Z M34,2.97529647 L38.6742152,0.141319666 C39.2409204,-0.227773974 40,0.169107646 40,0.834500666 L40,9.16549934 C40,9.83089236 39.2409204,10.227774 38.6742152,9.85868034 L34,7.02470354 L34,8 C34,9.1045695 33.1045694,10 32,10 L26,10 C24.8954306,10 24,9.1045695 24,8 L24,2.00000001 C24,0.895430506 24.8954306,5.89963417e-09 26,5.89963417e-09 L32,5.89963417e-09 C33.1045694,5.89963417e-09 34,0.895430506 34,2.00000001 L34,2.97529647 Z M16,24 C11.581722,24 8,20.418278 8,16 C8,11.581722 11.581722,8.00000001 16,8.00000001 C20.418278,8.00000001 24,11.581722 24,16 C24,20.418278 20.418278,24 16,24 Z M16,22 C19.3137084,22 22,19.3137084 22,16 C22,12.6862915 19.3137084,10 16,10 C12.6862915,10 10,12.6862915 10,16 C10,19.3137084 12.6862915,22 16,22 Z M27,2.00000001 C26.4477152,2.00000001 26,2.44771527 26,3.00000001 L26,7.00000001 C26,7.55228475 26.4477152,8.00000001 27,8.00000001 L31,8.00000001 C31.5522848,8.00000001 32,7.55228475 32,7.00000001 L32,3.00000001 C32,2.44771527 31.5522848,2.00000001 31,2.00000001 L27,2.00000001 Z M34.5,5.00000001 L38,7.11999989 L38,2.85999967 L34.5,5.00000001 Z M10,28 L11,28 L11,30.0309468 C12.9731558,30.276996 14.5,31.9601912 14.5,34 L14.5,35 C14.5,35.5522848 14.0522847,36 13.5,36 L12.5,36 L12.5,36.5 C12.5,36.7761424 12.2761424,37 12,37 C11.7238576,37 11.5,36.7761424 11.5,36.5 L11.5,34.5 C11.5,34.2238576 11.7238576,34 12,34 C12.2761424,34 12.5,34.2238576 12.5,34.5 L12.5,35 L13.5,35 L13.5,34 C13.5,32.3431458 12.1568542,31 10.5,31 C8.84314576,31 7.5,32.3431458 7.5,34 L7.5,35 L8.5,35 L8.5,34.5 C8.5,34.2238576 8.72385762,34 9,34 C9.27614238,34 9.5,34.2238576 9.5,34.5 L9.5,36.5 C9.5,36.7761424 9.27614238,37 9,37 C8.72385762,37 8.5,36.7761424 8.5,36.5 L8.5,36 L7.5,36 C6.94771526,36 6.5,35.5522848 6.5,35 L6.5,34 C6.5,31.9601912 8.02684422,30.276996 10,30.0309468 L10,28 Z M21,31.0414792 L21,28 L22,28 L22,31.0414792 C23.4188566,31.2795182 24.5,32.5135018 24.5,34 C24.5,35.6568542 23.1568542,37 21.5,37 C19.8431458,37 18.5,35.6568542 18.5,34 C18.5,32.5135018 19.5811434,31.2795182 21,31.0414792 Z M21.5,36 C22.6045694,36 23.5,35.1045694 23.5,34 C23.5,32.8954306 22.6045694,32 21.5,32 C20.3954306,32 19.5,32.8954306 19.5,34 C19.5,35.1045694 20.3954306,36 21.5,36 Z M21.5,35 C20.9477152,35 20.5,34.5522848 20.5,34 C20.5,33.4477152 20.9477152,33 21.5,33 C22.0522848,33 22.5,33.4477152 22.5,34 C22.5,34.5522848 22.0522848,35 21.5,35 Z" id="path-1"></path>
            </g>
        </g>
    </g>
</svg>