<?xml version="1.0" encoding="UTF-8"?>
<svg width="20px" height="26px" viewBox="0 0 20 26" version="1.1" xmlns="http://www.w3.org/2000/svg" xmlns:xlink="http://www.w3.org/1999/xlink">
    <!-- Generator: Sketch 49.1 (51147) - http://www.bohemiancoding.com/sketch -->
    <title>Group 6</title>
    <desc>Created with Sketch.</desc>
    <defs></defs>
    <g id="BONOS-&gt;-CARO-2*****" stroke="none" stroke-width="1" fill="none" fill-rule="evenodd" stroke-linecap="round" stroke-linejoin="round">
        <g id="009_cotiza_dkt" transform="translate(-370.000000, -929.000000)" stroke="#1697F3" stroke-width="0.6">
            <g id="Group-6" transform="translate(371.000000, 930.000000)">
                <path d="M17.16,23.931 L0.921,23.931 C0.699,23.931 0.519,23.751 0.519,23.53 L0.519,0.921 C0.519,0.7 0.699,0.52 0.921,0.52 L12.308,0.52 L12.308,4.768 C12.308,5.322 12.76,5.773 13.312,5.773 L17.561,5.773 L17.561,23.53 C17.561,23.751 17.382,23.931 17.16,23.931 Z M17.194,5.253 L13.312,5.253 C13.046,5.253 12.828,5.036 12.828,4.768 L12.828,0.887 L17.194,5.253 Z M18.006,5.329 L12.753,0.076 L12.676,0 L0.921,0 C0.412,0 0,0.413 0,0.921 L0,23.53 C0,24.038 0.412,24.451 0.921,24.451 L17.16,24.451 C17.669,24.451 18.082,24.038 18.082,23.53 L18.082,5.405 L18.006,5.329 Z" id="Stroke-341"></path>
                <path d="M8.8562,17.7889 C8.9082,17.8399 8.9732,17.8649 9.0412,17.8649 C9.1062,17.8649 9.1732,17.8399 9.2232,17.7889 L12.3882,14.6249 C12.4902,14.5229 12.4902,14.3589 12.3882,14.2569 C12.2872,14.1559 12.1232,14.1559 12.0202,14.2569 L9.3002,16.9779 L9.3002,6.1709 C9.3002,6.0269 9.1832,5.9109 9.0412,5.9109 C8.8962,5.9109 8.7812,6.0269 8.7812,6.1709 L8.7812,16.9779 L6.0592,14.2569 C5.9592,14.1559 5.7932,14.1559 5.6922,14.2569 C5.5902,14.3589 5.5902,14.5229 5.6922,14.6249 L8.8562,17.7889 Z" id="Stroke-342"></path>
                <path d="M12.5193,19.5794 L5.5623,19.5794 C5.4173,19.5794 5.3013,19.6954 5.3013,19.8394 C5.3013,19.9834 5.4173,20.0994 5.5623,20.0994 L12.5193,20.0994 C12.6633,20.0994 12.7793,19.9834 12.7793,19.8394 C12.7793,19.6954 12.6633,19.5794 12.5193,19.5794" id="Stroke-343"></path>
            </g>
        </g>
    </g>
</svg>