<?xml version="1.0" encoding="UTF-8"?>
<svg width="16px" height="16px" viewBox="0 0 16 16" version="1.1" xmlns="http://www.w3.org/2000/svg" xmlns:xlink="http://www.w3.org/1999/xlink">
    <!-- Generator: Sketch 49.1 (51147) - http://www.bohemiancoding.com/sketch -->
    <title>Group 3</title>
    <desc>Created with Sketch.</desc>
    <defs></defs>
    <g id="01_REEM_Historico" stroke="none" stroke-width="1" fill="none" fill-rule="evenodd">
        <g id="008_RH" transform="translate(-52.000000, -633.000000)" fill="#1697F3">
            <g id="Group-3" transform="translate(53.000000, 633.000000)">
                <path d="M8.09708432,9.88442025 C7.79448233,10.1794572 7.35823768,10.3622765 6.78833727,10.4328836 L6.78833727,11.2801649 L6.03183609,11.2801649 L6.03183609,10.4555786 C5.65862698,10.4354052 5.30307498,10.3698424 4.96516942,10.2588883 C4.62726387,10.1479343 4.35492617,10.0117654 4.14814815,9.8503777 L4.5642238,8.92744625 C4.75587172,9.06866051 4.98029816,9.18717785 5.23750985,9.28300181 C5.49472154,9.37882577 5.7594943,9.43934526 6.03183609,9.46456209 L6.03183609,8.20120512 C5.67375707,8.11546789 5.37115963,8.01964537 5.12403467,7.91373467 C4.87690972,7.80782398 4.6701348,7.65274278 4.5037037,7.44848644 C4.33727261,7.2442301 4.25405831,6.97315322 4.25405831,6.63524767 C4.25405831,6.21664826 4.40661786,5.85731379 4.71174153,5.55723349 C5.0168652,5.25715319 5.45689232,5.0743339 6.03183609,5.00877013 L6.03183609,4.16905382 L6.78833727,4.16905382 L6.78833727,4.99364011 C7.40867134,5.04407377 7.92056536,5.19789414 8.32403467,5.45510583 L7.94578408,6.38560228 C7.5675316,6.16873753 7.18171986,6.03761197 6.78833727,5.99222167 L6.78833727,7.27827368 C7.14137292,7.35896754 7.4401879,7.4510076 7.68479117,7.55439661 C7.92939445,7.65778562 8.13490855,7.81160599 8.30133964,8.01586233 C8.46777073,8.22011867 8.55098503,8.4886739 8.55098503,8.82153609 C8.55098503,9.23509214 8.3996863,9.58938331 8.09708432,9.88442025 Z M5.61576044,6.88489306 C5.7115844,6.96558693 5.8502749,7.03367135 6.03183609,7.08914838 L6.03183609,6.0149167 C5.84018817,6.060307 5.69897603,6.1321739 5.60819543,6.23051954 C5.51741483,6.32886519 5.47202522,6.44360005 5.47202522,6.57472758 C5.47202522,6.70081174 5.51993648,6.8041992 5.61576044,6.88489306 Z M7.19684791,9.23761174 C7.28762851,9.14683114 7.33301812,9.03840039 7.33301812,8.91231623 C7.33301812,8.78623207 7.28636768,8.68284461 7.19306541,8.60215075 C7.09976313,8.52145688 6.9648551,8.45085081 6.78833727,8.39033042 L6.78833727,9.43430205 C6.96989846,9.39395511 7.10606732,9.32839233 7.19684791,9.23761174 Z" id="$"></path>
                <path d="M6.11219856,14.7519605 L6.11219856,14.7513842 C6.25945902,14.7513842 6.40561829,14.7466695 6.55053368,14.7373827 C7.48143144,14.6762311 8.39577133,14.423312 9.2302816,13.9897818 C9.24293661,13.9831805 9.25556809,13.9765403 9.26817587,13.9698614 C10.0645268,13.5497826 10.7868524,12.9643695 11.3797207,12.2234671 C11.8971199,11.578995 12.2986863,10.8375517 12.5528329,10.0307242 C12.5529735,10.030279 12.553114,10.0298337 12.5532544,10.0293884 C12.7548727,9.38885 12.8635827,8.70712029 12.8635827,8 C12.8635827,7.85273954 12.858868,7.70658027 12.8495813,7.56166489 C12.7884297,6.63076712 12.5355105,5.71642724 12.1019803,4.88191697 C12.0953791,4.86926196 12.0887389,4.85663048 12.0820599,4.84402269 C11.6619811,4.04767179 11.0765681,3.32534619 10.3356657,2.73247785 C9.69119355,2.21507862 8.94975029,1.81351223 8.14292278,1.55936562 C8.14247751,1.55922509 8.14203224,1.55908461 8.14158695,1.55894418 C7.50104856,1.35732585 6.81931886,1.24861583 6.11219856,1.24861583 C5.96493811,1.24861583 5.81877883,1.25333055 5.67386345,1.26261726 C4.74296568,1.32376887 3.8286258,1.57668803 2.99411553,2.01021822 C2.98146052,2.01681949 2.96882904,2.02345968 2.95622126,2.03013865 C2.15987035,2.45021742 1.43754476,3.03563049 0.844676412,3.77653291 C0.753211735,3.89046125 0.665366879,4.00741997 0.58131634,4.12723457 L-0.423740694,3.42348606 C-0.323918268,3.28092486 -0.220278031,3.14262564 -0.11305488,3.0086298 C0.577166513,2.14889054 1.44181194,1.43517291 2.42719134,0.921166989 C3.41343075,0.408813124 4.49401424,0.109908665 5.59416615,0.0376385808 C5.76542978,0.026663374 5.93816348,0.0210914404 6.11219856,0.0210914404 C6.93683562,0.0210914404 7.73225397,0.146191638 8.48051076,0.378449198 C8.49105358,0.38170885 8.50160171,0.385013579 8.51214537,0.388341185 C9.46566879,0.688696279 10.3419199,1.16327474 11.1035688,1.77474655 C11.9930603,2.48651551 12.6929198,3.35616816 13.1910316,4.31499278 C13.6907495,5.27298129 14.0017043,6.34508491 14.07456,7.48196758 C14.1378765,8.44582068 14.0272358,9.42469384 13.7337716,10.3683025 C13.7304733,10.3788665 13.727176,10.3894114 13.7238574,10.3999468 C13.4848432,11.1572731 13.1278018,11.8914827 12.6481378,12.5765139 C12.5483154,12.7190751 12.4446752,12.8573744 12.337452,12.9913702 C11.6472306,13.8511095 10.7825852,14.5648271 9.79720579,15.078833 C8.81096638,15.5911869 7.73038288,15.8900913 6.63023098,15.9623614 C6.45896735,15.9733366 6.28623365,15.9789086 6.11219856,15.9789086 L6.11219856,14.7519605 C4.77297358,14.7531257 3.42009416,14.3568864 2.23976369,13.5304101 L1.53568463,14.5359393 C3.08306475,15.6194265 4.88137248,16.0772457 6.63023098,15.9623614 Z" id="Combined-Shape" fill-rule="nonzero"></path>
            </g>
        </g>
    </g>
</svg>