<?xml version="1.0" encoding="UTF-8"?>
<svg width="39px" height="37px" viewBox="0 0 39 37" version="1.1" xmlns="http://www.w3.org/2000/svg" xmlns:xlink="http://www.w3.org/1999/xlink">
    <!-- Generator: Sketch 49.1 (51147) - http://www.bohemiancoding.com/sketch -->
    <title>icono urgencia</title>
    <desc>Created with Sketch.</desc>
    <defs>
        <polygon id="path-1" points="0 0.000252941176 0 32.8826059 35.862125 32.8826059 35.862125 0.000252941176 1.18584613e-19 0.000252941176"></polygon>
    </defs>
    <g id="BONOS-&gt;-CARO-2*****" stroke="none" stroke-width="1" fill="none" fill-rule="evenodd">
        <g id="002_cotiza_dkt" transform="translate(-236.000000, -385.000000)">
            <g id="icono-nueva-consulta" transform="translate(230.000000, 382.000000)">
                <g id="Group" transform="translate(6.250000, 3.794118)">
                    <path d="M29.22975,33.7976206 C25.25975,33.7976206 22.0135,30.51065 22.0135,26.4964735 C22.0135,22.4797676 25.25975,19.1940618 29.22975,19.1940618 C33.1985,19.1940618 36.44475,22.4797676 36.44475,26.4964735 C36.44475,30.51065 33.1985,33.7976206 29.22975,33.7976206 Z M29.22975,17.3690912 C24.26725,17.3690912 20.2085,21.4755912 20.2085,26.4964735 C20.2085,31.5148265 24.26725,35.6225912 29.22975,35.6225912 C34.191,35.6225912 38.24975,31.5148265 38.24975,26.4964735 C38.24975,21.4755912 34.191,17.3690912 29.22975,17.3690912 Z M30.13225,22.8452676 L28.32725,22.8452676 L28.32725,25.5833559 L25.621,25.5833559 L25.621,27.4083265 L28.32725,27.4083265 L28.32725,30.1464147 L30.13225,30.1464147 L30.13225,27.4083265 L32.83725,27.4083265 L32.83725,25.5833559 L30.13225,25.5833559 L30.13225,22.8452676 Z" id="Fill-1" fill="#0079C8"></path>
                    <path d="M17.457875,28.1557676 C17.357875,27.5310029 17.291625,26.8948559 17.291625,26.2422676 C17.291625,23.4965912 18.224125,20.9659147 19.771625,18.9373265 L19.771625,17.0390029 L16.090375,17.0390029 L16.090375,20.7192971 L12.485375,20.7192971 L12.485375,24.4754735 L16.090375,24.4754735 L16.090375,28.1557676 L17.457875,28.1557676 Z" id="Fill-3" fill="#0079C8"></path>
                    <mask id="mask-2" fill="white">
                        <use xlink:href="#path-1"></use>
                    </mask>
                    <g id="Clip-6"></g>
                    <path d="M2.309625,9.71572353 C2.309625,9.07072353 2.547125,8.51804706 3.008375,8.03366471 C3.482125,7.56319412 4.029625,7.32037059 4.655875,7.32037059 L31.205875,7.32037059 C31.838375,7.32037059 32.385875,7.56319412 32.853375,8.03366471 C33.327125,8.51804706 33.552125,9.07072353 33.552125,9.71572353 L33.552125,12.8585176 L28.898375,12.8585176 L28.892125,11.3105176 C28.892125,10.6326353 28.353375,10.0837529 27.695875,10.0888118 C27.032125,10.0888118 26.494625,10.6389588 26.500875,11.3105176 L26.498375,12.8585176 L9.357125,12.8585176 L9.349625,11.3105176 C9.349625,10.6326353 8.810875,10.0837529 8.153375,10.0888118 C7.490875,10.0888118 6.952125,10.6389588 6.958375,11.3105176 L6.955875,12.8585176 L2.309625,12.8585176 L2.309625,9.71572353 Z M12.643375,4.75301765 C12.643375,4.10675294 12.880875,3.55407647 13.342125,3.07095882 C13.815875,2.60048824 14.363375,2.35766471 14.988375,2.35766471 L20.873375,2.35766471 C21.504625,2.35766471 22.052125,2.60048824 22.520875,3.07095882 C22.993375,3.55407647 23.219625,4.10675294 23.219625,4.75301765 L23.219625,4.96422353 L12.637125,4.96422353 L12.643375,4.75301765 Z M18.089625,30.5251941 L4.655875,30.5251941 C4.029625,30.5251941 3.482125,30.3013412 3.008375,29.8485765 C2.547125,29.3894882 2.309625,28.8191059 2.309625,28.1298412 L2.309625,14.6695765 L6.953375,14.6695765 L6.952125,15.8457529 C6.952125,16.5223706 7.490875,17.0737824 8.147125,17.0661941 C8.812125,17.0661941 9.378375,16.5160471 9.370875,15.8457529 L9.365875,14.6695765 L26.033375,14.6695765 C27.033375,14.3900765 28.080875,14.2281941 29.165875,14.2281941 C30.252125,14.2281941 31.298375,14.3900765 32.299625,14.6695765 L33.552125,14.6695765 L33.552125,15.0919882 C34.369625,15.4246059 35.145875,15.8394294 35.862125,16.3389882 L35.862125,9.71572353 C35.862125,8.43078235 35.393375,7.32037059 34.482125,6.37816471 C33.564625,5.44101765 32.470875,4.96422353 31.205875,4.96422353 L25.528375,4.96422353 L25.528375,4.75301765 C25.528375,3.46807647 25.060875,2.35766471 24.149625,1.41419412 C23.230875,0.477047059 22.137125,0.000252941176 20.873375,0.000252941176 L14.988375,0.000252941176 C13.730875,0.000252941176 12.643375,0.477047059 11.718375,1.41419412 C10.800875,2.35766471 10.333375,3.46807647 10.333375,4.75301765 L10.333375,4.96422353 L4.655875,4.96422353 C3.398375,4.96422353 2.309625,5.44101765 1.385875,6.37816471 C0.468375,7.32037059 -0.000375,8.43078235 -0.000375,9.71572353 L-0.000375,28.1298412 C-0.000375,29.4704294 0.468375,30.5934882 1.385875,31.5053412 C2.309625,32.4285765 3.398375,32.8826059 4.655875,32.8826059 L19.287125,32.8826059 C18.803375,32.1503412 18.405875,31.3573706 18.089625,30.5251941 Z" id="Fill-5" fill="#0079C8" mask="url(#mask-2)"></path>
                </g>
            </g>
        </g>
    </g>
</svg>