<?xml version="1.0" encoding="UTF-8"?>
<svg width="40px" height="40px" viewBox="0 0 40 40" version="1.1" xmlns="http://www.w3.org/2000/svg" xmlns:xlink="http://www.w3.org/1999/xlink">
    <!-- Generator: Sketch 49.1 (51147) - http://www.bohemiancoding.com/sketch -->
    <title>Group 2</title>
    <desc>Created with Sketch.</desc>
    <defs></defs>
    <g id="BONOS-&gt;-CARO-2*****" stroke="none" stroke-width="1" fill="none" fill-rule="evenodd">
        <g id="003_cotiza_dkt" transform="translate(-962.000000, -607.000000)" fill="#0079C7">
            <g id="Group-2" transform="translate(962.000000, 607.000000)">
                <path d="M20,40 C8.954305,40 0,31.045695 0,20 C0,8.954305 8.954305,0 20,0 C31.045695,0 40,8.954305 40,20 C40,31.045695 31.045695,40 20,40 Z M20,35.8208955 C28.7376393,35.8208955 35.8208955,28.7376393 35.8208955,20 C35.8208955,11.2623607 28.7376393,4.17910448 20,4.17910448 C11.2623607,4.17910448 4.17910448,11.2623607 4.17910448,20 C4.17910448,28.7376393 11.2623607,35.8208955 20,35.8208955 Z" id="Oval-3" fill-rule="nonzero"></path>
                <path d="M25.6118937,20.0858775 L19.6530984,20.0858775 L19.6595894,19.6427498 L19.661444,12.359483 C19.661444,11.624372 19.0290291,11.4285714 18.6562566,11.4285714 C18.2834842,11.4285714 17.6519966,11.624372 17.6519966,12.359483 L17.6519966,20.3349221 L17.5333028,20.4585856 C17.1225113,20.8862553 17.0288546,21.4813861 17.2857152,22.0112499 C17.5425758,22.5402551 18.0804067,22.8571429 18.7258037,22.8571429 L25.6118937,22.8571429 C26.0940869,22.8571429 26.4928236,22.7094336 26.7645209,22.4303319 C27.0083994,22.1812873 27.1428571,21.8403538 27.1428571,21.4710808 C27.1428571,20.7814848 26.6699369,20.0858775 25.6118937,20.0858775" id="Fill-61"></path>
            </g>
        </g>
    </g>
</svg>