<?xml version="1.0" encoding="UTF-8"?>
<svg width="14px" height="23px" viewBox="0 0 14 23" version="1.1" xmlns="http://www.w3.org/2000/svg" xmlns:xlink="http://www.w3.org/1999/xlink">
    <!-- Generator: Sketch 49.1 (51147) - http://www.bohemiancoding.com/sketch -->
    <title>Group 7</title>
    <desc>Created with Sketch.</desc>
    <defs></defs>
    <g id="BONOS-&gt;-CARO-2*****" stroke="none" stroke-width="1" fill="none" fill-rule="evenodd">
        <g id="007_cotiza_dkt" transform="translate(-545.000000, -751.000000)" fill="#678003">
            <g id="Group-8" transform="translate(338.000000, 731.000000)">
                <g id="Group-7" transform="translate(207.000000, 20.000000)">
                    <path d="M4.81048235,15.0559643 L9.2386,15.0559643 C9.34071765,14.20825 9.7426,12.4339643 11.3048353,10.4305 C11.3106,10.4231071 11.3155412,10.4173571 11.3213059,10.4099643 C12.2131882,9.38235714 12.7040118,8.06642857 12.7040118,6.70532143 C12.7040118,3.58142857 10.1560118,1.04075 7.02412941,1.04075 C3.89307059,1.04075 1.34507059,3.58142857 1.34507059,6.70532143 C1.34507059,8.06725 1.83671765,9.384 2.73024706,10.4124286 C2.73518824,10.419 2.74177647,10.4263929 2.74671765,10.4337857 C4.30730588,12.4356071 4.70836471,14.2090714 4.81048235,15.0559643 M9.71707059,16.0786429 L4.33201176,16.0786429 C4.19365882,16.0786429 4.06189412,16.0236071 3.96554118,15.9250357 C3.86836471,15.8256429 3.81565882,15.69175 3.81977647,15.55375 C3.81977647,15.5365 3.83130588,13.4985357 1.94542353,11.0712143 C0.896247059,9.85878571 0.318952941,8.30875 0.318952941,6.70532143 C0.318952941,3.01792857 3.32730588,0.0164285714 7.02412941,0.0164285714 C10.7226,0.0164285714 13.7301294,3.01792857 13.7301294,6.70532143 C13.7301294,8.30710714 13.1536588,9.85632143 12.1061294,11.06875 C10.2177765,13.4968929 10.2293059,15.5365 10.2301294,15.5562143 C10.2317765,15.6933929 10.1790706,15.8272857 10.0827176,15.9250357 C9.98636471,16.0227857 9.8546,16.0786429 9.71707059,16.0786429" id="Fill-904"></path>
                    <path d="M10.2550824,16.078725 L3.79367059,16.078725 C3.5112,16.078725 3.28061176,15.8503679 3.28061176,15.5677964 C3.28061176,15.285225 3.5112,15.0560464 3.79367059,15.0560464 L10.2550824,15.0560464 C10.5383765,15.0560464 10.7681412,15.285225 10.7681412,15.5677964 C10.7681412,15.8503679 10.5383765,16.078725 10.2550824,16.078725" id="Fill-905"></path>
                    <path d="M8.64022353,21.4500464 L5.40869412,21.4500464 C5.27281176,21.4500464 5.14269412,21.3958321 5.04716471,21.299725 L3.96916471,20.2261179 C3.87363529,20.1300107 3.81928235,19.9994036 3.81928235,19.8638679 L3.81928235,15.5677964 C3.81928235,15.285225 4.04904706,15.0560464 4.33234118,15.0560464 C4.61563529,15.0560464 4.8454,15.285225 4.8454,15.5677964 L4.8454,19.6527607 L5.62198824,20.4265464 L8.42775294,20.4265464 L9.20434118,19.6527607 L9.20434118,15.5677964 C9.20434118,15.285225 9.43410588,15.0560464 9.7174,15.0560464 C9.99987059,15.0560464 10.2304588,15.285225 10.2304588,15.5677964 L10.2304588,19.8638679 C10.2304588,19.9994036 10.1752824,20.1300107 10.0797529,20.2261179 L9.00257647,21.299725 C8.90622353,21.3958321 8.77610588,21.4500464 8.64022353,21.4500464" id="Fill-906"></path>
                    <path d="M7.02454118,22.2963643 C5.95477647,22.2963643 5.66654118,21.4100429 5.66324706,20.9410071 C5.6616,20.7832929 5.78842353,20.65515 5.94489412,20.6543286 L5.94736471,20.6543286 C6.10383529,20.6543286 6.23065882,20.7791857 6.23230588,20.9352571 C6.23477647,21.0683286 6.28583529,21.7287571 7.02454118,21.7287571 C7.76407059,21.7287571 7.81430588,21.0675071 7.81677647,20.9344357 C7.82007059,20.7783643 7.94689412,20.65515 8.10501176,20.65515 C8.26230588,20.6576143 8.38748235,20.7841143 8.38583529,20.9410071 C8.38254118,21.4100429 8.09430588,22.2963643 7.02454118,22.2963643" id="Fill-907"></path>
                    <path d="M4.87076471,20.1481643 C4.73982353,20.1481643 4.62205882,20.0586286 4.59241176,19.9255571 C4.55864706,19.7727714 4.655,19.6208071 4.809,19.5863071 L9.65547059,18.5127 C9.80864706,18.4790214 9.961,18.5751286 9.99558824,18.7279143 C10.0293529,18.8815214 9.93217647,19.0334857 9.779,19.0679857 L4.93252941,20.1415929 C4.91194118,20.1457 4.89052941,20.1481643 4.87076471,20.1481643" id="Fill-908"></path>
                    <path d="M4.87076471,19.0740643 C4.73982353,19.0740643 4.62205882,18.9845286 4.59241176,18.8514571 C4.55864706,18.6986714 4.655,18.5467071 4.809,18.5122071 L9.65547059,17.4386 C9.80864706,17.4049214 9.961,17.5010286 9.99558824,17.6538143 C10.0293529,17.8074214 9.93217647,17.9593857 9.779,17.9938857 L4.93252941,19.0674929 C4.91194118,19.0724214 4.89052941,19.0740643 4.87076471,19.0740643" id="Fill-909"></path>
                    <path d="M4.87076471,17.9999643 C4.73982353,17.9999643 4.62205882,17.9096071 4.59241176,17.7773571 C4.55864706,17.6245714 4.655,17.4717857 4.809,17.4381071 L9.65547059,16.3645 C9.80864706,16.33 9.961,16.4269286 9.99558824,16.5797143 C10.0293529,16.7333214 9.93217647,16.8852857 9.779,16.9197857 L4.93252941,17.9933929 C4.91194118,17.9975 4.89052941,17.9999643 4.87076471,17.9999643" id="Fill-910"></path>
                    <path d="M4.87076471,8.06421071 C4.65664706,8.06421071 4.48205882,8.23753214 4.48205882,8.45110357 C4.48205882,8.66385357 4.65664706,8.83799643 4.87076471,8.83799643 C5.08488235,8.83799643 5.25947059,8.66385357 5.25947059,8.45110357 C5.25947059,8.23753214 5.08488235,8.06421071 4.87076471,8.06421071 M4.87076471,9.406425 C4.34205882,9.406425 3.913,8.97763929 3.913,8.45110357 C3.913,7.92374643 4.34205882,7.49578214 4.87076471,7.49578214 C5.39947059,7.49578214 5.82852941,7.92374643 5.82852941,8.45110357 C5.82852941,8.97763929 5.39947059,9.406425 4.87076471,9.406425" id="Fill-911"></path>
                    <path d="M7.02454118,7.25797857 C6.81042353,7.25797857 6.63665882,7.43212143 6.63665882,7.64569286 C6.63665882,7.85844286 6.81042353,8.03176429 7.02454118,8.03176429 C7.23865882,8.03176429 7.41324706,7.85844286 7.41324706,7.64569286 C7.41324706,7.43212143 7.23865882,7.25797857 7.02454118,7.25797857 M7.02454118,8.60101429 C6.49583529,8.60101429 6.06677647,8.17140714 6.06677647,7.64569286 C6.06677647,7.11833571 6.49583529,6.68955 7.02454118,6.68955 C7.55324706,6.68955 7.98230588,7.11833571 7.98230588,7.64569286 C7.98230588,8.17140714 7.55324706,8.60101429 7.02454118,8.60101429" id="Fill-912"></path>
                    <path d="M9.17823529,8.06421071 C8.96411765,8.06421071 8.78952941,8.23753214 8.78952941,8.45110357 C8.78952941,8.66385357 8.96411765,8.83799643 9.17823529,8.83799643 C9.39235294,8.83799643 9.56694118,8.66385357 9.56694118,8.45110357 C9.56694118,8.23753214 9.39235294,8.06421071 9.17823529,8.06421071 M9.17823529,9.406425 C8.64952941,9.406425 8.22047059,8.97763929 8.22047059,8.45110357 C8.22047059,7.92374643 8.64952941,7.49578214 9.17823529,7.49578214 C9.70694118,7.49578214 10.136,7.92374643 10.136,8.45110357 C10.136,8.97763929 9.70694118,9.406425 9.17823529,9.406425" id="Fill-913"></path>
                    <path d="M5.40877647,15.3142214 C5.25230588,15.3142214 5.12383529,15.1877214 5.12383529,15.0300071 L5.12383529,9.40650714 L4.87101176,9.40650714 C4.71289412,9.40650714 4.58607059,9.27836429 4.58607059,9.12229286 C4.58607059,8.9654 4.71289412,8.83807857 4.87101176,8.83807857 L5.40877647,8.83807857 C5.56607059,8.83807857 5.69454118,8.9654 5.69454118,9.12229286 L5.69454118,15.0300071 C5.69454118,15.1877214 5.56607059,15.3142214 5.40877647,15.3142214" id="Fill-914"></path>
                    <path d="M8.64022353,15.3142214 C8.48292941,15.3142214 8.35445882,15.1877214 8.35445882,15.0300071 L8.35445882,9.12229286 C8.35445882,8.9654 8.48292941,8.83807857 8.64022353,8.83807857 L9.17798824,8.83807857 C9.33610588,8.83807857 9.46375294,8.9654 9.46375294,9.12229286 C9.46375294,9.27836429 9.33610588,9.40650714 9.17798824,9.40650714 L8.92516471,9.40650714 L8.92516471,15.0300071 C8.92516471,15.1877214 8.79669412,15.3142214 8.64022353,15.3142214" id="Fill-915"></path>
                    <path d="M5.40877647,9.40617857 C5.25230588,9.40617857 5.12383529,9.27967857 5.12383529,9.12196429 C5.12383529,8.96507143 5.25230588,8.83857143 5.40877647,8.83857143 C5.53971765,8.83692857 6.20101176,8.79092857 6.20101176,8.04835714 C6.20101176,7.89064286 6.32865882,7.76414286 6.48677647,7.76414286 C6.64324706,7.76414286 6.77089412,7.89064286 6.77089412,8.04835714 C6.77089412,9.12196429 5.87983529,9.40617857 5.40877647,9.40617857" id="Fill-916"></path>
                    <path d="M8.64022353,9.40617857 C8.16916471,9.40617857 7.27810588,9.12196429 7.27810588,8.04835714 C7.27810588,7.89064286 7.40575294,7.76414286 7.56304706,7.76414286 C7.72034118,7.76414286 7.84798824,7.89064286 7.84798824,8.04835714 C7.84798824,8.81557143 8.55869412,8.83857143 8.64022353,8.83857143 C8.79669412,8.83857143 8.92516471,8.96507143 8.92516471,9.12196429 C8.92516471,9.27967857 8.79669412,9.40617857 8.64022353,9.40617857" id="Fill-917"></path>
                </g>
            </g>
        </g>
    </g>
</svg>