<?xml version="1.0" encoding="UTF-8"?>
<svg width="32px" height="32px" viewBox="0 0 32 32" version="1.1" xmlns="http://www.w3.org/2000/svg" xmlns:xlink="http://www.w3.org/1999/xlink">
    <!-- Generator: Sketch 49.1 (51147) - http://www.bohemiancoding.com/sketch -->
    <title>resident</title>
    <desc>Created with Sketch.</desc>
    <defs></defs>
    <g id="HOME-22" stroke="none" stroke-width="1" fill="none" fill-rule="evenodd">
        <g id="home-D_02-Alertas" transform="translate(-236.000000, -724.000000)" fill="#6A2CA1" fill-rule="nonzero">
            <g id="resident" transform="translate(236.000000, 724.000000)">
                <path d="M8,20 L24,20 C28.416,20 32,23.584 32,28 L32,32 L28.8,32 L28.8,28 C28.8,25.353 26.647,23.2 24,23.2 L8,23.2 C5.353,23.2 3.2,25.353 3.2,28 L3.2,32 L0,32 L0,28 C0,23.584 3.584,20 8,20 Z M10,9.2 C10,12.513 12.688,15.2 16,15.2 C19.312,15.2 22,12.512 22,9.2 C22,5.887 19.312,3.2 16,3.2 C12.688,3.2 10,5.888 10,9.2 Z M6.8,9.2 C6.8,4.119 10.919,0 16,0 C21.081,0 25.2,4.119 25.2,9.2 C25.2,14.281 21.081,18.4 16,18.4 C10.919,18.4 6.8,14.281 6.8,9.2 Z" id="path-1"></path>
            </g>
        </g>
    </g>
</svg>