<?xml version="1.0" encoding="UTF-8"?>
<svg width="44px" height="39px" viewBox="0 0 44 39" version="1.1" xmlns="http://www.w3.org/2000/svg" xmlns:xlink="http://www.w3.org/1999/xlink">
    <!-- Generator: Sketch 49.1 (51147) - http://www.bohemiancoding.com/sketch -->
    <title>Group 2</title>
    <desc>Created with Sketch.</desc>
    <defs></defs>
    <g id="BONOS-&gt;-CARO-2*****" stroke="none" stroke-width="1" fill="none" fill-rule="evenodd">
        <g id="000_cotiza_dkt" transform="translate(-602.000000, -384.000000)" fill="#0079C7">
            <g id="Group-2" transform="translate(602.000000, 384.000000)">
                <path d="M38.4039407,38.8470741 L16.5726815,38.8470741 C14.2709778,38.8470741 12.7052741,38.2933704 11.9164593,37.0155926 C10.7800889,35.1704815 11.9590519,32.953963 12.1140889,32.6370741 L21.8371259,12.3255185 L21.8371259,2.84611111 C21.8371259,2.25833333 22.268163,1.7847037 22.854237,1.7847037 C23.4403111,1.7847037 23.8713481,2.25833333 23.8713481,2.84611111 L23.8713481,12.5623333 C23.8713481,12.7190741 23.7503852,12.8724074 23.682237,13.0155185 L13.942163,33.597963 C13.9387556,33.6064815 13.9114963,33.615 13.9080889,33.6235185 C13.7087556,34.029 13.2743111,35.2096667 13.7360148,35.9507778 C14.2079407,36.7055185 15.5334222,36.8145556 16.5726815,36.8145556 L38.4039407,36.8145556 C39.4466074,36.8145556 40.7925333,36.7038148 41.2763852,35.9388519 C41.7466074,35.1926296 41.3428296,33.9932222 41.1452,33.5843333 L31.4426074,13.0018889 C31.376163,12.8604815 31.3233481,12.7190741 31.3233481,12.5623333 L31.3233481,2.84611111 C31.3233481,2.25833333 31.7543852,1.7847037 32.3387556,1.7847037 C32.9248296,1.7847037 33.3558667,2.25833333 33.3558667,2.84611111 L33.3558667,12.3255185 L42.9937185,32.6881852 C43.1368296,32.9829259 44.2016444,35.161963 43.048237,37.0121852 C42.2492,38.2916667 40.7073481,38.8470741 38.4039407,38.8470741" id="Fill-160"></path>
                <path d="M12.1462889,35.4604519 L6.06747407,35.4604519 C4.80843704,35.4604519 4.12865926,34.8999333 3.71465926,34.4637852 C2.78954815,33.4858593 2.86962222,32.1109704 2.86962222,31.8366741 L2.86962222,10.153637 C2.86962222,9.56756296 3.29895556,9.09222963 3.88502963,9.09222963 C4.4711037,9.09222963 4.90043704,9.56756296 4.90043704,10.153637 L4.90043704,31.8571185 C4.90043704,31.8758593 4.86977037,31.8963037 4.86977037,31.9133407 C4.86295556,32.0939333 4.89702963,32.739637 5.20028889,33.0548222 C5.26843704,33.1263778 5.46265926,33.4279333 6.06747407,33.4279333 L12.1462889,33.4279333 C12.732363,33.4279333 13.2076963,33.8572667 13.2076963,34.4433407 C13.2076963,35.0294148 12.732363,35.4604519 12.1462889,35.4604519" id="Fill-161"></path>
                <path d="M21.812763,10.0546519 L1.30187407,10.0546519 C0.7158,10.0546519 0.240466667,9.62361481 0.240466667,9.03754074 C0.240466667,8.45317037 0.7158,8.02213333 1.30187407,8.02213333 L21.812763,8.02213333 C22.398837,8.02213333 22.8741704,8.45317037 22.8741704,9.03754074 C22.8741704,9.62361481 22.398837,10.0546519 21.812763,10.0546519" id="Fill-162"></path>
                <path d="M33.9550593,2.60265185 L20.5162444,2.60265185 C19.9301704,2.60265185 19.454837,2.17161481 19.454837,1.58554074 C19.454837,1.00117037 19.9301704,0.570133333 20.5162444,0.570133333 L33.9550593,0.570133333 C34.5411333,0.570133333 35.0164667,1.00117037 35.0164667,1.58554074 C35.0164667,2.17161481 34.5411333,2.60265185 33.9550593,2.60265185" id="Fill-163"></path>
                <path d="M24.8773852,17.8453481 L20.5159037,17.8453481 C20.1904963,17.8453481 19.9264222,17.6630519 19.9264222,17.3376444 C19.9264222,17.012237 20.1904963,16.8299407 20.5159037,16.8299407 L24.8773852,16.8299407 C25.2027926,16.8299407 25.4668667,17.012237 25.4668667,17.3376444 C25.4668667,17.6630519 25.2027926,17.8453481 24.8773852,17.8453481" id="Fill-164"></path>
                <path d="M22.7561037,22.9264741 L18.5121778,22.9264741 C18.1850667,22.9264741 17.9226963,22.7441778 17.9226963,22.4187704 C17.9226963,22.093363 18.1850667,21.9110667 18.5121778,21.9110667 L22.7561037,21.9110667 C23.0798074,21.9110667 23.3455852,22.093363 23.3455852,22.4187704 C23.3455852,22.7441778 23.0798074,22.9264741 22.7561037,22.9264741" id="Fill-165"></path>
                <path d="M20.7513556,28.3461259 L16.3898741,28.3461259 C16.0644667,28.3461259 15.8020963,27.9934593 15.8020963,27.6697556 C15.8020963,27.3443481 16.0644667,26.9916815 16.3898741,26.9916815 L20.7513556,26.9916815 C21.076763,26.9916815 21.3425407,27.3443481 21.3425407,27.6697556 C21.3425407,27.9934593 21.076763,28.3461259 20.7513556,28.3461259" id="Fill-166"></path>
                <path d="M18.6299037,33.4274222 L14.2684222,33.4274222 C13.9430148,33.4274222 13.6789407,33.0747556 13.6789407,32.7510519 C13.6789407,32.4256444 13.9430148,32.0729778 14.2684222,32.0729778 L18.6299037,32.0729778 C18.9553111,32.0729778 19.2193852,32.4256444 19.2193852,32.7510519 C19.2193852,33.0747556 18.9553111,33.4274222 18.6299037,33.4274222" id="Fill-167"></path>
                <path d="M8.02179259,14.4578741 L4.24808889,14.4578741 C3.92438519,14.4578741 3.65860741,14.2755778 3.65860741,13.9501704 C3.65860741,13.624763 3.92438519,13.4424667 4.24808889,13.4424667 L8.02179259,13.4424667 C8.3454963,13.4424667 8.61127407,13.624763 8.61127407,13.9501704 C8.61127407,14.2755778 8.3454963,14.4578741 8.02179259,14.4578741" id="Fill-168"></path>
                <path d="M8.02179259,19.539 L4.24808889,19.539 C3.92438519,19.539 3.65860741,19.1863333 3.65860741,18.8626296 C3.65860741,18.5372222 3.92438519,18.1845556 4.24808889,18.1845556 L8.02179259,18.1845556 C8.3454963,18.1845556 8.61127407,18.5372222 8.61127407,18.8626296 C8.61127407,19.1863333 8.3454963,19.539 8.02179259,19.539" id="Fill-169"></path>
                <path d="M8.02179259,24.6201259 L4.24808889,24.6201259 C3.92438519,24.6201259 3.65860741,24.4378296 3.65860741,24.1124222 C3.65860741,23.7870148 3.92438519,23.6047185 4.24808889,23.6047185 L8.02179259,23.6047185 C8.3454963,23.6047185 8.61127407,23.7870148 8.61127407,24.1124222 C8.61127407,24.4378296 8.3454963,24.6201259 8.02179259,24.6201259" id="Fill-170"></path>
                <path d="M8.02179259,29.3627259 L4.24808889,29.3627259 C3.92438519,29.3627259 3.65860741,29.1804296 3.65860741,28.8550222 C3.65860741,28.5296148 3.92438519,28.3456148 4.24808889,28.3456148 L8.02179259,28.3456148 C8.3454963,28.3456148 8.61127407,28.5296148 8.61127407,28.8550222 C8.61127407,29.1804296 8.3454963,29.3627259 8.02179259,29.3627259" id="Fill-171"></path>
                <path d="M20.9874889,16.8296 L4.60297037,16.8296 C4.27585926,16.8296 4.01178519,16.4769333 4.01178519,16.1515259 C4.01178519,15.8261185 4.27585926,15.4751556 4.60297037,15.4751556 L20.9874889,15.4751556 C21.3128963,15.4751556 21.5769704,15.8261185 21.5769704,16.1515259 C21.5769704,16.4769333 21.3128963,16.8296 20.9874889,16.8296" id="Fill-172"></path>
                <path d="M35.840037,20.5556 L19.1028519,20.5556 C18.7757407,20.5556 18.5116667,20.3733037 18.5116667,20.0478963 C18.5116667,19.7224889 18.7757407,19.5384889 19.1028519,19.5384889 L35.840037,19.5384889 C36.1654444,19.5384889 36.4312222,19.7224889 36.4312222,20.0478963 C36.4312222,20.3733037 36.1654444,20.5556 35.840037,20.5556" id="Fill-173"></path>
            </g>
        </g>
    </g>
</svg>