<?xml version="1.0" encoding="UTF-8"?>
<svg width="17px" height="16px" viewBox="0 0 17 16" version="1.1" xmlns="http://www.w3.org/2000/svg" xmlns:xlink="http://www.w3.org/1999/xlink">
    <!-- Generator: Sketch 50.2 (55047) - http://www.bohemiancoding.com/sketch -->
    <title>Fill 35</title>
    <desc>Created with Sketch.</desc>
    <defs></defs>
    <g id="Reembolso_RCD_Mbl" stroke="none" stroke-width="1" fill="none" fill-rule="evenodd">
        <g id="008_R" transform="translate(-23.000000, -500.000000)" fill="#1697F3">
            <g id="Group-2" transform="translate(23.000000, 197.000000)">
                <path d="M15.9657432,305.864271 L13.3869811,303.319924 C13.1705548,303.106556 12.8722994,303 12.5742989,303 C12.2732394,303 11.9752389,303.106556 11.7588126,303.319924 L10.9461303,304.122919 L10.2402592,304.819613 L14.4724268,308.966892 L15.1782979,308.270453 L15.9909802,307.467458 C16.4268919,307.040723 16.4268919,306.319047 15.9657432,305.864271 Z M15.2598721,306.774078 L14.4441308,307.574014 L11.6769835,304.819613 L12.4927248,304.016363 C12.5179618,303.991381 12.5742989,303.963085 12.5995359,303.963085 C12.627577,303.963085 12.655873,303.963085 12.709406,304.016363 L15.2851091,306.557652 C15.3131502,306.585948 15.3414462,306.639226 15.3414462,306.664208 C15.3131502,306.692504 15.2851091,306.745782 15.2598721,306.774078 Z M12.8722994,309.126982 L6.22451797,315.655716 L5.24868749,314.692376 L11.9217059,308.110619 L11.2158348,307.41418 L4.54281638,313.995937 L3.45762559,312.926297 L10.1303891,306.344284 L9.42451797,305.647845 L2.18048068,312.791189 C2.12720258,312.844722 2.09916148,312.90106 2.07392448,312.979575 L0.0378852876,318.331602 C-0.0436888381,318.516928 0.0126482925,318.705059 0.147755438,318.839911 C0.25431164,318.946722 0.36418179,319 0.499034017,319 C0.555371148,319 0.608904168,319 0.662182268,318.971704 L6.03307369,317.208428 C6.11464781,317.180387 6.17123986,317.15515 6.22451797,317.098813 L13.5781705,309.848403 L12.8722994,309.126982 Z M2.86136971,313.729292 L5.49035083,316.323859 L2.58835131,317.286943 L1.775924,316.512244 L2.86136971,313.729292 Z" id="Fill-35"></path>
            </g>
        </g>
    </g>
</svg>