<?xml version="1.0" encoding="UTF-8"?>
<svg width="17px" height="14px" viewBox="0 0 17 14" version="1.1" xmlns="http://www.w3.org/2000/svg" xmlns:xlink="http://www.w3.org/1999/xlink">
    <!-- Generator: Sketch 49.1 (51147) - http://www.bohemiancoding.com/sketch -->
    <title>Fill 253</title>
    <desc>Created with Sketch.</desc>
    <defs></defs>
    <g id="BONOS-&gt;-CARO-2*****" stroke="none" stroke-width="1" fill="none" fill-rule="evenodd">
        <g id="025_cotiza_dkt" transform="translate(-1187.000000, -431.000000)" fill="#1697F3">
            <g id="Group-3" transform="translate(870.000000, 430.000000)">
                <path d="M325.514436,4.68735854 C323.913869,5.71806551 319.68376,5.71806551 318.084348,4.68735854 L318.084348,5.74459742 C318.084348,6.0699017 318.409652,6.36809728 318.924717,6.58612035 C319.63012,6.88373916 320.632564,7.07349998 321.772283,7.07349998 C322.910271,7.07349998 323.913869,6.91084785 324.619272,6.58612035 C325.134337,6.34156537 325.459065,6.0699017 325.459065,5.74459742 L325.459065,4.68735854 L325.514436,4.68735854 Z M318.273532,3.81988048 C319.331924,4.93133674 324.266282,4.93133674 325.296989,3.81988048 C325.813208,3.25002122 325.053011,2.76206481 324.619272,2.54519529 C323.913869,2.21931424 322.910271,2.0301302 321.772283,2.0301302 C320.632564,2.0301302 319.657228,2.24699971 318.952402,2.54519529 C318.516933,2.76206481 317.759043,3.25002122 318.273532,3.81988048 Z M328.551762,6.0162611 C326.489772,6.0162611 324.809033,7.69757662 324.809033,9.75783701 C324.809033,11.8186742 326.46324,13.4999897 328.551762,13.4999897 C330.611446,13.4999897 332.292185,11.8186742 332.292185,9.75783701 C332.265653,7.69757662 330.611446,6.0162611 328.551762,6.0162611 Z M326.354228,14.0421635 C324.592163,14.7740981 321.69038,14.7475662 319.954847,13.9608374 C319.033152,13.5270984 318.437337,12.9035985 318.437337,12.0897611 L318.437337,7.56087961 C317.542751,7.15482605 317,6.5578581 317,5.77170611 L317,3.46689073 C317,2.65420683 317.568706,2.0301302 318.516933,1.59639117 C319.359033,1.21686952 320.525283,1 321.798815,1 C323.074077,1 324.239174,1.18976083 325.08012,1.56928248 C326.001815,2.00302151 326.598783,2.62594458 326.598783,3.44035883 L326.598783,5.36507577 C327.194598,5.09456566 327.873468,4.95844543 328.551762,4.95844543 C329.878935,4.95844543 331.07287,5.50061922 331.940349,6.36809728 C332.807827,7.23615212 333.35,8.42893445 333.35,9.75783701 C333.35,11.0867396 332.807827,12.2795219 331.940349,13.147 C331.07287,14.0421635 329.878935,14.5843373 328.551762,14.5843373 C327.737348,14.5843373 327.005414,14.3945765 326.354228,14.0421635 Z M324.348762,12.1439785 C322.937957,12.2795219 320.714467,12.1976191 319.521108,11.4391525 L319.521108,12.0897611 C319.521108,12.4150654 319.846412,12.7403696 320.388586,12.9843478 C321.093989,13.3102289 322.097587,13.4999897 323.236152,13.4999897 C323.968664,13.4999897 324.673489,13.4186636 325.269881,13.2831202 C324.890359,12.9578159 324.592163,12.5782943 324.348762,12.1439785 Z M323.724109,9.94759784 C322.476532,10.0018152 320.578924,9.89338046 319.521108,9.21624001 L319.521108,10.191576 C319.521108,10.5710977 320.009641,10.8150759 320.308414,10.9506193 C321.338544,11.3849352 322.856054,11.4391525 323.995195,11.3849352 C323.83312,10.9240874 323.75064,10.4632397 323.724109,9.94759784 Z M319.521108,7.91444613 C319.521108,8.34818516 319.954847,8.56505468 320.308414,8.72713004 C321.039771,9.0259024 322.097587,9.16144585 323.209043,9.16144585 L323.777172,9.16144585 C323.83312,8.72713004 323.941555,8.32049969 324.104784,7.91444613 C322.693978,8.23975041 320.904228,8.23975041 319.521108,7.91444613 Z" id="Fill-253"></path>
            </g>
        </g>
    </g>
</svg>