<?xml version="1.0" encoding="UTF-8"?>
<svg width="30px" height="22px" viewBox="0 0 30 22" version="1.1" xmlns="http://www.w3.org/2000/svg" xmlns:xlink="http://www.w3.org/1999/xlink">
    <!-- Generator: Sketch 49.1 (51147) - http://www.bohemiancoding.com/sketch -->
    <title>linear</title>
    <desc>Created with Sketch.</desc>
    <defs></defs>
    <g id="LICENCIAS-&gt;-CARO-2" stroke="none" stroke-width="1" fill="none" fill-rule="evenodd" opacity="0.5">
        <g id="004_licencias_dkt-" transform="translate(-353.000000, -763.000000)" fill="#0079C7" fill-rule="nonzero">
            <g id="Group-5" transform="translate(353.000000, 761.000000)">
                <g id="linear" transform="translate(0.000000, 2.000000)">
                    <path d="M28.5,21.4 L28.5,3.4 C28.5,2.57157288 27.8284271,1.9 27,1.9 L15,1.9 C14.171573,1.9 13.5,2.57157288 13.5,3.4 L13.5,21.4 L12,21.4 L12,3.6307693 C12,1.84646466 13.3431458,0.4 15,0.4 L27,0.4 C28.6568543,0.4 30,1.84646466 30,3.6307693 L30,21.4 L28.5,21.4 Z M10.5,10.9 L3,10.9 C2.17157287,10.9 1.5,11.6835017 1.5,12.65 L1.5,21.4 L0,21.4 L0,12.8285714 C0,10.9350236 1.34314575,9.4 3,9.4 L10.5,9.4 L10.5,10.9 Z M15,18.4 L27,18.4 L27,19.9 L15,19.9 L15,18.4 Z M3,18.4 L10.5,18.4 L10.5,19.9 L3,19.9 L3,18.4 Z M3,15.4 L10.5,15.4 L10.5,16.9 L3,16.9 L3,15.4 Z M3,12.4 L10.5,12.4 L10.5,13.9 L3,13.9 L3,12.4 Z M15,15.4 L27,15.4 L27,16.9 L15,16.9 L15,15.4 Z M15,12.4 L27,12.4 L27,13.9 L15,13.9 L15,12.4 Z M15,9.4 L27,9.4 L27,10.9 L15,10.9 L15,9.4 Z M15,6.4 L27,6.4 L27,7.9 L15,7.9 L15,6.4 Z M15,3.4 L27,3.4 L27,4.9 L15,4.9 L15,3.4 Z" id="path-1"></path>
                </g>
            </g>
        </g>
    </g>
</svg>