<?xml version="1.0" encoding="UTF-8"?>
<svg width="19px" height="19px" viewBox="0 0 19 19" version="1.1" xmlns="http://www.w3.org/2000/svg" xmlns:xlink="http://www.w3.org/1999/xlink">
    <!-- Generator: Sketch 49.1 (51147) - http://www.bohemiancoding.com/sketch -->
    <title>Clip 736</title>
    <desc>Created with Sketch.</desc>
    <defs></defs>
    <g id="LICENCIAS-&gt;-CARO-2" stroke="none" stroke-width="1" fill="none" fill-rule="evenodd">
        <g id="001_licencias_dkt" transform="translate(-75.000000, -442.000000)" fill="#678003">
            <path d="M88.1046146,447.137353 L88.9193331,447.781471 C88.931098,447.793235 88.9428629,447.807941 88.9516866,447.825882 C88.9634514,447.843235 88.9693339,447.861176 88.9693339,447.875882 C88.9722751,447.899412 88.9722751,447.922941 88.9693339,447.943235 C88.9634514,447.964118 88.9546278,447.981471 88.9428629,447.999412 L83.6074862,455.284412 C83.5957213,455.302353 83.578074,455.314118 83.5604266,455.325882 L83.498661,455.346176 L83.4868961,455.346176 C83.4663075,455.346176 83.445719,455.340588 83.4280716,455.334412 C83.4104243,455.322647 83.3957182,455.314118 83.3868945,455.302353 L80.4839084,452.293235 C80.4721435,452.275882 80.4633199,452.261176 80.4544962,452.240588 C80.4456725,452.225882 80.4427313,452.207941 80.4427313,452.190588 C80.4427313,452.167059 80.4456725,452.146176 80.4544962,452.128824 C80.4633199,452.110882 80.4721435,452.096176 80.4839084,452.084412 L81.2045078,451.328529 C81.23392,451.299118 81.2692147,451.284706 81.3103918,451.284706 C81.3515689,451.284706 81.3868636,451.299118 81.4162758,451.328529 L83.3721884,453.355294 L87.8957879,447.172647 C87.9163764,447.137353 87.9487299,447.117059 87.989907,447.110882 C88.0310841,447.107941 88.06932,447.114118 88.1046146,447.137353 Z M84.5001471,459.705294 C89.0246289,459.705294 92.7058623,456.024412 92.7058623,451.5 C92.7058623,446.975588 89.0246289,443.294706 84.5001471,443.294706 C79.9753711,443.294706 76.2944318,446.975588 76.2944318,451.5 C76.2944318,456.024412 79.9753711,459.705294 84.5001471,459.705294 Z M84.5001471,442 C89.7384634,442 94,446.261471 94,451.5 C94,456.738529 89.7384634,461 84.5001471,461 C79.2618307,461 75,456.738529 75,451.5 C75,446.261471 79.2618307,442 84.5001471,442 Z" id="Clip-736"></path>
        </g>
    </g>
</svg>