<?xml version="1.0" encoding="UTF-8"?>
<svg width="38px" height="36px" viewBox="0 0 38 36" version="1.1" xmlns="http://www.w3.org/2000/svg" xmlns:xlink="http://www.w3.org/1999/xlink">
    <!-- Generator: Sketch 49.1 (51147) - http://www.bohemiancoding.com/sketch -->
    <title>icono urgencia</title>
    <desc>Created with Sketch.</desc>
    <defs></defs>
    <g id="BONOS-&gt;-CARO-2*****" stroke="none" stroke-width="1" fill="none" fill-rule="evenodd">
        <g id="002_cotiza_dkt" transform="translate(-194.000000, -385.000000)">
            <g id="icono-repetir-consulta" transform="translate(191.000000, 383.000000)">
                <g id="Group" transform="translate(3.750000, 2.529412)">
                    <path d="M32.4730621,22.8151657 L30.4438715,22.8151657 L31.7016584,21.5699807 C32.08201,21.1934398 32.08201,20.5848111 31.7016584,20.2082702 C31.3213068,19.8317294 30.7065185,19.8317294 30.3261668,20.2082702 L26.720122,23.7781859 L30.3261668,27.3481015 C30.5158563,27.5358905 30.7648844,27.6302664 31.0139126,27.6302664 C31.2629408,27.6302664 31.511969,27.5358905 31.7016584,27.3481015 C32.08201,26.9715607 32.08201,26.3629319 31.7016584,25.9863911 L30.4438715,24.741206 L32.4730621,24.741206 C33.8145069,24.741206 34.9049779,26.0374311 34.9049779,27.6302664 C34.9049779,29.2231017 33.5956345,30.5193269 31.9866789,30.5193269 C31.4487392,30.5193269 31.0139126,30.9507599 31.0139126,31.482347 C31.0139126,32.0139341 31.4487392,32.4453671 31.9866789,32.4453671 C34.6685957,32.4453671 36.8505106,30.285313 36.8505106,27.6302664 C36.8505106,24.9752199 34.8864954,22.8151657 32.4730621,22.8151657" id="Fill-1" fill="#0079C7"></path>
                    <path d="M24.4895688,29.2740455 L25.7473557,30.5192306 L23.7181651,30.5192306 C22.3767204,30.5192306 21.2862493,29.2230054 21.2862493,27.6301701 C21.2862493,26.0373348 22.5955928,24.7411097 24.2045483,24.7411097 C24.7424881,24.7411097 25.1773146,24.3096767 25.1773146,23.7780896 C25.1773146,23.2465025 24.7424881,22.8150694 24.2045483,22.8150694 C21.5226315,22.8150694 19.3407167,24.9751236 19.3407167,27.6301701 C19.3407167,30.2852167 21.3047319,32.4452708 23.7181651,32.4452708 L25.7473557,32.4452708 L24.4895688,33.6904559 C24.1092172,34.0669967 24.1092172,34.6756255 24.4895688,35.0521663 C24.6792583,35.2399553 24.9282865,35.3343312 25.1773146,35.3343312 C25.4263428,35.3343312 25.675371,35.2399553 25.8650604,35.0521663 L29.4711052,31.4822507 L25.8650604,27.912335 C25.4847088,27.5357942 24.8699205,27.5357942 24.4895688,27.912335 C24.1092172,28.2888759 24.1092172,28.8975046 24.4895688,29.2740455 Z" id="Fill-3" fill="#0079C7"></path>
                    <path d="M33.55225,12.8582647 L28.8985,12.8582647 L28.891,11.3102647 C28.891,10.6323824 28.35225,10.0835 27.69475,10.0898235 C27.03225,10.0898235 26.4935,10.6399706 26.49975,11.3102647 L26.4985,12.8582647 L9.35725,12.8582647 L9.34975,11.3102647 C9.34975,10.6323824 8.811,10.0835 8.1535,10.0898235 C7.48975,10.0898235 6.95225,10.6399706 6.9585,11.3102647 L6.956,12.8582647 L2.30975,12.8582647 L2.30975,9.71547059 C2.30975,9.07047059 2.54725,8.51779412 3.0085,8.03467647 C3.48225,7.56294118 4.02975,7.32138235 4.656,7.32138235 L31.206,7.32138235 C31.8385,7.32138235 32.38475,7.56294118 32.85225,8.03467647 C33.32725,8.51779412 33.55225,9.07047059 33.55225,9.71547059 L33.55225,12.8582647 Z M12.64225,4.75276471 C12.64225,4.10776471 12.87975,3.55508824 13.34225,3.07070588 C13.816,2.60023529 14.36225,2.35741176 14.9885,2.35741176 L20.87225,2.35741176 C21.50475,2.35741176 22.05225,2.60023529 22.51975,3.07070588 C22.9935,3.55508824 23.2185,4.10776471 23.2185,4.75276471 L23.2185,4.96397059 L12.63725,4.96397059 L12.64225,4.75276471 Z M31.206,4.96397059 L25.5285,4.96397059 L25.5285,4.75276471 C25.5285,3.46782353 25.061,2.35741176 24.14975,1.41394118 C23.231,0.476794118 22.13725,0 20.87225,0 L14.9885,0 C13.731,0 12.64225,0.476794118 11.7185,1.41394118 C10.801,2.35741176 10.3335,3.46782353 10.3335,4.75276471 L10.3335,4.96397059 L4.656,4.96397059 C3.39725,4.96397059 2.30975,5.44076471 1.386,6.37791176 C0.4685,7.32138235 -0.000249999998,8.43179412 -0.000249999998,9.71547059 L-0.000249999998,28.1295882 C-0.000249999998,29.4701765 0.4685,30.5932353 1.386,31.5050882 C2.30975,32.4295882 3.39725,32.8823529 4.656,32.8823529 L15.62475,32.8823529 L15.62475,30.5249412 L4.656,30.5249412 C4.02975,30.5249412 3.48225,30.3010882 3.0085,29.8483235 C2.54725,29.3892353 2.30975,28.8188529 2.30975,28.1295882 L2.30975,14.6693235 L6.9535,14.6693235 L6.95225,15.8455 C6.95225,16.5221176 7.491,17.0735294 8.14725,17.0659412 C8.81225,17.0659412 9.3785,16.5170588 9.371,15.8455 L9.366,14.6693235 L26.49475,14.6693235 L26.4935,15.8455 C26.4935,16.5221176 27.03225,17.0735294 27.68975,17.0659412 C28.3535,17.0659412 28.91975,16.5170588 28.9135,15.8455 L28.90725,14.6693235 L33.55225,14.6693235 L33.55225,18.7606471 L35.86225,18.7606471 L35.86225,9.71547059 C35.86225,8.43179412 35.3935,7.32138235 34.48225,6.37791176 C33.56475,5.44076471 32.46975,4.96397059 31.206,4.96397059 Z" id="Fill-6" fill="#0079C8"></path>
                    <path d="M16.09075,27.8718027 C16.4959782,25.3531396 18.3916306,21.1280989 23.28825,20.7190441 L19.77075,20.7190441 L19.77075,17.03875 L16.09075,17.03875 L16.09075,20.7190441 L12.48575,20.7190441 L12.48575,24.4752206 L16.09075,24.4752206 L16.09075,27.8718027 Z" id="Fill-9" fill="#0079C7"></path>
                </g>
            </g>
        </g>
    </g>
</svg>