<?xml version="1.0" encoding="UTF-8"?>
<svg width="40px" height="40px" viewBox="0 0 40 40" version="1.1" xmlns="http://www.w3.org/2000/svg" xmlns:xlink="http://www.w3.org/1999/xlink">
    <!-- Generator: Sketch 49.1 (51147) - http://www.bohemiancoding.com/sketch -->
    <title>linear</title>
    <desc>Created with Sketch.</desc>
    <defs></defs>
    <g id="HOME-22" stroke="none" stroke-width="1" fill="none" fill-rule="evenodd">
        <g id="home-D_02-Alertas" transform="translate(-291.000000, -489.000000)" fill="#FFFFFF" fill-rule="nonzero">
            <g id="linear" transform="translate(291.000000, 489.000000)">
                <path d="M20,40 C8.954305,40 0,31.045695 0,20 C0,8.954305 8.954305,0 20,0 C31.045695,0 40,8.954305 40,20 C40,31.045695 31.045695,40 20,40 Z M20,38 C29.9411254,38 38,29.9411254 38,20 C38,10.0588745 29.9411254,2 20,2 C10.0588745,2 2,10.0588745 2,20 C2,29.9411254 10.0588745,38 20,38 Z M21.05875,18.4375 C21.9375,18.65625 22.69125,18.9175 23.3325,19.21875 C23.96875,19.52 24.49625,19.87125 24.915,20.265 C25.3325,20.66375 25.64125,21.1125 25.84125,21.6125 C26.04125,22.1125 26.13875,22.67875 26.13875,23.3075 C26.13875,23.9525 26.0175,24.55 25.77875,25.10875 C25.54,25.66375 25.20125,26.15125 24.75875,26.57 C24.32125,26.9875 23.79375,27.33125 23.17625,27.5975 C22.55875,27.86375 21.875,28.03875 21.12125,28.12125 L21.12125,30.075 C21.12125,30.18375 21.0825,30.27375 21.0075,30.34 C20.9325,30.40625 20.84,30.44125 20.73,30.44125 L19.23,30.44125 C19.1325,30.44125 19.04625,30.40625 18.9725,30.34 C18.89875,30.27 18.85875,30.18375 18.85875,30.075 L18.85875,28.07875 C17.85875,27.9425 16.91375,27.6725 16.0225,27.26625 C15.13125,26.86375 14.26875,26.305 13.4325,25.59 C13.3625,25.52375 13.3225,25.4375 13.3075,25.34375 C13.2925,25.24625 13.31875,25.16 13.39,25.07875 L14.4375,23.66125 C14.465,23.61875 14.50375,23.5875 14.55125,23.56 C14.59875,23.5325 14.64875,23.5175 14.70375,23.5175 C14.75875,23.50625 14.80875,23.50625 14.85625,23.52875 C14.9025,23.54875 14.95,23.58 14.98875,23.6225 C15.66,24.22375 16.3125,24.6925 16.9425,25.02125 C17.5725,25.35 18.23125,25.56875 18.915,25.6775 L18.915,20.55625 C18.03625,20.32125 17.2825,20.06 16.65375,19.76375 C16.025,19.47125 15.505,19.12375 15.1025,18.725 C14.69625,18.32625 14.39875,17.8775 14.2075,17.3775 C14.01625,16.8775 13.91875,16.31125 13.91875,15.6825 C13.91875,15.0375 14.04,14.44375 14.2775,13.905 C14.51625,13.3625 14.85125,12.885 15.285,12.4675 C15.71875,12.05 16.2375,11.71 16.8475,11.4475 C17.4575,11.18625 18.125,11.02125 18.85125,10.955 L18.85125,9.9475 C18.85125,9.8375 18.89,9.745 18.965,9.67 C19.04,9.595 19.125,9.55625 19.2225,9.55625 L20.7225,9.55625 C20.83125,9.55625 20.92625,9.595 21,9.67 C21.07375,9.745 21.11375,9.8375 21.11375,9.9475 L21.11375,11.0175 C21.895,11.1275 22.63375,11.3375 23.3325,11.64625 C24.03125,11.955 24.7425,12.385 25.46875,12.93125 C25.55125,13.00125 25.5975,13.08375 25.61375,13.18875 C25.625,13.29 25.59875,13.38375 25.53125,13.46625 L24.53125,14.86125 C24.50375,14.91625 24.465,14.95875 24.4175,14.98625 C24.37,15.01375 24.32,15.02875 24.265,15.02875 C24.21,15.04375 24.16,15.04 24.1125,15.0175 C24.065,14.9975 24.01875,14.975 23.98,14.9475 C23.52625,14.565 23.0625,14.24875 22.58125,14.0025 C22.1,13.75625 21.5925,13.565 21.06125,13.42875 L21.06125,18.44 L21.05875,18.4375 Z M18.92125,17.9025 L18.92125,13.2975 C18.1825,13.38 17.5925,13.62125 17.15125,14.0275 C16.71375,14.43375 16.495,14.93 16.495,15.52 C16.495,15.97375 16.62,16.39875 16.86625,16.805 C17.10875,17.2075 17.79625,17.575 18.92125,17.9025 Z M21.05875,25.7775 C21.825,25.68 22.43375,25.43 22.87875,25.01625 C23.32375,24.60625 23.54625,24.09 23.54625,23.47375 C23.54625,22.92625 23.39375,22.4625 23.085,22.0875 C22.77625,21.7125 22.1,21.3725 21.06125,21.0675 L21.06125,25.77875 L21.05875,25.7775 Z" id="path-1"></path>
            </g>
        </g>
    </g>
</svg>