<?xml version="1.0" encoding="UTF-8"?>
<svg width="29px" height="32px" viewBox="0 0 29 32" version="1.1" xmlns="http://www.w3.org/2000/svg" xmlns:xlink="http://www.w3.org/1999/xlink">
    <!-- Generator: Sketch 49.1 (51147) - http://www.bohemiancoding.com/sketch -->
    <title>gift</title>
    <desc>Created with Sketch.</desc>
    <defs></defs>
    <g id="HOME-22" stroke="none" stroke-width="1" fill="none" fill-rule="evenodd">
        <g id="home-D_02-Alertas" transform="translate(-785.000000, -724.000000)" fill="#FB7C40" fill-rule="nonzero">
            <g id="gift" transform="translate(785.000000, 724.000000)">
                <path d="M3.149,32 C2.552,32 2.068,31.516 2.068,30.919 L2.068,17.516 L1.081,17.516 C0.484,17.516 0,17.032 0,16.435 L0,11.038 C0,10.441 0.484,9.957 1.081,9.957 L8.031,9.957 L6.831,9.285 C5.969,8.804 5.228,8.254 4.625,7.651 C3.775,6.801 3.256,5.72 3.172,4.607 C3.088,3.516 3.431,2.526 4.138,1.819 C4.769,1.191 5.644,0.844 6.61,0.844 C7.816,0.844 9.041,1.378 9.973,2.31 C11.857,4.191 12.826,7.026 13.304,9.073 L13.601,10.335 L13.995,9.097 C14.654,7.025 15.882,4.11 17.983,2.009 C19.261,0.731 20.858,0 22.367,0 C23.395,0 24.286,0.344 24.939,0.997 C25.758,1.819 26.095,3.06 25.861,4.403 C25.642,5.662 24.955,6.922 23.927,7.95 C23.452,8.428 22.905,8.881 22.311,9.303 L21.964,9.547 L22.37,9.953 L27.173,9.953 C27.77,9.953 28.254,10.437 28.254,11.034 L28.254,16.437 C28.254,17.034 27.77,17.518 27.173,17.518 L26.185,17.518 L26.185,30.918 C26.185,31.515 25.701,31.999 25.104,31.999 L3.151,31.999 L3.149,32 Z M15.833,30.644 L24.827,30.644 L24.827,16.994 L15.833,16.994 L15.833,30.644 Z M3.421,30.644 L12.415,30.644 L12.415,16.994 L3.421,16.994 L3.421,30.644 Z M15.833,16.166 L26.896,16.166 L26.896,11.313 L15.833,11.313 L15.833,16.166 Z M1.352,16.166 L12.411,16.166 L12.411,11.313 L1.352,11.313 L1.352,16.166 Z M22.365,1.613 C21.293,1.613 20.081,2.188 19.118,3.147 C17.274,4.994 16.165,7.616 15.562,9.488 L15.412,9.957 L17.609,9.957 L17.672,9.932 C19.831,9.098 21.553,8.048 22.788,6.81 C24.329,5.269 24.791,3.129 23.797,2.135 C23.363,1.704 22.778,1.613 22.366,1.613 L22.365,1.613 Z M4.777,4.484 C4.833,5.203 5.193,5.943 5.761,6.515 C6.902,7.653 8.698,8.587 10.958,9.215 C11.033,9.237 11.089,9.252 11.142,9.265 L11.733,9.415 L11.53,8.649 C10.902,6.383 9.967,4.586 8.83,3.446 C8.202,2.815 7.392,2.455 6.608,2.455 C6.23,2.455 5.692,2.542 5.277,2.958 C4.777,3.458 4.749,4.127 4.777,4.483 L4.777,4.484 Z" id="path-1"></path>
            </g>
        </g>
    </g>
</svg>