<?xml version="1.0" encoding="UTF-8"?>
<svg width="16px" height="16px" viewBox="0 0 16 16" version="1.1" xmlns="http://www.w3.org/2000/svg" xmlns:xlink="http://www.w3.org/1999/xlink">
    <!-- Generator: Sketch 49.1 (51147) - http://www.bohemiancoding.com/sketch -->
    <title>Group 7</title>
    <desc>Created with Sketch.</desc>
    <defs></defs>
    <g id="Symbols" stroke="none" stroke-width="1" fill="none" fill-rule="evenodd">
        <g id="aclaración" transform="translate(-7.000000, -3.000000)">
            <g id="Group-8" transform="translate(7.000000, 3.000000)">
                <g id="Group-7">
                    <path d="M4.05424968,13.8212778 L1,14.5 L2.22204973,11.2412007 C1.76018765,10.1920281 1.5,9.00590057 1.5,7.75 C1.5,3.46979319 4.52207794,0 8.25,0 C11.9779221,0 15,3.46979319 15,7.75 C15,12.0302068 11.9779221,15.5 8.25,15.5 C6.66428629,15.5 5.20628253,14.8722026 4.05424968,13.8212778 Z" id="Oval" fill="#FFFFFF"></path>
                    <path d="M8.13675,10.25 C7.647,10.25 7.25,10.64725 7.25,11.137 C7.25,11.627 7.647,12.024 8.13675,12.024 C8.6265,12.024 9.02375,11.627 9.02375,11.137 C9.02375,10.64725 8.6265,10.25 8.13675,10.25" id="Fill-150" fill="#0079C8"></path>
                    <path d="M8.13675,3.5 C7.647,3.5 7.25,3.897 7.25,4.387 L7.5455,9.06775 C7.5455,9.3945 7.81025,9.65925 8.13675,9.65925 C8.46325,9.65925 8.728,9.3945 8.728,9.06775 L9.02375,4.387 C9.02375,3.897 8.6265,3.5 8.13675,3.5" id="Fill-152" fill="#0079C7"></path>
                    <path d="M5.08575,0.60825 C4.12925,1.01475 3.298,1.574 2.59175,2.28 C1.8825,2.989 1.32025,3.81725 0.9045,4.76175 C0.489,5.70925 0.28425,6.721 0.28425,7.7905 C0.28425,8.518 0.38225,9.22725 0.58375,9.9055 C0.77925,10.58725 1.0575,11.21975 1.418,11.8005 L0,15.98475 L4.346,14.6125 C4.9145,14.915 5.51675,15.15025 6.1585,15.3215 C6.79425,15.49275 7.4575,15.57825 8.14225,15.57825 C9.23325,15.57825 10.251,15.3735 11.20475,14.96375 C12.15225,14.55425 12.9835,13.995 13.6985,13.292 C14.41375,12.589 14.97625,11.767 15.3855,10.8195 C15.79525,9.875 16,8.8635 16,7.7905 C16,6.721 15.79525,5.70925 15.3855,4.76175 C14.97625,3.81725 14.41375,2.989 13.6985,2.28 C12.9835,1.574 12.15225,1.01475 11.20475,0.60825 C10.251,0.20175 9.23325,0 8.14225,0 C7.05725,0 6.03925,0.20175 5.08575,0.60825 M6.2135,14.05 C5.59925,13.8635 5.03075,13.59775 4.52025,13.25225 L1.96825,14.05 L2.8025,11.62925 C2.4025,11.0915 2.0935,10.4955 1.8735,9.8415 C1.6535,9.1935 1.5435,8.509 1.5435,7.7905 C1.5435,6.883 1.7175,6.03325 2.063,5.2385 C2.4085,4.441 2.88225,3.747 3.48125,3.15425 C4.07725,2.56125 4.78,2.0905 5.58075,1.74825 C6.38475,1.40575 7.2345,1.23475 8.14225,1.23475 C9.056,1.23475 9.91175,1.40575 10.71575,1.74825 C11.51925,2.0905 12.21925,2.56125 12.8185,3.15425 C13.41725,3.747 13.888,4.441 14.2365,5.2385 C14.58175,6.03325 14.75625,6.883 14.75625,7.7905 C14.75625,8.69525 14.58175,9.545 14.2365,10.3335 C13.888,11.125 13.41725,11.816 12.8185,12.41175 C12.21925,13.00475 11.51925,13.4725 10.71575,13.81475 C9.91175,14.16 9.056,14.33125 8.14225,14.33125 C7.4665,14.33125 6.828,14.2365 6.2135,14.05" id="Fill-122" fill="#0079C7"></path>
                </g>
            </g>
        </g>
    </g>
</svg>