<?xml version="1.0" encoding="UTF-8"?>
<svg width="36px" height="31px" viewBox="0 0 36 31" version="1.1" xmlns="http://www.w3.org/2000/svg" xmlns:xlink="http://www.w3.org/1999/xlink">
    <!-- Generator: Sketch 49.1 (51147) - http://www.bohemiancoding.com/sketch -->
    <title>health-programs</title>
    <desc>Created with Sketch.</desc>
    <defs></defs>
    <g id="HOME-22" stroke="none" stroke-width="1" fill="none" fill-rule="evenodd">
        <g id="home-D_02-Alertas" transform="translate(-508.000000, -725.000000)" fill="#C5017E" fill-rule="nonzero">
            <g id="health-programs" transform="translate(507.000000, 724.000000)">
                <path d="M5.36470588,18.4913495 C3.8,16.8304499 2.57058824,15.5017301 2.23529412,15.0588235 C-0.223529414,10.6297578 1.45294117,5.0934256 5.7,2.54671281 C8.27058824,0.885813158 11.8470588,0.775086513 14.6411765,2.10380623 C16.4294117,2.87889272 17.6588234,4.31833911 19,5.64705882 C20.1176471,4.5397924 21.2352941,3.21107266 22.6882353,2.43598616 C25.0352941,0.996539784 28.1647059,0.664359868 30.7352941,1.66089965 C34.8705883,3.10034601 37.3294117,7.41868512 36.8823529,11.6262976 C36.4352941,11.4048443 35.8764705,11.2941176 35.3176471,11.2941176 C35.0941176,11.2941176 34.7588234,11.4048443 34.5352941,11.4048443 C34.6470588,10.0761246 34.5352941,8.74740484 33.8647059,7.52941176 C32.6352941,5.0934256 29.8411766,3.43252595 27.0470588,3.65397924 C24.7,3.87543253 23.1352941,5.31487889 21.5705883,6.8650519 C20.7882353,7.52941176 20.1176471,8.41522492 19.1117647,8.41522492 C18.1058824,8.41522492 17.5470588,7.8615917 16.8764705,7.19723183 C15.0882353,5.42560553 13.3,3.65397924 10.5058823,3.65397924 C6.70588234,3.65397924 3.46470588,6.8650519 3.46470588,10.5190311 C3.46470588,12.733564 4.58235295,14.3944636 6.14705883,15.9446366 C6.59411766,16.2768166 7.04117647,16.7197231 7.6,17.2733564 C6.70588234,17.4948096 5.92352941,17.8269896 5.36470588,18.4913495 Z M27.4941176,20.1522492 C27.9411766,20.8166089 28.6117646,21.3702423 29.3941176,21.9238754 C26.4882353,24.8027682 22.2411766,29.0103806 21.4588234,29.7854671 C20.7882353,30.449827 20.1176471,31.3356401 19,31.3356401 C17.9941176,31.3356401 17.3235295,30.449827 16.6529412,29.7854671 C16.2058824,29.4532872 13.6352941,26.9065743 10.8411765,24.1384083 C11.5117647,23.4740484 11.9588235,22.6989619 12.0705882,21.7024222 C15.2,24.8027682 18.4411766,27.9031142 19,28.4567475 C21.0117646,26.3529412 24.5882353,23.0311418 27.4941176,20.1522492 Z M35.2058824,13.5086505 C36.1,13.5086505 36.7705883,14.1730104 36.7705883,15.0588235 C36.7705883,15.9446366 35.9882353,16.7197231 35.0941176,16.7197231 C34.7588234,16.7197231 34.4235295,16.6089965 34.0882353,16.3875433 L32.4117646,17.4948096 C32.5235295,17.6055364 32.5235295,17.8269896 32.5235295,17.9377163 C32.5235295,18.8235294 31.7411766,19.5986159 30.8470588,19.5986159 C29.9529412,19.5986159 29.1705883,18.8235294 29.1705883,17.9377163 C29.1705883,17.716263 29.1705883,17.4948096 29.2823529,17.2733564 L26.0411766,14.3944636 C25.8176471,14.5051904 25.4823529,14.615917 25.2588234,14.615917 C25.0352941,14.615917 24.8117646,14.615917 24.5882353,14.5051904 L20.4529412,19.0449828 C20.5647059,19.266436 20.6764705,19.5986159 20.6764705,19.8200693 C20.6764705,20.7058824 19.8941176,21.4809688 19,21.4809688 C18.1058824,21.4809688 17.3235295,20.7058824 17.3235295,19.8200693 C17.3235295,19.5986159 17.3235295,19.4878893 17.4352941,19.266436 L13.9705882,16.3875433 C13.7470588,16.4982699 13.4117647,16.6089965 13.0764706,16.6089965 C12.8529412,16.6089965 12.7411765,16.6089965 12.5176471,16.4982699 L9.61176471,20.2629758 C9.72352941,20.484429 9.83529412,20.8166089 9.83529412,21.1487889 C9.83529412,22.0346022 9.05294117,22.8096887 8.15882353,22.8096887 C7.6,22.8096887 7.15294117,22.5882353 6.81764705,22.1453288 L4.35882353,22.8096887 C4.24705883,23.5847752 3.57647059,24.2491349 2.68235295,24.2491349 C1.78823529,24.2491349 1.00588234,23.4740484 1.00588234,22.5882353 C1.00588234,21.7024222 1.78823529,20.9273357 2.68235295,20.9273357 C3.35294117,20.9273357 3.8,21.2595155 4.13529412,21.7024222 L6.48235295,21.1487889 C6.59411766,20.2629758 7.26470588,19.5986159 8.15882353,19.5986159 C8.38235295,19.5986159 8.49411766,19.5986159 8.71764705,19.7093425 L11.6235294,15.9446366 C11.5117647,15.7231834 11.4,15.3910035 11.4,15.0588235 C11.4,14.1730104 12.1823529,13.397924 13.0764706,13.397924 C13.9705882,13.397924 14.7529412,14.1730104 14.7529412,15.0588235 C14.7529412,15.2802769 14.7529412,15.3910035 14.6411765,15.6124567 L18.1058824,18.4913495 C18.3294117,18.3806229 18.6647059,18.2698963 19,18.2698963 C19.2235295,18.2698963 19.4470588,18.2698963 19.6705883,18.3806229 L23.8058824,13.8408305 C23.6941176,13.6193771 23.5823529,13.2871972 23.5823529,13.0657439 C23.5823529,12.1799308 24.3647059,11.4048443 25.2588234,11.4048443 C26.1529412,11.4048443 26.9352941,12.1799308 26.9352941,13.0657439 C26.9352941,13.2871972 26.9352941,13.5086505 26.8235295,13.7301037 L29.9529412,16.6089965 C30.1764705,16.4982699 30.4,16.3875433 30.7352941,16.3875433 C31.0705883,16.3875433 31.5176471,16.4982699 31.7411766,16.7197231 L33.5294117,15.6124567 C33.5294117,15.3910035 33.5294117,15.2802769 33.5294117,15.1695501 C33.5294117,14.283737 34.3117646,13.5086505 35.2058824,13.5086505 Z" id="path-1"></path>
            </g>
        </g>
    </g>
</svg>