<?xml version="1.0" encoding="UTF-8"?>
<svg width="122px" height="101px" viewBox="0 0 122 101" version="1.1" xmlns="http://www.w3.org/2000/svg" xmlns:xlink="http://www.w3.org/1999/xlink">
    <!-- Generator: Sketch 49.1 (51147) - http://www.bohemiancoding.com/sketch -->
    <title>Group 4</title>
    <desc>Created with Sketch.</desc>
    <defs></defs>
    <g id="LICENCIAS-&gt;-CARO-2" stroke="none" stroke-width="1" fill="none" fill-rule="evenodd">
        <g id="003_licencias_dkt-bene" transform="translate(-565.000000, -711.000000)">
            <g id="Group-4" transform="translate(566.000000, 712.000000)">
                <path d="M20.6896552,79.1153533 L99.3103448,79.1153533 C89.2086797,92.3012455 76.1052314,98.8941916 60,98.8941916 C43.8947686,98.8941916 30.7913203,92.3012455 20.6896552,79.1153533 Z" id="Path-3" fill="#E2E2E3"></path>
                <path d="M58.7586207,99.7183099 C73.0232558,97.4756344 83.888108,90.8284263 91.3531774,79.7766855 C93.1462886,78.8949092 95.7986778,78.8949092 99.3103448,79.7766855 C92.8190567,86.9559557 87.0081035,91.9567947 81.8774852,94.7792025 C76.7468669,97.6016104 69.0405787,99.2479795 58.7586207,99.7183099 Z" id="Path-4" fill="#EEEEEE"></path>
                <ellipse id="Oval-10" stroke="#1697F3" stroke-width="2" cx="60.4137931" cy="49.4470958" rx="49.6551724" ry="49.4470958"></ellipse>
                <path d="M0.337078652,78.291235 L120,78.291235" id="Line-2" stroke="#1697F3" stroke-width="2" stroke-linecap="round" stroke-linejoin="round"></path>
                <polygon id="Path-5" fill="#DBF1FA" points="30.3195295 76.6429985 41.727543 76.6429985 41.727543 67.4613437 78.0230173 67.4613437 78.0230173 76.6429985 91.862069 76.6429985 91.862069 51.4878731 89.0052138 47.7409186 79.5059563 47.7409186 79.5059563 51.4878731 41.727543 51.4878731 41.727543 46.974741 34.046855 47.7409186 30.3195295 49.0339497 28.137931 53.7648554 28.8394445 75.9210561"></polygon>
                <g id="linear" transform="translate(27.310345, 18.954720)" fill="#1697F3" fill-rule="nonzero">
                    <path d="M50.2758621,60.1606332 L50.2758621,50.133861 L16.7586207,50.133861 L16.7586207,60.1606332 L3.35172414,60.1606332 C1.11724137,60.1606332 0,58.92276 0,56.4470139 L0,34.1652978 C0,30.0633473 3.00123602,26.7380592 6.70344828,26.7380592 L13.4068966,26.7380592 L13.4068966,0 L53.6275862,0 L53.6275862,26.7380592 L60.3310345,26.7380592 C64.0332467,26.7380592 67.0344828,30.0633473 67.0344828,34.1652978 L67.0344828,56.4470139 C67.0344828,60.1606332 63.6827586,60.1606332 63.6827586,60.1606332 L50.2758621,60.1606332 Z M53.6275862,30.0803166 L53.6275862,33.422574 L13.4068966,33.422574 L13.4068966,30.0803166 L6.70344828,30.0803166 C4.85234215,30.0803166 3.35172414,31.5766964 3.35172414,33.422574 L3.35172414,55.1472471 C3.35172414,56.0701861 4.10203316,56.8183758 5.02758621,56.8183758 L13.4068966,56.8183758 L13.4068966,48.4627323 C13.4068966,47.5397933 14.0994895,46.7916036 14.9538461,46.7916036 L52.0806365,46.7916036 C52.9349933,46.7916036 53.6275862,47.5397933 53.6275862,48.4627323 L53.6275862,56.8183758 L62.0068966,56.8183758 C62.9324497,56.8183758 63.6827586,56.0701861 63.6827586,55.1472471 L63.6827586,33.422574 C63.6827586,31.5766964 62.1821404,30.0803166 60.3310345,30.0803166 L53.6275862,30.0803166 Z M16.7586207,3.3422574 L16.7586207,30.0803166 L50.2758621,30.0803166 L50.2758621,3.3422574 L16.7586207,3.3422574 Z M20.1103448,20.0535444 L36.8689655,20.0535444 L36.8689655,23.3958018 L20.1103448,23.3958018 L20.1103448,20.0535444 Z M20.1103448,13.3690296 L46.9241379,13.3690296 L46.9241379,16.711287 L20.1103448,16.711287 L20.1103448,13.3690296 Z M20.1103448,6.6845148 L46.9241379,6.6845148 L46.9241379,10.0267722 L20.1103448,10.0267722 L20.1103448,6.6845148 Z M57.8172414,36.7648314 C59.1682051,36.7648314 60.3310345,37.9303638 60.3310345,39.2715245 C60.3310345,40.6186724 59.1622008,41.7782175 57.8172414,41.7782175 C56.4662777,41.7782175 55.3034483,40.6126851 55.3034483,39.2715245 C55.3034483,37.9303638 56.4662777,36.7648314 57.8172414,36.7648314 Z M20.1103448,53.4761184 L46.9241379,53.4761184 L46.9241379,60.1606332 L20.1103448,60.1606332 L20.1103448,53.4761184 Z" id="path-1"></path>
                </g>
            </g>
        </g>
    </g>
</svg>