<?xml version="1.0" encoding="UTF-8"?>
<svg width="122px" height="102px" viewBox="0 0 122 102" version="1.1" xmlns="http://www.w3.org/2000/svg" xmlns:xlink="http://www.w3.org/1999/xlink">
    <!-- Generator: Sketch 49.1 (51147) - http://www.bohemiancoding.com/sketch -->
    <title>Group 5</title>
    <desc>Created with Sketch.</desc>
    <defs></defs>
    <g id="LICENCIAS-&gt;-CARO-2" stroke="none" stroke-width="1" fill="none" fill-rule="evenodd">
        <g id="003_licencias_dkt-bene" transform="translate(-795.000000, -711.000000)">
            <g id="Group-5" transform="translate(796.000000, 712.000000)">
                <g id="linear" opacity="0.5" transform="translate(19.550562, 13.475447)" fill="#767676" fill-rule="nonzero">
                    <path d="M14.9157303,64.85059 L32.6123596,64.85059 L32.6123596,61.3132851 L14.9157303,61.3132851 L14.9157303,64.85059 Z M14.9157303,56.0073278 L52.0786517,56.0073278 L52.0786517,52.4700228 L14.9157303,52.4700228 L14.9157303,56.0073278 Z M14.9157303,47.1640655 L52.0786517,47.1640655 L52.0786517,43.6267606 L14.9157303,43.6267606 L14.9157303,47.1640655 Z M14.9157303,38.3208032 L52.0786517,38.3208032 L52.0786517,34.7834983 L14.9157303,34.7834983 L14.9157303,38.3208032 Z M14.9157303,29.4775409 L36.1516854,29.4775409 L36.1516854,25.940236 L14.9157303,25.940236 L14.9157303,29.4775409 Z M14.9157303,20.6342786 L36.1516854,20.6342786 L36.1516854,17.0969737 L14.9157303,17.0969737 L14.9157303,20.6342786 Z M6.06741573,71.9251998 L6.06741573,8.25371146 C6.06741573,6.26397745 7.61587079,4.71640655 9.60674157,4.71640655 L44.3275295,4.71640655 C44.9911531,4.71640655 45.6547767,4.9374881 46.0971924,5.37965122 L62.0330056,21.2975233 C62.4754213,21.7396864 62.6966292,22.4029311 62.6966292,23.0661758 L62.6966292,71.9251998 C62.6966292,73.9149339 61.1481742,75.4625048 59.1573034,75.4625048 L9.60674157,75.4625048 C7.61587079,75.4625048 6.06741573,73.9149339 6.06741573,71.9251998 Z M59.1573034,70.8197921 L59.1573034,25.621878 C59.1573034,24.9586334 58.7148876,24.5253137 58.051264,24.5253137 L44.3363764,24.5253137 C42.5667135,24.5253137 41.4606742,23.0661758 41.4606742,21.2975233 L41.4606742,9.35911924 C41.4606742,8.69587457 41.0182584,8.25371146 40.3546348,8.25371146 L10.7127809,8.25371146 C10.0491573,8.25371146 9.60674157,8.69587457 9.60674157,9.35911924 L9.60674157,70.8197921 C9.60674157,71.4830367 10.0491573,71.9251998 10.7127809,71.9251998 L58.051264,71.9251998 C58.4936798,71.9251998 59.1573034,71.4830367 59.1573034,70.8197921 Z M57.3876404,21.341739 L45,8.96117262 L45,20.0329365 C45,20.6961812 45.4335688,21.341739 46.0971924,21.341739 L57.3876404,21.341739 Z" id="path-1" transform="translate(34.382022, 40.089456) rotate(-10.000000) translate(-34.382022, -40.089456) "></path>
                </g>
                <polygon id="Path-7" fill="#FFFFFF" points="50.1495181 11.9747898 72.4392085 11.9747898 75.4861024 11.9747898 77.7666777 15.3002017 77.7666777 43.8219682 79.9280166 43.8219682 83.1959458 47.2368742 85.7432716 51.8104932 90.8930644 55.9069675 91.5241225 61.7066555 91.5241225 69.8374291 93.8673795 78.6488288 71.1158244 78.6488288 68.4063745 73.8599529 66.9401894 71.6419125 62.0156736 71.6419125 59.2916138 72.5071791 57.2749612 71.0639691 57.2749612 68.7333546 58.3438483 65.8718989 50.1495181 65.8718989 46.7369027 62.7612727 45.9955625 60.0434785 46.7369027 14.7877303 48.2652982 12.8687886"></polygon>
                <polygon id="Path-6" fill="#DBF1FA" points="50.8128293 19.2410073 50.8128293 46.0291925 51.5899256 47.6289281 73.5019317 47.6289281 74.2579113 46.0291925 74.2579113 25.6006951 66.7090958 17.9819014 51.5899256 17.9819014"></polygon>
                <path d="M50.6434357,10.1065855 L73.0953976,10.1065855 C74.6852266,10.1065855 76.1273453,10.7553626 77.1690915,11.8003988 C78.2147247,12.8415501 78.8638725,14.2828454 78.8638725,15.8678818 L78.8638725,41.3683194 C81.7636585,42.5182477 83.0969381,44.8608382 84.4107821,47.1684646 C85.3125922,48.753501 86.202741,50.3229977 87.5943272,51.15048 C88.9975748,51.985732 90.2297895,52.9453005 91.1277125,54.126308 C92.0917164,55.396668 92.6436864,56.8768122 92.5814926,58.6560932 C92.3560401,65.2137926 92.9002358,68.2284696 93.8370299,73.4614204 C94.1402247,75.1435791 94.4861777,77.0549465 94.8476792,79.323724 C95.360778,80.7067459 94.8982116,81.9693361 93.7748361,83.0687608 C92.9702038,83.861279 91.7807474,84.5644446 90.3930482,85.1471786 C89.0753171,85.7066032 87.5671174,86.1650205 86.0589178,86.4913515 C81.6820291,87.4392654 76.9941714,87.237251 75.7153114,85.240416 C75.6531176,85.1394088 75.6025851,85.0306318 75.563714,84.9257397 C75.4626491,84.6343727 75.3266001,84.2769625 75.1672285,83.8690488 L74.7318719,82.7735089 C73.0953976,81.4215662 71.4200521,79.9647313 69.9079653,78.3486158 C68.4541852,76.7985435 67.1714381,75.1202697 66.2424182,73.2866002 C64.7769768,73.0807009 63.9878929,73.2205571 62.6040809,73.4691902 C62.0015785,73.5740823 61.3096724,73.7022838 60.6449762,73.7994061 C58.5692581,74.1101976 57.04551,73.0535067 56.2253293,71.553938 C55.8793762,70.9284702 55.6694722,70.2175348 55.6033913,69.5027145 C55.5373103,68.7684697 55.6189397,68.0225702 55.8677149,67.3543686 L55.9260216,67.2183974 C55.9804412,67.0901959 56.0387479,66.9619944 56.1009417,66.8376779 L50.6434357,66.8376779 C49.0574938,66.8376779 47.615375,66.1889007 46.5736289,65.1477494 C45.5279956,64.1027132 44.8788478,62.6614179 44.8788478,61.0763816 L44.8788478,15.8678818 C44.8788478,14.2828454 45.5279956,12.8415501 46.5736289,11.8003988 C47.615375,10.7553626 49.0574938,10.1065855 50.6434357,10.1065855 Z M78.8638725,56.9817043 L81.6859162,59.8060216 C82.3117413,60.4276044 82.3156284,61.4376766 81.6936904,62.0631444 C81.0717524,62.6886122 80.0572161,62.692497 79.431391,62.0709142 L76.1273453,58.7687551 C74.4364514,57.3391145 72.6444925,55.9172437 70.7709043,54.5109124 C68.7651542,53.0035739 66.6350166,51.4845808 64.4077011,49.950048 C63.3387452,49.2158032 62.401951,49.1264507 61.7217064,49.4139328 C61.4185116,49.5421343 61.1541879,49.7480336 60.9442839,50.0083214 C60.7266056,50.2802639 60.571121,50.60271 60.4933788,50.9445806 C60.326233,51.7060197 60.5400241,52.5956602 61.2980111,53.3299049 C63.3231967,55.2917759 65.0918329,57.1099058 66.7399686,59.0212732 C68.240394,60.7655901 69.6319803,62.5876049 71.0157924,64.6660227 C71.3151,64.8913465 71.5288912,65.2293322 71.5833108,65.6255913 C71.6299561,65.7693323 71.6571659,65.9208431 71.6571659,66.0762388 C71.6571659,66.1383971 71.6532788,66.2044403 71.6455046,66.2665986 C71.86707,68.4188293 72.2324586,70.0543693 72.8816064,71.4645854 C73.5773995,72.9835786 74.6346941,74.3277516 76.220636,75.873939 C76.7959287,76.4333636 76.80759,77.3540832 76.2478458,77.9329323 C75.6881016,78.5078964 74.7668559,78.5195511 74.1876762,77.9601265 C72.349072,76.165306 71.1013088,74.5569603 70.2344828,72.6727872 C69.5464638,71.1693336 69.1227686,69.5415634 68.8584449,67.5486133 L59.8481181,67.6146565 C59.1989703,67.6185414 58.806372,67.9060234 58.6314519,68.2945127 L58.6042421,68.3683257 C58.5070643,68.6363833 58.4720803,68.939405 58.4992901,69.2385417 C58.530387,69.5648728 58.6236777,69.883434 58.7791622,70.1631463 C59.0512601,70.6642975 59.5526976,71.0178227 60.2212809,70.9168155 C61.0725586,70.7886141 61.6206414,70.6914917 62.090982,70.6060241 C64.0423125,70.2563837 65.025752,70.0815635 67.4979555,70.5438658 C67.9488606,70.6332183 68.3531203,70.9284702 68.5552501,71.3830027 C69.3598824,73.1817081 70.5959842,74.8366726 72.0303287,76.3673204 C73.4763346,77.9135078 75.1516801,79.3548031 76.7920416,80.702861 C77.0097199,80.8582567 77.188527,81.0758107 77.2973662,81.3438683 L77.8804331,82.808473 L78.2458216,83.7758113 C78.9921472,84.5450201 82.2262249,84.3391208 85.444754,83.643725 C86.8130176,83.3445882 88.1424101,82.9444442 89.2657856,82.4704873 C90.3230802,82.0237246 91.1976805,81.5186885 91.7341021,80.9942279 C92.0139742,80.7184005 92.1655715,80.4775372 92.111152,80.3066019 C92.0567324,80.1900551 92.0217484,80.0657385 91.9984257,79.9336522 C91.6213758,77.5599825 91.2754228,75.6525001 90.9761151,73.9703414 C90.0004499,68.5470308 89.4368186,65.415807 89.6739324,58.5667407 C89.7089164,57.5100498 89.382399,56.632064 88.8109934,55.8822796 C88.173507,55.0392578 87.2172773,54.3127829 86.101676,53.6445813 C84.0531677,52.4286098 82.9725505,50.5250122 81.8802718,48.605875 C81.0406555,47.1296157 80.193265,45.6417017 78.8638725,44.6821331 L78.8638725,56.9817043 Z M75.944651,54.8450132 L75.944651,42.4211254 L75.944651,15.8678818 C75.944651,15.0870183 75.6220207,14.3760829 75.1050347,13.8593921 C74.5919359,13.3465862 73.8767072,13.0241401 73.0953976,13.0241401 L50.6434357,13.0241401 C49.8621261,13.0241401 49.1507845,13.3465862 48.6337985,13.8593921 C48.1206997,14.3760829 47.7980693,15.0870183 47.7980693,15.8678818 L47.7980693,61.0763816 C47.7980693,61.8572451 48.1206997,62.5681805 48.6337985,63.0848712 C49.1507845,63.5976771 49.8621261,63.9201232 50.6434357,63.9201232 L66.9343242,63.9201232 C66.1530146,62.875087 65.3600437,61.8805544 64.5243145,60.9132161 L64.4932176,60.878252 C63.7857631,61.4804104 62.8684045,61.8455904 61.8733037,61.8455904 C60.7577025,61.8455904 59.7431661,61.3910579 59.0085018,60.6568131 C58.2738376,59.9264532 57.8190454,58.9124962 57.8190454,57.793647 C57.8190454,56.7291863 58.2310793,55.7579631 58.9074369,55.035373 C57.6402382,53.5901928 57.3137208,51.8536456 57.6557867,50.3191129 C57.8307067,49.5304796 58.184434,48.7962348 58.6780973,48.1863066 C62.5963067,43.3146508 69.033365,49.5654436 72.5162178,52.1838615 C73.7017871,53.073502 74.8445982,53.9631425 75.944651,54.8450132 Z M63.2026962,59.4291869 C62.2853377,58.4307694 61.3213338,57.4362368 60.2834747,56.4106251 C59.9608444,56.7835748 59.7664888,57.2653015 59.7664888,57.793647 C59.7664888,58.3763809 59.9997155,58.9047264 60.3806525,59.2854459 C60.7615896,59.6661654 61.2902369,59.899259 61.8733037,59.899259 C62.3786284,59.899259 62.8411948,59.7205539 63.2026962,59.4291869 Z" id="Shape" fill="#1697F3" fill-rule="nonzero"></path>
                <g id="linear" transform="translate(49.887640, 17.518081)" fill="#1697F3" fill-rule="nonzero">
                    <path d="M3.89747191,26.3444994 L11.6924157,26.3444994 L11.6924157,24.794823 L3.89747191,24.794823 L3.89747191,26.3444994 Z M3.89747191,22.4703083 L20.2668539,22.4703083 L20.2668539,20.9206319 L3.89747191,20.9206319 L3.89747191,22.4703083 Z M3.89747191,18.5961172 L20.2668539,18.5961172 L20.2668539,17.0464408 L3.89747191,17.0464408 L3.89747191,18.5961172 Z M3.89747191,14.7219262 L20.2668539,14.7219262 L20.2668539,13.1722497 L3.89747191,13.1722497 L3.89747191,14.7219262 Z M3.89747191,10.8477351 L13.2514045,10.8477351 L13.2514045,9.29805862 L3.89747191,9.29805862 L3.89747191,10.8477351 Z M3.89747191,6.97354397 L13.2514045,6.97354397 L13.2514045,5.42386753 L3.89747191,5.42386753 L3.89747191,6.97354397 Z M0,29.4438523 L0,1.54967644 C0,0.677983441 0.682057584,0 1.55898876,0 L16.8526692,0 C17.1449796,0 17.4372899,0.0968547773 17.6321635,0.290564332 L24.6515098,7.2641083 C24.8463834,7.45781785 24.9438202,7.74838219 24.9438202,8.03894652 L24.9438202,29.4438523 C24.9438202,30.3155453 24.2617626,30.9935287 23.3848315,30.9935287 L1.55898876,30.9935287 C0.682057584,30.9935287 0,30.3155453 0,29.4438523 Z M23.3848315,28.9595784 L23.3848315,9.15858751 C23.3848315,8.86802318 23.1899579,8.67818789 22.8976475,8.67818789 L16.856566,8.67818789 C16.0770716,8.67818789 15.5898876,8.03894652 15.5898876,7.2641083 L15.5898876,2.03395032 C15.5898876,1.74338599 15.395014,1.54967644 15.1027037,1.54967644 L2.04617275,1.54967644 C1.75386236,1.54967644 1.55898876,1.74338599 1.55898876,2.03395032 L1.55898876,28.9595784 C1.55898876,29.2501427 1.75386236,29.4438523 2.04617275,29.4438523 L22.8976475,29.4438523 C23.0925211,29.4438523 23.3848315,29.2501427 23.3848315,28.9595784 Z M22.6053371,7.28347896 L17.1488764,1.8596118 L17.1488764,6.71009885 C17.1488764,7.00066318 17.3398532,7.28347896 17.6321635,7.28347896 L22.6053371,7.28347896 Z" id="path-1"></path>
                </g>
                <path d="M20.9084239,79.0745957 L99.8234733,79.0745957 C89.683987,92.4839023 76.5314788,99.1885555 60.3659486,99.1885555 C44.2004184,99.1885555 31.0479102,92.4839023 20.9084239,79.0745957 Z" id="Path-3" fill="#E2E2E3"></path>
                <path d="M59.1703208,99.1855221 C73.4042836,96.9705803 84.2457738,90.405574 91.6947915,79.4905032 C93.4840471,78.6196312 96.130733,78.6196312 99.6348492,79.4905032 C93.1575188,86.5809918 87.3590605,91.5199886 82.2394743,94.3074936 C77.119888,97.0949985 69.4301702,98.721008 59.1703208,99.1855221 Z" id="Path-4" fill="#EEEEEE"></path>
                <ellipse id="Oval-10" stroke="#1697F3" stroke-width="2" cx="60.3370787" cy="49.5222687" rx="49.5505618" ry="49.5222687"></ellipse>
                <path d="M0.337078652,78.4944804 L120,78.4944804" id="Line-2" stroke="#1697F3" stroke-width="2" stroke-linecap="round" stroke-linejoin="round"></path>
            </g>
        </g>
    </g>
</svg>