<?xml version="1.0" encoding="UTF-8"?>
<svg width="122px" height="101px" viewBox="0 0 122 101" version="1.1" xmlns="http://www.w3.org/2000/svg" xmlns:xlink="http://www.w3.org/1999/xlink">
    <!-- Generator: Sketch 49.1 (51147) - http://www.bohemiancoding.com/sketch -->
    <title>Group 3</title>
    <desc>Created with Sketch.</desc>
    <defs></defs>
    <g id="LICENCIAS-&gt;-CARO-2" stroke="none" stroke-width="1" fill="none" fill-rule="evenodd">
        <g id="003_licencias_dkt-bene" transform="translate(-345.000000, -711.000000)">
            <g id="Group-3" transform="translate(346.000000, 712.000000)">
                <path d="M21.1267606,79.4366197 L99.7183099,79.4366197 C89.6203888,92.9577465 76.5217973,99.7183099 60.4225352,99.7183099 C44.3232732,99.7183099 31.2246816,92.9577465 21.1267606,79.4366197 Z" id="Path-3" fill="#E2E2E3"></path>
                <path d="M59.1549296,98.8732394 C73.4236649,96.6655345 84.2916401,90.1219778 91.7588552,79.2425693 C93.5524819,78.3745426 96.2056334,78.3745426 99.7183099,79.2425693 C93.2251559,86.3098914 87.4125324,91.2327513 82.2804393,94.0111487 C77.1483463,96.7895462 69.4398431,98.4102431 59.1549296,98.8732394 Z" id="Path-4" fill="#EEEEEE"></path>
                <circle id="Oval-10" stroke="#1697F3" stroke-width="2" cx="60.4225352" cy="49.4366197" r="49.4366197"></circle>
                <path d="M0.337078652,78.5915493 L120,78.5915493" id="Line-2" stroke="#1697F3" stroke-width="2" stroke-linecap="round" stroke-linejoin="round"></path>
                <g id="download-2" transform="translate(46.478873, 27.887324)" fill="#1697F3" fill-rule="nonzero">
                    <path d="M23.5920069,10.9744938 L14.2008015,20.3648581 C13.7069703,20.8586892 12.9077546,20.8586892 12.4130822,20.3648581 L2.87465277,10.8264287 C2.40690125,10.3586771 2.40690125,9.59900151 2.87465277,9.13040871 C3.3424043,8.66181592 4.10207988,8.66265719 4.57067267,9.13040871 L12.0345063,16.5942423 L12.0345063,1.19882359 C12.0345063,0.53673646 12.5704014,0 13.2333298,0 C13.8962583,0 14.4321535,0.535895175 14.4321535,1.19882359 L14.4321535,16.7439901 L21.8959871,9.2801565 C22.3637385,8.81240498 23.1234141,8.81240498 23.5920069,9.2801565 C24.0605998,9.74790802 24.0597585,10.5050598 23.5920069,10.9728112 L23.5920069,10.9744938 Z M3.65392244,19.5182769 L3.63717493,21.8208427 C3.63174364,22.5675741 4.23268616,23.1773225 4.97941763,23.1827538 C4.98269564,23.1827777 4.98597374,23.1827896 4.98925184,23.1827896 L21.8501133,23.1827896 C22.5968645,23.1827896 23.2022259,22.5774281 23.2022259,21.8306769 L23.2022259,19.0189866 C23.2022259,18.2722354 23.8075875,17.6668739 24.5543386,17.6668739 L25.2770146,17.6668739 C26.0237659,17.6668739 26.6291273,18.2722354 26.6291273,19.0189866 L26.6291273,24.3380282 C26.6291273,25.8315306 25.4184043,27.0422535 23.9249019,27.0422535 L2.70422535,27.0422535 C1.21072293,27.0422535 0,25.8315306 0,24.3380282 L0,19.5084427 C0,18.7616914 0.605361465,18.1563301 1.35211268,18.1563301 L2.30184553,18.1563301 C3.04859674,18.1563301 3.65395821,18.7616914 3.65395821,19.5084427 C3.65395821,19.5117208 3.65394628,19.5149989 3.65392244,19.5182769 Z" id="path-1"></path>
                </g>
                <g id="laptop" transform="translate(12.676056, 18.591549)">
                    <polygon id="Path-2" fill="#DBF1FA" points="17.6308015 43.6390363 76.6208765 43.6390363 92.6091924 56.1813414 91.3877739 58.8371554 3.34780557 58.8371554 1.35650955 56.1813414"></polygon>
                    <path d="M61.4445415,54.795124 L32.4819186,54.795124 C31.650805,54.795124 30.9750573,54.1180031 30.9750573,53.2831068 C30.9750573,52.4482105 31.650805,51.7710896 32.4819186,51.7710896 L61.4445415,51.7710896 C62.2756548,51.7710896 62.9514029,52.4482105 62.9514029,53.2831068 C62.9514029,54.1180031 62.2756548,54.795124 61.4445415,54.795124 Z M90.7740523,56.7372677 C90.687946,56.9842617 90.4988862,56.9842617 90.4277551,56.9842617 L4.22124972,56.9842617 C4.14918243,56.9842617 3.96012283,56.9842617 3.87588835,56.7372677 C3.79071796,56.4893345 3.93953221,56.3719419 3.99662445,56.3287415 L18.2294442,45.1623541 C18.292152,45.1125799 18.3717069,45.0853447 18.4531335,45.0853447 L76.1949354,45.0853447 C76.276362,45.0853447 76.3568525,45.1125799 76.4214322,45.1632933 L90.6533163,56.3278022 C90.7085366,56.3719419 90.858287,56.4893345 90.7740523,56.7372677 Z M19.025928,5.50994058 C19.025928,4.62902626 19.7962055,3.85705232 20.6731801,3.85705232 L73.9748886,3.85705232 C74.8537352,3.85705232 75.6230765,4.62902626 75.6230765,5.50994058 L75.6230765,9.25617423 L75.6230765,35.4957752 L75.6230765,39.5725867 C75.6230765,40.4535011 74.8537352,41.2254747 73.9748886,41.2254747 L20.6731801,41.2254747 C19.7962055,41.2254747 19.025928,40.4535011 19.025928,39.5725867 L19.025928,5.50994058 Z M93.0231131,53.2868633 L78.8230511,42.1477111 C79.2348641,41.3729198 79.4669771,40.4938838 79.4669771,39.5725867 L79.4669771,35.4957752 L79.4669771,9.25617423 L79.4669771,5.50994058 C79.4669771,2.4248622 77.0522551,0 73.9748886,0 L20.6731801,0 C17.5995574,0 15.1820278,2.42298395 15.1820278,5.50994058 L15.1820278,39.5725867 C15.1820278,40.513606 15.4281796,41.3785548 15.8268895,42.1467724 L1.62682767,53.2868633 C0.188289892,54.4147717 -0.35736234,56.2630015 0.236958711,57.9938383 C0.832215709,59.7256142 2.39616927,60.8450704 4.22124972,60.8450704 L90.4277551,60.8450704 C92.2528354,60.8450704 93.8167891,59.7265535 94.4101741,57.9938383 C95.0054312,56.2630015 94.4607146,54.4147717 93.0231131,53.2868633 Z" id="path-1" fill="#1697F3" fill-rule="nonzero"></path>
                </g>
            </g>
        </g>
    </g>
</svg>